<svg xmlns="http://www.w3.org/2000/svg" version="1.1" xmlns:xlink="http://www.w3.org/1999/xlink" viewBox="0 0 800 800" style="overflow: hidden; display: block;" width="800" height="800"><defs></defs><g id="two-0" transform="matrix(1 0 0 1 0 0)" opacity="1"></g><path d="M 407.84530391953797 237.7021712007202 Q 407.84530391953797 237.7021712007202 399.3408622984633 229.20450331361099 390.8364206773886 220.7068354265018 386.82029494586953 215.53623305864988 382.80416921435045 210.36563069079796 381.0975732623888 200.29258591550428 379.39097731042716 190.2195411402106 378.58002936525315 185.19648534775314 377.7690814200792 180.1734295552957 379.3537782302527 172.75570150060557 380.93847504042617 165.33797344591542 384.7086844896145 155.02122585273204 388.4788939388028 144.70447825954867 392.9175484315801 134.88675852930191 397.3562029243574 125.06903879905518 398.8234934034069 120.17362537795574 400.2907838824564 115.27821195685631 401.4065494402232 105.25373979690616 402.52231499799 95.22926763695602 400.38311335106664 86.82897508988088 398.24391170414333 78.42868254280576 393.6164150341913 72.51725551975466 388.98891836423917 66.60582849670354 381.0560968226744 63.33659674458152 373.12327528110967 60.0673649924595 366.9123670017245 60.06483670019793 360.7014587223393 60.06230840793636 354.2941480736462 61.29662894079233 347.88683742495317 62.530949473648306 339.61939826637285 66.15461507067725 331.35195910779254 69.7782806677062 321.9175436685657 77.56956296832747 312.48312822933894 85.36084526894875 304.93174518160265 93.63849268001223 297.3803621338664 101.91614009107573 293.9459778904248 108.78631809804375 290.51159364698316 115.65649610501175 288.78992884768354 120.81105994677742 287.06826404838387 125.96562378854307 286.5968932885902 135.79675087673758 286.1255225287966 145.62787796493208 287.6136652613516 156.16523530544254 289.1018079939067 166.70259264595296 292.4204266621781 175.5115987931964 295.7390453304496 184.3206049404399 299.29075099211855 189.51580456255374 302.8424566537875 194.71100418466762 306.74996211206 198.92655954873578 310.6574675703325 203.14211491280392 315.46234640085913 208.05632012306626 320.2672252313858 212.97052533332857 326.35146824129924 218.850269566929 332.4357112512127 224.73001380052946 336.4939382557251 230.04358034669457 340.5521652602375 235.35714689285965 342.98932709671635 240.92015616983372 345.4264889331952 246.48316544680782 346.7892552064557 251.75004072887072 348.15202147971627 257.0169160109336 348.29604516963593 262.51330280211454 348.44006885955565 268.0096895932955 346.7024077570979 273.4613983158705 344.9647466546401 278.91310703844556 342.01469639015596 282.0470279116106 339.0646461256718 285.18094878477564 339.06009370378104 285.1788810674525 339.0555412818902 285.1768133501294 339.0509888599994 285.1747456328063 339.0464364381086 285.1726779154832 339.6229492075929 282.5148052110893 340.1994619770772 279.8569325066954 339.48068691685404 274.42049777983567 338.7619118566309 268.98406305297596 336.456689485792 262.47878891094854 334.1514671149531 255.97351476892115 331.1800410097469 250.07265698207095 328.20861490454075 244.17179919522079 324.8080072423159 239.36672895199354 321.40739958009107 234.56165870876626 316.11426961330574 228.5887505737282 310.8211396465204 222.6158424386901 305.48914842030433 217.60256305182997 300.1571571940882 212.58928366496983 295.7968003175617 207.61295776191156 291.4364434410352 202.63663185885332 286.8679214784298 196.12073041671528 282.29939951582446 189.60482897457726 280.624414640953 184.56131888721603 278.9494297660815 179.51780879985478 277.79798306543614 174.06290541339214 276.64653636479085 168.6080020269295 275.75662443221404 161.92095988849007 274.8667124996373 155.23391775005064 275.05759892764104 150.06759478088077 275.24848535564485 144.90127181171093 275.95634105324893 138.73928258446887 276.66419675085297 132.57729335722678 278.12646804648074 127.69309729684775 279.5887393421085 122.80890123646873 282.22868073975496 117.74887141839633 284.86862213740136 112.68884160032393 288.86341821777125 105.441536442542 292.85821429814115 98.1942312847601 299.953874337682 88.83788851583984 307.0495343772229 79.48154574691956 316.4951531093468 69.8648576483201 325.9407718414706 60.24816954972062 335.1797797709258 54.079129006493275 344.41878770038096 47.910088463265936 352.2859545319231 45.93644172325037 360.15312136346523 43.9627949832348 369.1122410936408 43.49557173409602 378.0713608238164 43.028348484957235 384.2031866741655 45.09104921184465 390.33501252451464 47.15374993873206 396.28233260861504 50.98927938180509 402.22965269271543 54.824808824878126 405.73847032270726 59.21404491040363 409.24728795269914 63.60328099592914 411.6520822461732 68.4727528701356 414.0568765396473 73.34222474434203 415.86490448043753 79.52145543816971 417.67293242122776 85.70068613199739 417.9170612715079 91.02357377293828 418.161190121788 96.34646141387915 417.63275670885105 102.87478957109359 417.104323295914 109.40311772830802 415.7861660977462 114.70174563295564 414.4680088995785 120.00037353760324 412.4605866058364 125.5113042345964 410.45316431209426 131.02223493158957 405.4792053136368 140.71855230106405 400.5052463151793 150.41486967053854 396.3316108315473 159.29938590571095 392.15797534791534 168.18390214088336 390.2859915614878 178.46280916482993 388.4140077750602 188.74171618877654 389.7205166810202 197.0205059180872 391.0270255869801 205.29929564739786 394.1005583446883 210.7255552142078 397.1740911023965 216.15181478101772 402.5178176636949 226.92115662901597 407.8615442249933 237.6904984770142 407.8534240722656 237.6963348388672 Z" fill="hsl(0, 0%, 0%)"></path><path d="M 355.48749770405914 188.48032306316722 Q 355.48749770405914 188.48032306316722 354.3425857883333 181.57841592320148 353.1976738726074 174.67650878323576 352.8688032877035 168.6564860112204 352.5399327027995 162.63646323920503 351.7303963519612 154.19018719591332 350.9208600011229 145.74391115262165 348.82780035518016 137.60870663928944 346.7347407092374 129.47350212595722 343.1467080831183 122.26524515917558 339.5586754569992 115.05698819239394 334.6630598054808 111.14493746193472 329.76744415396246 107.23288673147549 322.7776802473761 106.9191555064842 315.7879163407898 106.60542428149293 309.60210340709017 108.27899933812336 303.4162904733905 109.9525743947538 300.0632783130036 114.48316520743882 296.71026615261667 119.01375602012382 297.00104687576413 126.37699145053314 297.29182759891154 133.74022688094246 299.6553448998445 142.23994213342667 302.01886220077756 150.73965738591085 306.76997883800664 158.30601823165438 311.52109547523565 165.87237907739788 315.2077596962059 170.36235124655752 318.89442391717625 174.8523234157172 322.62717674040084 178.95410437048918 326.3599295636254 183.05588532526116 330.8087762206 188.89103650312285 335.2576228775746 194.72618768098454 338.7151071815606 199.3884974630907 342.17259148554655 204.0508072451968 347.27444743790846 211.79819817210716 352.3763033902704 219.54558909901752 355.79550680976274 225.90163208678769 359.21471022925505 232.25767507455785 361.8429461768426 238.88515010997122 364.47118212443013 245.51262514538462 365.8779797390504 252.11258149850778 367.2847773536706 258.71253785163094 367.2808969809688 258.7156910575702 367.27701660826705 258.7188442635094 367.2731362355653 258.72199746944864 367.2692558628635 258.7251506753879 362.59687150636626 253.9411559086167 357.92448714986904 249.1571611418455 353.28995418476944 243.83434693298807 348.65542121966985 238.51153272413066 344.4873216968866 233.38073078936455 340.31922217410334 228.24992885459844 334.7492498532092 221.31989295034103 329.1792775323151 214.38985704608362 325.65318658666524 210.27633352994292 322.12709564101544 206.1628100138022 317.2274535442513 201.2657965247756 312.3278114474872 196.368783035749 308.23106745297633 192.2187197016455 304.1343234584655 188.06865636754202 299.31547644009515 183.05937918598136 294.4966294217248 178.05010200442072 291.23414838188535 173.50299058219764 287.97166734204586 168.95587915997453 284.8839492550184 163.54483401627542 281.796231167991 158.1337888725763 279.46763445294204 152.13004255056882 277.1390377378931 146.12629622856133 275.95494964296347 140.52631277263038 274.7708615480339 134.92632931669945 274.4632605781817 129.70945037637327 274.15565960832953 124.4925714360471 274.5553140815334 117.94162924904904 274.9549685547373 111.39068706205097 279.9457265495787 103.5966186112091 284.93648454442007 95.80255016036722 291.14389351829334 92.80809157724352 297.3513024921666 89.8136329941198 306.74008494887846 88.08185471607109 316.1288674055903 86.3500764380224 322.2425229985596 86.52882656991497 328.3561785915289 86.70757670180755 334.0609485954478 88.27898276872212 339.7657185993667 89.85038883563668 344.72387067718137 93.24397865479426 349.682022754996 96.63756847395184 353.2049681114068 101.25831669746113 356.7279134678176 105.87906492097041 359.92653555345794 112.09567154887348 363.12515763909835 118.31227817677656 364.4499425554949 126.68818846447522 365.77472747189137 135.0640987521739 365.96320915013723 140.5138175165656 366.1516908283831 145.96353628095733 364.8772348062 154.64652946559357 363.60277878401695 163.3295226502298 362.50623897914227 169.56211522512297 361.40969917426753 175.79470780001617 358.45850674096357 182.13886656276043 355.5073143076596 188.48302532550466 355.4974060058594 188.48167419433594 Z" fill="hsl(0, 0%, 0%)"></path><path d="M 413.0790524848326 224.08296259421408 Q 413.0790524848326 224.08296259421408 412.25880086077836 212.8044550841733 411.4385492367241 201.52594757413252 412.2348283363568 192.7993139409875 413.03110743598955 184.0726803078425 415.5659744930498 172.7709218695012 418.10084155011003 161.46916343115993 419.835602709372 153.60726003746313 421.5703638686339 145.74535664376634 423.2856203633761 139.48198751524865 425.0008768581184 133.21861838673092 427.1256358705175 127.37514667477305 429.2503948829167 121.53167496281516 431.91835391800834 115.62555732554739 434.5863129531 109.71943968827964 437.1521076492053 105.07448663983551 439.7179023453105 100.42953359139139 442.5738931989282 96.1629995324741 445.4298840525459 91.89646547355682 450.09651710915165 86.08030204743699 454.7631501657574 80.26413862131716 460.7236868813278 75.67566760550014 466.6842235968982 71.08719658968312 474.6678145906959 68.20068030289443 482.65140558449355 65.31416401610575 492.2862818023507 65.55622775016084 501.9211580202079 65.79829148421594 510.7337998342324 68.9137099222018 519.5464416482569 72.02912836018766 524.0187003328517 75.40623047460414 528.4909590174465 78.78333258902065 534.6154494515941 88.16109958558202 540.7399398857418 97.5388665821434 541.8563530120848 102.45660872488432 542.9727661384279 107.37435086762525 542.2460985351117 117.79300823028645 541.5194309317956 128.21166559294764 539.5973026669828 133.00360042543923 537.6751744021702 137.79553525793082 533.4264782043465 143.28690146851238 529.1777820065229 148.77826767909391 525.1794565809464 152.85188077306393 521.1811311553699 156.92549386703394 516.7751403806707 160.10070005790163 512.3691496059714 163.2759062487693 507.80559936576265 165.623618869996 503.2420491255538 167.97133149122266 496.23361344355914 170.31129841515906 489.22517776156445 172.65126533909543 481.8511790598317 172.23421895312606 474.47718035809896 171.8171725671567 471.2673941522613 166.90399098405743 468.0576079464237 161.99080940095814 473.55832769285735 154.85507414354382 479.0590474392911 147.7193388861295 485.187251557787 146.721289841363 491.315455676283 145.72324079659646 500.35023094266467 147.60395488408017 509.3850062090463 149.48466897156388 516.9619664567715 154.61452074783918 524.5389267044966 159.74437252411448 529.2183068547793 165.4215073162042 533.8976870050619 171.09864210829392 536.1392019747258 176.90069370079794 538.3807169443896 182.70274529330194 539.3753095471011 192.84256173955623 540.3699021498124 202.98237818581055 539.7594128014771 211.45139775436925 539.1489234531418 219.92041732292796 536.7428343372042 228.08810797780444 534.3367452212666 236.25579863268092 531.7521442325433 240.66970123380835 529.16754324382 245.0836038349358 522.0957598065679 251.14280137173282 515.0239763693157 257.20199890852984 507.7768339076813 258.9232802740088 500.5296914460469 260.6445616394877 493.05356793333266 260.00110245479976 485.5774444206184 259.35764327011185 477.6612727580469 256.23930771039414 469.7451010954754 253.12097215067644 464.17998466077796 249.7993549670619 458.61486822608055 246.47773778344737 451.56872039130565 240.43264449955126 444.5225725565308 234.38755121565512 440.7938968640798 228.31299169764918 437.0652211716287 222.2384321796432 438.1756037662254 212.58667341401804 439.28598636082205 202.93491464839283 442.98091787858056 197.8222129615229 446.67584939633906 192.70951127465295 450.71078811834343 188.81866106245076 454.74572684034774 184.92781085024853 459.1891996169353 181.65280535050823 463.6326723935228 178.37779985076793 469.9926593054121 175.9393276912173 476.3526462173014 173.50085553166667 485.43553090180103 171.96352870477511 494.5184155863007 170.42620187788359 501.20360661923485 170.80221165451724 507.88879765216905 171.17822143115092 515.4521727443314 175.58761170223798 523.0155478364939 179.99700197332504 528.7226805140635 187.53764309852926 534.4298131916331 195.07828422373348 537.8240046048936 203.79621707402254 541.2181960181542 212.51414992431162 542.2067081752402 221.68088740785385 543.1952203323261 230.8476248913961 542.641518299898 238.8279494464324 542.0878162674701 246.80827400146867 540.3956163471606 252.11484424555846 538.7034164268512 257.4214144896482 535.3763495279551 264.8691973883992 532.049282629059 272.31698028715016 528.7573817842488 276.94242680631794 525.4654809394386 281.56787332548566 518.1589933943574 288.5835987932411 510.8525058492762 295.59932426099647 503.2065918830764 300.5541590044728 495.5606779168766 305.5089937479492 490.90148331803573 307.3346818887701 486.2422887191949 309.1603700295909 481.2764945183641 310.1798393363548 476.3107003175333 311.1993086431186 470.6199633089985 311.20464304254153 464.92922630046365 311.2099774419645 455.6927101196427 309.22661684361407 446.4561939388218 307.24325624526364 441.3226131223257 304.90649862971884 436.18903230582964 302.569741014174 427.8182593204192 297.7527622459306 419.4474863350087 292.9357834776873 413.1392844751162 288.86867183345834 406.8310826152237 284.80156018922935 401.3620657109274 282.22327320155944 395.89304880663116 279.64498621388947 388.62711525983786 278.62387941417853 381.36118171304463 277.60277261446754 374.6834296984773 278.69931328291443 368.00567768390994 279.7958539513614 360.37489199208005 283.1786721791321 352.7441063002502 286.5614904069028 344.9028451857864 291.48227086397594 337.06158407132256 296.403051321049 331.88101719864574 301.87563748385537 326.7004503259689 307.3482236466618 321.7079533718603 313.2693898149288 316.71545641775174 319.19055598319574 312.50783867656827 326.7967551055086 308.3002209353848 334.40295422782157 305.807470720698 339.8283233164588 303.31472050601116 345.25369240509605 303.3097684970602 345.2530013136767 303.3048164881093 345.2523102222574 303.2998644791584 345.2516191308381 303.2949124702074 345.25092803941874 302.4400033589184 338.9403623770568 301.5850942476294 332.6297967146948 301.77034835622544 327.58988974139754 301.9556024648214 322.54998276810034 304.6294343145957 313.1881975444868 307.30326616437 303.82641232087326 312.09361882269286 296.2886344320651 316.88397148101575 288.75085654325704 320.4846473361607 284.31263489526566 324.0853231913057 279.8744132472742 332.9331626533467 273.19758973634305 341.78100211538765 266.52076622541193 347.44824481700323 263.14763384989703 353.11548751861886 259.7745014743822 362.6664620707694 256.9947596601447 372.21743662291993 254.21501784590728 377.7972812998379 253.64680844437473 383.3771259767559 253.07859904284217 391.58785118724217 254.39358056499836 399.7985763977284 255.70856208715455 405.80331520407776 258.4112613791329 411.8080540104271 261.1139606711112 418.61665405432905 265.14921826697355 425.42525409823094 269.1844758628358 432.1354398248362 273.4483084053353 438.84562555144146 277.71214094783477 446.1868768467259 281.1913778875839 453.52812814201036 284.670614827333 459.27709766658245 286.22194038680436 465.0260671911545 287.7732659462757 471.33295046909643 287.4502463088181 477.6398337470383 287.1272266713605 483.5356300112114 284.6332202941367 489.4314262753845 282.1392139169129 495.4251899819066 277.2550161335805 501.4189536884287 272.37081835024816 505.80120601734745 266.7693785253325 510.1834583462662 261.1679387004169 512.8954691629893 255.45926880401169 515.6074799797125 249.75059890760647 517.0556296204124 243.85679776598246 518.5037792611123 237.96299662435845 518.5393794437447 231.3993891075909 518.5749796263771 224.83578159082336 517.3275958504328 218.94274310514004 516.0802120744884 213.0497046194567 513.4878390529816 208.05367604905072 510.8954660314748 203.05764747864475 505.65923609462163 198.24475461564833 500.4230061577685 193.43186175265188 495.25811053867926 193.31676451551766 490.09321491958997 193.20166727838344 483.4828310828134 194.8838039464182 476.87244724603676 196.56594061445293 470.9920005274833 201.48622695459648 465.11155380892984 206.40651329474005 461.6164543155279 211.28742410997887 458.12135482212597 216.16833492521772 461.02008910892704 220.31564736531357 463.9188233957281 224.46295980540944 470.30026098442244 228.8539644198368 476.68169857311676 233.24496903426422 482.10904492797056 234.7163270576038 487.53639128282435 236.18768508094337 494.5822372681336 235.97422097765775 501.62808325344287 235.76075687437213 506.1483184921778 231.8618964206575 510.6685537309127 227.96303596694287 512.5066944105026 222.6201460667321 514.3448350900926 217.27725616652134 514.8981010705859 210.78162730744717 515.4513670510793 204.285998448373 514.3381130063799 195.41905034886642 513.2248589616804 186.55210224935985 508.8766568744352 181.0606657380128 504.52845478718996 175.56922922666575 498.59321129574084 173.246874654934 492.65796780429173 170.92452008320228 490.6046745678545 166.1452709377486 488.55138133141725 161.36602179229493 488.66627879560133 155.89014925309579 488.78117625978535 150.41427671389667 494.60397424863413 148.04379133003619 500.42677223748285 145.6733059461757 506.37867914651287 140.65730548337314 512.3305860555429 135.6413050205706 516.3059383795647 129.27344557359265 520.2812907035866 122.90558612661468 521.059637857721 117.13924111536815 521.8379850118554 111.37289610412162 520.6330838818672 105.60829658505007 519.4281827518788 99.84369706597852 514.8230306880657 95.17437801992314 510.2178786242526 90.50505897386776 504.7892842847068 87.93487747360746 499.360689945161 85.36469597334714 492.81925734452557 84.54662927671785 486.27782474389005 83.72856258008856 480.7053778841706 84.9729810304278 475.13293102445124 86.21739948076703 470.2106283745765 88.83221369764524 465.2883257247018 91.44702791452346 460.5381371835794 95.59343758887253 455.787948642457 99.7398472632216 449.90914627125187 107.06708080300433 444.03034390004666 114.39431434278706 441.08741648078717 119.84201465027695 438.1444890615277 125.28971495776686 435.5673059111152 130.57749173169327 432.99012276070283 135.8652685056197 430.72543894129285 141.62615594272245 428.4607551218828 147.38704337982517 426.49771324416884 155.067272313381 424.5346713664549 162.74750124693685 422.61893848989087 173.8485392670783 420.7032056133268 184.9495772872198 419.5276284812701 193.51809957028877 418.35205134921335 202.08662185335774 415.725519207581 213.08560038152496 413.0989870659487 224.08457890969217 413.0890197753906 224.08377075195312 Z" fill="hsl(0, 0%, 0%)"></path><path d="M 369.1147631629585 302.6265659740797 Q 369.1147631629585 302.6265659740797 360.1874788726427 308.4830339513438 351.26019458232685 314.339501928608 339.33526745055985 322.10962972232994 327.4103403187928 329.87975751605194 320.6250211637071 334.7760412243961 313.83970200862143 339.6723249327403 303.29019866342077 348.03146218935416 292.7406953182201 356.390599445968 284.5780244632286 364.89258263302304 276.41535360823707 373.3945658200781 271.24981562429207 380.95651218274696 266.084277640347 388.5184585454158 262.55140176035303 396.24890999903454 259.01852588035905 403.9793614526533 257.64140762197195 410.0108736670816 256.26428936358485 416.04238588151 255.66272332379287 421.2599099218912 255.06115728400087 426.4774339622724 255.59782510682095 431.8935376833762 256.13449292964106 437.30964140448003 260.58382202293603 444.89402815780824 265.03315111623107 452.47841491113644 281.06593509825024 456.43385850588885 297.0987190802694 460.38930210064126 309.0689708476244 459.4864023984891 321.0392226149795 458.58350269633684 332.4241032121305 455.135554996933 343.8089838092815 451.68760729752927 356.7304348249296 442.3129056088803 369.6518858405777 432.9382039202314 381.2843884992993 421.201335328857 392.9168911580209 409.4644667374826 398.64254564149246 402.54107234873857 404.36820012496406 395.6176779599946 407.25823831630026 389.824449761049 410.14827650763647 384.03122156210344 411.9828630188166 378.5902973860946 413.81744952999674 373.1493732100858 414.2803170206962 368.11675406690074 414.7431845113956 363.0841349237156 413.34227706829955 352.5275795235707 411.9413696252035 341.97102412342576 409.7641452776465 337.22496808994475 407.5869209300895 332.47891205646374 401.1390020439239 325.098836123408 394.69108315775827 317.71876019035227 386.01871801349785 314.4844449660467 377.3463528692374 311.25012974174115 371.2638465613245 310.4742956865282 365.1813402534115 309.69846163131524 359.93300122759 309.680220367428 354.68466220176845 309.6619791035407 349.43872343067494 310.04106989530004 344.1927846595814 310.42016068705937 336.0646627481681 311.5818291283779 327.9365408367548 312.74349756969633 327.93463588604993 312.7388746741954 327.93273093534515 312.7342517786945 327.93082598464036 312.7296288831936 327.9289210339355 312.72500598769267 335.4275554647287 308.44393084959995 342.9261898955219 304.1628557115073 348.4461120424485 302.36501677897434 353.96603418937514 300.5671778464414 359.8822265974982 299.67682080205026 365.79841900562127 298.78646375765913 373.2351417179501 298.792015064381 380.671864430279 298.7975663711029 387.513374564847 300.56656665143566 394.35488469941504 302.33556693176837 399.1630694585306 305.41351319391913 403.9712542176461 308.4914594560699 408.50146182141225 313.3770738120869 413.03166942517834 318.2626881681039 415.7280762715675 323.2369443875914 418.4244831179566 328.2112006070788 420.3846065599096 334.06133155520837 422.3447300018627 339.91146250333793 422.7506359614106 352.28329263572664 423.1565419209585 364.65512276811535 421.6319516173911 370.24128334281863 420.1073613138237 375.82744391752186 417.26557654437585 381.2049777633827 414.423791774928 386.58251160924357 410.5606752296764 392.0775727356531 406.6975586844248 397.5726338620626 400.7835091231676 404.4596635321734 394.8694595619105 411.34669320228426 383.3644950979249 423.6047964313772 371.8595306339392 435.8628996604702 358.6737358662642 446.1129582553887 345.4879410985892 456.36301685030725 333.6946956310048 460.8402881573902 321.90145016342035 465.3175594644732 309.0854786505845 467.47859598450043 296.2695071377487 469.6396325045277 280.46176243009245 468.55319831593704 264.6540177224362 467.4667641273463 260.20216711227226 463.430310537172 255.75031650210835 459.3938569469976 252.1044032467966 453.63614694328874 248.4584899914849 447.87843693957996 247.79719330637562 442.71041200689035 247.13589662126637 437.5423870742007 247.40565758956473 431.259217464936 247.67541855786308 424.9760478556713 249.27923823807276 419.6661571665089 250.88305791828247 414.3562664773465 253.27837128422155 408.3676477995353 255.67368465016062 402.3790291217241 259.60042787244146 394.57703507062473 263.5271710947223 386.77504101952536 268.83020440295184 379.04045710167645 274.13323771118144 371.30587318382754 282.1023556962332 362.2329982430099 290.07147368128494 353.1601233021923 300.47883332368605 344.2504347219689 310.88619296608715 335.34074614174546 317.99383332514253 330.77173300226934 325.1014736841979 326.20271986279323 337.36567815567184 318.78501396587194 349.62988262714583 311.3673080689506 359.36751456607806 306.98816889899797 369.1051465050102 302.6090297290453 369.1099548339844 302.6177978515625 Z" fill="hsl(0, 0%, 0%)"></path><path d="M 474.8750237454166 304.7201001817748 Q 474.8750237454166 304.7201001817748 466.74264483013116 312.56907008071585 458.6102659148457 320.4180399796569 451.63020188295536 326.09899352647614 444.6501378510651 331.7799470732954 438.49144408060664 337.4691089864249 432.3327503101482 343.15827089955445 427.87236783139554 348.3670922677567 423.41198535264294 353.5759136359589 420.2900782749822 358.2215188294784 417.16817119732144 362.86712402299787 414.1828051430521 368.026441391808 411.1974390887828 373.1857587606182 409.6932125609241 382.08341297137383 408.1889860330654 390.9810671821294 408.37381148578504 397.771456929224 408.5586369385046 404.56184667631857 409.59766017144045 410.60247335952704 410.63668340437624 416.64310004273545 413.1430774442151 422.9475885443019 415.649471484054 429.25207704586825 418.80835753784373 434.0863542263613 421.96724359163346 438.9206314068544 426.09533180615256 442.55498146201865 430.22342002067165 446.18933151718284 440.1103637419663 450.04487518432484 449.99730746326094 453.90041885146684 468.45000114525703 452.6902158397068 486.9026948272532 451.4800128279468 497.9703915269879 449.42156712516845 509.03808822672266 447.3631214223901 521.7935629035766 441.26398289252535 534.5490375804305 435.1648443626606 543.6516406365658 428.76574265320494 552.7542436927013 422.36664094374936 561.4768953447604 413.704594272742 570.1995469968194 405.0425476017346 575.5140007298983 398.18317798159455 580.828454462977 391.32380836145455 583.9044797424895 385.5431717433095 586.9805050220018 379.76253512516433 588.5367700665314 374.40280537302294 590.093035111061 369.0430756208815 590.4950027333991 360.9962286639055 590.8969703557373 352.9493817069296 588.507027172007 346.4874702809019 586.1170839882768 340.02555885487425 581.3080478211348 334.65385606140944 576.4990116539929 329.2821532679447 569.2643885702339 323.83278114872684 562.0297654864751 318.383409029509 552.0355663678012 314.59849961889165 542.0413672491272 310.8135902082743 533.2963550623426 309.5233940609079 524.5513428755579 308.2331979135415 517.051630961264 308.7731797074201 509.55191904697006 309.3131615012987 502.29518302811516 310.9674014889357 495.0384470092602 312.6216414765728 489.30139662570866 314.5732952789052 483.5643462421571 316.5249490812376 474.7019973064936 320.14959333580623 465.83964837083005 323.77423759037487 458.8513145117094 326.7761198628625 451.86298065258876 329.7780021353501 449.6466703944799 330.53728736897403 447.430360136371 331.29657260259796 447.4278502009015 331.29224822704316 447.42534026543194 331.2879238514884 447.4228303299624 331.28359947593367 447.4203203944929 331.27927510037887 449.15827262670183 329.74344429828676 450.8962248589108 328.20761349619465 457.1038033005742 323.5195819286731 463.31138174223764 318.83155036115164 472.42162557529656 314.5496266906588 481.5318694083555 310.2677030201659 487.60074183330784 308.38505233008846 493.6696142582602 306.50240164001093 501.4412634350808 304.8015111124188 509.2129126119014 303.1006205848266 517.2404386120647 302.82963064709963 525.267964612228 302.55864070937264 534.6406107564501 303.6103888763121 544.0132569006723 304.66213704325156 555.3984417714307 307.80437544478775 566.7836266421891 310.94661384632394 575.8528620262123 316.129609353244 584.9220974102353 321.3126048601641 591.557877151891 328.2080222394135 598.1936568935466 335.10343961866295 599.6768682046669 344.2520160713973 601.1600795157872 353.4005925241316 598.7547072888436 362.44404590849183 596.3493350619001 371.48749929285214 593.6926793893334 376.8993555318715 591.0360237167667 382.3112117708908 587.0326755718615 387.708577347021 583.0293274269565 393.10594292315125 577.3531943341998 399.7974982299137 571.677061241443 406.48905353667607 563.0396522095509 415.5446300852186 554.4022431776589 424.60020663376116 545.3246942568503 431.55577681784666 536.2471453360419 438.5113470019322 523.2261616330921 445.41798804234804 510.2051779301424 452.32462908276386 498.8730305790524 455.3675455381136 487.54088322796247 458.4104619934633 467.45496751647397 460.70327915903124 447.36905180498553 462.9960963245992 434.57818736295695 459.5104437867409 421.7873229209284 456.0247912488826 416.4733124670354 450.88588208088424 411.1593020131424 445.74697291288584 407.6851232284578 439.8551627179918 404.21094444377326 433.96335252309774 401.0269613131212 426.36351319287087 397.84297818246915 418.76367386264405 396.8264034774851 411.921944776077 395.8098287725011 405.08021568951 395.4080250008873 397.1427767181991 395.0062212292734 389.20533774688823 396.1198759020764 383.30991687977263 397.2335305748794 377.414496012657 399.48787001014637 372.35080376014037 401.7422094454134 367.28711150762376 405.38509914359656 361.92862034178415 409.02798884177975 356.5701291759446 413.00179275162225 352.0515462042956 416.97559666146475 347.53296323264664 422.12755173143296 342.512513734276 427.2795068014012 337.4920642359054 433.821243637308 331.86261022849123 440.36298047321475 326.23315622107714 447.68264466321773 320.8656689300363 455.00230885322077 315.49818163899545 464.93275266132395 310.1010768614228 474.8631964694271 304.7039720838502 474.8691101074219 304.7120361328125 Z" fill="hsl(0, 0%, 0%)"></path><path d="M 327.2347989165106 490.04982322084726 Q 327.2347989165106 490.04982322084726 329.901882198934 495.0921766393095 332.56896548135734 500.1345300577718 352.9211677325585 509.4039907905827 373.2733699837596 518.6734515233936 385.7620988723481 523.4647615337551 398.25082776093655 528.2560715441166 409.34375219016147 529.9443036567181 420.43667661938645 531.6325357693197 428.7915023427126 531.5269821149714 437.14632806603873 531.4214284606231 442.9904348941771 530.4100398375838 448.83454172231546 529.3986512145444 455.52673400606943 527.0651695828478 462.2189262898234 524.7316879511511 468.29294718297297 521.496636081175 474.3669680761225 518.261584211199 483.1556456293956 511.85376906933163 491.9443231826687 505.4459539274643 499.0952643270798 498.6981805197476 506.2462054714909 491.9504071120309 506.250229848254 491.95337433154907 506.254254225017 491.9563415510672 506.25827860178003 491.9593087705854 506.2623029785431 491.96227599010354 500.8671224114465 500.6016723725167 495.47194184434983 509.24106875492987 486.5520376658152 516.7704504956613 477.6321334872806 524.2998322363927 471.0686268075117 527.8975398785283 464.5051201277427 531.495247520664 457.045591327125 533.9053222777595 449.5860625265073 536.3153970348552 443.3823611276315 536.5484833477609 437.1786597287557 536.7815696606666 428.5192674931836 536.7708111221448 419.85987525761146 536.7600525836228 407.91963289016405 535.8379508235365 395.9793905227167 534.9158490634502 382.60628615982887 530.7318158163845 369.23318179694104 526.5477825693188 348.5677214085242 514.6987885787715 327.90226102010746 502.8497945882243 327.5588592256265 496.45235384775106 327.21545743114564 490.05491310727774 327.2251281738281 490.0523681640625 Z" fill="hsl(0, 0%, 0%)"></path><path d="M 454.9798464299512 379.0496171833032 Q 454.9798464299512 379.0496171833032 462.2250485466359 381.9328887683319 469.4702506633206 384.8161603533606 477.9417974114885 388.4253138694831 486.4133441596564 392.0344673856056 492.75835819657647 392.99324593319454 499.10337223349654 393.95202448078356 505.66692874198367 394.1881434281643 512.2304852504708 394.4242623755451 517.259644469988 392.79800567866465 522.288803689505 391.1717489817842 528.894571037665 387.8492683597136 535.5003383858249 384.5267877376431 535.5040795878646 384.5301048760632 535.5078207899043 384.5334220144833 535.511561991944 384.53673915290335 535.5153031939836 384.5400562913235 532.7837380751821 389.856890103842 530.0521729563806 395.1737239163605 526.2338068544473 399.12237054891597 522.4154407525139 403.07101718147146 515.8914846952505 406.4570820425338 509.3675286379871 409.84314690359616 502.57299607004376 410.1472485426655 495.7784635021004 410.4513501817349 488.09782626467825 407.1473346208735 480.4171890272561 403.84331906001205 476.22950806381516 401.02811507457625 472.0418271003743 398.2129110891405 468.3015223188686 394.7873951432806 464.56121753736295 391.36187919742065 459.76453198925276 385.2137481945587 454.96784644114257 379.0656171916968 454.9738464355469 379.0576171875 Z" fill="hsl(0, 0%, 0%)"></path><path d="M 296.86601411060917 380.0979790721113 Q 296.86601411060917 380.0979790721113 301.8880445973549 382.1418314504282 306.9100750841007 384.1856838287451 311.839022861887 387.3871922942935 316.7679706396732 390.58870075984197 322.50831806556766 390.1465831723657 328.24866549146213 389.7044655848895 333.630894915886 388.22211336007183 339.0131243403099 386.7397611352541 344.185792768987 384.66857813349384 349.35846119766416 382.5973951317335 355.1982712339408 380.1124935523952 361.03808127021733 377.62759197305695 361.04155194223495 377.63119120016097 361.04502261425256 377.63479042726493 361.0484932862702 377.6383896543689 361.0519639582878 377.6419888814729 359.2954837488378 381.115714252895 357.5390035393878 384.58943962431704 354.04932972583265 389.52988439270143 350.55965591227755 394.47032916108583 346.1342569691391 398.69724677691363 341.7088580260006 402.92416439274143 335.7693321667505 405.8141900786176 329.82980630750035 408.7042157644938 323.08045795146927 407.63611010810723 316.33110959543825 406.5680044517207 311.9104604648019 403.47336154747745 307.48981133416555 400.3787186432342 303.771556815218 395.4263758056821 300.0533022962704 390.47403296812996 298.4522866709556 385.29276327613434 296.85127104564083 380.1114935841387 296.858642578125 380.104736328125 Z" fill="hsl(0, 0%, 0%)"></path><path d="M 334.56157772768296 500.5160338084606 Q 334.56157772768296 500.5160338084606 342.5557381384618 505.9591340851622 350.5498985492406 511.40223436186375 358.458434224769 517.9372065256017 366.36696990029736 524.4721786893397 382.29553599921326 537.248688754918 398.2241020981292 550.0251988204964 407.23694880762775 557.4789055587601 416.24979551712624 564.9326122970238 427.22491681915596 572.9751892733084 438.20003812118574 581.017766249593 445.43057443806896 586.0630602490661 452.6611107549522 591.1083542485392 457.54429157594427 594.0684239947695 462.4274723969364 597.0284937409999 467.12143076154825 600.152690314128 471.8153891261601 603.2768868872561 474.68236854383053 608.3759604493855 477.54934796150104 613.4750340115149 477.0481311036174 621.8123174965277 476.54691424573366 630.1496009815405 472.23686633374973 639.1529129883029 467.9268184217658 648.1562249950651 464.7455542348781 652.2757104266643 461.5642900479904 656.3951958582636 456.98317012576763 660.174287755382 452.4020502035449 663.9533796525005 445.1810218467135 667.9726849404914 437.95999348988215 671.9919902284822 432.0119835328072 671.8391175274555 426.0639735757323 671.686244826429 419.89554059753937 666.9167945565384 413.7271076193464 662.1473442866478 413.6653139018305 645.6392647547548 413.6035201843146 629.1311852228616 419.4209920468712 613.6215279541331 425.23846390942776 598.1118706854045 432.921801703862 586.8562486540736 440.6051394982962 575.6006266227428 449.83395633570774 566.4455151566597 459.06277317311924 557.2904036905766 464.8363786996621 551.740491067004 470.6099842262049 546.1905784434314 474.3884767265741 542.415103891519 478.16696922694325 538.6396293396067 482.3595510193092 534.2846999400272 486.55213281167516 529.9297705404475 489.13655646743825 524.862641574103 491.7209801232013 519.7955126077586 492.06813687767635 514.7167779724642 492.41529363215136 509.6380433371699 488.1467068955592 506.9041908740455 483.87812015896696 504.1703384109212 483.8786312505083 504.16536460096944 483.87914234204965 504.1603907910177 483.879653433591 504.1554169810659 483.88016452513233 504.15044317111415 490.1544002716862 504.544414418246 496.42863601824007 504.93838566537784 498.478085074299 509.83885111087596 500.52753413035794 514.7393165563741 499.49026296957834 520.9727776661264 498.4529918087987 527.2062387758787 495.6613129387647 531.5764844440697 492.86963406873065 535.9467301122608 487.8879988907672 539.9663191005038 482.9063637128038 543.9859080887468 478.769088675171 547.2282710975129 474.63181363753824 550.470634106279 468.8635367906574 555.7665180409203 463.09525994377657 561.0624019755617 455.08358199342183 570.3433588128128 447.07190404306704 579.6243156500639 441.1064931870585 590.4973188315415 435.1410823310499 601.3703220130192 431.5109424075233 615.2608859768638 427.8808024839968 629.1514499407085 432.12398982539355 641.2947439970928 436.3671771667904 653.4380380534773 442.6982053013902 649.6432152619352 449.02923343599 645.8483924703933 454.6127302430047 639.0663782022834 460.1962270500194 632.2843639341737 462.55762622029147 626.7462915197128 464.91902539056355 621.2082191052519 465.19676649914476 615.167478911922 465.47450760772597 609.1267387185919 462.35061239328616 605.2171574568657 459.22671717884634 601.3075761951395 455.02871148756924 597.4752837841996 450.8307057962921 593.6429913732597 443.777197447358 588.3730191757144 436.7236890984239 583.103046978169 425.42281835588346 575.3745529853661 414.1219476133431 567.6460589925632 404.7213111314587 560.658413082974 395.3206746495743 553.6707671733848 379.25696404990094 540.9677675620298 363.19325345022753 528.2647679506749 355.32693181450713 521.5988250829798 347.4606101787868 514.9328822152847 341.00450890133317 507.73198377372455 334.54840762387954 500.5310853321644 334.55499267578125 500.5235595703125 Z" fill="hsl(0, 0%, 0%)"></path></svg>