<svg xmlns="http://www.w3.org/2000/svg" version="1.1" xmlns:xlink="http://www.w3.org/1999/xlink" viewBox="0 0 640 800" style="overflow: hidden; display: block;" width="640" height="800"><defs><linearGradient id="dddraw-gradient" x1="320" y1="-400" x2="320" y2="800" spreadMethod="pad" gradientUnits="userSpaceOnUse"><stop offset="0%" stop-color="hsl(1.4, 100%, 67%)" stop-opacity="1"></stop><stop offset="100%" stop-color="hsl(167, 52%, 78%)" stop-opacity="1"></stop></linearGradient></defs><g id="two-0" transform="matrix(1 0 0 1 0 0)" opacity="1"></g><path d="M 343.463973386624 484.7862146874305 Q 343.463973386624 484.7862146874305 344.7710002424446 481.04583544741035 346.0780270982652 477.3054562073902 353.2738561358122 459.74085496223086 360.4696851733592 442.17625371707146 372.4964193228618 414.6208156488707 384.52315347236436 387.06537758067 397.9231630451485 357.8571713096649 411.3231726179326 328.64896503865987 421.90066519796005 306.65575343354226 432.4781577779875 284.66254182842465 438.84714922055485 272.7960218185572 445.2161406631222 260.9295018086898 453.45782038896795 248.44128038859458 461.6995001148137 235.95305896849936 461.7039320920284 235.95537361274165 461.70836406924315 235.95768825698391 461.71279604645787 235.96000290122618 461.7172280236726 235.96231754546847 456.22939850427565 249.76274603222558 450.7415689848787 263.5631745189827 445.54549451320304 275.9616102871869 440.34942004152737 288.3600460553911 430.1961706582395 310.49853366441727 420.04292127495165 332.63702127344345 406.70062826746266 361.9000275806397 393.3583352599736 391.1630338878359 380.05269557629674 418.22810749260884 366.7470558926198 445.2931810973817 357.1129575429293 461.62259779655824 347.47885919323875 477.95201449573483 345.480495881823 481.37330517758966 343.48213257040726 484.7945958594445 343.4730529785156 484.7904052734375 Z" fill="hsl(0, 0%, 0%)"></path><path d="M 398.07449832868974 463.70896514697733 Q 398.07449832868974 463.70896514697733 399.109951665833 459.99667345501905 400.14540500297636 456.2843817630608 402.33420179148754 448.7500212799357 404.5229985799987 441.21566079681065 411.05323966389494 422.25925513618273 417.5834807477912 403.3028494755548 431.9077018684662 375.81164017207226 446.23192298914114 348.3204308685897 456.58114664327684 330.3887729801004 466.9303702974126 312.4571150916111 476.1966180709261 299.00966990082316 485.4628658444396 285.5622247100352 497.7872467105024 272.22390817729774 510.11162757656524 258.88559164456035 520.4983495198401 250.39382260844462 530.885071463115 241.9020535723289 530.8886206037471 241.90557544693962 530.8921697443791 241.90909732155035 530.8957188850111 241.91261919616107 530.8992680256432 241.9161410707718 522.6445108684824 252.21017170964194 514.3897537113215 262.5042023485121 503.59153382176373 276.51675870826205 492.7933139322059 290.52931506801195 483.9479225484226 303.84617385678985 475.1025311646393 317.16303264556774 464.8720470761924 334.98532680516075 454.6415629877456 352.8076209647538 439.9864345773899 379.63005522396963 425.3313061670342 406.45248948318545 416.8203107911984 424.5567328246327 408.3093154153626 442.66097616608 404.9202700255291 449.7391822112752 401.53122463569554 456.81738825647045 399.81219494061224 460.26676648638716 398.093165245529 463.7161447163039 398.0838317871094 463.7125549316406 Z" fill="hsl(0, 0%, 0%)"></path><path d="M 463.2235890018963 233.77361409226629 Q 463.2235890018963 233.77361409226629 462.021015372506 229.16765225238186 460.81844174311567 224.56169041249743 459.17313931722157 216.87922947234733 457.52783689132747 209.19676853219724 456.53100256194296 204.58317100872415 455.53416823255844 199.96957348525103 452.3826582030713 191.44663430966935 449.2311481735841 182.92369513408767 446.8428250162474 177.74252304991802 444.45450185891076 172.56135096574837 442.34597340793187 168.4801334675328 440.237444956953 164.39891596931722 438.5772411597693 161.67126881093273 436.91703736258563 158.94362165254825 435.23616973230673 156.87268610447492 433.55530210202784 154.8017505564016 432.1957900713161 153.4269994444283 430.8362780406044 152.052248332455 429.7005125139993 150.98252830044987 428.5647469873942 149.91280826844476 426.77945627770646 148.26930938216174 424.9941655680187 146.62581049587868 423.85330793870133 145.8550602879327 422.712450309384 145.0843100799867 422.3053652029987 144.55817532965722 421.8982800966134 144.03204057932777 421.62894110984564 143.42377043411938 421.3596021230778 142.81550028891095 421.2436632504933 142.16044743824256 421.12772437790875 141.50539458757413 421.1719239922295 140.84163073390414 421.2161236065502 140.17786688023412 421.41789282411514 139.5439700099246 421.6196620416801 138.9100731396151 421.9672740260843 138.34288536855198 422.3148860104885 137.77569759748886 422.7881375368659 137.30818390557556 423.2613890632433 136.84067021366224 423.83277473064527 136.50000251863875 424.40416039804717 136.15933482361527 425.0404712446378 135.96531274792258 425.6767820912284 135.7712906722299 426.3410357007069 135.73519078802337 427.00528931018545 135.69909090381685 427.6588792315591 135.82301133806268 428.31246915293286 135.94693177230852 428.91740870926276 136.223670263546 429.5223482655926 136.50040875478348 430.04347834144176 136.91388124889937 430.56460841729097 137.32735374301527 434.4184879493588 139.41692486132447 438.27236748142667 141.50649597963368 441.64432117126535 144.0339049538661 445.01627486110397 146.56131392809854 448.9772899454031 149.97178170678052 452.9383050297022 153.38224948546252 455.9724279496222 156.2880711568007 459.00655086954225 159.1938928281389 462.1680490534728 162.4479444934094 465.3295472374034 165.7019961586799 467.7761349781041 168.60069147918222 470.2227227188048 171.49938679968457 472.1004426995654 174.28188955124597 473.978162680326 177.06439230280736 475.5736761750295 180.71647713980718 477.16918966973293 184.36856197680703 478.23833054248007 187.28543838444253 479.3074714152272 190.20231479207803 479.98810415772994 192.96990196421504 480.66873690023266 195.73748913635205 480.80678490531363 198.71878721126245 480.9448329103946 201.70008528617282 480.9144563061143 203.75279958132717 480.884079701834 205.8055138764815 480.72733553350315 207.7924951233856 480.57059136517233 209.77947637028967 480.0501315904694 213.80641608004655 479.5296718157664 217.83335578980342 479.5246718264966 217.8333661484915 479.5196718372269 217.83337650717957 479.5146718479572 217.83338686586762 479.5096718586874 217.8333972245557 478.8993718576331 213.8425335241557 478.2890718565789 209.85166982375569 478.0090700825117 207.94348269009208 477.72906830844454 206.0352955564285 477.408673808314 204.10783353218648 477.08827930818353 202.18037150794444 476.5439322642052 199.68524314572966 475.99958522022683 197.19011478351484 475.0745825531783 194.84938132061924 474.14957988612974 192.50864785772364 472.73696588323236 189.887103491236 471.324351880335 187.26555912474834 469.67290501449145 184.3672228603532 468.021458148648 181.46888659595803 466.1479863573496 179.20848531988048 464.27451456605127 176.94808404380294 461.7834423955884 174.46228001934372 459.2923702251255 171.97647599488448 456.02077084119884 169.0422539831314 452.74917145727215 166.10803197137832 449.7201936402073 163.52682976370198 446.69121582314244 160.94562755602567 442.86728936120414 157.92660810415651 439.04336289926584 154.90758865228733 435.76386936748884 152.67664388321924 432.4843758357119 150.44569911415115 430.12264103372297 148.99837435029502 427.7609062317341 147.55104958643886 425.23687221409705 146.31787611777227 422.71283819646004 145.08470264910568 422.30570047863523 144.55860860991746 421.8985627608104 144.03251457072923 421.62916294837487 143.4242713624608 421.3597631359394 142.81602815419237 421.24375875864956 142.16098690068648 421.12775438135975 141.5059456471806 421.17188761907425 140.84217737686797 421.2160208567887 140.17840910655534 421.41772668365786 139.5444920624936 421.619432510527 138.91057501843184 421.96698777441617 138.3433524890063 422.3145430383053 137.77612995958071 422.7877478109474 137.30856894485242 423.2609525835894 136.8410079301241 423.832304181365 136.50028309823733 424.40365577914054 136.15955826635053 425.039947220342 135.9654725605434 425.67623866154355 135.77138685473628 426.3404886577124 135.73522054534942 427.00473865388125 135.69905423596254 427.6583409640304 135.82290931059674 428.31194327417955 135.94676438523098 428.9169105013338 136.22344238112925 429.52187772848805 136.50012037702749 430.0430491489809 136.91354075606853 430.5642205694738 137.32696113510954 431.0182418676459 137.56419112532316 431.472263165818 137.80142111553678 432.7562077740847 139.24209937765852 434.0401523823515 140.68277763978026 435.0448151366996 141.83952974768414 436.0494778910477 142.99628185558802 437.1439703445972 144.34006109406835 438.23846279814677 145.68384033254864 439.53415372682923 147.39544815721845 440.82984465551164 149.10705598188827 442.8040505240141 151.70567858494667 444.77825639251654 154.30430118800507 446.53329978111435 157.3789239268147 448.2883431697121 160.45354666562434 450.326975491344 164.83980317298503 452.36560781297584 169.2260596803457 454.55038425043097 174.89473577766756 456.73516068788615 180.5634118749894 459.1589592465581 189.79213861530224 461.58275780522996 199.02086535561506 462.038234325512 203.7701282075463 462.49371084579406 208.51939105947756 462.96935833673956 216.38603263550178 463.44500582768507 224.252674211526 463.3442289207069 229.0119757383408 463.2434520137287 233.7712772651556 463.2335205078125 233.77244567871094 Z" fill="hsl(0, 0%, 0%)"></path><path d="M 500.58942211704147 229.9365979960432 Q 500.58942211704147 229.9365979960432 501.08463139381945 227.60889567045066 501.5798406705974 225.28119334485814 502.40371700157044 221.2360767099756 503.2275933325435 217.19096007509307 504.26537066606113 209.65657062224938 505.3031479995788 202.1221811694057 505.85822524432115 195.40155873911692 506.41330248906354 188.68093630882817 506.45110051129586 180.43736439719845 506.4888985335282 172.1937924855687 505.91956328804656 165.2672043546345 505.350228042565 158.34061622370027 504.3053220208679 152.53838192701699 503.2604159991708 146.7361476303337 501.02484416563715 141.33418791775654 498.7892723321035 135.93222820517937 496.7902392174008 131.97163560287794 494.79120610269814 128.01104300057654 492.2512727164644 125.00804340249542 489.7113393302307 122.0050438044143 487.8249740375527 120.19015381141512 485.9386087448746 118.37526381841592 484.43979480427106 117.05580262801158 482.9409808636675 115.73634143760722 481.65224188667463 114.83643017976121 480.36350290968176 113.9365189219152 478.8265012221974 113.12802095962934 477.28949953471306 112.3195229973435 476.99797103583 112.13491924907791 476.7064425369469 111.95031550081232 476.2337347110454 111.50156734405482 475.7610268851439 111.0528191872973 475.4094517745999 110.50398174459886 475.05787666405587 109.95514430190042 474.8478678308129 109.3381160312177 474.6378589975699 108.72108776053497 474.58162216488324 108.071730373951 474.52538533219655 107.42237298736704 474.6261889874242 106.7784271667 474.72699264265185 106.13448134603297 474.97897807261575 105.53337325263571 475.23096350257964 104.93226515923845 475.61948530225084 104.40893122374214 476.00800710192203 103.88559728824585 476.510484366049 103.47045370357029 477.012961630176 103.05531011889474 477.60019035655887 102.77248504968671 478.18741908294174 102.48965998047869 478.82526951041234 102.35559123304904 479.463119937883 102.22152248561939 480.11452016962744 102.24400214186792 480.7659204013719 102.26648179811644 481.39301102531533 102.4442033393658 482.0201016492587 102.62192488061514 482.5864361288738 102.94455912253767 483.1527706084889 103.2671933644602 484.95688785426853 104.016870245709 486.76100510004824 104.7665471269578 492.8078116920195 108.78838158472848 498.8546182839909 112.81021604249918 506.39904517569835 119.01356394396828 513.9434720674058 125.2169118454374 522.2651733886358 134.39101754153162 530.5868747098659 143.56512323762587 536.8608984811135 151.64212472643 543.134922252361 159.71912621523416 548.030368472972 167.75347766817083 552.9258146935829 175.78782912110754 555.5097213665883 181.2700655906068 558.0936280395937 186.75230206010608 559.6677453683656 190.81330393206358 561.2418626971375 194.87430580402108 561.8821101252161 199.476140313366 562.5223575532945 204.07797482271087 562.366586206705 207.7994829790797 562.2108148601155 211.5209911354485 560.462932181732 216.10912700177488 558.7150495033484 220.69726286810126 556.3378208252904 224.43446743774885 553.9605921472323 228.17167200739644 551.3466095499136 231.2521946679853 548.732626952595 234.33271732857418 545.7466420850227 236.81345865587608 542.7606572174504 239.29419998317798 542.7570182230754 239.29077102999395 542.7533792287004 239.2873420768099 542.7497402343254 239.28391312362584 542.7461012399503 239.2804841704418 544.9435859033038 236.26024153738217 547.1410705666572 233.23999890432253 548.9460569483547 229.85818708413194 550.7510433300522 226.47637526394138 552.2902521738521 222.7854755664287 553.829461017652 219.094575868916 554.8155889031069 215.27841876460332 555.8017167885619 211.46226166029064 555.5976923511421 208.3712772082394 555.3936679137224 205.28029275618815 554.6241678636063 201.63012152157137 553.8546678134903 197.97995028695456 552.1117322523928 194.29055099865982 550.3687966912952 190.6011517103651 547.7403771999479 185.62453878453283 545.1119577086006 180.64792585870057 540.3355286596868 173.14683997778047 535.5590996107729 165.64575409686034 529.4456213117232 157.9084677542206 523.3321430126737 150.17118141158085 515.4691363088939 141.57866966449143 507.60612960511406 132.98615791740198 500.40101515350773 127.19902314723717 493.1959007019014 121.41188837707236 487.8700700195085 117.96051511898679 482.54423933711564 114.50914186090124 479.6255580311996 113.22988981735008 476.70687672528356 111.95063777379895 476.23412402693 111.50193689006768 475.7613713285764 111.05323600633642 475.40974133604607 110.50443372389316 475.0581113435158 109.95563144144991 474.84804080849585 109.33862417473563 474.63797027347596 108.72161690802133 474.5816685053319 108.0722651483674 474.5253667371879 107.42291338871348 474.62610599732955 106.77895749090067 474.7268452574712 106.13500159308786 474.97877057536596 105.5338683041532 475.2306958932607 104.93273501521853 475.6191653575959 104.40936223015899 476.007634821931 103.88598944509945 476.5100705691872 103.4707956147733 477.01250631644336 103.05560178444712 477.5997067573832 102.77271799378067 478.18690719832307 102.48983420311424 478.8247442157297 102.35570167131229 479.46258123313635 102.22156913951034 480.11398370958943 102.2439836556234 480.7653861860425 102.26639817173647 481.39249457900456 102.44405700303491 482.0196029719666 102.62171583433337 482.5859697121741 102.94429344119487 483.1523364523817 103.26687104805636 483.4134227787705 103.49248430056498 483.67450910515925 103.7180975530736 485.20098475266883 104.84968220720671 486.7274604001784 105.98126686133983 488.29123335372975 107.37515829527986 489.8550063072811 108.76904972921989 491.1792701857889 110.2543084667542 492.5035340642967 111.73956720428852 494.6672419403228 113.93155534194005 496.8309498163489 116.12354347959158 499.9319266863262 119.95602954795424 503.03290355630355 123.7885156163169 505.23295974504776 128.1340403930962 507.433015933792 132.47956516987549 509.8927284734882 138.8440224263439 512.3524410131844 145.20847968281234 513.2816635058194 151.53716543665797 514.2108859984545 157.8658511905036 514.39784406335 165.22405853548074 514.5848021282454 172.58226588045787 513.8096509456896 181.09896874584615 513.0344997631337 189.6156716112344 511.67675534955083 196.40638171435882 510.31901093596804 203.1970918174832 508.1522835087435 210.60306433577944 505.985556081519 218.00903685407565 504.45434696327334 221.89685289169373 502.92313784502767 225.7846689293118 501.7656432643837 227.864144719564 500.6081486837398 229.94362050981618 500.5987854003906 229.9401092529297 Z" fill="hsl(0, 0%, 0%)"></path><path d="M 381.78987879647974 385.1572812794105 Q 381.78987879647974 385.1572812794105 379.62618371119834 383.7794994230938 377.4624886259169 382.4017175667771 371.34461180676556 378.6210239294163 365.2267349876142 374.84033029205546 357.8021074932044 370.48276945652924 350.37747999879457 366.12520862100297 343.28956186825957 361.9251376229099 336.20164373772457 357.7250666248169 328.55045511954745 353.61189976673995 320.8992665013704 349.498732908663 315.38997495574563 347.28619413487866 309.8806834101208 345.07365536109427 305.1586572236478 343.5905059971039 300.43663103717483 342.1073566331135 294.99920430543716 340.9358455990821 289.56177757369954 339.7643345650507 285.04715800409826 339.5591764124452 280.53253843449704 339.3540182598397 275.74348952563275 339.78753914463675 270.95444061676847 340.2210600294338 267.2066087135828 341.17343624588 263.4587768103972 342.12581246232617 259.79251796200003 343.56503064046973 256.1262591136028 345.0042488186133 251.44071717681487 347.69577414741696 246.7551752400269 350.3872994762207 242.5346594519528 353.1343884116686 238.31414366387872 355.8814773471165 234.6901182978657 358.81484812264574 231.06609293185267 361.74821889817497 226.11598800715052 366.1517414123582 221.1658830824484 370.5552639265415 216.69074711145225 374.50051402533364 212.2156111404561 378.4457641241258 207.32165928875497 382.6365516323285 202.42770743705387 386.82733914053125 198.79107793092297 389.80988360970855 195.15444842479206 392.7924280788859 192.65758564299028 395.0093719682279 190.16072286118848 397.22631585756994 188.1344608245533 398.89545809246385 186.10819878791807 400.56460032735777 186.10455569541767 400.56117572854424 186.1009126029173 400.5577511297307 186.09726951041694 400.5543265309172 186.09362641791654 400.55090193210367 187.6227038731189 398.4378695695377 189.15178132832122 396.3248372069718 191.13172891880032 393.53122041950104 193.11167650927945 390.7376036320303 196.12002415294324 387.1155193200582 199.12837179660704 383.493435008086 203.38850310670455 378.62505604823474 207.64863441680208 373.75667708838347 211.75022391296315 369.3485557613088 215.85181340912422 364.9404344342341 220.71238749032506 360.05881686319753 225.57296157152587 355.17719929216105 229.47810955005477 351.8179588894617 233.38325752858367 348.45871848676234 237.8048236607438 345.47330418460444 242.22638979290392 342.4878898824466 247.50530675161184 339.46856092802796 252.78422371031976 336.44923197360936 257.0089938850449 334.82095617250275 261.23376405977007 333.19268037139614 265.6832077647582 332.11234944801663 270.1326514697464 331.03201852463707 275.557669163065 330.5714140390721 280.98268685638357 330.1108095535071 286.24263999906464 330.3942898763136 291.50259314174576 330.6777701991201 297.3980987281999 331.9522075481814 303.2936043146541 333.2266448972426 308.38627188985026 334.90620532308867 313.47893946504644 336.58576574893476 319.3969827067591 339.2224341926194 325.3150259484717 341.8591026363041 332.88558030130457 346.56337223718464 340.4561346541374 351.2676418380652 347.14816853374515 356.1484178562232 353.8402024133529 361.0291938743813 360.6917512795503 366.37226960167925 367.54330014574765 371.71534532897726 372.98051272402677 376.50111243456683 378.4177253023058 381.28687954015646 380.110309971663 383.2144878510761 381.80289464102026 385.14209616199577 381.79638671875 385.1496887207031 Z" fill="hsl(0, 0%, 0%)"></path><path d="M 291.7327973237052 338.21286753058075 Q 291.7327973237052 338.21286753058075 288.8424674858519 337.4487680863797 285.95213764799854 336.6846686421786 282.6452532607718 335.0759939927058 279.3383688735451 333.46731934323293 275.2464027546201 330.71446396669035 271.15443663569505 327.9616085901478 267.8922402575174 325.15918653675465 264.63004387933984 322.3567644833614 262.04930932648995 319.8055249544547 259.4685747736401 317.254285425548 256.96568761827996 313.2062667409127 254.46280046291974 309.1582480562774 253.041873917723 305.65803141147785 251.62094737252625 302.15781476667826 250.90616248063918 298.19219699831234 250.19137758875215 294.2265792299464 250.42999058997077 290.8032287671528 250.66860359118937 287.3798783043592 251.69204862690776 284.1986042470186 252.7154936626262 281.01733018967803 255.44713016314063 277.8030718149736 258.1787666636551 274.58881344026906 261.2646812001178 272.34074214797977 264.3505957365805 270.0926708556904 269.71605634344985 269.18710184102696 275.08151695031916 268.2815328263635 279.365540225748 268.60893701853865 283.6495635011769 268.93634121071375 287.1555833349363 270.013174479325 290.66160316869576 271.0900077479362 294.0712562892471 273.1047168615312 297.4809094097985 275.11942597512615 299.65977314918894 276.8708380774882 301.8386368885793 278.6222501798503 303.4747621078061 280.32401442436384 305.1108873270329 282.02577866887736 306.41383434125635 285.0458446426022 307.71678135547984 288.06591061632713 308.2458832583369 290.29359903209775 308.7749851611939 292.5212874478684 308.4054264541992 295.59469316790273 308.0358677472045 298.6680988879371 306.84275154767784 301.5404400247801 305.64963534815115 304.4127811616231 303.0921707126993 307.3737734223763 300.5347060772475 310.3347656831295 296.80494639934267 313.2473000255028 293.07518672143783 316.1598343678761 289.3937714677694 318.2705435290268 285.7123562141009 320.3812526901775 280.7489210361201 321.94217555213265 275.78548585813934 323.5030984140878 271.61171002023815 324.14032516794975 267.43793418233696 324.77755192181166 263.782467206275 324.7562658294762 260.127000230213 324.7349797371408 256.44025649644016 324.1245621076231 252.75351276266736 323.5141444781054 250.14394761843835 323.0464263578684 247.53438247420937 322.5787082376314 244.44427016524102 321.4141197574487 241.35415785627268 320.249531277266 239.20165968754702 319.6439492119433 237.04916151882136 319.0383671466206 234.91095292618309 318.1319503257149 232.7727443335448 317.2255335048093 230.6202422961482 315.9219119617263 228.4677402587516 314.6182904186434 225.46211837136536 312.37415871639905 222.45649648397912 310.1300270141546 220.86317762096053 308.1196547566768 219.2698587579419 306.10928249919897 218.84996536836297 303.98246645881807 218.43007197878407 301.8556504184372 219.1611064776415 299.23804905769157 219.89214097649898 296.620447696946 221.98413377097322 294.4988622176316 224.07612656544745 292.3772767383172 227.15151198232746 291.2190420710804 230.22689739920747 290.0608074038436 233.14573976764353 289.704450352075 236.06458213607962 289.34809330030635 240.23633169626493 290.5634852671194 244.4080812564502 291.7788772339325 247.7263602966906 293.62030358070433 251.044639336931 295.46172992747614 253.93378486140045 297.86835105290066 256.8229303858699 300.2749721783252 259.93569596324335 304.05958230454576 263.04846154061687 307.84419243076627 265.06191364456174 310.93086058114636 267.07536574850656 314.0175287315265 269.3354353961905 317.64038098240144 271.5955050438745 321.2632332332763 273.01940360152287 323.36818174887026 274.44330215917125 325.47313026446426 275.75551137409695 327.2656691487558 277.0677205890227 329.0582080330474 278.7951872596649 330.4602639034521 280.522653930307 331.8623197738568 282.56220181313864 333.54244039726507 284.6017496959703 335.22256102067325 284.59914894936423 335.22683139736523 284.5965482027582 335.23110177405715 284.59394745615214 335.2353721507491 284.5913467095461 335.23964252744105 282.1558703662381 334.19438201761125 279.7203940229301 333.1491215077815 277.3995284726003 332.0272308468542 275.07866292227055 330.90534018592695 273.3465623933423 329.35164422570114 271.6144618644141 327.7979482654753 269.76395234196957 325.91807669941534 267.913442819525 324.0382051333554 265.061485743254 320.8774730095437 262.20952866698303 317.716740885732 259.9720712257076 315.2118855419046 257.73461378443227 312.7070301980772 254.73391292555687 309.8162922904777 251.73321206668146 306.92555438287826 249.3113713934972 305.2915365511987 246.88953072031293 303.65751871951915 244.19252883908644 302.4727371197731 241.49552695785997 301.2879555200271 239.29106297867924 300.5677839534434 237.08659899949853 299.8476123868596 235.37241684200217 300.12187266172623 233.65823468450583 300.3961329365929 231.21289408629013 300.73502913511027 228.76755348807444 301.07392533362764 230.02373007071958 302.61393995844605 231.2799066533647 304.1539545832644 232.65992530744043 305.03060690425013 234.03994396151617 305.9072592252358 235.6091820365893 306.9845220517715 237.1784201116624 308.0617848783072 238.61232132524887 308.8687752569408 240.04622253883534 309.67576563557435 242.40999430565455 310.5092670458449 244.77376607247376 311.34276845611555 247.12524550637752 312.26800665965874 249.4767249402813 313.1932448632019 251.89353708885113 313.7540923286389 254.31034923742095 314.3149397940759 257.26544985182363 314.82842440141513 260.22055046622637 315.3419090087544 263.11933247777176 315.3726358915834 266.01811448931716 315.40336277441236 269.48869170216267 314.8667622053615 272.9592689150082 314.3301616363106 276.90894737492863 313.129137856118 280.8586258348491 311.9281140759254 283.89071749515324 310.13258813181574 286.92280915545734 308.3370621877061 289.9158956227913 305.94712877608913 292.9089820901253 303.55719536447214 294.5039166739394 301.81918153874534 296.0988512577535 300.08116771301854 296.8986975335906 298.3782017754004 297.69854380942775 296.6752358377823 297.9500173778414 294.09252920539427 298.20149094625503 291.50982257300626 297.83695998341216 289.94912950132607 297.47242902056934 288.38843642964594 296.4813287290749 287.0893327255273 295.49022843758047 285.79022902140866 294.0798479691846 284.369449032435 292.66946750078876 282.9486690434613 290.22630300869514 281.3881117243176 287.78313851660147 279.8275544051739 285.2952114199875 278.97313261375666 282.80728432337355 278.1187108223394 279.46903960316286 277.7907004201461 276.13079488295216 277.46269001795275 272.6351479759544 277.60743189280385 269.1395010689567 277.75217376765494 266.9305281244914 279.2716330092876 264.72155518002614 280.7910922509203 262.7719802421898 282.5529379329396 260.8224053043535 284.3147836149588 259.90487590217856 286.3608118561823 258.98734650000364 288.40684009740585 258.54765513822184 290.8018879083476 258.10796377644004 293.1969357192894 258.3896314949334 296.4404889953973 258.6712992134268 299.6840422715052 259.59496704559575 302.77677080890055 260.5186348777647 305.86949934629587 262.2362089368978 309.5569042262689 263.95378299603095 313.244309106242 266.1186196659319 315.9317518186243 268.28345633583285 318.61919453100666 271.00238414101204 321.6619057986841 273.7213119461912 324.70461706636155 277.2214013649668 327.9276279341351 280.72149078374247 331.1506388019087 283.61220418628017 333.2329743987127 286.50291758881787 335.3153099955167 289.12157136302505 336.75480399613986 291.7402251372323 338.194297996763 291.73651123046875 338.2035827636719 Z" fill="hsl(0, 0%, 0%)"></path><path d="M 226.58811589485484 417.7344643448362 Q 226.58811589485484 417.7344643448362 220.3591646021865 419.3772821525383 214.13021330951815 421.0200999602404 208.654480207013 421.76486699957957 203.17874710450783 422.50963403891876 197.24050936782072 423.0086549342609 191.3022716311336 423.5076758296031 183.80310692799543 422.7868397398456 176.30394222485725 422.0660036500882 169.88521364887964 420.38739013930876 163.46648507290203 418.70877662852934 157.47342495307976 416.0016512079477 151.4803648332575 413.294525787366 142.82480260911456 406.4163068965056 134.16924038497157 399.5380880056452 127.38118105871908 391.7334441504604 120.59312173246657 383.92880029527566 114.24760465833674 372.04249514585206 107.90208758420691 360.1561899964285 104.45375337497751 349.9732645145274 101.0054191657481 339.7903390326262 99.45433626336933 330.5774378082997 97.90325336099055 321.36453658397323 98.41957027790738 312.5377257789876 98.9358871948242 303.7109149740019 99.95582111298492 298.363399306587 100.97575503114562 293.01588363917205 102.81904278070704 288.534254895019 104.66233053026843 284.0526261508659 106.13311670530055 281.4229425915545 107.60390288033267 278.7932590322431 108.8454138208379 277.4545391415703 110.08692476134313 276.1158192508976 110.09097993730893 276.11874423771576 110.09503511327473 276.1216692245339 110.09909028924054 276.124594211352 110.10314546520634 276.1275191981702 109.28585180368069 277.6431078769035 108.46855814215502 279.1586965556369 107.68756107102531 281.94878107725805 106.90656399989561 284.7388655988792 106.04399078321805 289.1209586691217 105.18141756654047 293.50305173936425 105.01954555196059 298.64150060076616 104.85767353738069 303.7799494621681 105.18573348881873 311.84860774325426 105.51379344025675 319.91726602434045 107.40844728644117 328.4224959044201 109.30310113262561 336.92772578449967 112.66615136423655 346.3985654557737 116.02920159584751 355.86940512704774 121.82177712694634 366.8950873928387 127.61435265804518 377.92076965862975 133.83174429098767 385.13978257201063 140.04913592393015 392.35879548539145 147.73608896079514 398.7944021339639 155.4230419976601 405.23000878253634 160.66209876179266 407.9249442158822 165.90115552592525 410.619879649228 171.6524120899287 412.5783568482871 177.40366865393216 414.53683404734625 184.28121728423977 415.8927219049111 191.1587659145474 417.24860976247606 197.0121545141964 417.449114193108 202.8655431138454 417.6496186237399 208.28382510419 417.69199398140796 213.70210709453457 417.734369339076 220.1438181096055 417.72450083696367 226.5855291246764 417.7146323348513 226.58682250976562 417.72454833984375 Z" fill="hsl(0, 0%, 0%)"></path><path d="M 126.93610595703124 274.9700622558594 Q 126.93610595703124 274.9700622558594 126.57211439109699 271.9401501616785 126.20812282516275 268.9102380674976 125.52558518481692 264.085578953343 124.84304754447108 259.2609198391883 124.16394941081197 255.32406946285707 123.48485127715286 251.38721908652582 122.83373457646852 248.10029851248441 122.18261787578419 244.81337793844304 120.97623953881487 241.1216982939414 119.76986120184556 237.43001864943975 118.37320355166014 234.02786618215416 116.97654590147472 230.62571371486857 114.73145696711558 226.96372129623853 112.48636803275645 223.30172887760853 110.67560610597764 220.29424556614381 108.86484417919883 217.2867622546791 107.1945292162327 214.31442027896662 105.52421425326655 211.3420783032541 103.18468369024336 208.54896997517318 100.84515312722017 205.75586164709222 98.82307726333539 203.62417365162995 96.80100139945063 201.49248565616767 94.6663433170656 199.3579734436886 92.53168523468057 197.22346123120948 90.8591233836535 195.73228475379634 89.18656153262643 194.2411082763832 87.92529178073056 192.9535778165985 86.66402202883471 191.66604735681386 85.26894185322578 190.8376314479186 83.87386167761687 190.00921553902333 81.66818555652814 188.56218252235615 79.46250943543942 187.11514950568898 78.0140008577979 186.50947221089461 76.56549228015636 185.90379491610022 76.56581234769452 185.89880517093928 76.56613241523267 185.89381542577837 76.56645248277083 185.88882568061746 76.56677255030898 185.88383593545652 78.2408776936903 186.0360319187143 79.91498283707159 186.18822790197203 82.39726844778336 186.9988761777942 84.87955405849513 187.80952445361635 86.8134392986982 188.5030945369847 88.74732453890128 189.19666462035303 90.13399915851042 190.19404623364494 91.52067377811954 191.19142784693688 93.48610639554633 192.48405219461662 95.45153901297311 193.77667654229637 97.9881736007897 195.59982104200736 100.52480818860627 197.42296554171833 103.01285200512464 199.4184852341757 105.50089582164303 201.41400492663308 108.5884858129232 204.44327919690858 111.67607580420336 207.47255346718404 113.70183619620425 210.42254662351883 115.72759658820513 213.37253977985364 117.4285671250608 216.52257403265003 119.12953766191646 219.67260828544642 121.2586543275957 224.01773529794775 123.38777099327497 228.36286231044906 124.50597318497675 232.13492855864715 125.62417537667854 235.90699480684523 126.44642000034227 240.02220972008786 127.26866462400599 244.13742463333048 127.50208410453314 247.55358478138265 127.73550358506027 250.96974492943485 127.8414356161198 255.02746056453245 127.94736764717932 259.08517619963004 127.81572836803954 263.99764057485527 127.68408908889975 268.91010495008055 127.32009752296551 271.94008360296993 126.95610595703126 274.9700622558594 126.94610595703125 274.9700622558594 Z" fill="hsl(0, 0%, 0%)"></path><path d="M 71.38505173008662 185.86200866475883 Q 71.38505173008662 185.86200866475883 73.93630364872638 188.33838440730239 76.48755556736616 190.81476014984594 79.07401677169366 193.72875895373554 81.66047797602117 196.64275775762513 84.30397198964636 200.0212225770369 86.94746600327154 203.39968739644868 88.69549532842105 205.94871926984007 90.44352465357055 208.49775114323145 91.88528479475481 211.33226955786418 93.32704493593907 214.1667879724969 94.10804957470182 216.67005036205717 94.88905421346456 219.1733127516174 94.72394925947697 222.17521741747564 94.55884430548937 225.17712208333387 94.08437011013214 227.54067731378217 93.6098959147749 229.90423254423047 92.69594549923829 232.12341873871833 91.7819950837017 234.34260493320622 90.3059347501956 237.06777990529918 88.8298744166895 239.79295487739216 87.19695571019561 242.01445374260152 85.56403700370171 244.23595260781084 83.52996121152323 246.64669719736708 81.49588541934475 249.05744178692328 81.49165488227308 249.0547767248067 81.4874243452014 249.05211166269012 81.48319380812973 249.04944660057356 81.47896327105806 249.04678153845697 82.75351656051924 246.20538663781775 84.02806984998043 243.3639917371785 84.99523499481701 241.00490396013112 85.9624001396536 238.6458161830837 86.71550016994554 235.77806598474723 87.46860020023749 232.91031578641073 87.91103867924178 231.04329811739962 88.35347715824606 229.17628044838852 88.4780433678977 227.1101641054844 88.60260957754934 225.04404776258025 88.5507800207449 222.80812153778388 88.49895046394045 220.5721953129875 88.25025401088456 218.52853835332832 88.00155755782866 216.4848813936691 87.02049160061615 213.80567115371605 86.03942564340365 211.126460913763 84.67915055447158 208.47940222868507 83.3188754655395 205.83234354360715 81.24117491053066 202.16963868385403 79.16347435552181 198.50693382410094 77.12238932571846 195.22332606442242 75.0813042959151 191.9397183047439 73.22536932490644 188.9071104352269 71.36943435389776 185.87450256570992 71.37724304199219 185.86825561523438 Z" fill="hsl(0, 0%, 0%)"></path><path d="M 65.62198115581681 265.39659273169144 Q 65.62198115581681 265.39659273169144 61.86545426628486 262.85788171081924 58.10892737675291 260.3191706899471 55.32063808559163 257.5100956973899 52.532348794430355 254.70102070483264 50.372825284668586 251.82655546320717 48.21330177490682 248.9520902215817 46.05760451879669 245.55385788009067 43.90190726268656 242.15562553859962 42.58330075849226 239.1860815480943 41.26469425429796 236.216537557589 40.57197474607718 233.05766480712708 39.879255237856405 229.8987920566652 40.363969162447766 226.05160901750838 40.84868308703913 222.2044259783516 41.78704079933721 219.20535437903072 42.7253985116353 216.20628277970982 44.16110336091303 213.0355453176882 45.596808210190765 209.86480785566656 47.19205148152528 207.40517597267456 48.78729475285981 204.94554408968258 50.092912771119295 203.38071533780635 51.39853078937878 201.8158865859301 52.60122231590423 200.21188689180013 53.80391384242968 198.60788719767015 55.84589384060432 196.40595850071048 57.88787383877896 194.20402980375084 57.892108878098384 194.20668770554792 57.89634391741781 194.209345607345 57.900578956737235 194.21200350914208 57.90481399605666 194.21466141093916 56.58961253534705 196.8349104425891 55.27441107463744 199.455159474239 54.4358678961211 201.40174087692668 53.597324717604764 203.3483222796144 52.692500423794414 204.95287623831098 51.787676129984064 206.5574301970076 50.77433638223938 208.96270652145262 49.76099663449471 211.36798284589767 48.94755340033472 214.45916247237673 48.13411016617473 217.5503420988558 47.66904905536797 220.21157299378973 47.20398794456121 222.8728038887237 46.979002808699086 225.86282246891886 46.75401767283696 228.852841049114 46.983880898636464 231.41167065984558 47.21374412443597 233.9705002705772 48.0659205238188 236.67698497173578 48.918096923201624 239.38346967289436 50.5738927079646 242.85944176818828 52.22968849272758 246.33541386348222 53.85345815013967 249.2656957915898 55.47722780755176 252.19597771969737 57.702110477698014 255.26774273301476 59.926993147844264 258.3395077463322 62.78124439933404 261.8606786987266 65.63549565082381 265.38184965112106 65.62873840332031 265.38922119140625 Z" fill="hsl(0, 0%, 0%)"></path><path d="M 47.417852637306666 280.72540630485383 Q 47.417852637306666 280.72540630485383 42.69521382957832 276.87166802720105 37.972575021849984 273.0179297495483 34.494716522844186 269.1049439953342 31.016858023838385 265.1919582411202 27.65050166328104 260.2155459629792 24.284145302723694 255.23913368483824 21.916024170999123 250.87785835713714 19.547903039274548 246.51658302943608 18.13601340825003 242.53702799501818 16.724123777225515 238.55747296060028 15.995476411459046 233.2899228725313 15.266829045692578 228.02237278446228 15.509049593315329 223.61643765008398 15.751270140938079 219.21050251570568 16.84969428086917 214.97347777903855 17.94811842080026 210.73645304237138 20.305243722987367 206.007872984497 22.662369025174474 201.2792929266226 25.848554563951478 197.2850877976038 29.03474010272848 193.29088266858506 33.12511103024209 189.7743138142837 37.21548195775569 186.2577449599823 40.73608769608732 183.8412352883225 44.25669343441894 181.42472561666273 47.25173074938383 179.722965415964 50.24676806434872 178.0212052152653 53.61692922325769 176.94436881953303 56.98709038216666 175.86753242380075 59.24491005358724 175.54594925685015 61.50272972500782 175.22436608989955 61.50404461064082 175.22919010024077 61.505359496273826 175.23401411058197 61.506674381906834 175.23883812092316 61.507989267539834 175.2436621312644 59.48335126755883 176.08935300971973 57.45871326757783 176.93504388817507 54.64119258828834 178.6047346581038 51.823671908998854 180.27442542803254 49.333077906890615 182.4426192114489 46.84248390478238 184.61081299486528 43.93687386783452 187.41138308908063 41.031263830886665 190.21195318329598 37.77851568065167 193.7859403785261 34.52576753041668 197.35992757375627 32.10010360955832 200.97576367082962 29.67443968869996 204.591599767903 27.90083080754954 208.69537899861626 26.12722192639912 212.7991582293295 25.28365756556159 216.3818409668437 24.44009320472406 219.96452370435793 24.001623359051624 223.58804876888067 23.563153513379188 227.2115738334034 23.825341988533793 231.7632512052371 24.087530463688402 236.3149285770708 25.007019281889946 239.88468154084998 25.926508100091485 243.45443450462918 27.747751881355157 247.78261675282147 29.568995662618832 252.1107990010138 32.171276775227476 257.2103177493316 34.77355788783612 262.3098364976493 37.562166218607075 266.5501464892849 40.35077454937804 270.79045648092045 43.891608966289596 275.75109198256456 47.43244338320115 280.71172748420867 47.425148010253906 280.71856689453125 Z" fill="hsl(0, 0%, 0%)"></path><path d="M 62.76448989868164 288.38323974609375 Q 62.76448989868164 288.38323974609375 63.128031836122396 290.3113796234131 63.491573773563154 292.2395195007324 63.66046461701015 293.88532210350036 63.829355460457144 295.5311247062683 64.0666690024875 298.15852018735313 64.30398254451786 300.785915668438 64.8313907742983 304.0205143899101 65.35879900407873 307.2551131113821 66.60233623172296 311.78404596800294 67.84587345936718 316.3129788246237 74.32478453290591 328.7478258553856 80.80369560644462 341.18267288614754 88.18579378645325 353.55890456647705 95.56789196646187 365.93513624680656 103.4841898649404 377.79761441843937 111.40048776341894 389.66009259007217 117.70363837648372 397.65332890861737 124.0067889895485 405.6465652271625 129.12892659928224 411.5013092178689 134.251064209016 417.3560532085752 140.17640210594524 423.0508423357629 146.1017400028745 428.74563146295066 151.3527368672726 433.36305723465784 156.60373373167067 437.98048300636503 163.37231409123513 442.8786150164713 170.1408944507996 447.7767470265776 176.56022108896508 452.1227744961019 182.97954772713055 456.4688019656262 189.6884030648697 460.6108255942946 196.39725840260886 464.75284922296305 205.89400145082976 470.50722540165617 215.39074449905067 476.2616015803493 222.51373714752205 480.8070424746642 229.63672979599343 485.3524833689791 234.67472529667808 489.04983567130785 239.71272079736272 492.74718797363664 239.7102637322027 492.7515426068932 239.70780666704266 492.7558972401498 239.70534960188263 492.7602518734064 239.7028925367226 492.764606506663 233.97573678494797 490.3878128301319 228.24858103317334 488.0110191536009 220.41163688961046 484.7454884087788 212.5746927460476 481.4799576639566 202.42636177647648 476.6329656734716 192.27803080690538 471.78597368298654 185.16896852666656 467.8345896709416 178.05990624642774 463.8832056588967 171.40993647590884 459.55577253768 164.75996670538993 455.2283394164633 157.62827009317635 450.08818036517533 150.4965734809628 444.94802131388735 145.07697074236063 440.20450516953827 139.65736800375848 435.4609890251892 133.4377270984767 429.4998426841057 127.21808619319494 423.53869634302225 121.91102258144635 417.52248707773197 116.60395896969776 411.50627781244174 110.03389553422645 403.233962998426 103.46383209875515 394.96164818441025 95.34876040836431 382.81076651345944 87.23368871797348 370.65988484250863 80.22707284136509 357.6436478789833 73.22045696475669 344.627410915458 67.87950470626225 331.0172902932849 62.53855244776782 317.40716967111183 61.89526498173224 312.503041934085 61.25197751569665 307.5989141970581 61.228487384271034 304.19285348517724 61.204997252845416 300.7867927732963 61.44231079487578 298.1589587397823 61.67962433690614 295.5311247062683 61.84851518035313 293.88532210350036 62.01740602380013 292.2395195007324 62.380947961240885 290.3113796234131 62.74448989868164 288.38323974609375 62.75448989868164 288.38323974609375 Z" fill="hsl(0, 0%, 0%)"></path><path d="M 148.02813162181369 479.990920406155 Q 148.02813162181369 479.990920406155 151.82093528295522 481.1843521248832 155.61373894409675 482.37778384361144 165.1421346725138 485.6777969117211 174.67053040093083 488.9778099798308 189.76027129572 493.2024856357118 204.85001219050918 497.4271612915928 216.09080993887395 500.08992078122367 227.33160768723872 502.75268027085457 236.9970001894717 504.78553548323225 246.6623926917047 506.81839069561 257.7233742360563 507.9557726701196 268.78435578040796 509.0931546446291 278.1527478561656 509.5893622906129 287.52113993192324 510.08556993659664 298.63919876227686 508.9356772864469 309.7572575926305 507.7857846362972 319.04397813769765 505.68754764495054 328.3306986827648 503.58931065360395 335.74747297878014 501.0914202492787 343.16424727479546 498.59352984495354 351.1866582257366 495.09834875042975 359.20906917667776 491.6031676559059 365.01597272389233 488.5133267927699 370.8228762711069 485.42348592963384 376.30459995871945 482.2091862416011 381.78632364633205 478.9948865535684 390.85428976347595 471.8394811826993 399.92225588061984 464.68407581183016 404.44041186225104 460.8940810802822 408.95856784388224 457.10408634873426 413.9915336064713 451.7150674147556 419.0244993690604 446.32604848077693 421.90185011577194 443.46559260741213 424.77920086248344 440.60513673404733 427.19484426910356 437.69965797495513 429.6104876757236 434.79417921586287 430.64192396887535 433.0747685652125 431.6733602620271 431.35535791456203 432.821560625335 429.76506942615526 433.969760988643 428.1747809377485 435.11741467542026 426.9850396476056 436.2650683621976 425.7952983574627 437.6279076518488 423.5124516068488 438.9907469414999 421.2296048562349 438.99531765755796 421.231631813244 438.999888373616 421.2336587702531 439.004459089674 421.2356857272622 439.0090298057321 421.2377126842713 438.2820773000914 423.99781172929755 437.5551247944507 426.7579107743238 436.79075173276135 428.06499907321574 436.02637867107194 429.3720873721076 435.2681554436632 431.06422915810714 434.5099322162544 432.75637094410666 433.6481288192776 434.8716106863608 432.78632542230076 436.98685042861484 430.74728720508904 440.511615600093 428.70824898787737 444.03638077157126 426.2889216663358 447.2323111945165 423.86959434479417 450.42824161746177 419.03225105834554 456.69708050441943 414.1949077718969 462.9659193913771 409.7473323427638 467.1627274284155 405.2997569136307 471.3595354654539 395.8643472934753 479.10789223850117 386.4289376733199 486.8562490115484 380.7790719939876 490.1925333173584 375.1292063146552 493.52881762316844 369.0027013445177 496.778516146395 362.87619637438013 500.0282146696216 354.4860613481417 503.672208208336 346.0959263219032 507.3162017470504 338.22711126387003 509.9503070043427 330.35829620583684 512.584412261635 320.52991220461337 514.7840705511853 310.7015282033899 516.9837288407357 298.87882554672234 518.1691423403756 287.0561228900548 519.3545558400157 277.4444808287268 518.8644236506012 267.8328387673988 518.3742914611868 256.2708302637824 517.1908738229947 244.70882176016593 516.0074561848027 234.84566683507978 513.8758172200055 224.9825119099936 511.7441782552084 213.60593154209047 508.4968428748323 202.22935117418734 505.2495074944561 187.43389768177903 499.45679253248966 172.63844418937072 493.6640775705232 163.69797235835478 488.94853703069225 154.7575005273388 484.23299649086124 151.38862549280162 482.1210380423531 148.01975045826444 480.009079593845 148.02394104003906 480 Z" fill="hsl(0, 0%, 0%)"></path><path d="M 343.47835295577585 431.1292458394507 Q 343.47835295577585 431.1292458394507 345.856498181496 432.22720574508105 348.2346434072162 433.32516565071137 350.97629496783065 434.7896007904883 353.71794652844517 436.2540359302652 358.2629933423947 438.2547375500126 362.80804015634425 440.25543916975994 367.12472774091145 441.46491776229294 371.4414153254787 442.67439635482594 375.30620287224656 443.0493983652143 379.1709904190144 443.4244003756027 384.3205473570445 443.4319770840765 389.47010429507463 443.43955379255027 393.9250757371718 442.831794597334 398.38004717926896 442.22403540211775 403.28090527071976 440.57660445352303 408.18176336217056 438.9291735049283 412.426118335579 437.1376973161292 416.6704733089875 435.34622112733007 420.32213902898684 433.51527436892263 423.9738047489862 431.68432761051525 428.32879642244234 429.51064053528864 432.6837880958984 427.33695346006203 435.851763859156 425.6313030470202 439.01973962241357 423.9256526339784 442.9758309732595 422.03357014274616 446.93192232410547 420.14148765151384 449.83085874182524 419.00177539950687 452.729795159545 417.86206314749995 455.10191486767724 416.99911490573606 457.4740345758095 416.1361666639722 460.23114490807507 415.66687667458245 462.98825524034066 415.1975866851928 465.08271472375435 415.2348199464859 467.17717420716804 415.272053207779 469.2485810562458 415.60306040605326 471.31998790532356 415.9340676043276 473.7594394895192 417.1986919105873 476.1988910737149 418.463316216847 477.9716091319694 420.11837418894766 479.7443271902239 421.7734321610483 481.2979981848333 425.02951693378725 482.8516691794427 428.28560170652617 483.4446369556215 431.61578310907646 484.0376047318003 434.94596451162676 483.62753522829263 439.4940351562627 483.217465724785 444.0421058008987 482.7156165256366 447.9471978412672 482.21376732648827 451.8522898816358 481.07273204805836 456.0355050953327 479.9316967696285 460.2187203090296 477.6528299683134 465.44294370607383 475.37396316699835 470.6671671031181 473.2264671275673 474.768334375461 471.07897108813614 478.8695016478039 468.9741974209123 482.5083607220536 466.8694237536884 486.1472197963034 463.51300022409697 490.52562999982626 460.15657669450553 494.9040402033491 457.2600344398789 498.503630901251 454.36349218525226 502.1032215991528 450.95889844035986 505.97277400452896 447.55430469546747 509.8423264099051 445.1534617158119 512.4704813856588 442.75261873615636 515.0986363614124 441.1010053179995 516.7411833367512 439.4493918998427 518.3837303120898 437.7950701589099 519.8035007622988 436.14074841797714 521.2232712125077 434.3653445544768 522.6300309422995 432.5899406909764 524.0367906720912 432.5863444183989 524.0333169387179 432.5827481458214 524.0298432053447 432.579151873244 524.0263694719715 432.57555560066646 524.0228957385982 433.88598290279674 522.1892436608364 435.19641020492696 520.3555915830747 436.43149843029244 518.6306692644864 437.66658665565785 516.9057469458982 438.92491125275694 515.0377317768243 440.18323584985603 513.1697166077506 442.0368429710095 510.13014694913284 443.8904500921629 507.09057729051506 446.60761221406364 502.8092327793097 449.3247743359644 498.52788826810433 451.7587641099365 494.6150015732454 454.19275388390867 490.70211487838645 456.8975808219991 486.4777483983454 459.60240776008953 482.2533819183043 461.3895483941208 478.6126865946461 463.1766890281521 474.9719912709879 465.0017126509115 471.018435965303 466.8267362736708 467.0648806596181 468.71009009582315 462.4104150604527 470.5934439179755 457.75594946128723 471.4684803012657 454.24996782383823 472.34351668455594 450.7439861863892 472.6966505543446 446.92670184676354 473.0497844241333 443.10941750713795 473.3552289948249 439.8570422921369 473.66067356551656 436.60466707713584 473.3447409929594 434.54317260303566 473.0288084204022 432.48167812893547 472.4438903591621 430.82885535011167 471.85897229792204 429.1760325712878 470.48406668432744 427.6799613758071 469.1091610707329 426.1838901803265 466.66645534455745 425.5897162866518 464.22374961838204 424.99554239297714 462.2998803272743 425.14298791453234 460.37601103616663 425.2904334360876 458.2151975886595 425.8786275730176 456.05438414115247 426.46682170994757 453.47252123930724 427.4453513198031 450.890658337462 428.42388092965854 447.1356770418592 430.2196448545502 443.3806957462564 432.01540877944194 440.0710747523596 433.80211829887014 436.76145375846284 435.5888278182984 432.3561778438535 437.74378456108496 427.95090192924425 439.89874130387153 423.9524877057029 441.77166098823864 419.9540734821615 443.6445806726057 415.2718810642884 445.3831585966308 410.58968864641525 447.12173652065593 404.85675732225866 448.59538949676704 399.12382599810206 450.06904247287815 394.1128524313941 450.3238736129072 389.1018788646861 450.5787047529363 383.6447276047235 450.0234429033706 378.18757634476094 449.4681810538049 373.94639147713417 448.51885704527695 369.7052066095074 447.5695330367489 365.31886942996596 445.6629504083022 360.9325322504246 443.7563677798555 356.66597732449065 441.01762352062036 352.3994223985568 438.2788792613852 349.96262936383437 436.3690656676416 347.5258363291119 434.459252073898 345.49679466518364 432.80272894730183 343.4677530012554 431.1462058207056 343.4730529785156 431.1377258300781 Z" fill="hsl(0, 0%, 0%)"></path><path d="M 248.625167070617 456.0575835012926 Q 248.625167070617 456.0575835012926 245.41741158337396 457.27448001711485 242.20965609613089 458.4913765329371 238.11289956628858 459.7420873025191 234.01614303644627 460.9927980721011 227.68136995629595 462.93666512052465 221.34659687614567 464.8805321689482 215.68494222136974 466.66624480956403 210.02328756659384 468.45195745017986 204.82784919468818 469.8746753736035 199.63241082278253 471.2973932970272 193.61433215080513 472.042889955836 187.59625347882775 472.7883866146449 183.1338953578492 473.12112702122715 178.6715372368707 473.45386742780937 174.92372212453807 473.3335094774803 171.1759070122054 473.2131515271512 167.298679692252 472.28344953128885 163.4214523722986 471.3537475354265 160.42151683453886 470.38875846220833 157.42158129677915 469.4237693889902 153.96921697709547 467.0754273062354 150.5168526574118 464.7270852234805 148.20049388133174 462.5613300988612 145.88413510525172 460.3955749742419 144.22923532479442 458.6343514019977 142.57433554433712 456.8731278297535 141.16448217382754 454.84857190641054 139.75462880331793 452.82401598306757 137.97408751452207 451.01393699353423 136.19354622572618 449.20385800400084 136.96422552034426 452.20875635877667 137.73490481496233 455.2136547135525 136.62465291819893 459.29817847222955 135.51440102143553 463.38270223090666 134.71764969943723 467.7350355309105 133.92089837743893 472.0873688309144 133.193494435978 478.0003180025673 132.4660904945171 483.91326717422027 131.7484674699706 488.97383622100836 131.03084444542412 494.0344052677965 129.96485095889585 499.7948377651553 128.89885747236755 505.55527026251417 128.00687372625157 509.88650827059735 127.11488998013557 514.2177462786806 126.319980153334 517.4478991212593 125.52507032653244 520.678051963838 124.44909611938607 523.7457068065557 123.3731219122397 526.8133616492736 122.88900613326665 528.8026720028033 122.4048903542936 530.791982356333 121.69662798542215 533.3004665594567 120.98836561655071 535.8089507625804 120.25081925968259 537.9596308759767 119.51327290281446 540.110310989373 118.7897340882021 541.812937480314 118.06619527358974 543.5155639712549 118.06136378435221 543.5142768381043 118.05653229511469 543.5129897049535 118.05170080587718 543.5117025718027 118.04686931663964 543.5104154386521 118.25857463487088 541.7024323553206 118.47027995310214 539.8944492719892 118.63707658832236 537.6735865222076 118.80387322354258 535.4527237724261 118.92724528027652 532.8601505206001 119.05061733701046 530.2675772687741 119.22705700368292 528.0317468333138 119.40349667035537 525.7959163978536 119.88177057061017 522.810778460411 120.36004447086498 519.8256405229686 120.62972613815532 516.5913579177437 120.89940780544565 513.3570753125189 121.21611378376696 508.9590135192443 121.53281976208828 504.5609517259697 122.01457065963352 498.8554959901246 122.49632155717876 493.1500402542795 122.82798714830618 488.083036803823 123.1596527394336 483.0160333533665 123.60493174966174 476.7654624775045 124.05021075988988 470.51489160164255 124.71648200373397 465.69062865875753 125.38275324757805 460.8663657158725 126.41867594995892 456.32121269613003 127.4545986523398 451.7760596763875 129.2676055171292 447.03975626317765 131.08061238191863 442.3034528499678 133.43754425040703 440.74492154157247 135.7944761188954 439.18639023317706 139.22125893021888 440.07592041860744 142.6480417415424 440.96545060403776 144.11941756900856 442.6551318816593 145.59079339647474 444.3448131592809 146.89879865755057 445.86030390253313 148.2068039186264 447.37579464578545 149.10407337863245 448.970038338445 150.00134283863852 450.5642820311046 151.18250448901307 452.1329553322212 152.36366613938762 453.70162863333775 154.1279508508922 455.4822513052981 155.89223556239676 457.2628739772585 158.15269101675176 459.01520095745764 160.41314647110676 460.7675279376567 163.07775118464667 461.6737833249506 165.74235589818662 462.5800387122445 168.71230139063175 463.46080198249973 171.68224688307686 464.34156525275495 174.9718065565234 464.5924106170039 178.26136622996998 464.84325598125287 182.58014838791587 464.7532051576603 186.8989305458618 464.6631543340677 192.46873834560682 464.41384809834756 198.03854614535183 464.16454186262735 203.2577143053137 463.2465470930416 208.47688246527557 462.32855232345594 214.35789061899544 461.19916856266644 220.2388987727153 460.06978480187695 226.80478648133948 459.0432751642043 233.37067418996364 458.0167655265317 237.59247918546617 457.4632804342973 241.8142841809687 456.9097953420629 245.21730025439462 456.4739880004633 248.6203163278205 456.03818065886367 248.62274169921875 456.0478820800781 Z" fill="hsl(0, 0%, 0%)"></path><path d="M 243.8410780021908 467.5497477801666 Q 243.8410780021908 467.5497477801666 242.83909614262225 470.2382316197643 241.8371142830537 472.92671545936196 240.30620796877213 475.2938109454138 238.77530165449056 477.6609064314656 236.7271322719281 479.6797974699782 234.67896288936566 481.69868850849076 231.66487681719417 484.0887370302131 228.6507907450227 486.4787855519354 225.3150535773928 488.22928432468456 221.97931640976293 489.9797830974337 219.4614256959647 491.0759032524512 216.94353498216645 492.17202340746866 215.10314132217394 492.990595510665 213.2627476621814 493.8091676138613 211.67272482097937 494.5050250219833 210.08270197977734 495.20088243010525 207.8907242166979 495.8895618305484 205.6987464536184 496.5782412309916 203.78088087526154 496.9580693943791 201.86301529690468 497.33789755776655 200.1753188295385 497.54898957388366 198.48762236217232 497.7600815900008 196.93048861247377 497.8959123654105 195.37335486277522 498.0317431408202 192.4202946777395 498.2147520146043 189.4672344927038 498.39776088838846 187.24660806615873 498.51562299530735 185.02598163961363 498.6334851022262 183.33777949513274 498.67330972474554 181.6495773506518 498.7131343472649 182.42804630813745 501.4850424313357 183.2065152656231 504.2569505154065 183.65137678530982 508.4115948118022 184.09623830499658 512.5662391081979 184.8728106721174 516.9130457087643 185.64938303923822 521.2598523093308 186.7714345664039 526.5129587112071 187.89348609356958 531.7660651130836 188.96149895751756 535.6779595145362 190.02951182146558 539.5898539159887 190.86670876336245 542.7429379348471 191.7039057052593 545.8960219537056 192.62141267845047 549.2651145517118 193.53891965164163 552.6342071497179 194.11623430018233 554.6594605148769 194.69354894872302 556.6847138800358 194.6889709268125 556.6867242818332 194.68439290490196 556.6887346836305 194.67981488299142 556.6907450854278 194.6752368610809 556.6927554872252 193.5698468879678 554.886208345081 192.4644569148547 553.0796612029367 190.7188903340512 550.025174195064 188.97332375324768 546.9706871871912 187.43313894413228 544.0831069622079 185.89295413501685 541.1955267372246 183.95959046108214 537.3752300525235 182.0262267871474 533.5549333678225 179.97491018663175 528.3920788960288 177.9235935861161 523.2292244242352 176.41834317004373 518.6226650502194 174.91309275397134 514.0161056762037 173.87765380406972 508.7700688019373 172.84221485416813 503.524031927671 173.01261359946147 500.33117558531717 173.18301234475481 497.1383192429633 174.01427508722952 494.6697210398712 174.84553782970423 492.2011228367792 176.13544926508368 490.80013070653524 177.42536070046313 489.3991385762913 180.22549797454076 488.7486768657096 183.02563524861839 488.0982151551279 185.06219825401996 488.19454816345484 187.0987612594215 488.2908811717818 189.6889478192245 488.41724005540004 192.27913437902745 488.54359893901824 195.11680741422373 488.66853059012124 197.95448044942003 488.79346224122423 200.8616722425532 488.76573986092166 203.76886403568636 488.7380174806191 205.71305677594177 488.40520245826394 207.6572495161972 488.0723874359088 209.31823537453536 487.6609393489815 210.97922123287353 487.2494912620542 212.89956549269755 486.75889075339285 214.81990975252154 486.2682902447314 217.26211982977833 485.58021504808926 219.70432990703512 484.89213985144704 222.85449237759536 483.74074270829664 226.00465484815558 482.58934556514623 229.17788903421405 480.74386657278046 232.35112322027254 478.89838758041464 234.49150294025486 477.4325093618586 236.6318826602372 475.9666311433025 238.47522880834273 474.0229432240503 240.31857495644826 472.07925530479815 242.07108490290997 469.80964511973764 243.8235948493717 467.5400349346771 243.83233642578125 467.5448913574219 Z" fill="hsl(0, 0%, 0%)"></path><path d="M 336.7616604586459 476.15888461557506 Q 336.7616604586459 476.15888461557506 339.59176579954567 474.1394343600308 342.4218711404455 472.1199841044866 349.0208437681174 468.6492591613318 355.61981639578937 465.17853421817705 361.47022690880954 462.7090198786018 367.32063742182976 460.23950553902654 371.7252997199783 458.56816247675874 376.12996201812683 456.89681941449095 380.1663400656879 456.0655325372702 384.20271811324903 455.2342456600495 388.75046644351085 454.7967765855487 393.2982147737726 454.35930751104786 396.7685736561094 454.4318942976562 400.23893253844625 454.50448108426457 403.9978171510421 455.39301476033637 407.75670176363803 456.2815484364082 410.85384084225853 457.5425263341266 413.95097992087904 458.803504231845 417.03861416113455 460.5035418480966 420.12624840139 462.2035794643481 423.4517295339565 465.46089788489223 426.77721066652305 468.71821630543644 429.2129472557996 471.8007342970351 431.64868384507616 474.8832522886338 433.55707701153847 478.0058197756938 435.4654701780007 481.1283872627538 437.12928450814826 485.48761363504934 438.7930988382958 489.8468400073449 439.9289309283095 493.624823520312 441.0647630183232 497.40280703327915 441.41599375073895 502.9555068754888 441.76722448315473 508.5082067176985 441.65625277061247 513.547047336259 441.54528105807015 518.5858879548194 440.5402442826363 524.6522038250041 439.5352075072025 530.7185196951889 437.77222936882805 536.7719613912898 436.00925123045363 542.8254030873907 436.00431952429767 542.824579513234 435.99938781814177 542.8237559390773 435.99445611198587 542.8229323649206 435.9895244058299 542.8221087907639 436.26730989009303 536.655100830221 436.54509537435615 530.4880928696782 436.4531403994298 524.6513975992307 436.36118542450345 518.8147023287833 435.80617860159725 513.9936567559207 435.2511717786911 509.17261118305805 434.55761401613313 504.4879344799615 433.8640562535752 499.80325777686494 432.5415624730625 496.34428452881735 431.21906869254985 492.88531128076977 429.69104973301665 489.29004480890393 428.16303077348346 485.6947783370381 426.44994292286606 483.06316516596104 424.7368550722487 480.431551994884 422.5401335267836 477.7522100078927 420.34341198131847 475.07286802090135 417.95391737290277 472.55025747355455 415.564422764487 470.0276469262077 412.9824438900463 468.4977031818885 410.4004650156055 466.9677594375692 407.93472657079093 465.81370694529573 405.46898812597635 464.65965445302226 402.61988570043457 463.7544786406941 399.7707832748927 462.849302828366 396.76657807277866 462.59007037124366 393.7623728706646 462.3308379141214 389.55698931333984 462.4088697602773 385.35160575601503 462.4869016064332 381.75469374351496 462.8685580719342 378.15778173101484 463.2502145374353 373.675402246069 464.4328558109834 369.19302276112313 465.61549708453157 363.2063461483651 467.2687771294358 357.21966953560707 468.92205717434007 350.2252389192605 471.26330994190914 343.2308083029139 473.6045627094782 340.0010228967434 474.8905026211703 336.77123749057284 476.17644253286244 336.7664489746094 476.16766357421875 Z" fill="hsl(0, 0%, 0%)"></path><path d="M 324.31058382890745 482.86426807873255 Q 324.31058382890745 482.86426807873255 334.6936180277861 480.9713100196329 345.0766522266647 479.0783519605332 352.34782122231127 478.5293597162313 359.6189902179579 477.9803674719293 363.7885815788592 477.74579539516765 367.9581729397605 477.511223318406 371.68242954244465 477.933199043801 375.4066861451288 478.35517476919597 379.1918791622985 479.027902039251 382.97707217946817 479.70062930930607 385.3647602068749 480.2472052079972 387.75244823428164 480.7937811066883 390.3335175169272 482.91653194947094 392.91458679957276 485.0392827922536 394.3093821173359 488.11982947708316 395.70417743509904 491.2003761619127 396.0423510934565 495.54907689117795 396.38052475181394 499.89777762044326 396.29443389650265 503.8325742481559 396.20834304119137 507.7673708758685 395.71090977127716 511.4574459394404 395.21347650136295 515.1475210030123 394.43610332468535 519.4091238990468 393.65873014800775 523.6707267950811 392.8322232119907 527.1188915244983 392.0057162759736 530.5670562539154 391.3519743523304 534.1838968080149 390.69823242868716 537.8007373621142 390.6932385493649 537.8004900378035 390.68824467004265 537.8002427134928 390.6832507907204 537.7999953891822 390.67825691139814 537.7997480648714 390.38857215795514 534.0656833678324 390.09888740451214 530.3316186707933 390.12898557484846 526.8533872555282 390.1590837451847 523.3751558402631 390.1010412013331 519.1167033832307 390.04299865748146 514.8582509261985 389.94185597066416 511.46349259353804 389.84071328384687 508.06873426087753 389.39086006546404 504.40697537332824 388.9410068470812 500.74521648577894 388.4232690629173 497.58947916040677 387.9055312787534 494.43374183503465 386.4250873341275 491.6717424237038 384.94464338950155 488.909743012373 383.12128339080937 488.24307895104954 381.2979233921172 487.5764148897261 377.76723098884736 486.69071198329925 374.2365385855775 485.80500907687247 371.1167986452237 485.1525531456326 367.9970587048699 484.5000972143928 363.8405174168264 484.3299135276954 359.68397612878283 484.159729840998 352.54917052649853 483.76223969096486 345.41436492421417 483.36474954093165 334.8632613972627 483.1244777916464 324.3121578703113 482.8842060423612 324.3113708496094 482.8742370605469 Z" fill="hsl(0, 0%, 0%)"></path><path d="M 276.40912670070827 484.8002110777918 Q 276.40912670070827 484.8002110777918 272.39905270921884 486.2344887533178 268.38897871772934 487.66876642884387 265.09109260437526 488.8401000431784 261.7932064910212 490.01143365751295 258.19986544425774 491.20602961063855 254.60652439749424 492.40062556376415 251.80589251661127 493.5041731540639 249.0052606357283 494.60772074436363 247.15932645363637 495.6678725191317 245.31339227154442 496.72802429389986 243.42886633055605 497.8226251337864 241.54434038956768 498.91722597367294 240.22253083421415 499.718933379267 238.90072127886063 500.52064078486103 237.53740832441972 501.5816045142365 236.1740953699788 502.642568243612 235.26387685266724 505.00383444241965 234.3536583353557 507.3651006412273 233.7713775984474 509.0277177073069 233.1890968615391 510.6903347733866 232.521882209348 512.7887756861967 231.85466755715692 514.8872165990067 231.08756167895623 517.6115963636414 230.32045580075555 520.3359761282762 229.6002614948177 522.6667820501186 228.88006718887982 524.997587971961 228.17427638779088 527.0630037363185 227.46848558670195 529.1284195006758 226.33916339771326 531.8865931691821 225.20984120872455 534.6447668376884 223.70283669370772 536.9156164033454 222.1958321786909 539.1864659690024 220.85208964363113 541.1128928399623 219.5083471085714 543.0393197109224 219.503874313176 543.0370849623123 219.4994015177806 543.034850213702 219.4949287223852 543.0326154650918 219.4904559269898 543.0303807164817 220.2239326400785 540.7993034073584 220.9574093531672 538.568226098235 221.74551666341236 536.2416386397529 222.5336239736575 533.9150511812707 222.91587058853662 531.0406517219772 223.29811720341576 528.1662522626837 223.556496005752 526.0521954963265 223.81487480808823 523.9381387299692 224.06708342501892 521.6198173908931 224.3192920419496 519.301496051817 224.5439616029548 516.2716786021122 224.76863116395998 513.2418611524074 225.1387743423567 510.8746552132328 225.5089175207534 508.5074492740583 226.07124730003744 506.1437985289425 226.63357707932147 503.7801477838268 227.47536739290194 502.05433517988695 228.3171577064824 500.32852257594715 229.95287492316342 498.2708585655388 231.58859213984445 496.2131945551305 233.61318014994157 495.0418886508887 235.6377681600387 493.87058274664696 237.1025645334236 493.30856468446984 238.5673609068085 492.74654662229267 240.64709192188204 491.92863373803465 242.72682293695559 491.1107208537766 245.02362642836414 490.2633032127036 247.32042991977266 489.4158855716306 250.37872177978926 488.62349741268565 253.43701363980585 487.8311092537407 257.14823896639064 487.15714279078964 260.85946429297536 486.4831763278386 264.37894167067964 485.8503140803567 267.8984190483839 485.21745183287493 272.1518117011816 484.9990256509791 276.40520435397923 484.7805994690832 276.40716552734375 484.7904052734375 Z" fill="hsl(0, 0%, 0%)"></path><path d="M 270.6586608886719 451.24747680664063 Q 270.6586608886719 451.24747680664063 273.13770790100097 450.72782861333116 275.61675491333006 450.2081804200217 278.0475914096832 449.9784575755841 280.47842790603636 449.74873473114656 284.54147879052164 449.4222717942746 288.60452967500686 449.0958088574027 291.1576694558203 448.90204757713354 293.7108092366338 448.7082862968644 295.6222455721904 448.5461444324578 297.5336819077471 448.38400256805124 299.723283866472 448.40106555054075 301.91288582519684 448.41812853303026 303.66981858636586 448.58316402114895 305.42675134753483 448.74819950926764 306.9997909259389 448.91303077951784 308.5728305043429 449.0778620497681 310.34316904757674 449.290829369746 312.11350759081057 449.50379668972386 315.0724957581873 449.9065205638009 318.03148392556403 450.30924443787785 321.00888567563345 450.77836062225924 323.9862874257029 451.24747680664063 323.9862874257029 451.25247680664063 323.9862874257029 451.2574768066406 323.9862874257029 451.2624768066406 323.9862874257029 451.2674768066406 321.00888567563345 451.736592991022 318.03148392556403 452.2057091754034 315.0724957581873 452.60843304948037 312.11350759081057 453.0111569235574 310.34316904757674 453.22412424353524 308.5728305043429 453.43709156351315 306.9997909259389 453.6019228337634 305.42675134753483 453.7667541040136 303.66981858636586 453.9317895921323 301.91288582519684 454.096825080251 299.723283866472 454.1138880627405 297.5336819077471 454.13095104523 295.6222455721904 453.9688091808234 293.7108092366338 453.80666731641685 291.1576694558203 453.6129060361477 288.60452967500686 453.41914475587856 284.54147879052164 453.09268181900666 280.47842790603636 452.7662188821347 278.0475914096832 452.53649603769713 275.61675491333006 452.3067731932596 273.13770790100097 451.7871249999501 270.6586608886719 451.2674768066406 270.6586608886719 451.2574768066406 Z" fill="hsl(0, 0%, 0%)"></path><path d="M 244.80002051456495 379.398436876531 Q 244.80002051456495 379.398436876531 245.85281555358273 381.18282702476074 246.9056105926005 382.9672171729905 247.86410181741576 384.7557065039023 248.82259304223098 386.5441958348141 249.59898039009977 388.1496495297463 250.37536773796856 389.7551032246785 251.27789334356876 391.0956026887785 252.18041894916897 392.4361021528785 253.3733909075218 394.8829502820024 254.56636286587462 397.3297984111263 255.26404717980392 399.0188873234106 255.96173149373325 400.70797623569484 255.89769162025073 402.7709615470125 255.83365174676823 404.8339468583302 254.46725289060214 407.297265460365 253.10085403443605 409.76058406239974 251.0917298900169 411.23685240757413 249.08260574559776 412.71312075274847 247.1764069154658 413.63832235296877 245.27020808533382 414.5635239531891 243.36648275694935 415.1621687670105 241.46275742856488 415.76081358083184 241.462190136866 415.75584586705907 241.4616228451671 415.75087815328624 241.4610555534682 415.7459104395134 241.46048826176934 415.74094272574064 243.61640844808477 413.9529017742143 245.7723286344002 412.16486082268796 247.43752451962158 410.55023122575426 249.10272040484296 408.93560162882056 249.90771098749963 407.52630226598296 250.7127015701563 406.1170029031453 250.54528165936432 404.0632761954842 250.37786174857237 402.0095494878231 249.97155881304337 400.2932553787729 249.56525587751435 398.57696126972274 248.99237546360575 396.50532109511096 248.41949504969713 394.43368092049917 247.70249998236804 392.72504725454945 246.98550491503894 391.01641358859973 246.54371826169086 389.33611005944897 246.10193160834277 387.65580653029826 245.49036250372075 385.6017760629312 244.8787933990987 383.5477455955642 244.82979171570437 381.47583844154786 244.78079003231005 379.4039312875315 244.7904052734375 379.40118408203125 Z" fill="hsl(0, 0%, 0%)"></path><path d="M 308.0339152297109 371.7374166009299 Q 308.0339152297109 371.7374166009299 308.3603959786992 374.8220438199836 308.6868767276875 377.90667103903735 308.8221010730357 380.82510100068475 308.95732541838396 383.7435309623322 309.37890026998656 385.9528895173954 309.80047512158916 388.1622480724586 310.5439751277137 389.68889548853065 311.2874751338382 391.2155429046027 311.6583778807461 392.8627627268063 312.02928062765403 394.50998254900986 313.59940665780175 396.72884118874543 315.1695326879495 398.947699828481 316.79511867016777 400.4448263228787 318.42070465238606 401.94195281727644 320.14394279013686 402.60936859794924 321.8671809278877 403.2767843786221 321.8665570021557 403.2817452975572 321.86593307642363 403.28670621649235 321.8653091506916 403.2916671354275 321.86468522495954 403.2966280543626 319.8150390968701 403.1634857272845 317.76539296878065 403.0303434002064 315.5060754911324 401.89012101563503 313.24675801348405 400.7498986310637 312.0816795458227 399.7794550879652 310.9166010781613 398.8090115448667 309.52830214990763 397.385701868032 308.1400032216539 395.96239219119735 307.410218733351 394.4050633111192 306.68043424504805 392.84773443104103 306.1302927269173 390.72294092366076 305.5801512087865 388.5981474162804 305.5503265266405 386.1045539392544 305.5205018444945 383.6109604622284 305.8898617222219 380.6485466891346 306.2592215999492 377.6861329160408 307.13660948394727 374.7108693880242 308.01399736794536 371.7356058600076 308.0239562988281 371.73651123046875 Z" fill="hsl(0, 0%, 0%)"></path></svg>