<svg xmlns="http://www.w3.org/2000/svg" version="1.1" xmlns:xlink="http://www.w3.org/1999/xlink" viewBox="0 0 640 800" style="overflow: hidden; display: block;" width="640" height="800"><defs></defs><g id="two-0" transform="matrix(1 0 0 1 0 0)" opacity="1"></g><path d="M 223.70592655204138 359.2889071986556 Q 223.70592655204138 359.2889071986556 215.83671148210044 353.16404624505094 207.96749641215953 347.03918529144636 200.04612525041057 339.0069408265007 192.12475408866158 330.97469636155506 187.6923347835971 326.35815917610705 183.2599154785326 321.7416219906591 178.5394050319815 313.9652483137355 173.81889458543037 306.188874636812 170.83476941065243 301.43595576686664 167.85064423587448 296.68303689692135 166.67284623636874 286.1953073874377 165.49504823686297 275.70757787795407 164.99280368286037 268.87126337156224 164.4905591288578 262.03494886517046 167.14829536943594 251.77898045760463 169.8060316100141 241.5230120500388 173.23331345488876 233.6349889973769 176.66059529976343 225.746965944715 179.3947776137327 220.2323132927923 182.128959927702 214.71766064086964 185.1106127077922 210.19925085672162 188.09226548788243 205.68084107257363 193.79508669817835 201.15414892666797 199.49790790847425 196.62745678076234 204.92057545561843 193.19391322807093 210.34324300276262 189.7603696753795 217.61852568532873 187.27439318193174 224.89380836789488 184.78841668848398 231.31984498701456 183.2877014077135 237.74588160613425 181.78698612694305 243.68157609120976 181.24863488363627 249.6172705762853 180.71028364032952 257.0446157136331 181.8154755481717 264.47196085098085 182.92066745601386 271.34694412453786 185.0794422431916 278.22192739809486 187.23821703036936 287.1830116589332 192.785109492492 296.14409591977153 198.33200195461467 303.66744814899687 203.81769985778732 311.19080037822215 209.30339776096 318.1464607418687 214.16785462824117 325.1021211055152 219.03231149552238 332.43463990324324 224.196380987444 339.7671587009713 229.36045047936562 345.3130123704869 232.89706088213083 350.85886604000245 236.43367128489604 355.50742120062375 238.75534775931453 360.155976361245 241.07702423373306 366.1666969807617 244.0123368396064 372.1774176002784 246.94764944547973 377.54486965232377 249.10192043844177 382.9123217043692 251.2561914314038 389.4498885287678 253.64308834999125 395.98745535316635 256.0299852685787 401.4518855467046 257.0541952574132 406.91631574024285 258.07840524624766 411.95543626746246 258.62715790402706 416.99455679468207 259.1759105618064 423.406562965406 258.7683598637883 429.81856913612995 258.36080916577015 435.4592026067837 257.00738234830897 441.0998360774375 255.65395553084772 447.4764236285741 253.16346607273002 453.8530111797107 250.6729766146123 458.7987374870437 247.18127187224437 463.74446379437677 243.68956712987642 468.59497209313724 238.91432305977702 473.44548039189766 234.13907898967759 478.8950984821929 227.27368569958318 484.34471657248815 220.40829240948878 488.1574965618837 213.44071147804044 491.9702765512793 206.47313054659207 494.95558520532995 198.38404742072385 497.9408938593806 190.29496429485565 499.4437343455969 184.87740319386853 500.9465748318133 179.45984209288144 501.7686877268251 175.8180242170024 502.5908006218368 172.17620634112333 502.59573824858205 172.17699364165338 502.60067587532734 172.1777809421834 502.60561350207263 172.17856824271342 502.61055112881786 172.17935554324347 502.2523891195161 175.9397388751599 501.89422711021433 179.70012220707633 500.6199501745165 185.21834793377207 499.34567323881856 190.73657366046777 497.09284004132934 199.3051542358799 494.8400068438401 207.87373481129202 491.51267293508124 215.47225938187967 488.1853390263223 223.07078395246734 483.31582566737535 231.03510850694985 478.4463123084284 238.99943306143237 473.2750777785491 244.48926606301666 468.1038432486697 249.97909906460097 462.4313125758164 253.78950814812723 456.7587819029631 257.5999172316535 449.817297682016 260.62478912657036 442.87581346106884 263.6496610214872 436.6232583957306 264.9037035296403 430.37070333039236 266.1577460377935 423.05730293894754 266.70049152986996 415.7439025475027 267.24323702194636 410.52386261479404 266.1393070450906 405.30382268208535 265.03537706823494 399.5913661747583 263.4671328282865 393.8789096674313 261.8988885883381 387.0802339299363 259.48214528628284 380.28155819244137 257.06540198422755 375.0093189913182 254.39812665150453 369.7370797901951 251.7308513187815 363.6755471365164 248.50627479321759 357.6140144828377 245.2816982676537 353.30071875191015 242.18313802914315 348.98742302098253 239.08457779063258 343.8164202154383 235.05261579785693 338.6454174098941 231.02065380508128 331.1316548301837 226.15370628922753 323.6178922504733 221.28675877337378 316.3808288537866 216.80736850063437 309.14376545709996 212.32797822789493 301.41971367821134 207.49421574760913 293.69566189932266 202.66045326732336 284.92770028054554 198.1848082937005 276.1597386617684 193.70916332007766 269.83641150454355 191.7289686539503 263.5130843473187 189.74877398782291 256.7366107521972 188.89260286962087 249.96013715707562 188.03643175141883 244.51099548739808 188.0680344346532 239.0618538177205 188.09963711788762 232.95858648040144 189.23622133769885 226.85531914308237 190.37280555751008 220.20464324736656 192.7960082155344 213.55396735165078 195.21921087355875 208.2456079863738 198.15175133650936 202.93724862109684 201.08429179945998 197.64914056279378 205.0554636761703 192.36103250449074 209.02663555288058 188.9251468127971 212.83711699640656 185.48926112110343 216.64759843993258 182.19695233590755 221.65671684502547 178.90464355071168 226.6658352501184 175.9293349675185 234.46600638233457 172.95402638432535 242.26617751455075 170.91669547568137 252.0726191375804 168.87936456703738 261.87906076061006 168.9959861345227 268.54639952301375 169.11260770200798 275.2137382854174 170.68719672060564 284.8332482859212 172.26178573920333 294.45275828642497 174.45763387477214 299.42025885461646 176.65348201034095 304.3877594228079 181.5286811824596 311.7055722656502 186.40388035457823 319.0233851084925 190.29105550928585 323.9979934365791 194.17823066399347 328.9726017646657 201.94368156378317 337.02658067313314 209.7091324635729 345.08055958160054 216.71417314619544 352.1772592969412 223.719213828818 359.2739590122819 223.7125701904297 359.28143310546875 Z" fill="hsl(0, 0%, 0%)"></path><path d="M 254.37732084255728 235.68067031601782 Q 254.37732084255728 235.68067031601782 259.5168940867715 238.66396249606214 264.6564673309858 241.64725467610643 269.6202543000522 244.76471310130637 274.5840412691186 247.88217152650634 282.06839721069286 252.91192102416446 289.5527531522671 257.9416705218226 295.5725136024859 261.5848620623407 301.59227405270474 265.2280536028588 311.3477092249416 270.58175912037916 321.10314439717837 275.93546463789954 329.8441288998649 280.01354391638677 338.5851134025515 284.09162319487405 346.40321118028214 287.2834020884888 354.22130895801274 290.47518098210355 362.7530803327352 293.5471217084903 371.2848517074576 296.61906243487704 378.53753503470034 298.55460236977626 385.7902183619431 300.4901423046755 393.7705294593841 302.2539122003548 401.750840556825 304.01768209603415 407.68885525503094 304.6284616896918 413.6268699532369 305.2392412833495 418.0378648326574 305.20520742311714 422.448859712078 305.17117356288475 427.56734471680033 305.01768635168685 432.6858297215227 304.8641991404889 441.5626931367987 304.3554073825828 450.43955655207475 303.8466156246767 457.79761238778946 302.4272020254067 465.15566822350416 301.00778842613676 469.48039180322775 300.01666054135114 473.8051153829513 299.0255326565655 481.0169842296258 296.28042693903456 488.2288530763002 293.5353212215037 493.7283799522487 290.11686328852636 499.22790682819726 286.698405355549 504.8325474519909 281.72304936946546 510.43718807578455 276.74769338338183 514.6204796529283 272.1011629491418 518.8037712300721 267.4546325149017 521.4674293580814 262.75769874067174 524.1310874860907 258.0607649664418 525.1176488339211 256.39134290818095 526.1042101817513 254.72192084992005 526.8682188176604 253.88656527282495 527.6322274535694 253.05120969572982 528.5739538945031 252.42297451176307 529.5156803354367 251.7947393277963 530.5803913964013 251.41013759536753 531.6451024573659 251.02553586293877 532.7709170814727 250.90692065280717 533.8967317055796 250.7883054426756 535.0182174939796 250.94257067642718 536.1397032823795 251.09683591017878 537.1916794283579 251.51501568517978 538.2436555743362 251.93319546018074 539.164981174862 252.59098514825996 540.0863067753877 253.24877483633918 540.8234343432699 254.10794366991934 541.5605619111521 254.96711250349952 542.0706495575117 255.9777255496051 542.5807372038713 256.9883385957107 542.8341386107354 258.09165897661853 543.0875400175995 259.19497935752645 543.0695274832954 260.326882040859 543.0515149489911 261.4587847241915 542.7631353628585 262.5534834728112 542.474755776726 263.6481822214309 541.9327697738606 264.6420530926337 541.3907837709953 265.63592396383655 540.3313604269931 269.8871976161181 539.2719370829908 274.13847126839966 537.8152993125054 278.42621377271115 536.3586615420201 282.71395627702265 532.365705368296 291.11768203005596 528.372749194572 299.5214077830893 523.827788479542 310.16501574800134 519.282827764512 320.8086237129134 515.4600812936806 330.96265179152 511.63733482284914 341.1166798701265 507.329782937332 352.8538445954706 503.0222310518149 364.5910093208147 500.7029357222494 372.0299289673609 498.38364039268384 379.4688486139071 494.6712298900994 389.5006306404214 490.95881938751495 399.5324126669356 487.6462279305721 408.43304108884354 484.33363647362916 417.33366951075146 480.38455971478965 428.2540365828314 476.43548295595014 439.1744036549113 473.3377218735626 448.7472381855131 470.2399607911751 458.3200727161148 467.7883911660437 466.78390898569074 465.3368215409123 475.2477452552667 462.6158034749935 485.4490459514511 459.89478540907476 495.6503466476356 457.6120124737588 504.3880018937343 455.3292395384428 513.125657139833 453.6085051235445 520.9848374637825 451.8877707086462 528.844017787732 450.44743798428584 535.7941505346892 449.0071052599255 542.7442832816464 448.2250353894093 547.6329701298863 447.4429655188932 552.5216569781262 446.3793870057559 558.9919914621598 445.3158084926187 565.4623259461935 444.7057689349398 569.4961335377138 444.0957293772609 573.5299411292342 444.0907330450393 573.5297496499104 444.0857367128177 573.5295581705867 444.0807403805961 573.529366691263 444.07574404837453 573.5291752119392 443.87780362823935 569.4024502470359 443.6798632081042 565.2757252821325 444.54875073329833 558.7016400338308 445.4176382584925 552.1275547855291 446.530178701194 547.2800315710856 447.6427191438956 542.4325083566421 449.36408224498314 535.5475522555114 451.0854453460707 528.6625961543808 452.91528026770425 520.8196142990059 454.7451151893378 512.9766324436309 456.9279493757098 504.21143337762436 459.1107835620817 495.4462343116178 461.71215061819515 485.2040926896824 464.3135176743086 474.96195106774695 466.60781853105004 466.43308334489467 468.90211938779146 457.9042156220424 471.7861866278713 448.2339202393938 474.6702538679511 438.56362485674526 478.3149307332074 427.53820507813975 481.9596075984637 416.5127852995342 484.8485681401977 407.47828558184676 487.7375286819316 398.44378586415934 490.83961660626596 388.31118018974144 493.94170453060025 378.1785745153236 495.99046084778297 370.5776413510828 498.0392171649657 362.97670818684196 501.416970983769 350.9920875330595 504.79472480257226 339.007466879277 507.38894698976935 328.3437575452558 509.98316917696644 317.6800482112347 512.7595696167418 306.5615841735484 515.5359700565173 295.4431201358621 517.1036837128038 286.3439879800932 518.6713973690904 277.24485582432425 519.9288371053398 272.75516855815437 521.1862768415891 268.2654812919845 523.64497069981 261.4940832625754 526.1036645580308 254.72268523316632 526.8675896545622 253.88725325938452 527.6315147510936 253.05182128560273 528.5731783638005 252.4234919321332 529.5148419765072 251.79516257866368 530.579514571975 251.41045437705202 531.6441871674427 251.02574617544033 532.7699899243996 250.9070183844396 533.8957926813564 250.7882905934389 535.0172938906722 250.94244367784052 536.1387950999881 251.09659676224211 537.1908130586841 251.51467133753778 538.24283101738 251.9327459128334 539.1642223922678 252.5904434650638 540.0856137671556 253.24814101729416 540.8228272482354 254.10723613382183 541.5600407293151 254.9663312503495 542.0702294344287 255.9768932826375 542.5804181395423 256.98745531492546 542.8339298771773 258.0907503501761 543.0874416148124 259.1940453854267 543.0695422708664 260.32594986435316 543.0516429269203 261.4578543432796 542.7633728121043 262.55258192438436 542.4751026972884 263.6473095054891 541.93321608422 264.6412345703228 541.3913294711515 265.63515963515647 540.636193111698 266.40548448808215 539.8810567522445 267.1758093410078 537.2761980072914 270.86892036982084 534.6713392623385 274.5620313986339 530.1933616733854 279.2934053614274 525.7153840844323 284.0247793242209 520.166239082165 288.7341917803173 514.6170940798977 293.4436042364137 510.8747457409215 296.29030336210235 507.1323974019454 299.137002487791 500.3996554478333 302.4110790343999 493.66691349372115 305.6851555810088 489.0745293519377 307.51786253339526 484.4821452101543 309.35056948578165 480.2613029248996 310.1053949035052 476.0404606396449 310.8602203212288 471.5516988673517 311.53364513155486 467.06293709505854 312.207069941881 458.72068561412203 312.63492916792234 450.3784341331855 313.0627883939636 441.414643103408 312.3349429918235 432.45085207363053 311.6070975896833 427.19070741496387 311.09191189471403 421.9305627562972 310.5767261997447 417.47602980297336 309.6916370835796 413.02149684964945 308.8065479674146 407.1730454817243 307.41484460593665 401.3245941137991 306.02314124445866 393.2381061781099 304.37143862219466 385.1516182424206 302.71973599993066 377.9322344369076 300.50754368040907 370.71285063139453 298.2953513608875 362.0437286807679 295.49663703551204 353.3746067301413 292.6979227101366 345.34839101084185 289.8537842283963 337.32217529154246 287.009645746656 328.2258730818927 283.36670304131155 319.12957087224294 279.72376033596714 308.95087475499827 274.6877439320866 298.77217863775354 269.6517275282061 292.88632894509766 265.69950259925156 287.0004792524418 261.747277670297 279.4339492391591 256.6828476332814 271.8674192258765 251.61841759626589 267.3419856520352 247.83587404736 262.81655207819387 244.05333049845413 258.59086195570893 239.87494398281973 254.36517183322397 235.6965574671853 254.37124633789062 235.68861389160156 Z" fill="hsl(0, 0%, 0%)"></path><path d="M 256.28786862050157 372.7046002814184 Q 256.28786862050157 372.7046002814184 250.2904724322502 374.3548815100598 244.29307624399883 376.0051627387012 238.6642166279246 376.6213023163482 233.03535701185032 377.23744189399525 227.32814142374502 377.6801905694032 221.6209258356397 378.12293924481116 215.76457006858865 378.1613768473233 209.9082143015376 378.19981444983546 204.62617447334944 378.0836807277128 199.34413464516126 377.9675470055902 194.3238872808316 377.7542813345332 189.30363991650194 377.54101566347623 184.46869275017667 376.97548702477536 179.6337455838514 376.40995838607455 174.19994779541474 375.26148716260707 168.7661500069781 374.1130159391396 164.03159218408757 373.13687488970555 159.29703436119703 372.1607338402715 153.57075417494843 370.46099932879565 147.84447398869983 368.76126481731984 142.94977191561625 366.9604841244642 138.05506984253267 365.1597034316085 133.68031180068826 363.68776323686905 129.30555375884384 362.21582304212956 123.60350124449613 359.32821572333194 117.9014487301484 356.44060840453426 113.32873096596806 354.26201857362764 108.75601320178772 352.0834287427211 103.64215953617526 349.03799847509856 98.52830587056278 345.9925682074761 94.32169879995388 343.3915822634434 90.11509172934497 340.7905963194107 86.33376972449311 338.3637014314761 82.55244771964125 335.9368065435415 78.8393118938126 333.1859778282977 75.12617606798395 330.4351491130539 69.38323261450522 326.03648307110495 63.64028916102648 321.63781702915605 59.353184497349304 318.3664872603839 55.06607983367212 315.09515749161176 50.60840795460197 310.9944052500214 46.15073607553182 306.89365300843093 51.48092490668415 304.12092544928237 56.811113737836486 301.3481978901338 60.24665677405025 305.1710910121402 63.68219981026401 308.9939841341467 67.69213878124829 315.0590644146308 71.70207775223257 321.12414469511504 76.11275408575457 326.1140442643558 80.52343041927658 331.10394383359653 83.71292890737547 334.9727812147203 86.90242739547438 338.8416185958441 90.03474315589057 342.35450343981194 93.16705891630674 345.86738828377975 97.44604797820115 351.43171811868126 101.72503704009556 356.9960479535828 105.56286237136601 361.95169358331293 109.40068770263646 366.90733921304303 112.79295113167868 371.9852273979999 116.18521456072088 377.0631155829567 119.40615109006153 383.02376092750455 122.62708761940218 388.9844062720524 125.21388904147918 394.36990276415446 127.80069046355617 399.7553992562565 129.8320022781566 404.9368398498259 131.86331409275707 410.11828044339524 133.3369388489192 417.05174877322725 134.8105636050813 423.9852171030593 135.34474501995274 431.02118458831495 135.87892643482417 438.0571520735706 135.120787288149 446.9221207301631 134.3626481414738 455.78708938675567 132.58516948734592 465.63044967866426 130.807690833218 475.4738099705728 129.17947729441482 482.9176748883061 127.55126375561164 490.3615398060395 126.37005483372401 495.19894001963644 125.18884591183638 500.03634023323343 122.69059646087113 505.69492425243845 120.19234700990589 511.3535082716434 119.0971173583975 513.6803141977509 118.00188770688912 516.0071201238584 117.99734637282202 516.005028166667 117.99280503875492 516.0029362094755 117.98826370468782 516.000844252284 117.98372237062073 515.9987522950926 118.43899184028078 513.4419320081583 118.89426130994082 510.8851117212242 120.63390227530662 505.13717857980146 122.37354324067243 499.3892454383788 123.3915525825109 494.6024558035673 124.40956192434936 489.81566616875574 125.36351671804968 482.39176713078996 126.31747151174999 474.96786809282423 126.72698873735222 465.3829903404178 127.13650596295444 455.7981125880113 126.33931372194033 447.4666716027642 125.54212148092621 439.1352306175171 124.68818182392701 432.92993861404625 123.83424216692782 426.7246466105754 122.04169969515908 420.6494091064095 120.24915722339034 414.57417160224355 118.48406399254915 409.88659559651614 116.71897076170795 405.1990195907887 114.26174874420028 400.3256149364525 111.80452672669261 395.4522102821163 108.34209856247926 390.23657907518725 104.87967039826592 385.0209478682582 101.61998990939844 380.65270280709296 98.36030942053098 376.2844577459278 94.32389063257003 371.9762218837485 90.28747184460907 367.6679860215693 85.11243742958376 363.1010512276444 79.93740301455846 358.53411643371953 76.37973491039335 355.0597196142723 72.82206680622824 351.58532279482506 67.28647640809639 345.76361768190054 61.75088600996454 339.941912568976 58.6216067989815 336.4853361702825 55.49232758799846 333.028759771589 52.49069632447499 329.22160373656993 49.48906506095152 325.4144477015509 45.94182208152449 319.56145516823557 42.39457910209747 313.70846263492024 40.76846612834028 308.32681921466656 39.1423531545831 302.94517579441293 40.23001359895644 297.9916192566137 41.31767404332978 293.0380627188145 48.26846406930938 291.26197620018195 55.21925409528898 289.48588968154934 59.283452269273205 294.63074539247316 63.34765044325743 299.7756011033969 66.30020560574464 302.9676987911833 69.25276076823185 306.15979647896967 73.96716095831637 310.6816242624019 78.68156114840089 315.2034520458342 84.40678687409033 320.0062019512868 90.13201259977977 324.80895185673944 93.63512349052199 327.3423529345509 97.13823438126421 329.87575401236234 100.99785967313426 332.4648748587111 104.85748496500429 335.05399570505983 109.64938149712492 337.7394448683899 114.44127802924554 340.42489403172004 118.91766196969223 342.6570856801229 123.39404591013893 344.88927732852585 128.61415622374523 347.1950949087699 133.8342665373515 349.50091248901384 138.3077064538019 351.17515487496973 142.7811463702523 352.8493972609257 147.0396506676165 354.562725440731 151.29815496498074 356.2760536205363 156.73897943943658 357.65988482161754 162.1798039138924 359.04371602269885 166.86979841765933 360.13809795616567 171.55979292142624 361.2324798896325 176.63532942899656 362.3633645731974 181.7108659365669 363.49424925676226 186.0489869150283 364.40319602890963 190.3871078934897 365.31214280105706 195.2844673384122 365.9757681616145 200.1818267833347 366.639393522172 205.27301800736208 367.2903220217249 210.36420923138945 367.94125052127777 215.95316220306478 368.4882883277093 221.5421151747401 369.03532613414086 227.21026053782003 369.3785703778243 232.87840590089993 369.7218146215077 238.46032420650232 370.1038261245087 244.04224251210468 370.4858376275098 250.1646014965828 371.58522926874883 256.28696048106093 372.68462090998787 256.28741455078125 372.6946105957031 Z" fill="hsl(0, 0%, 0%)"></path><path d="M 343.46394931434287 521.1934327700142 Q 343.46394931434287 521.1934327700142 346.6933917523114 511.6934730459417 349.9228341902799 502.19351332186926 352.4969192471816 496.2269646837072 355.07100430408326 490.2604160455451 357.38002114286235 484.4189912965189 359.6890379816415 478.57756654749267 362.2871936447326 472.46417826004785 364.8853493078238 466.350789972603 366.5720485143919 461.28409505442755 368.25874772096 456.21740013625214 369.64292460754245 451.55506890462846 371.02710149412496 446.8927376730047 374.8041496905515 438.2575948486941 378.58119788697815 429.62245202438356 380.77027322623286 423.15078589791733 382.9593485654876 416.67911977145104 384.59911009880085 410.6470834606684 386.2388716321141 404.61504714988575 387.9980054125197 398.656517650949 389.7571391929253 392.6979881520122 391.81056091568445 385.65108771934257 393.8639826384436 378.6041872866729 395.05041551708905 372.8071027148877 396.23684839573446 367.01001814310257 397.44808978358066 361.67117753537934 398.65933117142686 356.3323369276562 399.6217033416923 350.0498189863297 400.5840755119578 343.76730104500325 400.53174927307333 341.35331098353504 400.47942303418887 338.9393209220669 400.6635854508187 338.2144419833883 400.84774786744856 337.48956304470977 401.2000388186211 336.8298234315588 401.55232976979374 336.1700838184078 402.0522740888746 335.6138276280985 402.5522184079555 335.05757143778914 403.17075930762985 334.6371283062378 403.7893002073043 334.21668517468646 404.4904880614211 333.95649127645333 405.1916759155379 333.69629737822027 405.93475765307073 333.61147519489583 406.67783939060354 333.5266530115714 407.4196270660534 333.6221324124358 408.1614147415032 333.7176118133002 408.85879562032017 333.98784353108914 409.55617649913717 334.2580752488781 410.1686187718782 334.6873534034569 410.78106104461915 335.11663155803564 411.272969537617 335.6800064828906 411.76487803061474 336.2433814077455 412.10766299914405 336.908109725774 412.4504479676734 337.57283804380256 412.6241867332577 338.3002857139287 412.79792549884206 339.02773338405484 412.79252035626246 339.7756211135119 412.7871152136829 340.5235088429689 413.2285349516442 349.6389491865263 413.6699546896054 358.7543895300837 413.3670510129981 365.24129280352906 413.0641473363909 371.7281960769744 412.9926412705785 378.5035451715341 412.9211352047661 385.27889426609374 412.8306438124208 393.66465124082015 412.74015242007556 402.0504082155466 413.3189203275472 409.45165164053816 413.8976882350188 416.8528950655297 415.6708594974246 427.3756934418502 417.4440307598304 437.8984918181708 419.7008910614246 446.8153193203375 421.9577513630189 455.73214682250426 424.5648046362169 463.36988323712467 427.1718579094148 471.00761965174513 430.66471336917857 478.36497578623306 434.1575688289424 485.722331920721 437.3716213022265 490.8738986505032 440.58567377551066 496.0254653802853 443.5033160358144 499.9658297832119 446.42095829611816 503.9061941861386 450.27552417993616 507.8437867623136 454.1300900637542 511.78137933848865 458.3947814282452 514.9888349964795 462.6594727927362 518.1962906544703 467.8268439605004 521.3213661841896 472.9942151282646 524.4464417139088 477.37046137564994 526.6306157719921 481.7467076230353 528.8147898300753 489.66465847156707 531.6243949142552 497.5826093200988 534.4339999984352 503.460302265393 535.9035362407083 509.33799521068715 537.3730724829815 509.3377124054484 537.3780644786943 509.33742960020976 537.3830564744071 509.3371467949711 537.3880484701199 509.33686398973236 537.3930404658328 503.09418189755763 537.63597830616 496.85149980538296 537.8789161464872 492.38315809628705 537.302005158442 487.9148163871911 536.7250941703966 483.5879256011748 535.3809856896396 479.26103481515844 534.0368772088826 474.59728436287526 531.9120076405163 469.933533910592 529.7871380721501 464.20017611360305 526.6620023806279 458.4668183166141 523.5368666891058 453.93372369786226 519.8152903433024 449.40062907911044 516.0937139974991 445.51683644249965 511.5051317761438 441.6330438058888 506.9165495547885 439.3050980465024 502.4613884977632 436.977152287116 498.00622744073786 434.32978126048573 492.4772573288592 431.6824102338555 486.9482872169805 427.86485882284194 479.5448199349687 424.04730741182834 472.1413526529569 421.1194656409639 464.4911907800182 418.19162387009936 456.84102890707953 415.2025903438673 447.93357116060076 412.2135568176353 439.02611341412205 409.4208371139472 428.3491200978576 406.62811741025905 417.67212678159314 405.5372118790123 410.1897355858195 404.4463063477656 402.7073443900459 403.0196344464646 394.22002474387716 401.5929625451636 385.7327050977084 400.96996521689545 378.73132619985853 400.3469678886273 371.72994730200867 400.04268979450023 365.24447093281304 399.7384117003732 358.7589945636174 399.76157065456215 353.8703370712683 399.7847296087511 348.9816795789191 400.13203674754135 343.96080794675663 400.4793438863316 338.9399363145942 400.66343381414686 338.2150389632984 400.84752374196216 337.4901416120026 401.19974871741215 336.8303667730553 401.5519736928621 336.17059193410796 402.0518623838243 335.6142857521481 402.55175107478647 335.0579795701882 403.1702499270551 334.6374745866492 403.7887487793237 334.2169696031103 404.4899106105448 333.95670558739283 405.1910724417659 333.6964415716754 405.934145693365 333.61154508060145 406.67721894496407 333.52664858952744 407.41901616464503 333.622053811147 408.160813384326 333.7174590327666 408.8582212828278 333.98762101111663 409.5556291813296 334.25778298946665 410.16811437882376 334.68699989767185 410.7805995763179 335.11621680587706 411.2725644043486 335.6795425370659 411.76452923237923 336.2428682682548 412.10738067202635 336.9075623044629 412.4502321116735 337.572256340671 412.624043621156 338.2996866332834 412.7978551306385 339.0271169258957 412.7925247768587 339.77500519212754 412.78719442307903 340.5228934583594 411.8537375638252 343.66097646163166 410.9202807045713 346.79905946490396 408.8494092028376 352.6547335153799 406.7785377011038 358.5104075658559 405.1872008974818 363.61732841295793 403.59586409385975 368.72424926006 402.0766690156728 374.5431125536036 400.5574739374859 380.3619758471471 398.83717510866796 387.6844030692261 397.11687627985003 395.0068302913051 395.18159333848416 400.82256970542585 393.2463103971183 406.63830911954653 391.37825245526165 412.75565769955176 389.510194513405 418.873006279557 387.33429192854663 425.4333508738323 385.15838934368827 431.99369546810766 382.55357491823565 441.0597928995172 379.9487604927831 450.12589033092684 377.9828936211986 454.7077708625326 376.0170267496142 459.2896513941383 373.70994372476474 464.30798067873604 371.40286069991527 469.32630996333387 368.49259665948705 475.2762868008657 365.5823326190589 481.22626363839754 362.7077505489368 486.91823936725746 359.8331684788147 492.61021509611743 356.6916867670701 498.22630208951665 353.5502050553256 503.8423890829159 348.516180849007 512.5220489572321 343.4821566426884 521.2017088315483 343.4730529785156 521.1975708007812 Z" fill="hsl(0, 0%, 0%)"></path><path d="M 292.6872625653984 531.7432940359828 Q 292.6872625653984 531.7432940359828 288.4132147030183 529.0571190048342 284.13916684063827 526.3709439736857 278.62385025614594 521.982782575265 273.10853367165356 517.5946211768443 267.74607963803254 513.6397534918887 262.3836256044115 509.6848858069331 258.0554385106959 506.8045895413187 253.72725141698035 503.9242932757044 249.97585746609408 501.8469207592292 246.22446351520782 499.769548242754 242.08632546650435 498.0250656061127 237.94818741780088 496.2805829694714 231.6178435182988 494.1897872145208 225.28749961879674 492.09899145957013 219.33046505922175 491.32380699055994 213.3734304996468 490.54862252154976 206.81027715038798 490.1797515268165 200.24712380112916 489.8108805320832 193.64830338340514 489.26295672266974 187.0494829656811 488.7150329132562 180.58766280334214 488.2063616065901 174.12584264100317 487.69769029992403 169.3937796434812 486.8735112126179 164.66171664595925 486.0493321253118 160.3428161387033 484.9446543446794 156.02391563144738 483.83997656404694 156.02390650859184 483.83497657236956 156.02389738573626 483.82997658069223 156.0238882628807 483.8249765890149 156.02387914002514 483.81997659733753 158.30656586799964 483.18357407017754 160.58925259597413 482.5471715430175 164.7507057048288 481.57903571112 168.91215881368345 480.61089987922253 174.5414982233557 479.5029560540209 180.17083763302793 478.39501222881927 187.37148678334773 477.37486757452075 194.57213593366757 476.35472292022223 200.6173472747808 476.2147105276455 206.66255861589406 476.0746981350687 214.3380281183749 476.54693620165204 222.01349762085573 477.0191742682354 226.30503417564918 478.02577057964925 230.59657073044264 479.032366891063 236.97132775195263 482.2121267534154 243.34608477346265 485.3918866157678 247.86087242411116 487.93834072290963 252.37566007475968 490.48479483005144 256.02177691750035 493.31885959961465 259.667893760241 496.15292436917787 263.67201499355656 499.6440253770086 267.6761362268721 503.13512638483934 272.8454728398041 507.69060386132173 278.0148094527361 512.2460813378042 283.0216515672794 517.5124099906529 288.0284936818226 522.7787386435017 290.3652261539153 527.2542335342282 292.70195862600787 531.7297284249547 292.6946105957031 531.7365112304688 Z" fill="hsl(0, 0%, 0%)"></path><path d="M 190.18868991238378 487.66041488487326 Q 190.18868991238378 487.66041488487326 193.92893301759298 491.61991480569117 197.66917612280218 495.57941472650907 201.81725973811749 501.6068220718561 205.9653433534328 507.6342294172031 209.90100557872398 512.259783539114 213.83666780401515 516.8853376610249 217.1831765650586 520.6439925441971 220.52968532610208 524.4026474273693 224.13132689428457 527.648634788476 227.73296846246706 530.8946221495827 232.8009111180495 533.5817771099123 237.86885377363194 536.2689320702418 240.83689399943762 537.3367848325012 243.80493422524327 538.4046375947605 243.80478981923176 538.4096355090159 243.80464541322021 538.4146334232712 243.80450100720867 538.4196313375265 243.80435660119716 538.4246292517819 238.6755022775784 539.2628177248503 233.54664795395965 540.1010061979185 228.46058633594578 539.5093263469453 223.37452471793188 538.917646495972 217.4861095359742 536.1074382860528 211.59769435401654 533.2972300761336 207.16220560950256 529.1463590869254 202.72671686498862 524.9954880977172 199.64438941943797 518.8470847531217 196.5620619738873 512.6986814085263 194.03326276502008 505.58956955927033 191.50446355615287 498.4804577100143 190.83752854551736 493.07469426413303 190.17059353488185 487.66893081825174 190.1796417236328 487.6646728515625 Z" fill="hsl(0, 0%, 0%)"></path><path d="M 339.6341315094842 553.764935168078 Q 339.6341315094842 553.764935168078 345.38337998111376 546.9958775453352 351.1326284527433 540.2268199225925 354.5246435949157 536.862042285474 357.91665873708814 533.4972646483556 361.3840510024793 530.8937704444913 364.8514432678704 528.2902762406272 372.5575456073989 524.5257439240692 380.2636479469273 520.7612116075111 384.54744677525525 519.5320544366444 388.83124560358317 518.3028972657778 401.5323839950023 518.6214648767259 414.23352238642144 518.9400324876739 419.0325088763068 519.3868635028756 423.8314953661922 519.8336945180773 429.0896045857075 520.763787551438 434.3477138052228 521.6938805847986 438.89376954272257 523.3681012557443 443.4398252802224 525.0423219266897 444.86819090671764 525.8791882364706 446.2965565332129 526.7160545462513 446.2949558530897 526.7207914041912 446.29335517296647 526.7255282621311 446.29175449284327 526.730265120071 446.29015381272006 526.7350019780109 444.7574250519871 526.5712545922413 443.2246962912542 526.4075072064716 438.6382001522345 526.2135348476934 434.05170401321476 526.0195624889153 428.83851471668436 525.9738140692431 423.62532542015396 525.9280656495708 419.0480906514233 526.0598109417846 414.4708558826926 526.1915562339983 406.5155202513345 527.7170025626812 398.56018461997644 529.242448891364 391.20644805817926 530.4422610542279 383.852711496382 531.6420732170916 379.65762031878205 532.665366349063 375.4625291411821 533.6886594810344 368.9070620178428 536.2807231273989 362.3515948945036 538.8727867737636 358.4717604425598 541.526587551562 354.59192599061606 544.1803883293605 347.11961379330035 548.9801875181413 339.6473015959846 553.779986706922 339.6407165527344 553.7724609375 Z" fill="hsl(0, 0%, 0%)"></path><path d="M 403.8415278728364 522.1596398841513 Q 403.8415278728364 522.1596398841513 403.5855554830089 526.614317208814 403.32958309318127 531.0689945334767 402.0092302964465 536.0646923744682 400.68887749971174 541.0603902154596 398.22968386192724 546.2337532166454 395.77049022414275 551.4071162178311 391.7481014335432 554.7874003087668 387.7257126429437 558.1676843997026 382.4862276560421 559.3278290682199 377.24674266914053 560.4879737367371 372.9389613754935 560.5401315032934 368.6311800818464 560.5922892698499 363.3555773351586 559.4387960458989 358.07997458847086 558.285302821948 355.5333784932569 557.4699853760143 352.9867823980429 556.6546679300806 352.98677117695377 556.6496679426718 352.98675995586456 556.6446679552631 352.98674873477535 556.6396679678544 352.9867375136862 556.6346679804457 355.5130136361655 555.7953029167984 358.0392897586449 554.9559378531511 362.76743871169845 553.4891843943813 367.49558766475195 552.0224309356114 372.61463967018244 549.7090840872565 377.73369167561293 547.3957372389018 381.95941937841576 545.2274408193672 386.18514708121864 543.0591443998326 389.38641473946484 539.7804559715429 392.58768239771103 536.5017675432532 395.1559959108098 532.5846466977594 397.72430942390855 528.6675258522654 400.77372720131734 525.4096436676508 403.8231449787261 522.1517614830362 403.83233642578125 522.1557006835938 Z" fill="hsl(0, 0%, 0%)"></path><path d="M 339.65071655273437 567.1856079101562 Q 339.65071655273437 567.1856079101562 340.4420335344936 570.2155532836914 341.23335051625276 573.2454986572266 341.6965338764644 577.0843952035904 342.1597172366761 580.9232917499542 342.15380560291226 584.070992725588 342.14789396914847 587.2186937012219 339.96054882695285 589.5361687648026 337.7732036847572 591.8536438283834 333.3219144365007 592.379472333035 328.87062518824416 592.9053008376865 325.5609386427499 591.8557515042726 322.25125209725564 590.8062021708588 318.83034832126 593.1204840774548 315.40944454526425 595.4347659840507 314.62157907201913 597.3188179384879 313.833713598774 599.2028698929249 313.8287345557104 599.2024125854015 313.82375551264687 599.201955277878 313.8187764695833 599.2014979703546 313.8137974265197 599.2010406628311 314.0309063362455 594.629527433181 314.24801524597126 590.0580142035308 316.84634910558214 587.1718334344824 319.44468296519295 584.2856526654341 322.8385506914388 584.0121131680904 326.23241841768464 583.7385736707467 329.19274758167757 584.2501286642532 332.1530767456705 584.7616836577597 334.6373963072316 582.8424877038569 337.12171586879265 580.9232917499542 337.58489922900435 577.0843952035904 338.048082589216 573.2454986572266 338.83939957097516 570.2155532836914 339.6307165527344 567.1856079101562 339.6407165527344 567.1856079101562 Z" fill="hsl(0, 0%, 0%)"></path><path d="M 276.4167437918754 566.2304125357576 Q 276.4167437918754 566.2304125357576 276.3798963034858 569.2210463028667 276.34304881509627 572.2116800699758 276.3535426197462 576.0173332068562 276.3640364243961 579.8229863437365 279.32337242528166 581.3487876883055 282.28270842616723 582.8745890328746 286.3604792736968 582.5806070055978 290.43825012122636 582.286624978321 294.22502408332844 582.4148262782584 298.01179804543045 582.5430275781957 301.8685699392433 583.8080405885778 305.7253418330561 585.0730535989599 309.2997183779881 587.3581071372039 312.87409492292005 589.6431606754479 315.10318661595363 592.843005437179 317.33227830898727 596.0428501989102 318.74397474369977 599.5782994716922 320.15567117841226 603.1137487444743 320.8602681743083 605.8729632165524 321.5648651702043 608.6321776886306 321.56040156895597 608.634430745198 321.5559379677076 608.6366838017653 321.5514743664593 608.6389368583327 321.5470107652109 608.6411899149001 319.7406765179687 606.450295311885 317.93434227072646 604.25940070887 315.43327558264303 601.6628678262778 312.9322088945596 599.0663349436857 309.7893076926799 596.9345372672717 306.6464064908003 594.8027395908579 303.4337590177142 594.1592735802675 300.22111154462806 593.5158075696771 295.2499956808256 592.86709031742 290.27887981702304 592.2183730651627 285.8945897171215 591.6846011313643 281.51029961721997 591.1508291975658 277.17591793180077 589.4171392770455 272.84153624638157 587.6834493565252 271.99232098214065 583.5618006477823 271.14310571789974 579.4401519390393 272.15450766893105 575.3507410614849 273.16590961996235 571.2613301839305 274.7817484413872 568.7429978865864 276.3975872628121 566.2246655892424 276.40716552734375 566.2275390625 Z" fill="hsl(0, 0%, 0%)"></path><path d="M 251.4969940185547 643.8223364257813 Q 251.4969940185547 643.8223364257813 254.526935005188 642.8628457372943 257.5568759918213 641.9033550488073 261.7705768970737 641.1365075819131 265.98427780232606 640.3696601150187 269.4935054509423 639.5216575808585 273.00273309955855 638.6736550466982 275.92337974283873 637.9729712967023 278.84402638611897 637.2722875467064 283.6894005041744 636.0369910991574 288.53477462222986 634.8016946516085 292.112605332675 633.8423790856768 295.6904360431202 632.8830635197453 298.84191607287926 631.240133077946 301.99339610263826 629.5972026361468 301.9957122324788 629.601633837176 301.9980283623193 629.6060650382053 302.0003444921598 629.6104962392346 302.00266062200035 629.6149274402638 300.438452000138 631.507365826684 298.8742433782757 633.3998042131043 296.6783854669377 635.4625731632229 294.48252755559975 637.5253421133417 290.70284853312336 639.9627535887976 286.92316951064697 642.4001650642533 283.7226705227249 644.0160188492879 280.5221715348029 645.6318726343225 277.4113396036828 645.8759771886639 274.30050767256273 646.1200817430052 270.494592976052 646.1566225571573 266.6886782795412 646.1931633713094 262.12277713568125 645.9772405870324 257.5568759918213 645.7613178027552 254.526935005188 644.8018271142682 251.4969940185547 643.8423364257812 251.4969940185547 643.8323364257812 Z" fill="hsl(0, 0%, 0%)"></path><path d="M 304.19795224972904 624.6629147228845 Q 304.19795224972904 624.6629147228845 307.8377174233859 626.3964917754452 311.47748259704287 628.130068828006 314.55345249666925 630.0136382833336 317.62942239629564 631.8972077386612 320.59695637508446 633.9046537124377 323.5644903538733 635.9120996862142 326.60053823670796 637.2947685711551 329.6365861195426 638.6774374560961 332.65679794481173 639.3274906743632 335.6770097700809 639.9775438926304 335.67695260929656 639.9825435658842 335.67689544851225 639.987543239138 335.67683828772795 639.9925429123917 335.67678112694364 639.9975425856455 332.5318802557538 640.4977825270848 329.3869793845639 640.9980224685243 325.5937664419987 640.4291241405647 321.80055349943353 639.8602258126051 318.21789490108677 637.9210157584686 314.63523630274 635.981805704332 311.83036992535835 633.5545992120888 309.0255035479767 631.1273927198456 306.60539552217074 627.9028932953556 304.1852874963647 624.6783938708655 304.1916198730469 624.670654296875 Z" fill="hsl(0, 0%, 0%)"></path><path d="M 243.82964012083744 588.2731184081356 Q 243.82964012083744 588.2731184081356 236.75715137301475 587.0101803612539 229.68466262519206 585.7472423143722 225.6029168543143 584.8686738584689 221.5211710834365 583.9901054025656 216.74545916395044 582.8203074462863 211.96974724446437 581.6505094900068 208.3000184736036 581.0470194465822 204.63028970274283 580.4435294031578 198.40658081047752 579.7949915757325 192.1828719182122 579.1464537483073 188.12105691617853 579.0510099488968 184.0592419141449 578.9555661494862 178.06599808205365 580.1013860537803 172.0727542499624 581.2472059580743 165.70083946859359 584.5033974652704 159.32892468722477 587.7595889724665 159.32584300305444 587.7556515592707 159.32276131888412 587.751714146075 159.3196796347138 587.7477767328792 159.31659795054347 587.7438393196834 165.16044423514649 582.9600392557165 171.0042905197495 578.1762391917496 177.43734829675026 576.136716225648 183.870406073751 574.0971932595464 188.25131695668188 573.6769085709338 192.6322278396127 573.2566238823213 196.28219893584549 573.5282476535178 199.93217003207823 573.7998714247143 202.83375393093857 574.6633466737965 205.7353378297989 575.5268219228788 209.4017245560206 576.5721561105781 213.06811128224234 577.6174902982774 217.77645896239426 579.031067974284 222.48480664254618 580.4446456502908 226.45994940430694 581.7558931352445 230.4350921660677 583.0671406201982 237.13506244839638 585.6604998755626 243.83503273072506 588.2538591309269 243.83233642578125 588.2634887695312 Z" fill="hsl(0, 0%, 0%)"></path><path d="M 371.2530046364978 588.2545445147152 Q 371.2530046364978 588.2545445147152 373.77274663850983 586.4065660059937 376.2924886405219 584.5585874972721 382.7031175724361 582.1355332111959 389.1137465043503 579.7124789251199 393.776216745714 578.319665284559 398.4386869870777 576.9268516439982 402.58097603645547 575.676181378905 406.7232650858333 574.4255111138117 411.96421835793456 573.8991621711351 417.2051716300358 573.3728132284585 422.17111931014006 573.1205391637004 427.13706699024436 572.8682650989423 432.83886280034824 573.0645300833073 438.54065861045206 573.2607950676725 443.2078733761052 573.555456573589 447.8750881417584 573.8501180795057 451.53119023536794 574.2190806574595 455.18729232897743 574.5880432354134 458.6595355684898 575.0935714718564 462.1317788080021 575.5990997082996 467.15924512747847 576.3549322484655 472.1867114469548 577.1107647886315 475.28838637495284 578.2887445852145 478.39006130295087 579.4667243817975 480.06430273247327 580.1599860892111 481.73854416199566 580.8532477966246 481.73724325157593 580.8580755944745 481.7359423411562 580.8629033923245 481.7346414307365 580.8677311901745 481.73334052031674 580.8725589880244 479.92317867369667 580.6269047197961 478.1130168270766 580.381250451568 474.99874783687807 579.7942773726966 471.88447884667954 579.2073042938252 466.8218444456513 578.8842028207441 461.75921004462305 578.5611013476629 458.30390400957845 578.1947296033509 454.8485979745339 577.828357859039 451.2781835506888 577.442001864398 447.7077691268437 577.0556458697571 443.1488042449244 576.8693805757266 438.5898393630051 576.683115281696 432.95282868387596 577.043998589485 427.31581800474675 577.4048818972739 422.4532503442613 577.5399450641014 417.59068268377587 577.6750082309289 412.6680318887497 578.0600410096304 407.7453810937235 578.4450737883318 403.528043601308 579.3388311029513 399.3107061088925 580.2325884175708 394.6733183452093 581.2929825645238 390.03593058152615 582.3533767114767 383.6381813892033 584.406365249192 377.2404321968804 586.4593537869075 374.25119058683197 587.3658934056274 371.26194897678346 588.2724330243473 371.2574768066406 588.2634887695312 Z" fill="hsl(0, 0%, 0%)"></path><path d="M 372.2197744815606 588.2544269253495 Q 372.2197744815606 588.2544269253495 376.6193511538959 589.6086231418185 381.01892782623116 590.9628193582874 383.99284347770265 592.1067342282422 386.9667591291742 593.250649098197 391.6050194896294 595.6584688947935 396.24327985008466 598.06628869139 400.49316734384365 600.7389511894659 404.74305483760264 603.4116136875417 408.5310542786442 606.2093502590001 412.3190537196858 609.0070868304585 416.39692345184125 612.7398318781691 420.47479318399667 616.4725769258796 423.10882186633455 618.8243800027799 425.7428505486725 621.1761830796801 428.15925771938447 623.6645515279799 430.57566489009645 626.1529199762798 432.5944538583318 628.7207227411366 434.6132428265671 631.2885255059934 436.4136458763795 633.6020790507303 438.21404892619194 635.9156325954671 438.2104397753128 635.9190929465955 438.20683062443374 635.9225532977239 438.20322147355466 635.9260136488523 438.19961232267553 635.9294739999807 435.9536785512944 634.0226928002318 433.70774477991324 632.1159116004828 431.3906669802208 629.9384407190773 429.07358918052824 627.7609698376717 426.47288264981995 625.5652076534516 423.87217611911166 623.3694454692314 421.18240922124664 621.1809012513238 418.4926423233816 618.992357033416 413.93260788991694 615.9306469343359 409.3725734564523 612.8689368352557 405.7984068891186 610.0495716252028 402.22424032178486 607.2302064151498 398.22498368910476 604.4635061793848 394.22572705642466 601.6968059436198 389.82408803619603 599.0835551072818 385.42244901596735 596.4703042709438 382.68079044105946 594.8734934328907 379.9391318661516 593.2766825948376 376.0752243465924 590.7746166042753 372.21131682703316 588.272550613713 372.2155456542969 588.2634887695312 Z" fill="hsl(0, 0%, 0%)"></path><path d="M 246.70752159293087 592.1057191133892 Q 246.70752159293087 592.1057191133892 240.95989058989446 593.0430041865536 235.21225958685804 593.9802892597179 228.62098788156362 594.5634135040152 222.0297161762692 595.1465377483125 211.01478099215387 597.0563438727014 199.99984580803851 598.9661499970903 193.10145190123322 600.4774770432464 186.20305799442792 601.9888040894026 181.08106437066402 603.4763241780613 175.95907074690015 604.9638442667199 171.92637604616027 607.0001415711133 167.89368134542036 609.0364388755066 163.65072376554394 611.7017342955635 159.4077661856675 614.3670297156202 156.19508691608092 616.8324697843884 152.98240764649435 619.2979098531565 150.1263958633046 621.8776781427937 147.2703840801148 624.4574464324309 147.26683857011358 624.4539209028492 147.26329306011232 624.4503953732676 147.25974755011106 624.446869843686 147.25620204010983 624.4433443141044 149.85221483049344 621.5401894839804 152.44822762087702 618.6370346538564 155.5827049191653 615.9789090639954 158.7171822174536 613.3207834741343 162.92755348897617 610.4117668320671 167.13792476049878 607.50275019 171.3293326492754 605.4966598240926 175.52074053805202 603.4905694581853 180.67595646975667 601.947725692552 185.83117240146134 600.4048819269186 192.74459653187986 598.6746560392626 199.65802066229838 596.9444301516066 210.77162935483102 595.1156852839835 221.88523804736363 593.2869404163603 228.4742059050575 592.850904008497 235.06317376275135 592.4148676006337 240.88439957123836 592.2503384037784 246.70562537972538 592.0858092069233 246.70657348632812 592.0957641601562 Z" fill="hsl(0, 0%, 0%)"></path><path d="M 239.04638804850293 607.4340541256946 Q 239.04638804850293 607.4340541256946 235.93922387432707 609.4832004669399 232.83205970015123 611.5323468081851 228.5066157126197 614.0697030668912 224.18117172508815 616.6070593255973 217.9452143476919 620.3920499332006 211.7092569702956 624.1770405408039 206.52956422962933 627.3508973716628 201.3498714889631 630.5247542025216 196.64640488187126 633.7254018847827 191.94293827477946 636.926049567044 187.3822987442889 640.6200677739588 182.82165921379837 644.3140859808736 179.548398777221 647.5861250869661 176.27513834064365 650.8581641930585 173.7424000820015 653.8461946448335 171.20966182335934 656.8342250966085 168.8833320014677 660.2019861532635 166.55700217957602 663.5697472099184 166.55274709905052 663.5671215119689 166.54849201852505 663.5644958140196 166.54423693799959 663.5618701160702 166.5399818574741 663.5592444181207 168.53657681989432 659.9214803088628 170.53317178231458 656.2837161996048 172.9870954989376 653.1580095307575 175.44101921556063 650.0323028619101 178.71615532119728 646.6964254950769 181.99129142683395 643.3605481282439 186.3574865697169 639.2839574926132 190.72368171259984 635.2073668569826 195.3584490408469 631.7902913263149 199.99321636909391 628.3732157956473 205.11975582721442 625.0495998954881 210.2462952853349 621.7259839953289 216.5942337237879 618.0001508114283 222.94217216224095 614.2743176275277 227.4861917901269 612.1015029877963 232.03021141801284 609.928688348065 235.53382757830963 608.6724269744664 239.03744373860644 607.4161656008679 239.0419158935547 607.4251098632812 Z" fill="hsl(0, 0%, 0%)"></path><path d="M 358.80538142832614 598.7928233632679 Q 358.80538142832614 598.7928233632679 363.3045888585348 599.8758191882459 367.8037962887435 600.9588150132239 371.4372527540319 602.1671319656743 375.0707092193203 603.3754489181247 382.1579835429072 606.6497183944072 389.24525786649406 609.9239878706896 395.0550267852589 614.1957086259495 400.8647957040238 618.4674293812092 405.4673309018083 622.5661751784755 410.06986609959273 626.6649209757418 414.4210330284086 632.1239994034665 418.77219995722453 637.5830778311912 421.6904652160563 642.6769821376421 424.608730474888 647.770886444093 426.64761538639084 652.6984583767197 428.68650029789376 657.6260303093464 429.77258286956476 661.1115696934116 430.8586654412357 664.5971090774767 430.85392919180435 664.598711557219 430.84919294237307 664.6003140369612 430.8444566929418 664.6019165167035 430.83972044351043 664.6035189964457 429.59111879980753 661.1887235458664 428.3425171561046 657.7739280952873 426.1842382370861 652.9465546104602 424.0259593180676 648.1191811256332 420.95725993431233 643.2225457779651 417.88856055055703 638.3259104302971 413.337677602284 633.2401924004898 408.78679465401086 628.1544743706827 404.10939243994073 624.2929224369918 399.43199022587066 620.4313705033009 393.77646379826814 616.3428304554809 388.1209373706656 612.2542904076611 381.19336055470706 608.8196310871754 374.2657837387485 605.3849717666897 370.8477486383325 603.769929573022 367.4297135379166 602.1548873793541 363.11456473643585 600.4834001721056 358.7994159349551 598.8119129648571 358.8023986816406 598.8023681640625 Z" fill="hsl(0, 0%, 0%)"></path><path d="M 220.8477158037395 485.7519220736728 Q 220.8477158037395 485.7519220736728 220.43600500158104 489.03279801053725 220.02429419942257 492.31367394740164 219.3118107244685 495.34836210396816 218.59932724951446 498.38305026053473 217.8392806891851 503.27682166134065 217.07923412885577 508.17059306214657 217.19895725492316 511.7708797039643 217.31868038099054 515.371166345782 218.77465894009134 518.115109102374 220.23063749919214 520.8590518589662 223.35933478436743 519.9378319861232 226.48803206954275 519.0166121132803 229.16990995154194 513.9458155154837 231.85178783354112 508.87501891768693 232.0475760512497 504.480976728742 232.2433642689583 500.0869345397971 231.8300800440913 495.11902278472553 231.41679581922426 490.151111029654 231.42177702079067 490.150677865765 231.4267582223571 490.150244701876 231.43173942392355 490.149811537987 231.43672062548995 490.149378374098 233.244527996451 493.2586955971435 235.05233536741207 496.368012820189 236.5280349656647 500.19992421840357 238.0037345639173 504.03183561661814 238.44870196436864 507.05417903490786 238.89366936481994 510.07652245319764 238.7779783995687 513.5097495394011 238.66228743431745 516.9429766256046 236.24562823562107 522.0974248430227 233.8289690369247 527.2518730604407 228.83332185686893 529.9468877484926 223.83767467681318 532.6419024365445 219.53454076904563 531.349398706386 215.23140686127812 530.0568949762273 212.5607507695864 526.73040937011 209.8900946778947 523.4039237639926 209.61331095922438 519.1923422214899 209.33652724055406 514.9807606789872 210.15465858571156 510.78461115957316 210.97278993086906 506.5884616401592 212.78313183048442 501.79191980495506 214.59347373009982 496.9953779697509 215.91931419160818 494.14922984930945 217.24515465311651 491.30308172886794 219.03703729578226 488.5240844662694 220.828919938448 485.74508720367095 220.83831787109375 485.7485046386719 Z" fill="hsl(0, 0%, 0%)"></path><path d="M 366.47456677514725 533.6461249063733 Q 366.47456677514725 533.6461249063733 369.0188224361917 535.3109503885489 371.56307809723626 536.9757758707246 373.7087271463382 539.1440688449471 375.8543761954401 541.3123618191696 378.76686531155235 539.822282875299 381.6793544276645 538.3322039314285 383.20167420375026 535.7092076051804 384.72399397983594 533.0862112789324 385.17087244085434 531.5012335397986 385.61775090187274 529.9162558006648 385.62275064511687 529.9163064710998 385.62775038836094 529.9163571415348 385.632750131605 529.9164078119699 385.63774987484913 529.9164584824049 385.7977442945832 533.1954306078444 385.95773871431726 536.4744027332838 385.0278974992983 540.3027267061415 384.0980562842794 544.1310506789991 380.77914599352414 546.0524441050911 377.46023570276884 547.973837531183 374.79766292226634 546.180662178135 372.1350901417639 544.3874868250869 370.60934434013495 541.765752327767 369.08359853850595 539.1440178304472 367.7715568973043 536.4016564229744 366.45951525610275 533.6592950155017 366.467041015625 533.6527099609375 Z" fill="hsl(0, 0%, 0%)"></path><path d="M 275.44004208859604 488.6269860342864 Q 275.44004208859604 488.6269860342864 270.86343539397114 480.02122579895445 266.2868286993462 471.41546556362243 263.1549785396483 465.7779130512944 260.02312837995044 460.14036053896626 255.97883107601893 453.60353471285896 251.9345337720874 447.0667088867516 248.56778115581983 442.6725957921195 245.20102853955223 438.2784826974874 242.07776737499813 434.8101770793792 238.95450621044407 431.341871461271 235.73608220617237 428.2244411493427 232.51765820190067 425.10701083741435 228.29851747795107 421.4110824590615 224.07937675400143 417.7151540807087 220.37185628445263 415.0125298791763 216.6643358149038 412.3099056776439 213.4998583582409 410.224122322228 210.33538090157802 408.13833896681217 210.3379280555133 408.1340364086394 210.34047520944856 408.12973385046666 210.34302236338382 408.1254312922939 210.3455695173191 408.12112873412116 213.71783146971708 409.905155115389 217.09009342211507 411.68918149665683 220.98574763921226 414.20327701103463 224.88140185630948 416.7173725254125 229.4784638575449 420.11115302020323 234.07552585878037 423.5049335149939 237.342562447258 426.69931963481883 240.6095990357356 429.89370575464375 243.67262508131552 433.49934428834 246.7356511268954 437.1049828220362 250.14747978803405 441.5780555734467 253.55930844917268 446.05112832485725 257.6872461663555 452.60088056652944 261.81518388353834 459.1506328082017 264.94980762749645 464.86157776291464 268.08443137145457 470.5725227176275 271.7712913211168 479.5955100408893 275.45815127077896 488.6184973641511 275.4490966796875 488.62274169921875 Z" fill="hsl(0, 0%, 0%)"></path><path d="M 337.71680876651885 493.4068145951605 Q 337.71680876651885 493.4068145951605 344.7017804130338 483.9470219291471 351.68675205954884 474.4872292631338 357.6211261313381 467.8462399773094 363.5555002031274 461.20525069148493 378.9107801384399 450.95739344724814 394.26606007375244 440.7095362030114 403.07419985214585 435.9816260016504 411.8823396305393 431.25371580028946 424.49045669722125 429.6543594240143 437.09857376390323 428.05500304773915 437.09929065604217 428.0599513874265 437.1000075481811 428.0648997271138 437.10072444032005 428.0698480668011 437.101441332459 428.0747964064885 424.722304135283 430.09547569617064 412.3431669381071 432.11615498585286 403.8371732923496 437.202227845591 395.3311796465921 442.28830070532905 380.3171736183693 452.5397054344734 365.3031675901465 462.79111016361765 359.4070030839023 469.3854502769021 353.51083857765815 475.9797903901865 345.6215632454134 484.69963487016923 337.73228791316865 493.419479350152 337.72454833984375 493.41314697265625 Z" fill="hsl(0, 0%, 0%)"></path></svg>