<svg xmlns="http://www.w3.org/2000/svg" version="1.1" xmlns:xlink="http://www.w3.org/1999/xlink" viewBox="0 0 640 800" style="overflow: hidden; display: block;" width="640" height="800"><defs><linearGradient id="dddraw-gradient" x1="320" y1="-400" x2="320" y2="800" spreadMethod="pad" gradientUnits="userSpaceOnUse"><stop offset="0%" stop-color="hsl(1.4, 100%, 67%)" stop-opacity="1"></stop><stop offset="100%" stop-color="hsl(167, 52%, 78%)" stop-opacity="1"></stop></linearGradient></defs><g id="two-0" transform="matrix(1 0 0 1 0 0)" opacity="1"><path transform="matrix(1 0 0 1 0 0)" id="two-823" d="M 229.461074 424.431121 C 229.461074 424.431121 235.238321 424.431121 238.083831 424.431121 C 248.201189 424.431121 258.644685 423.802455 268.742492 424.431121 C 273.830693 424.747901 279.00692 425.766996 284.071838 426.34729 C 299.230835 428.084075 315.03312 428.490414 330.059875 431.137725 C 331.343696 431.3639 332.609174 431.865213 333.892211 432.095794 C 336.710084 432.602209 339.656318 432.895565 342.514953 433.053894 C 343.777689 433.123832 345.082619 433.053894 346.34729 433.053894 C 347.928133 433.053894 349.556882 433.053894 351.137725 433.053894 C 351.770061 433.053894 352.421558 433.053894 353.053894 433.053894 C 354.002392 433.053894 354.979632 433.053894 355.928131 433.053894 C 356.876639 433.053894 357.85389 433.053894 358.802398 433.053894 C 359.750896 433.053894 360.728137 433.053894 361.676635 433.053894 C 362.941306 433.053894 364.244301 433.053894 365.508972 433.053894 C 366.141307 433.053894 366.792804 433.053894 367.42514 433.053894 C 367.741303 433.053894 368.067046 433.053894 368.383209 433.053894 C 368.699382 433.053894 369.025135 433.053894 369.341308 433.053894 C 369.973644 433.053894 370.625141 433.053894 371.257476 433.053894 C 371.889812 433.053894 373.173645 433.053894 373.173645 433.053894 C 373.173645 433.053894 373.173645 433.053894 373.173645 433.053894 C 373.173645 433.053894 373.815551 433.053894 374.131713 433.053894 C 374.764049 433.053894 375.415546 433.053894 376.047882 433.053894 C 376.680217 433.053894 377.516921 433.501022 377.96405 433.053894 C 378.187618 432.830326 377.740482 432.319362 377.96405 432.095794 C 378.187618 431.872226 378.605976 432.095794 378.922149 432.095794 C 379.238312 432.095794 379.880218 432.095794 379.880218 432.095794 C 379.880218 432.095794 379.880218 432.095794 379.880218 432.095794 " fill="transparent" stroke="hsl(0, 0%, 0%)" stroke-width="6" stroke-opacity="1" fill-opacity="1" visibility="visible" stroke-linecap="butt" stroke-linejoin="miter" stroke-miterlimit="4"></path></g><path d="M 103.9616886860384 365.0271160784677 Q 103.9616886860384 365.0271160784677 105.96814020967453 369.52449472988377 107.97459173331066 374.0218733812998 111.282909341092 380.98686245031564 114.59122694887334 387.95185151933146 117.49437718394717 393.8689488698858 120.397527419021 399.7860462204401 124.49897103389475 406.76384262158365 128.6004146487685 413.74163902272727 131.17672801592033 418.1076919065281 133.75304138307214 422.47374479032896 136.74954126521655 426.9453904807141 139.74604114736096 431.4170361710992 143.09453119913132 435.3373918911889 146.44302125090172 439.25774761127855 151.59577951790146 444.13925829727054 156.7485377849012 449.0207689832626 161.40191169237048 453.0353277370415 166.05528559983975 457.04988649082037 170.9481002642617 460.60017196239437 175.8409149286837 464.1504574339684 182.18557277849857 467.78183738361747 188.53023062831343 471.4132173332665 194.01139679227919 474.35980875597625 199.49256295624494 477.3064001786859 205.59121958587235 480.1697239747856 211.6898762154998 483.0330477708853 217.16891192754375 485.0216232088387 222.6479476395877 487.01019864679216 227.8849702020408 488.376992503992 233.12199276449388 489.74378636119184 241.03588963906247 491.13818185598905 248.94978651363107 492.53257735078626 255.85786148064477 493.4006955253484 262.7659364476585 494.26881369991054 271.8915877881253 494.629165041276 281.0172391285921 494.9895163826415 289.74415669682327 494.5990366180275 298.4710742650544 494.2085568534136 306.2871296050276 493.4987852254878 314.10318494500075 492.78901359756196 323.11322538367256 491.399846565227 332.1232658223443 490.01067953289197 339.72588599087373 488.3378823413541 347.3285061594031 486.66508514981626 355.96047065414217 484.0585932857064 364.59243514888124 481.4521014215966 371.90724699514055 479.22584863012503 379.2220588413998 476.99959583865353 385.91073696783667 474.9519613913566 392.59941509427347 472.9043269440596 400.29882502216765 470.13967425844544 407.9982349500619 467.37502157283126 414.48992122129425 464.5838629735621 420.98160749252656 461.79270437429284 426.8014903468565 459.2182424324858 432.62137320118643 456.6437804906787 438.2067498156083 453.4568182822958 443.79212643003024 450.26985607391293 447.95751250613216 447.1318572490957 452.12289858223414 443.99385842427847 457.6311509026405 439.92074137230304 463.1394032230469 435.84762432032767 467.6704151196451 432.1046250168193 472.2014270162434 428.3616257133109 476.17562204338776 424.9703678507986 480.1498170705322 421.5791099882863 484.2161048195817 418.1143833404926 488.28239256863117 414.64965669269895 490.9149877615627 412.22173325048004 493.54758295449426 409.7938098082611 495.9239779705166 407.5146700923302 498.3003729865389 405.2355303763993 499.9437832918511 403.74977418446235 501.5871935971633 402.2640179925254 504.03265985002486 399.9077368263685 506.4781261028864 397.5514556602116 506.4818435311412 397.55479941964836 506.48556095939597 397.55814317908505 506.48927838765076 397.56148693852174 506.49299581590554 397.5648306979585 505.49837196410914 399.1402095749679 504.50374811231273 400.71558845197734 503.7265047871904 402.1032026859484 502.949261462068 403.49081691991955 501.666403013216 405.24993188945734 500.38354456436394 407.00904685899513 498.4670642115576 409.77243523497623 496.55058385875134 412.5358236109574 494.2672215834372 415.4915356032925 491.9838593081231 418.4472475956276 488.37186197851094 422.4649726883747 484.75986464889877 426.48269778112183 481.03735805483564 430.3273572148268 477.31485146077245 434.1720166485318 472.8096179009908 438.38106438966145 468.30438434120913 442.5901121307911 462.9207341516591 446.85784250232075 457.537083962109 451.12557287385033 452.9254521839018 454.65082430562575 448.31382040569457 458.1760757374011 442.3209897267741 461.59370871571593 436.32815904785366 465.0113416940308 430.459978469549 467.60725221586915 424.59179789124437 470.20316273770743 417.8407249023254 473.0964498594237 411.0896519134065 475.98973698113997 403.1844055455863 478.82286206905314 395.27915917776613 481.6559871569663 388.5831235592316 483.70595381856646 381.8870879406971 485.7559204801666 374.55948502110004 487.98615631004316 367.23188210150306 490.21639213991966 358.2620940221684 492.9108301029247 349.29230594283376 495.60526806592975 341.4036664644159 497.3316475155124 333.5150269859981 499.05802696509494 324.2222848598169 500.4819968652216 314.9295427336358 501.90596676534835 306.90106688930433 502.63041510833426 298.87259104497286 503.35486345132017 289.7617096955157 503.7465560361171 280.6508283460586 504.138248620914 271.13735400186806 503.74654261404123 261.6238796576776 503.3548366071685 254.48853202912818 502.4534080799937 247.35318440057875 501.5519795528189 239.07472204294004 500.07898783178746 230.79625968530132 498.605996110756 225.15445302261588 497.1146701890988 219.51264635993044 495.6233442674416 213.65298265580515 493.47939486670117 207.79331895167985 491.33544546596073 201.47122865683048 488.36389636494977 195.14913836198113 485.3923472639388 189.5522577786715 482.3871733278679 183.95537719536188 479.3819993917971 177.1963570799654 475.49040339098366 170.4373369645689 471.59880739017024 165.23765054730103 467.8178244833583 160.03796413003317 464.03684157654646 155.20282248827127 459.8749565097436 150.36768084650936 455.7130714429407 144.86060311732865 450.42953149755465 139.35352538814794 445.14599155216854 135.76728852392847 440.703358338363 132.18105165970903 436.26072512455744 129.23037789445317 431.42460129906783 126.2797041291973 426.5884774735782 123.9362878046835 422.0161692952106 121.59287148016969 417.4438611168429 118.00717484081413 409.8713975595524 114.42147820145857 402.29893400226194 112.19955398437062 396.01603937226355 109.97762976728266 389.7331447422652 107.70810585475456 382.2508367913225 105.43858194222645 374.7685288403798 104.6905416598323 369.9006441250967 103.94250137743816 365.03275940981354 103.95209503173828 365.0299377441406 Z" fill="hsl(0, 0%, 0%)"></path><path d="M 134.6040215627516 317.11836088006686 Q 134.6040215627516 317.11836088006686 137.5541944844586 313.70079887570046 140.5043674061656 310.283236871334 143.65184983052632 307.3287268756619 146.799332254887 304.3742168799898 154.79683347883872 298.24243736635424 162.79433470279042 292.11065785271876 168.36264600635656 288.0949012776583 173.9309573099227 284.0791447025979 180.20958533322562 280.2826888035938 186.48821335652858 276.4862329045898 192.21072765499963 273.44891534573446 197.93324195347068 270.41159778687916 203.8051694391562 267.9551894816957 209.67709692484172 265.4987811765122 217.53197967462353 263.06588493762376 225.38686242440536 260.6329886987354 232.6908648446966 259.0344860589166 239.9948672649878 257.43598341909785 248.98195724461817 256.19698049015284 257.9690472242486 254.9579775612078 265.72733339223316 254.43008727951843 273.4856195602177 253.9021969978291 280.4713056273903 253.9560955943323 287.4569916945629 254.00999419083553 295.80369595042134 254.8744902244058 304.15040020627976 255.73898625797605 310.7156162194621 256.6626994824493 317.28083223264446 257.58641270692254 324.84657796866753 259.1151541760139 332.4123237046906 260.6438956451052 338.163820714827 262.1823774280134 343.9153177249634 263.7208592109216 348.7063667912337 265.5949748323497 353.49741585750394 267.46909045377777 358.18018929431366 269.4495830913139 362.86296273112345 271.43007572885 366.5290395780624 273.21985781834627 370.19511642500134 275.00963990784254 372.82468452116746 276.3880847406269 375.4542526173336 277.7665295734112 378.48653300588126 279.6322955160854 381.51881339442883 281.4980614587596 384.1810136918059 283.57467261761644 386.8432139891829 285.6512837764733 389.18755414768464 287.44869657611093 391.5318943061863 289.2461093757486 393.32769078359513 290.6441021024666 395.1234872610039 292.0420948291847 396.37298877309524 292.9591922797891 397.6224902851866 293.87628973039347 398.7042457062857 294.9467581462703 399.7860011273848 296.01722656214713 401.7418543206901 297.8834356778209 403.69770751399534 299.7496447934946 403.69442277372116 299.7534144727026 403.691138033447 299.7571841519106 403.6878532931728 299.7609538311186 403.6845685528986 299.76472351032663 402.1133315095102 298.8416658739953 400.54209446612185 297.91860823766393 398.49673196117556 296.8916799501694 396.45136945622926 295.8647516626749 394.9882634640073 295.1889071294083 393.5251574717853 294.51306259614165 391.5308109329559 293.4592086196567 389.53646439412654 292.4053546431718 386.85149465516065 291.02617925271335 384.1665249161948 289.6470038622549 381.4762327014928 288.13796353809613 378.7859404867908 286.62892321393736 375.70525739333266 285.2427878902787 372.62457429987444 283.8566525666201 369.94433962013534 282.7684907605607 367.2641049403962 281.68032895450136 363.6214539494975 280.2587935935703 359.9788029585988 278.8372582326393 355.2419583469348 277.1504247689861 350.5051137352708 275.4635913053329 346.0946287214926 273.893630088255 341.6841437077144 272.3236688711771 336.1548237992624 270.9433661983635 330.62550389081036 269.56306352554986 323.3142545822919 268.11275053368274 316.0030052737734 266.66243754181556 309.59944086850317 265.7615366106787 303.19587646323293 264.8606356795419 295.28632843911566 264.02438481146976 287.37678041499834 263.1881339433977 280.7408790862721 263.1289900829116 274.1049777575459 263.0698462224255 266.6634581042979 263.5721844828845 259.2219384510498 264.07452274334344 250.5920195733912 265.2595869723945 241.96210069573263 266.4446512014456 235.03517777023131 267.957373115942 228.10825484473003 269.4700950304384 220.6258268587202 271.76526427838087 213.14339887271032 274.0604335263234 207.55593371633313 276.2477486437383 201.96846855995594 278.4350637611532 196.2824833111563 281.13922850294284 190.5964980623567 283.84339324473257 184.29014355859124 287.0751296299899 177.98378905482576 290.3068660152471 172.08759625489225 293.7544330392987 166.19140345495873 297.2020000633503 157.58345241102523 302.14980412448665 148.97550136709177 307.09760818562296 145.45711734972576 309.4730448795566 141.9387333323598 311.8484815734902 138.27813469339785 314.49079276858663 134.6175360544359 317.13310396368314 134.61077880859375 317.125732421875 Z" fill="hsl(0, 0%, 0%)"></path><path d="M 275.4401524020795 245.26498283149567 Q 275.4401524020795 245.26498283149567 276.45298199256854 242.32852646117394 277.46581158305753 239.3920700908522 278.0954235086226 237.0765235326606 278.72503543418776 234.76097697446895 279.1895896702706 232.91817503769826 279.65414390635345 231.07537310092758 280.5341050122797 228.01907895820102 281.41406611820605 224.96278481547444 282.23566160467783 222.00254117110066 283.0572570911496 219.04229752672688 283.5636521013727 216.46603239762567 284.07004711159584 213.88976726852445 284.4748140988123 211.64962927090215 284.8795810860288 209.40949127327988 284.92741781064433 207.05394006464792 284.9752545352599 204.69838885601595 284.9247565307214 202.83283150489535 284.87425852618287 200.96727415377475 284.78204361525246 199.10591002621766 284.68982870432205 197.24454589866053 284.3349357536931 195.67415581143558 283.9800428030641 194.1037657242106 282.3485418129745 191.61459341851202 280.7170408228848 189.1254211128134 279.41679221276297 188.0081769186438 278.11654360264106 186.8909327244742 276.3327300799739 185.68376755631402 274.5489165573067 184.47660238815382 272.0723565347079 183.20816903011377 269.59579651210913 181.9397356720737 267.54288520584583 181.20113064578925 265.48997389958254 180.46252561950482 263.86715124117393 180.2733505156683 262.2443285827653 180.08417541183184 260.26688148767533 179.99208266546052 258.28943439258535 179.8999899190892 255.98850202324945 180.48682985296574 253.68756965391353 181.0736697868423 251.55993501485193 183.6354722806488 249.4323003757903 186.19727477445528 248.19912788596508 188.93328865410223 246.96595539613986 191.66930253374917 246.44078415223646 194.42520403875488 245.9156129083331 197.1811055437606 245.90667585968606 200.61302142737347 245.89773881103903 204.04493731098634 246.1153085926555 206.84478091034543 246.33287837427198 209.64462450970456 247.1454820469755 211.73504729267304 247.95808571967902 213.82547007564153 249.51856958052116 216.50030819676383 251.0790534413633 219.17514631788612 252.9819335194695 221.57079515348767 254.8848135975757 223.96644398908924 257.8335700767661 226.08713866092268 260.7823265559565 228.20783333275608 263.6936257948542 229.9992165357084 266.6049250337519 231.79059973866072 269.12184214817626 233.06245595922786 271.6387592626006 234.334312179795 275.0464387575752 235.6513690874061 278.45411825254973 236.96842599501718 281.2410429049679 237.45556939302494 284.02796755738615 237.9427127910327 287.06480871289546 238.16816258547004 290.10164986840476 238.39361237990735 292.2552632146302 238.14412994156908 294.4088765608556 237.89464750323083 296.01791538266593 237.2963547961332 297.6269542044763 236.69806208903555 299.22134044688505 235.4096839206304 300.8157266892938 234.12130575222528 302.84859703615103 232.59589973381742 304.88146738300827 231.07049371540955 306.24991940099704 229.57362139534496 307.6183714189858 228.07674907528036 308.8544596067606 225.91489076045838 310.0905477945354 223.75303244563636 311.2109108886509 221.2440446966333 312.3312739827664 218.7350569476302 313.019518585726 215.76172130360777 313.70776318868565 212.78838565958537 314.2817630503941 210.22180232854186 314.85576291210253 207.65521899749834 314.9750171516863 205.9746658104698 315.09427139127 204.29411262344124 315.11691030964994 202.5869743049887 315.13954922802986 200.87983598653614 314.50516626563024 198.93949877901997 313.8707833032306 196.99916157150383 311.44644427157596 197.16292448695972 309.0221052399213 197.32668740241562 307.2211393210937 197.95750076273185 305.420173402266 198.58831412304806 301.9977452064694 200.8111581267558 298.5753170106728 203.0340021304635 296.4960568849647 205.26036814632425 294.41679675925656 207.48673416218497 292.94118542638927 209.29006774606773 291.465574093522 211.0934013299505 290.8865457049304 212.88754727302927 290.3075173163388 214.68169321610802 290.0427705378502 216.6158089157817 289.7780237593616 218.5499246154554 289.83734251917105 220.98148838162513 289.8966612789805 223.41305214779484 290.844773635691 226.22232682368644 291.79288599240147 229.03160149957804 293.7047388913209 232.97047238978791 295.61659179024036 236.9093432799978 297.41288855057246 239.92793441989122 299.20918531090456 242.94652555978462 302.06040911376493 245.61306192693047 304.9116329166253 248.27959829407635 308.1762312239689 250.62666748536293 311.4408295313125 252.9737366766495 315.099914867644 254.90157671610325 318.7590002039754 256.82941675555696 323.93021374053865 258.47596797701084 329.10142727710195 260.1225191984647 333.78811409701893 261.4181589574656 338.47480091693586 262.7137987164665 344.26682439591787 263.50676493098035 350.05884787489987 264.2997311454942 350.0587784648726 264.3047306636958 350.0587090548454 264.3097301818974 350.0586396448182 264.314729700099 350.0585702347909 264.3197292183006 344.02089598340297 264.94845967879604 337.983221732015 265.5771901392915 332.9825657907903 265.1901407476379 327.98190984956557 264.8030913559843 322.0254793002854 263.7866260700388 316.06904875100514 262.77016078409326 311.6926822544925 261.02454250592984 307.31631575797985 259.2789242277664 303.34003087522154 256.87123575363495 299.36374599246324 254.46354727950344 295.5474490883743 251.1273443040755 291.7311521842854 247.7911413286476 289.5052272272093 244.46302852657053 287.27930227013314 241.13491572449345 284.912029821796 236.62152276543225 282.5447573734589 232.10812980637107 281.20172813012175 227.99203921823786 279.8586988867847 223.87594863010466 279.712021987245 220.38238680950647 279.56534508770534 216.88882498890828 280.1121547225358 213.95506814239553 280.65896435736636 211.02131129588278 281.98948047070223 207.8427966738882 283.31999658403805 204.66428205189362 285.04117905568285 202.5446264643952 286.76236152732764 200.4249708768968 289.6125063006784 197.30946845096219 292.4626510740291 194.1939660250276 295.140247546222 192.25846598517393 297.8178440184148 190.32296594532028 299.8027317755126 189.24232115032063 301.78761953261034 188.161676355321 304.37642417048676 187.2825839107357 306.9652288083631 186.40349146615043 310.3249160103692 185.84405646110065 313.68460321237524 185.28462145605084 315.9499584289328 185.64529613300044 318.21531364549037 186.00597080995004 320.2621325322897 187.51659550770586 322.308951419089 189.0272202054617 323.33270731483316 191.62518281496168 324.3564632105773 194.22314542446165 324.73203516292136 195.88207088537737 325.1076071152654 197.5409963462931 325.29985831757506 199.48055844957173 325.4921095198847 201.4201205528504 325.2939416060864 203.5372453653041 325.09577369228805 205.65437017775778 324.6954824443935 207.7871574285693 324.29519119649905 209.9199446793808 323.64673108767045 212.43723277003582 322.99827097884184 214.95452086069085 322.10639126291386 218.75830986813747 321.2145115469859 222.56209887558413 319.91314586113606 225.6294352720413 318.6117801752862 228.69677166849843 316.7421458747003 231.87828742008566 314.87251157411447 235.05980317167285 312.82205493670045 237.06197629106836 310.77159829928644 239.06414941046387 308.64869265089453 240.58686573237574 306.5257870025026 242.1095820542876 303.52680253802913 244.10456213694496 300.52781807355564 246.0995422196023 297.81006236676444 246.74564114787455 295.0923066599732 247.3917400761468 292.2501527502519 247.47777508006214 289.40799884053064 247.56381008397753 285.87501926398704 247.2824812455856 282.34203968744345 247.00115240719362 278.7442033285515 246.2958754926619 275.14636696965965 245.5905985781302 271.30846800799 244.10196063270726 267.4705690463203 242.61332268728432 264.6051285617013 241.17223827393178 261.7396880770823 239.73115386057924 258.467794329605 237.7316102129255 255.1959005821277 235.73206656527174 251.37331502191557 232.82162766772188 247.5507294617034 229.911188770172 245.18714362276404 226.95003345670762 242.82355778382467 223.98887814324326 240.8264555011014 220.5406283983993 238.82935321837815 217.09237865355533 237.75232315570491 213.84913529222365 236.67529309303168 210.60589193089197 236.33533952038394 207.33709002843955 235.9953859477362 204.0682881259871 235.97086068012874 199.70219531364407 235.94633541252128 195.33610250130104 236.68071744448997 191.40983119430342 237.4150994764587 187.4835598873058 239.14558175339133 183.5704342762211 240.87606403032396 179.6573086651364 242.78185749654452 177.24396238746408 244.68765096276508 174.83061610979178 247.10806848684155 172.9457329130377 249.528486010918 171.0608497162836 252.61331792212894 170.07780676760586 255.69814983333987 169.0947638189281 257.3734779144563 169.20843730822565 259.0488059955727 169.32211079752324 261.5898979736645 169.55443814041135 264.1309899517563 169.78676548329946 266.6588667454689 170.36093176595574 269.1867435391815 170.935098048612 271.71525813244057 171.9925904023105 274.2437727256996 173.05008275600903 277.3621125965082 174.71152944214995 280.4804524673168 176.37297612829087 282.7875098593996 178.1709726880519 285.09456725148243 179.9689692478129 286.93871942939813 182.03399951082696 288.7828716073138 184.09902977384104 289.98918023421606 186.29857991033128 291.1954888611184 188.49813004682156 291.8912918802946 190.6917516504765 292.58709489947086 192.88537325413145 292.7454997765677 195.15178004098487 292.90390465366454 197.41818682783827 292.72319725500716 199.39965429852617 292.5424898563498 201.3811217692141 292.2837742336303 203.37259536731895 292.0250586109108 205.3640689654238 291.58297152804164 208.19519038175014 291.14088444517245 211.02631179807648 290.3928895324249 213.21272075980005 289.6448946196773 215.3991297215236 288.73516077118444 218.05334345012034 287.8254269226916 220.70755717871708 286.61116530019007 223.57316542062023 285.39690367768856 226.43877366252337 284.07907563876506 229.31297768224522 282.7612475998416 232.18718170196703 281.9432482184471 233.92866222779324 281.12524883705254 235.67014275361944 280.03329833891155 237.89950767537778 278.9413478407706 240.12887259713608 277.1996943990331 242.7013998388749 275.4580409572955 245.2739270806137 275.4490966796875 245.2694549560547 Z" fill="hsl(0, 0%, 0%)"></path><path d="M 237.12127553952908 331.50595354666376 Q 237.12127553952908 331.50595354666376 230.6716272459193 329.25406529508115 224.22197895230954 327.00217704349853 219.4256753257552 324.32721596998516 214.62937169920087 321.6522548964718 207.36698401554253 316.5953864841639 200.1045963318842 311.538518071856 194.72416878276297 307.1890270717304 189.34374123364174 302.8395360716047 177.06073201814965 288.80995387596477 164.77772280265756 274.7803716803249 157.2012917782487 264.56395996774546 149.62486075383984 254.34754825516606 143.95629524104788 245.79500187632752 138.28772972825595 237.24245549748898 133.516872152225 228.45086264473568 128.74601457619406 219.65926979198238 125.56772597778664 213.38356940003325 122.3894373793792 207.10786900808412 120.12430601674731 202.10031744101707 117.8591746541154 197.09276587395001 116.28878895745689 192.29660708204207 114.71840326079837 187.50044829013413 113.70465420934217 184.0481427828209 112.69090515788596 180.59583727550762 111.93890035422541 176.5586530332053 111.18689555056484 172.52146879090301 111.19172067204155 172.5201579885781 111.19654579351827 172.5188471862532 111.20137091499498 172.5175363839283 111.2061960364717 172.51622558160338 112.89414661682903 176.1643938531763 114.58209719718636 179.81256212474926 116.30093880711179 182.9556473192642 118.01978041703723 186.09873251377908 120.28655692971877 190.3400035326985 122.55333344240032 194.5812745516179 125.42812472852582 199.17218077272224 128.30291601465132 203.7630869938266 132.03363730785142 209.70214165722558 135.76435860105153 215.64119632062457 140.76883769696704 223.92412065491516 145.77331679288255 232.20704498920574 151.4394605061894 240.4976672817434 157.1056042194962 248.78828957428104 164.53299431330913 258.7594120430877 171.96038440712206 268.7305345118944 183.31442140615002 282.75756117106687 194.66845840517797 296.7845878302394 199.5365098497229 301.41648444317184 204.40456129426784 306.04838105610423 210.88639032594534 311.7543378753484 217.36821935762288 317.4602946945926 221.57910393678753 320.6661773558205 225.7899885159522 323.87206001704834 231.4601041688756 327.68006251253604 237.13021982179905 331.48806500802374 237.12574768066406 331.49700927734375 Z" fill="hsl(0, 0%, 0%)"></path><path d="M 356.8775926747515 328.617702997517 Q 356.8775926747515 328.617702997517 358.4936769002001 325.13027736527886 360.10976112564873 321.64285173304074 364.42367559674346 313.2227782859421 368.7375900678382 304.8027048388435 379.79375477087234 284.04197045641814 390.8499194739065 263.2812360739928 398.31967850483176 250.48705469618608 405.78943753575703 237.6928733183794 413.74478971191036 225.08859727345862 421.70014188806374 212.4843212285378 429.46316859864265 199.7452260566477 437.22619530922157 187.0061308847576 444.7453201224719 174.749785616583 452.2644449357223 162.49344034840843 458.17370300405867 152.7968583895487 464.08296107239505 143.10027643068898 468.5602404600062 136.11136707693703 473.0375198476173 129.1224577231851 476.04456912820274 123.63659165742854 479.0516184087881 118.15072559167199 480.79768431941767 114.7606282026787 482.54375023004724 111.3705308136854 483.47511021914625 108.60561362706473 484.4064702082452 105.84069644044405 484.4113739878064 105.84167262998263 484.4162777673676 105.8426488195212 484.4211815469288 105.84362500905978 484.42608532649 105.84460119859835 484.2031674104328 108.87807067313136 483.98024949437564 111.91154014766437 483.01036739287304 115.68354830013791 482.04048529137043 119.45555645261148 479.95327945494455 125.63677767307286 477.8660736185186 131.81799889353425 474.2455853365076 139.3187555658041 470.62509705449656 146.819512238074 465.258172764278 156.95772660781907 459.89124847405947 167.09594097756414 452.5442418014177 179.47377026962928 445.1972351287759 191.85159956169443 437.42457985910767 204.66948210765923 429.65192458943943 217.48736465362407 421.79243393982745 230.01892564186835 413.9329432902155 242.55048663011266 406.2272625294733 255.19743382126524 398.5215817687311 267.8443810124178 385.53689161384364 287.50167468804443 372.5522014589562 307.1589683636711 366.9637303900424 314.77001968006124 361.37525932112857 322.3810709964514 359.13506379193853 325.50442569868596 356.8948682627485 328.6277804009205 356.88623046875 328.62274169921875 Z" fill="hsl(0, 0%, 0%)"></path><path d="M 392.3267522191804 347.77927887057075 Q 392.3267522191804 347.77927887057075 393.71840399177404 344.8681605394481 395.11005576436764 341.95704220832556 398.10116706539407 336.08529312089524 401.09227836642043 330.213544033465 411.41058458167464 310.42589115040255 421.72889079692885 290.63823826734017 428.55164042345535 278.76526150858047 435.37439004998186 266.8922847498207 442.18470079840904 254.54748709110447 448.9950115468362 242.20268943238827 456.6428822833177 229.42452244096444 464.2907530197991 216.64635544954058 471.44313025537446 204.6867407318506 478.5955074909498 192.7271260141606 486.41032537706997 181.42914639038938 494.2251432631901 170.13116676661815 500.4289588452225 162.54643452914348 506.63277442725484 154.96170229166881 511.53716654443 150.0552091811374 516.4415586616052 145.14871607060599 519.4823675954988 142.66145366068963 522.5231765293925 140.1741912507733 522.5267971091378 140.177639642037 522.5304176888832 140.1810880333007 522.5340382686286 140.1845364245644 522.5376588483739 140.18798481582812 520.2524479872638 143.29268628661595 517.9672371261539 146.39738775740375 514.2285329196073 152.05599384285367 510.4898287130608 157.71459992830358 505.43050519699784 165.91530455562642 500.37118168093497 174.11600918294926 493.35059939426196 185.70168812748602 486.3300171075889 197.2873670720228 479.31527341729065 209.35835243520918 472.3005297269924 221.42933779839558 464.76123841879416 234.08420471739777 457.221947110596 246.73907163639993 450.33367273436335 259.2384785227808 443.4453983581307 271.7378854091616 436.1834231193041 283.32361169165733 428.9214478804775 294.9093379741531 416.46907650583836 313.4676453719859 404.0167051311992 332.02595276981873 400.09404199908965 337.309895496811 396.17137886698004 342.59383822380335 394.25764047233736 345.1917035047413 392.3439020776946 347.78956878567925 392.3353271484375 347.784423828125 Z" fill="hsl(0, 0%, 0%)"></path><path d="M 186.34072026025842 328.63026747359066 Q 186.34072026025842 328.63026747359066 183.8812840662553 326.9943407800761 181.42184787225216 325.3584140865615 168.54379479803941 313.8153864016435 155.66574172382664 302.2723587167255 145.46642948803265 292.1377309232703 135.26711725223862 282.0031031298151 122.38598784585201 267.10856670136195 109.5048584394654 252.21403027290881 100.5880588451094 241.70102779896905 91.6712592507534 231.1880253250293 83.43563783389071 221.62332854175438 75.20001641702802 212.05863175847946 68.46275607730087 204.11653016257054 61.72549573757371 196.17442856666162 57.22351069932846 191.5080862064247 52.721525661083206 186.84174384618777 49.323293400385296 184.10122135488632 45.925061139687394 181.3606988635849 43.67817581054463 180.05796962524704 41.43129048140187 178.75524038690918 41.43321830128599 178.7506269813889 41.435146121170106 178.74601357586866 41.43707394105422 178.7414001703484 41.439001760938346 178.73678676482814 44.05030544917542 179.46416594582956 46.66160913741249 180.191545126831 50.805715544389116 182.22774832809262 54.94982195136575 184.26395152935427 60.41713266344786 188.24450086359013 65.88444337552997 192.22505019782602 73.53072944023806 199.44365036579617 81.17701550494616 206.66225053376633 89.93403431316206 215.9187844991981 98.69105312137796 225.17531846462987 107.72100196131763 235.61539892480235 116.75095080125728 246.05547938497483 129.24646639609136 261.0188636384632 141.74198199092547 275.98224789195154 151.06925843921346 286.8447564658174 160.39653488750147 297.70726503968325 171.4274619158278 310.940887421141 182.45838894415408 324.1745098025987 184.4061396397994 326.3948628637228 186.3538903354447 328.61521592484684 186.34730529785156 328.62274169921875 Z" fill="hsl(0, 0%, 0%)"></path><path d="M 490.0506840410458 101.56082396576184 Q 490.0506840410458 101.56082396576184 486.81213214843325 96.10190626589326 483.5735802558207 90.64298856602467 481.09485673673856 86.15649634913993 478.61613321765645 81.67000413225519 476.10890036620754 77.69572121900164 473.60166751475856 73.7214383057481 470.24619300888355 69.17658720785386 466.8907185030085 64.63173610995962 464.02338316192464 60.44876841486566 461.1560478208408 56.265800719771704 458.16216045012226 52.26328849460825 455.1682730794037 48.2607762694448 452.8498925065935 44.98347692466334 450.53151193378324 41.70617757988189 448.60383823033067 39.15380252904389 446.67616452687815 36.60142747820588 444.87762623049684 34.296831934238945 443.07908793411553 31.992236390272016 441.59270853182784 30.41903374410482 440.1063291295402 28.845831097937623 438.9842292482889 27.836602979500626 437.86212936703765 26.827374861063632 436.04439718779366 25.08917742601305 434.2266650085497 23.350979990962465 434.2288955298353 23.346505085958526 434.23112605112095 23.342030180954588 434.2333565724066 23.33755527595065 434.23558709369223 23.33308037094671 436.4687240895435 24.484139195661516 438.7018610853948 25.635198020376322 440.1162955026181 26.413347789546286 441.5307299198414 27.191497558716247 443.42020363770064 28.527661084611086 445.3096773555598 29.863824610505926 447.56560791264917 31.812333653950596 449.8215384697385 33.76084269739526 452.248865727807 36.03084680558639 454.67619298587556 38.300850913777516 457.4199477464696 41.18540546936274 460.16370250706365 44.06996002494797 463.89579605065114 48.084770374693704 467.62788959423864 52.09958072443945 470.21654019352565 56.41105509690239 472.80519079281265 60.722529469365334 475.8061937178654 65.79474937831455 478.80719664291814 70.86696928726376 480.8865297709499 75.2625532457248 482.9658628989817 79.65813720418585 484.7979227852036 84.4955978862803 486.62998267142547 89.33305856837474 488.34952480347107 95.44300206693146 490.0690669355167 101.55294556548816 490.05987548828125 101.556884765625 Z" fill="hsl(0, 0%, 0%)"></path><path d="M 444.07183837890625 22.025928726196287 Q 444.07183837890625 22.025928726196287 446.8278701709379 21.59663539587158 449.58390196296955 21.167342065546872 452.5374651184975 21.481510788532283 455.49102827402544 21.79567951151769 459.63500993274204 22.85207056405545 463.7789915914587 23.908461616593208 467.2725151391194 25.108270115885638 470.76603868678 26.30807861517807 474.69143455884443 28.43140424833475 478.6168304309088 30.554729881491433 481.4893060831547 32.56954673173616 484.3617817354006 34.58436358198089 486.75765945154603 36.528867774951394 489.15353716769147 38.473371967921906 491.41191851863357 40.73509858273395 493.6702998695757 42.99682519754599 495.31009068941665 44.75947200939888 496.94988150925764 46.522118821251766 498.2204319940132 48.59528074030986 499.49098247876873 50.668442659367955 500.3408179256159 52.49893243678956 501.1906533724631 54.32942221421116 501.8019424769195 55.99788414034448 502.4132315813759 57.6663460664778 502.6370026182693 60.46946664068568 502.86077365516275 63.27258721489357 502.8280450460901 65.4657145050062 502.7953164370174 67.65884179511885 502.3193593863775 70.40618747845807 501.8434023357377 73.1535331617973 501.5354981218861 75.26054343159348 501.2275939080345 77.36755370138964 500.7083078260655 79.24549825010308 500.1890217440965 81.12344279881654 499.5469265316408 82.96023452270421 498.90483131918506 84.79702624659187 498.25924932918696 86.1529480388316 497.61366733918885 87.50886983107132 496.75717733018024 89.55510996237811 495.90068732117163 91.6013500936849 494.9582317369885 93.0457885100225 494.0157761528055 94.49022692636012 494.0110058739642 94.48872878091422 494.00623559512303 94.48723063546832 494.00146531628184 94.48573249002243 493.9966950374406 94.48423434457652 494.6086220874082 91.84895099211174 495.22054913737577 89.21366763964696 495.5305733061486 86.66411940618315 495.8405974749214 84.11457117271935 496.0187437163603 82.25806065897541 496.19688995779916 80.40155014523148 496.31133168497104 78.77429753439816 496.42577341214286 77.14704492356482 496.31278266120535 74.8952267794113 496.19979191026783 72.6434086352578 496.182454772367 70.31961321477237 496.16511763446624 67.99581779428696 495.9152426200508 66.03423699830947 495.66536760563525 64.07265620233198 494.7873003968756 60.928745415779716 493.9092331881159 57.78483462922744 493.2266274663841 56.38722460129134 492.54402174465235 54.989614573355226 491.5050390972276 53.35594185302615 490.4660564498029 51.72226913269708 489.2641145407777 49.94787783969596 488.0621726317525 48.173486546694846 486.226586908685 46.0014648762461 484.39100118561754 43.82944320579735 482.3389409507386 41.82275052187033 480.2868807158597 39.81605783794331 477.8785457652817 37.718866612721435 475.47021081470365 35.62167538749956 472.15509572676876 33.25461365443887 468.83998063883394 30.887551921378176 465.66685931508084 29.299126556124783 462.4937379913278 27.71070119087139 458.72888505198 26.09523628828525 454.96403211263225 24.47977138569911 452.27088706579815 23.692143386272406 449.57774201896405 22.904515386845706 446.82479019893515 22.475222056520998 444.07183837890625 22.04592872619629 444.07183837890625 22.03592872619629 Z" fill="hsl(0, 0%, 0%)"></path><path d="M 527.4169175502057 143.70683555822944 Q 527.4169175502057 143.70683555822944 528.9358949417347 140.66593493094155 530.4548723332636 137.62503430365368 532.3699611993118 134.0876771254272 534.2850500653599 130.55031994720076 536.1042136885472 127.31533905930175 537.9233773117346 124.08035817140272 539.3915048125419 121.0694071640807 540.8596323133493 118.05845615675868 542.43047868749 114.29270811698063 544.0013250616307 110.52696007720259 545.127999210636 107.31250832352009 546.2546733596412 104.09805656983758 547.4560470654817 100.25006770589609 548.6574207713222 96.40207884195459 549.7031676727613 93.3187151023709 550.7489145742004 90.2353513627872 551.357731671344 87.48308807027163 551.9665487684878 84.73082477775607 552.4461800724514 81.43240538456374 552.9258113764151 78.13398599137139 553.1186814165676 75.20540584650115 553.3115514567199 72.27682570163093 553.4915452416585 68.59078639954781 553.671539026597 64.90474709746469 553.8100598581107 61.66687981608859 553.9485806896245 58.429012534712484 554.0910314036375 55.12905989138644 554.2334821176505 51.829107248060396 554.1430482421124 48.354427205335085 554.0526143665744 44.87974716260977 553.9099897041484 40.88082963820324 553.7673650417224 36.88191211379671 553.6972339402674 34.58258128315764 553.6271028388124 32.28325045251856 553.6019887098389 28.85066654493591 553.5768745808653 25.41808263735326 553.5549459637697 23.653574379777126 553.5330173466741 21.889066122200997 553.7311768666077 19.43616738012126 553.9293363865413 16.98326863804153 554.1417228493394 14.857710426217157 554.3541093121376 12.732152214392784 554.0301631631339 9.991194029190318 553.7062170141302 7.250235843987852 553.7101543412457 7.2471540498375 553.7140916683612 7.244072255687147 553.7180289954767 7.240990461536795 553.7219663225923 7.237908667386442 554.9101961567164 9.968498006667266 556.0984259908407 12.69908734594809 556.386446379517 14.805329677398406 556.6744667681933 16.911572008848722 556.9975120274511 19.240299794261645 557.3205572867089 21.569027579674565 557.592477468023 23.278017930613863 557.8643976493372 24.987008281553166 558.5306924577983 28.431133418758375 559.1969872662595 31.875258555963583 559.4574899295867 34.09033923275706 559.7179925929139 36.30541990955053 560.3533297299755 40.33618423225091 560.9886668670371 44.366948554951286 561.4325205493465 48.119559782116184 561.8763742316557 51.87217100928109 561.979761346716 55.207758084171 562.0831484617764 58.543345159060905 562.1297549428132 61.84489760291892 562.1763614238498 65.14645004677693 562.1400861488426 69.06989205762977 562.1038108738352 72.99333406848261 561.7878125376442 76.30334321533786 561.4718142014533 79.6133523621931 560.7541081493152 83.21657796779874 560.0364020971771 86.81980357340437 559.1241656209102 89.93685347888773 558.2119291446431 93.05390338437108 556.9749372554745 96.00329971716997 555.7379453663059 98.95269604996886 554.1606731413508 102.8182898995666 552.5834009163957 106.68388374916432 551.0607170216631 109.95295543709292 549.5380331269305 113.22202712502154 547.4676000334986 116.93423973083124 545.3971669400667 120.64645233664093 543.4825037991131 123.56463022728387 541.5678406581596 126.48280811792681 539.3162118476083 129.42133012585987 537.064583037057 132.3598521337929 534.5862625174241 135.57099549343877 532.107941997791 138.7821388530846 529.7706220870739 141.25022183785728 527.4333021763568 143.71830482262993 527.4251098632812 143.7125701904297 Z" fill="hsl(0, 0%, 0%)"></path><path d="M 553.301970936949 15.334486826651657 Q 553.301970936949 15.334486826651657 552.1332249963673 18.379343494497185 550.9644790557855 21.42420016234271 549.8869228405249 23.54497351611576 548.8093666252641 25.66574686988881 546.3706715380499 30.03649524231472 543.9319764508357 34.407243614740636 541.8768966961743 37.96793779859835 539.8218169415128 41.52863198245606 537.7278327885782 45.526740470089734 535.6338486356436 49.5248489577234 534.3129881922798 52.769490166734315 532.9921277489161 56.01413137574523 531.6123700666266 59.16030177682575 530.232612384337 62.30647217790626 528.4952346527283 66.2620440527362 526.7578569211196 70.21761592756614 525.6350044399056 72.88428860455005 524.5121519586917 75.55096128153394 522.7111794930775 79.21378916681599 520.9102070274633 82.87661705209803 518.824125958346 86.79886191523116 516.7380448892287 90.72110677836429 514.5035827579775 94.24586543335596 512.2691206267261 97.77062408834762 510.6293742004829 100.2673351499381 508.9896277742397 102.76404621152858 507.2660869182666 105.10242324752448 505.54254606229347 107.44080028352039 505.5381773847861 107.4383682767695 505.5338087072787 107.43593627001859 505.5294400297713 107.43350426326768 505.5250713522639 107.43107225651679 506.589611776382 104.7611457700792 507.6541522005001 102.0912192836416 508.6859233513786 99.28484395369509 509.7176945022571 96.47846862374858 511.17669320561674 92.71030269823962 512.6356919089764 88.94213677273063 514.0551398802809 84.77817916043259 515.4745878515854 80.61422154813454 516.7370758349416 76.91676328876119 517.9995638182979 73.21930502938784 518.899927817428 70.23374030919314 519.800291816558 67.24817558899845 521.5271300796006 63.08929110534752 523.2539683426432 58.93040662169659 524.8403813658294 55.94604259143078 526.4267943890156 52.96167856116498 528.1965267533428 49.55892150168179 529.9662591176701 46.156164442198595 532.5517538769037 42.29072445628455 535.1372486361373 38.4252844703705 537.6115709519265 35.14958943977138 540.0858932677158 31.87389440917227 543.1196890643289 27.936409729314658 546.153484860942 23.998925049457046 547.5825262790431 22.125686847319987 549.0115676971442 20.252448645182927 551.1481943761913 17.788322797693368 553.2848210552385 15.324196950203811 553.2933959960938 15.329341888427734 Z" fill="hsl(0, 0%, 0%)"></path><path d="M 51.25454357672397 182.04547697928717 Q 51.25454357672397 182.04547697928717 47.49894995612698 181.51157203406888 43.743356335529995 180.97766708885055 40.74156329139356 180.17853913077778 37.73977024725713 179.37941117270503 34.1309689792997 178.06202367784493 30.522167711342274 176.7446361829848 27.76302394052103 175.37651180225077 25.003880169699787 174.00838742151677 22.543307702592557 172.31197206309096 20.082735235485323 170.61555670466515 17.725202083283207 168.13163069616803 15.367668931081093 165.64770468767094 13.50638291722328 163.56719970431394 11.645096903365467 161.48669472095693 9.981379015661773 157.68613112238313 8.317661127958079 153.88556752380936 7.5866081450746625 150.4664998645306 6.855555162191246 147.0474322052518 6.787432024980078 143.69722992318765 6.719308887768911 140.34702764112347 7.534363285844926 136.1638105411289 8.349417683920942 131.98059344113432 9.525207384050848 127.99292573574968 10.700997084180754 124.00525803036503 13.249227474665357 118.97533624053145 15.797457865149958 113.94541445069785 18.26497948920006 109.69213717668097 20.732501113250155 105.43885990266409 23.26895253101165 101.85913930853515 25.805403948773147 98.2794187144062 29.807983035164742 93.91233971325673 33.81056212155634 89.54526071210726 37.19617208446918 86.13707545771396 40.581782047382035 82.72889020332065 45.09088131068151 79.54101421582158 49.59998057398099 76.3531382283225 52.84197837384218 74.10307614185577 56.08397617370336 71.85301405538902 58.72337908498248 70.3359424625701 61.36278199626161 68.8188708697512 64.25116930428455 67.474514178767 67.13955661230749 66.1301574877828 69.15291416655272 65.09202850831562 71.16627172079795 64.05389952884845 72.77765796900644 63.55371499098274 74.38904421721494 63.053530453117034 75.86729894126162 62.69003036333064 77.34555366530832 62.32653027354425 79.76803203951232 62.238247760396234 82.19051041371631 62.14996524724822 83.80852458646703 62.309672885528784 85.42653875921773 62.469380523809356 87.9082572593554 62.84662008989528 90.38997575949304 63.2238596559812 90.38998676135859 63.22885964387709 90.38999776322412 63.233859631772965 90.39000876508965 63.238859619668844 90.39001976695519 63.24385960756473 87.92299194520996 63.644403745869106 85.45596412346474 64.04494788417348 83.92648545236142 64.31185926808112 82.39700678125809 64.57877065198875 80.43244791790752 65.08400368556494 78.46788905455698 65.58923671914114 75.9504170847085 66.71521471291464 73.43294511486003 67.84119270668815 71.50928301329806 69.17872864654994 69.58562091173609 70.51626458641174 67.0991268734319 72.16925515147159 64.61263283512771 73.82224571653144 62.38264473678141 75.46906158824402 60.152656638435104 77.11587745995658 57.12218441887951 79.71779359024133 54.091712199323915 82.31970972052608 50.323215666419856 85.36332731403235 46.55471913351579 88.40694490753862 43.42594232561939 91.88370886201355 40.297165517722995 95.3604728164885 36.74916436041362 99.41588567800238 33.20116320310425 103.47129853951625 30.933852679474334 106.74690179833947 28.666542155844414 110.02250505716268 26.312249116161325 114.12201292600655 23.95795607647824 118.22152079485042 21.64189480948431 122.47535960081052 19.32583354249038 126.7291984067706 18.129848593769427 130.32713778239523 16.933863645048476 133.92507715801986 16.05696483466466 137.22049580240372 15.180066024280851 140.51591444678758 15.019569538353462 143.09642953043118 14.859073052426071 145.67694461407476 15.20690245187167 148.43511742178754 15.554731851317271 151.19329022950035 16.429560745564203 154.15002145388007 17.304389639811138 157.10675267825982 18.823692001338074 159.25968198219468 20.342994362865007 161.41261128612953 22.05109377567304 163.70478137755623 23.75919318848107 165.99695146898296 25.679890529723636 167.76102065805716 27.600587870966198 169.52508984713137 29.965391065441516 171.11435629622275 32.33019425991684 172.70362274531416 35.59281562066015 174.45610759447106 38.85543698140346 176.208592443628 41.6518482567441 177.44778842201765 44.44825953208475 178.68698440040728 47.85434241371554 180.35667290001317 51.260425295346344 182.02636139961908 51.257484436035156 182.03591918945312 Z" fill="hsl(0, 0%, 0%)"></path><path d="M 90.54672623081164 63.23977890086321 Q 90.54672623081164 63.23977890086321 87.73327346044826 67.76506389924702 84.91982069008486 72.29034889763085 82.3963744945982 75.91796519471413 79.87292829911156 79.54558149179739 77.33460537149759 83.61608965345846 74.79628244388361 87.68659781511953 73.00765574682627 91.04117430154969 71.21902904976893 94.39575078797985 69.47012132654373 98.04090010620413 67.72121360331852 101.6860494244284 66.20749089710425 104.9162727967069 64.69376819088998 108.14649616898541 63.3335110629627 112.07703743084868 61.973253935035416 116.00757869271195 60.61906059484271 119.54778111080924 59.26486725465 123.08798352890655 57.92817463197317 127.97260731603566 56.59148200929634 132.8572311031648 55.91475402955189 135.75550431800548 55.23802604980743 138.6537775328462 54.705748140536244 142.2797345194832 54.173470231265064 145.90569150612023 53.894321204428834 148.0357697918114 53.61517217759261 150.16584807750252 53.38627166637483 151.88992693121088 53.15737115515705 153.61400578491921 52.6934354407737 156.7371707681583 52.229499726390344 159.86033575139743 52.22449975845029 159.8603178461345 52.21949979051024 159.86029994087158 52.21449982257019 159.86028203560866 52.20949985463014 159.86026413034574 51.792843939215835 156.71939850096032 51.37618802380153 153.57853287157494 51.216573046758626 151.8236665689687 51.05695806971572 150.06880026636242 50.940833829173314 147.9018195574737 50.82470958863092 145.73483884858493 50.67601941181579 141.8425316654154 50.527329235000664 137.9502244822459 50.753160625741046 134.82454729955236 50.97899201648143 131.69887011685887 51.76596850082775 126.29818728300907 52.55294498517408 120.89750444915926 53.60316241689189 117.08798377972226 54.6533798486097 113.27846311028526 56.35809695479632 108.98915835075577 58.06281406098294 104.69985359122629 59.872101120641005 101.55156685471876 61.68138818029908 98.40328011821123 63.86263265061309 94.81755898573033 66.04387712092709 91.23183785324942 68.31774675837781 87.94245301954608 70.59161639582852 84.65306818584274 73.72341405854372 80.86811481127515 76.85521172125893 77.08316143670756 79.89583710952013 73.89341144608255 82.93646249778135 70.70366145545754 86.73378567498875 66.96547322920146 90.53110885219617 63.227285002945386 90.5389175415039 63.2335319519043 Z" fill="hsl(0, 0%, 0%)"></path><path d="M 93.40422558892985 170.53445303494343 Q 93.40422558892985 170.53445303494343 94.46822999125861 167.62340122642263 95.53223439358737 164.71234941790186 96.64731858975759 161.23987770029083 97.7624027859278 157.76740598267978 98.71558989225548 155.12402252795624 99.66877699858317 152.48063907323274 100.53321233281429 146.7977598951486 101.3976476670454 141.1148807170645 101.60731350284317 135.49179905072492 101.81697933864092 129.86871738438535 101.82622427226306 125.01282835053871 101.83546920588519 120.15693931669207 101.66655662618516 116.0258806431379 101.49764404648512 111.8948219695837 100.91910391718511 107.24253452409819 100.34056378788512 102.59024707861268 99.71177716815211 98.89706894365156 99.08299054841909 95.20389080869043 98.39767597204697 92.55289014944827 97.71236139567485 89.90188949020613 97.01259129289127 87.31290814857469 96.31282119010768 84.72392680694325 95.85705765975848 82.43740755484961 95.40129412940928 80.15088830275597 94.1964860595977 76.88035358290104 92.99167798978611 73.6098188630461 92.99579367911754 73.60697965517645 92.99990936844897 73.60414044730678 93.0040250577804 73.6013012394371 93.00814074711182 73.59846203156745 95.1390964709284 76.58043919949546 97.27005219474495 79.56241636742347 98.17580084274708 81.61876619038343 99.08154949074921 83.67511601334338 100.28910601654277 86.11972438989874 101.49666254233635 88.56433276645409 102.70671245105842 91.27591542993312 103.91676235978049 93.98749809341217 105.15519400518178 97.72723731820864 106.39362565058309 101.46697654300512 107.61607738651182 106.52652810792695 108.83852912244053 111.58607967284878 109.01855014653006 116.0478610866846 109.19857117061959 120.50964250052041 108.73260491032053 125.50234922606566 108.26663865002149 130.4950559516109 107.35816050012238 136.37906815689314 106.44968235022326 142.26308036217537 104.68319065928523 148.1009492406818 102.9166989683472 153.93881811918823 101.56816385926084 156.36714270231795 100.21962875017448 158.79546728544764 98.51135884516367 162.07150049261077 96.80308894015286 165.34753369977392 95.11260153645135 167.9454655033137 93.42211413274984 170.54339730685345 93.41316986083984 170.53892517089844 Z" fill="hsl(0, 0%, 0%)"></path><path d="M 95.33359604572668 71.84723690896126 Q 95.33359604572668 71.84723690896126 100.30008883822116 73.44800891621918 105.26658163071563 75.04878092347711 108.54298094110129 76.60331042585224 111.81938025148693 78.15783992822736 115.12796383505967 80.75081477534715 118.43654741863241 83.34378962246694 120.95837316109524 85.47001992333239 123.48019890355808 87.59625022419783 125.951362734148 90.87569371920685 128.42252656473792 94.15513721421588 130.1172818474426 97.27819984094668 131.81203713014727 100.40126246767748 132.94189173933293 103.8695849250615 134.0717463485186 107.33790738244554 134.31826167996542 112.73081083819301 134.56477701141227 118.1237142939405 134.12989068292165 122.56369039165023 133.69500435443106 127.00366648935997 132.7664954981016 131.44014375855977 131.83798664177212 135.8766210277596 130.31282069911748 141.0169872162553 128.78765475646287 146.15735340475098 127.32386028913766 150.45965495771776 125.86006582181244 154.76195651068457 123.71011437877581 159.51351663804536 121.56016293573917 164.26507676540615 121.55539209175862 164.26358042062193 121.55062124777807 164.26208407583772 121.54585040379752 164.2605877310535 121.54107955981696 164.2590913862693 122.46120619166939 159.2222232998278 123.38133282352183 154.1853552133863 123.9563257210551 149.71460678862206 124.53131861858834 145.24385836385787 125.21083654051341 140.11160552157105 125.89035446243848 134.97935267928426 126.26064273778317 130.7997388983432 126.63093101312788 126.62012511740218 126.6595750593715 122.45302874620285 126.68821910561513 118.28593237500353 126.72916270418713 113.79674179272163 126.77010630275915 109.30755121043973 126.1200312788133 106.37488606958254 125.46995625486745 103.44222092872535 124.27287325068872 100.57775633240007 123.07579024651 97.7132917360748 121.33509157246155 94.68182451150793 119.59439289841312 91.65035728694107 117.3908796766074 89.29723739974195 115.18736645480166 86.94411751254282 112.56243116909359 84.18236028873976 109.93749588338551 81.4206030649367 107.03006295366649 79.44938305559307 104.12263002394745 77.47816304624946 99.72385506284085 74.67174816385895 95.32508010173426 71.86533328146842 95.32933807373047 71.85628509521484 Z" fill="hsl(0, 0%, 0%)"></path><path d="M 431.610760247111 410.0518754933777 Q 431.610760247111 410.0518754933777 434.6083331493278 407.1623546696171 437.60590605154454 404.2728338458565 440.25750110961775 402.1543886042166 442.90909616769096 400.0359433625767 446.8902417315658 396.74302005760126 450.8713872954407 393.4500967526259 456.2770718209 389.08352672564797 461.6827563463593 384.71695669867 464.48281383351554 382.3464880657398 467.28287132067175 379.9760194328096 469.9791371534973 377.33047012764257 472.67540298632275 374.6849208224755 475.2536091415315 372.34907934161464 477.8318152967403 370.0132378607538 480.0197625688867 367.2940328988283 482.207709841033 364.5748279369028 484.10530263793703 361.36242230214464 486.00289543484104 358.1500166673865 487.693936533748 355.3135146069551 489.3849776326549 352.4770125465237 490.24204116667954 350.70008664876093 491.0991047007042 348.9231607509981 492.2783730261997 346.59823068180077 493.4576413516952 344.27330061260346 494.56512419475996 341.34240545995203 495.67260703782466 338.41151030730055 496.522361305285 336.99690754422545 497.3721155727454 335.58230478115036 499.65397490735273 334.005482548279 501.9358342419601 332.42866031540774 504.5281820904704 331.879194207747 507.1205299389808 331.32972810008624 511.78436126212114 332.775730699861 516.4481925852615 334.2217332996358 519.3421940258469 335.7977604695558 522.2361954664323 337.37378763947584 527.3638316279369 341.9312652020745 532.4914677894416 346.48874276467313 535.1152175433931 349.24351803225125 537.7389672973446 351.99829329982936 540.5747819174369 355.48782856499673 543.4105965375292 358.9773638301641 545.5319614764794 362.2762113145566 547.6533264154295 365.5750587989491 549.4189940383327 369.01732935274043 551.1846616612359 372.45959990653176 553.0437273174477 376.72952186297954 554.9027929736598 380.9994438194273 556.4933628690408 384.70635107259693 558.0839327644219 388.41325832576655 559.1682746053707 393.4553146215012 560.2526164463196 398.4973709172359 560.6899033361217 403.4769802689221 561.1271902259238 408.45658962060827 561.0259935264567 413.18862558025575 560.9247968269896 417.9206615399032 560.0227933046871 423.7105359298503 559.1207897823846 429.5004103197974 557.8822749190467 434.5035718156272 556.6437600557088 439.50673331145697 555.2953461800317 444.609307277939 553.9469323043547 449.7118812444211 552.8138958364444 454.05340990885134 551.6808593685341 458.3949385732816 550.9241322468549 462.04756266511595 550.1674051251758 465.7001867569503 549.5303872420789 469.6634897412959 548.8933693589819 473.6267927256415 548.5797671325677 476.8465846125242 548.2661649061534 480.06637649940694 548.6306023852705 482.42040956190687 548.9950398643876 484.7744426244068 549.8076121214749 487.63306329809336 550.6201843785622 490.4916839717799 551.4812089703121 492.8189953261372 552.342233562062 495.14630668049455 553.3602468560389 496.7173392154882 554.3782601500158 498.28837175048193 555.325148708991 499.5378190955827 556.2720372679663 500.78726644068337 557.3875085103869 502.1607056096574 558.5029797528073 503.5341447786314 559.9869630752116 504.5612165546421 561.4709463976159 505.5882883306528 563.2389406327924 506.781609345417 565.0069348679689 507.97493036018125 567.2357539683201 509.2014894089563 569.4645730686714 510.4280484577314 571.2337364126394 511.3444510853773 573.0028997566073 512.2608537130232 574.5388453333358 513.0476168356929 576.074790910064 513.8343799583627 578.3778091693903 515.2289727930831 580.6808274287166 516.6235656278037 580.6784552665405 516.6279670874037 580.6760831043644 516.6323685470037 580.6737109421882 516.6367700066037 580.6713387800121 516.6411714662037 578.1020380788789 516.0074522557009 575.5327373777458 515.3737330451979 573.8219108162186 515.017206515405 572.1110842546914 514.660679985612 570.129416125604 514.1832001072336 568.1477479965167 513.7057202288552 565.439796236554 512.9488491049074 562.7318444765914 512.1919779809597 560.6613371930147 511.3108260594461 558.590829909438 510.4296741379324 556.2279707049504 509.16809599896493 553.8651115004627 507.90651785999745 552.4103251083764 506.4873612817571 550.9555387162901 505.06820470351676 549.7433946345602 503.6355534843999 548.5312505528303 502.202902265283 547.0616912098998 500.0555775254403 545.5921318669692 497.90825278559765 544.4887593305177 495.3751618693151 543.3853867940662 492.84207095303253 542.1682697490436 489.44937674244704 540.951152704021 486.0566825318615 540.4285656074017 482.77533881875337 539.9059785107823 479.49399510564524 540.0976812233522 475.9352547671772 540.289383935922 472.37651442870913 540.8413188504348 468.16771845278555 541.3932537649476 463.95892247686197 542.1378518437564 460.04914072582943 542.8824499225652 456.1393589747969 543.9857325442682 451.7606322495311 545.0890151659712 447.38190552426533 546.4100243952206 442.3360830200472 547.73103362447 437.2902605158291 548.8848819204716 432.67336725580645 550.0387302164733 428.0564739957838 550.8771015222123 422.87698772972703 551.7154728279514 417.6975014636703 551.8205607652367 413.4703063962084 551.9256487025219 409.2431113287465 551.552100414324 404.8082393861773 551.178552126126 400.3733674436081 550.3550464894277 396.22601742829613 549.5315408527294 392.0786674129841 547.9292686534168 388.42196734478006 546.3269964541042 384.765267276576 544.5622074343826 380.7826950703707 542.797418414661 376.8001228641654 541.2212949055422 373.7870744753861 539.6451713964234 370.77402608660674 537.7922133363147 367.9574872464533 535.9392552762059 365.1409484062999 533.3123540448819 362.01872800720946 530.6854528135578 358.896507608119 528.2331834226327 356.46406222955744 525.7809140317075 354.0316168509959 521.5573973224548 350.2725843224938 517.3338806132019 346.5135517939917 515.0762400451574 345.3723079774983 512.8185994771129 344.2310641610049 510.5458459442401 343.1721616393703 508.2730924113673 342.1132591177357 506.70674552138826 342.4966388928176 505.14039863140914 342.88001866789944 504.35205454443104 344.3886472128699 503.56371045745294 345.89727575784036 502.8334856909165 347.3513738511849 502.10326092438004 348.80547194452953 500.7656995711682 351.2772158546979 499.4281382179564 353.74895976486624 498.251964525427 355.4809782429546 497.0757908328976 357.21299672104306 495.27895513380054 360.04037149223313 493.4821194347035 362.86774626342327 491.0616582537673 366.50093180934164 488.64119707283106 370.13411735525995 485.8539430908221 373.1523342545769 483.0666891088131 376.17055115389377 480.41967591830706 378.2609263944535 477.77266272780105 380.3513016350133 474.65547264090696 382.93545415713186 471.5382825540128 385.5196066792504 468.43700885885545 387.6769301876126 465.3357351636981 389.8342536959747 459.44839743056576 393.52884936047985 453.56105969743345 397.2234450249849 449.1175870276276 399.93565602453293 444.6741143578218 402.647867024081 441.76164474151756 404.2892980527353 438.8491751252133 405.93072908138964 435.2359676929574 407.9993022822872 431.6227602607015 410.0678754831848 431.61676025390625 410.05987548828125 Z" fill="hsl(0, 0%, 0%)"></path></svg>