<svg xmlns="http://www.w3.org/2000/svg" version="1.1" xmlns:xlink="http://www.w3.org/1999/xlink" viewBox="0 0 800 800" style="overflow: hidden; display: block;" width="800" height="800"><defs></defs><g id="two-0" transform="matrix(1 0 0 1 0 0)" opacity="1"></g><path d="M 352.3476975599098 229.32492871049988 Q 352.3476975599098 229.32492871049988 347.9134834112309 223.1493588471605 343.47926926255207 216.97378898382115 333.42404028624685 204.1780707006509 323.3688113099417 191.38235241748066 317.99998713157805 184.66056249860958 312.6311629532144 177.93877257973853 304.69550710788866 170.56724182337047 296.7598512625629 163.19571106700243 291.88331826533465 159.14636683278917 287.0067852681064 155.0970225985759 279.2726569152966 150.6404933707612 271.5385285624867 146.18396414294645 266.36412603837107 143.8422952121296 261.18972351425543 141.5006262813128 250.38229021543503 139.180121803149 239.57485691661466 136.85961732498518 234.0196123741765 136.04851482512174 228.46436783173831 135.23741232525828 222.26166802144337 135.09365478132497 216.05896821114843 134.94989723739167 212.24938645077765 135.57241365494033 208.43980469040687 136.194930072489 203.6599273388174 137.61967424616606 198.8800499872279 139.0444184198431 194.73819201494356 140.4248345199625 190.59633404265924 141.8052506200819 186.29179598113103 143.83786458530795 181.98725791960285 145.87047855053402 178.74425967958558 147.79861222140383 175.5012614395683 149.72674589227364 171.73613822434385 154.24173508929675 167.97101500911936 158.75672428631987 166.09488715930044 164.74607697511448 164.21875930948153 170.73542966390912 164.54631176825168 174.0171735919722 164.87386422702184 177.2989175200353 165.82080191864395 180.93358917985776 166.76773961026603 184.56826083968022 168.5411384418388 189.7017153139965 170.31453727341156 194.83516978831273 173.05800958384796 198.56577377875772 175.80148189428436 202.29637776920273 180.70880904897302 206.79872059914388 185.6161362036617 211.30106342908502 192.0797037750346 214.8540396700925 198.54327134640747 218.40701591110002 206.6018871647844 220.3206954591703 214.66050298316128 222.2343750072406 224.97893948739528 222.240627554233 235.2973759916293 222.24688010122537 243.017200432332 221.41037758735501 250.73702487303467 220.57387507348463 256.69745795667905 218.98550234350267 262.6578910403234 217.3971296135207 268.49684976170875 214.97048989977597 274.335808483094 212.54385018603125 279.48329873592513 210.1614153816278 284.6307889887562 207.77898057722433 290.80891621021715 205.41240031290667 296.98704343167805 203.045820048589 302.2833727979172 201.25422166441933 307.57970216415634 199.46262328024966 312.2395400091782 198.23171914676414 316.89937785420005 197.00081501327864 321.66002629599666 196.41621779112785 326.4206747377933 195.8316205689771 332.65256986504545 195.5160923524437 338.8844649922976 195.20056413591035 343.0652321588599 195.9544315699596 347.24599932542213 196.70829900400886 350.9013178578721 199.22884873972367 354.55663639032207 201.7493984754385 357.0757190188862 204.86800263698365 359.59480164745037 207.9866067985288 361.1223218665956 210.91181828435353 362.6498420857408 213.83702977017825 364.53839489807774 217.75099830721211 366.42694771041465 221.66496684424595 366.42459927424954 221.66938100867182 366.4222508380845 221.6737951730977 366.41990240191944 221.67820933752355 366.41755396575434 221.68262350194942 363.31373472548046 218.56810597098502 360.2099154852065 215.45358844002058 357.0266794995819 211.77688068040334 353.8434435139573 208.1001729207861 349.846018806674 205.001943572513 345.8485940993907 201.9037142242399 342.1793842311346 200.92608773130448 338.5101743628784 199.94846123836905 332.61585174762354 199.5469679821931 326.7215291323687 199.1454747260172 322.09713364465176 199.41310200948755 317.4727381569348 199.68072929295786 312.80037640390543 200.45505929034556 308.1280146508761 201.22938928773328 302.79975213199475 202.73929825653738 297.4714896131134 204.24920722534148 291.4007925230776 206.81749835221206 285.33009543304183 209.38578947908263 280.07384171477304 211.53134311723838 274.8175879965042 213.67689675539413 268.9273645570295 216.23758508664164 263.0371411175547 218.79827341788916 256.98313643931795 220.44462594915962 250.92913176108124 222.09097848043004 243.1299062979092 223.19883182024188 235.3306808347372 224.3066851600537 224.71732306692917 224.63782085082033 214.10396529912117 224.96895654158698 205.49522561239456 223.39697456587473 196.88648592566793 221.82499259016248 189.6332185510941 218.5931029066449 182.37995117652025 215.36121322312735 176.2627522506151 210.9826392967756 170.14555332470994 206.60406537042385 166.78265334159607 202.18863070262222 163.4197533584822 197.77319603482056 160.74207224009982 192.23964433715946 158.06439112171742 186.70609263949834 157.03836377570377 182.24223411611808 156.0123364296901 177.77837559273783 155.94769001773645 173.33829984427385 155.8830436057828 168.89822409580987 157.0940844424215 164.19250570926692 158.30512527906018 159.48678732272396 160.2072623970458 156.67984917712766 162.10939951503144 153.87291103153137 164.68596626294817 151.1448319539814 167.2625330108649 148.41675287643142 170.04296411655207 146.4927236258535 172.82339522223927 144.56869437527558 176.41596112511297 142.99203381881654 180.00852702798667 141.4153732623575 184.70421629256225 139.45148438111124 189.39990555713786 137.487595499865 193.68481699559635 136.54792850074807 197.96972843405484 135.60826150163115 203.10068895522647 134.40738846656973 208.23164947639813 133.2065154315083 212.1580689736845 133.31787141305472 216.08448847097085 133.42922739460113 222.41738215295743 133.4994300150375 228.750275834944 133.56963263547385 234.273546921461 134.67865641850227 239.79681800797798 135.78768020153066 250.80640850063293 137.9851199184065 261.81599899328785 140.18255963528236 266.89168070480116 142.80458522588236 271.9673624163145 145.4266108164824 279.85091506743163 149.81598161148673 287.73446771854884 154.2053524064911 292.6882979980239 158.21965451646838 297.642128277499 162.23395662644566 305.7532446669946 169.5856395797539 313.86436105649017 176.9373225330621 319.33548529197543 183.60798808284568 324.8066095274607 190.27865363262924 334.59037911682935 203.32783286761696 344.37414870619796 216.37701210260465 348.3692436395503 222.8454234099196 352.3643385729027 229.3138347172345 352.35601806640625 229.3193817138672 Z" fill="hsl(0, 0%, 0%)"></path><path d="M 367.0058142874461 221.98813778716874 Q 367.0058142874461 221.98813778716874 369.31316351585474 200.51441125919382 371.6205127442633 179.0406847312189 375.07498938574224 165.08371978139934 378.52946602722125 151.12675483157975 381.6339151361169 142.20545846587822 384.7383642450125 133.28416210017667 388.2378367684221 126.18067320250745 391.7373092918316 119.07718430483823 394.6310884004414 113.89422015096244 397.52486750905115 108.71125599708667 400.77876097499336 104.53615479232994 404.0326544409356 100.36105358757321 409.8776724848746 96.29113652427628 415.72269052881364 92.22121946097934 420.85076221141406 89.21096609530989 425.9788338940145 86.20071272964041 431.20062776996565 84.1958302679866 436.42242164591687 82.19094780633277 441.65528820489 80.6746043903554 446.88815476386304 79.15826097437801 450.9500423233626 78.26053200622374 455.0119298828621 77.36280303806946 459.2094601533885 76.86780651836223 463.4069904239148 76.372809998655 466.70881032576006 76.6108078022651 470.0106302276053 76.84880560587521 473.32522890005 78.19984499807887 476.6398275724947 79.55088439028255 480.0851858107522 82.44683097612199 483.5305440490097 85.34277756196143 485.869643493746 88.63080986298155 488.20874293848243 91.91884216400166 489.444415456128 97.52434589245988 490.68008797377354 103.12984962091811 487.91259766042856 112.80395452887444 485.1451073470836 122.47805943683078 483.23235938748667 127.3845318502101 481.3196114278897 132.29100426358943 476.46696615331814 139.15625329079637 471.6143208787466 146.02150231800331 468.56698581878925 149.7510570439347 465.51965075883186 153.4806117698661 462.14603326869764 157.59591341346083 458.7724157785634 161.71121505705554 457.8818683596005 162.78393953688908 456.99132094063754 163.85666401672262 456.59468142369434 164.1250371647924 456.19804190675114 164.39341031286216 455.7487008408621 164.55905951905257 455.2993597749731 164.72470872524298 454.8234328839999 164.77800644990725 454.3475059930267 164.83130417457156 453.872654170234 164.76915275144805 453.3978023474413 164.70700132832454 452.9516240030807 164.53301300104533 452.5054456587201 164.3590246737661 452.11387269912933 164.0833116520875 451.7222997395386 163.80759863040888 451.4080904035271 163.4461853681051 451.09388106751567 163.08477210580133 450.8752972164556 162.65866395865845 450.65671336539543 162.2325558115156 450.54645910298035 161.76651820506618 450.43620484056527 161.30048059861673 450.4406881497071 160.82159966044426 450.44517145884896 160.3427187222718 450.56413176940976 159.87882703500298 450.6830920799705 159.4149353477342 450.90961541311106 158.992994318029 451.1361387462516 158.57105328832378 451.4570595552067 158.21558614865344 451.7779803641618 157.8601190089831 455.23004829156287 155.07572606936685 458.682116218964 152.2913331297506 462.8676517085732 150.1101639610515 467.0531871981824 147.92899479235243 473.0263045351277 146.11587826466743 478.99942187207296 144.30276173698243 482.60526291491914 142.94423983567307 486.2111039577653 141.58571793436371 494.2447849723229 141.50642577862394 502.2784659868805 141.42713362288416 507.4097228016011 141.48705106621304 512.5409796163217 141.54696850954195 516.4321850425147 141.99181588535242 520.3233904687075 142.4366632611629 526.2332970236198 144.59394289746234 532.143203578532 146.7512225337618 537.8008996240485 151.004604047494 543.458595669565 155.25798556122623 548.2862963155934 159.4317948239701 553.1139969616218 163.605604086714 556.030084210578 165.51723926723065 558.9461714595342 167.4288744477473 564.8632273748084 168.57560081758558 570.7802832900826 169.72232718742387 574.0578523084375 168.70194275347976 577.3354213267924 167.68155831953564 580.476937824578 165.29966143329682 583.6184543223637 162.91776454705797 587.7127841971346 158.30124543788926 591.8071140719054 153.68472632872056 594.0979844796625 149.03507956035253 596.3888548874197 144.38543279198453 597.3870509804071 139.32691931730415 598.3852470733946 134.26840584262376 598.0561899775959 130.16335494823474 597.7271328817972 126.05830405384573 593.8765706781128 120.2489378704899 590.0260084744283 114.43957168713406 586.2281129995737 112.71256122604044 582.4302175247191 110.9855507649468 573.9364105153088 109.47369690829231 565.4426035058984 107.96184305163783 550.9927737768892 108.92493181730106 536.5429440478798 109.8880205829643 525.5073437853546 111.39116726128711 514.4717435228292 112.89431393960992 507.3692340526319 114.3594968332961 500.2667245824345 115.82467972698228 495.18873614532345 117.28188762408969 490.1107477082124 118.7390955211971 485.02613146779686 120.831220969323 479.9415152273814 122.92334641744891 476.4517431096442 125.2004338283848 472.9619709919071 127.47752123932071 468.436879496292 130.44136152910033 463.9117880006769 133.40520181887996 459.9423753131177 136.26940763070306 455.97296262555847 139.13361344252615 452.59523762288256 141.92581174083165 449.2175126202066 144.7180100391371 444.2767259146674 148.35591511916857 439.3359392091282 151.99382019920006 434.8456355797923 155.65367917321535 430.3553319504565 159.31353814723064 424.7135552852013 164.2901668693204 419.07177861994614 169.2667955914101 414.19627019655 173.7409450798437 409.32076177315395 178.21509456827727 405.2215520246036 182.30705745077287 401.12234227605336 186.39902033326848 396.5493126125169 191.00751546295527 391.9762829489805 195.61601059264208 388.3452285086554 199.51445036855768 384.71417406833035 203.41289014447324 381.3913038302678 207.17361093797973 378.06843359220534 210.9343317314862 375.48951583271844 214.0569894421456 372.9105980732316 217.179647152805 370.57208103650896 219.97486823537804 368.2335639997864 222.77008931795112 365.93281371059965 225.65201280307582 363.6320634214129 228.53393628820052 359.7649892174302 231.98901840844962 355.8979150134475 235.44410052869873 355.89455343193333 235.4403992087013 355.8911918504191 235.43669788870386 355.88783026890485 235.43299656870641 355.88446868739067 235.429295248709 359.0538265836966 231.46724618632388 362.2231844800025 227.50519712393876 364.30831959046344 224.37847555715356 366.3934547009244 221.25175399036837 368.7079056082258 218.40913032763876 371.0223565155273 215.56650666490913 373.72483621624406 212.50712098215178 376.4273159169609 209.4477352993944 379.8645008242305 205.74592464791294 383.3016857315002 202.04411399643152 387.0764584972185 198.3005111131269 390.85123126293684 194.55690822982226 395.2035337661937 189.6842701264174 399.55583626945054 184.81163202301252 403.7071926716271 180.76197278622766 407.85854907380366 176.7123135494428 412.4793032614929 171.94655996855607 417.10005744918203 167.18080638766932 422.46886199946294 161.7500321717788 427.83766654974386 156.31925795588825 432.2543256150518 152.4914178855175 436.6709846803598 148.66357781514677 441.35419115167093 144.60020171077724 446.03739762298204 140.53682560640775 449.7207658259466 137.95859835680056 453.40413402891124 135.3803711071934 457.548914683668 132.6917345222735 461.69369533842473 130.00309793735357 466.3439479691458 126.98490035973921 470.99420059986693 123.96670278212486 474.92656746505327 122.08524118981757 478.85893433023955 120.20377959751029 484.1547215101218 118.17785659174484 489.450508690004 116.1519335859794 494.6300515801791 115.00307904145713 499.80959447035417 113.85422449693485 506.92561861491095 112.0208872894232 514.0416427594678 110.18755008191157 525.1278908919521 108.17954479877623 536.2141390244366 106.1715395156409 551.1485850743563 104.5398669845541 566.0830311242762 102.90819445346727 575.7278348630814 103.79117383283172 585.3726386018865 104.67415321219616 590.2531702149746 107.16535388088971 595.1337018280627 109.65655454958328 598.630820501269 113.84635479034718 602.1279391744754 118.03615503111108 602.9957239413778 121.89856963147552 603.8635087082803 125.76098423183997 603.9021285635818 130.5013403401069 603.9407484188832 135.24169644837386 602.9706855457094 141.07906079660756 602.0006226725357 146.91642514484127 599.6602955128544 152.3205310154358 597.3199683531733 157.72463688603034 593.3507439791922 164.01377027668394 589.3815196052112 170.30290366733755 584.8834920985807 173.74767653165713 580.3854645919503 177.19244939597675 575.6044701670096 178.54833067939674 570.823475742069 179.90421196281673 565.1748968921801 179.7274197294426 559.5263180422911 179.55062749606844 556.3499013425062 177.78743304736867 553.1734846427213 176.02423859866886 549.7670015366775 173.6841836358374 546.3605184306336 171.34412867300594 541.6420248937112 166.6422755916023 536.9235313567888 161.94042251019863 532.4810476359148 157.889281423516 528.038563915041 153.83814033683336 523.6146236947925 151.3528765882636 519.190683474544 148.86761283969383 515.8113407191959 148.0343032108908 512.4319979638476 147.2009935820878 507.5395355968169 147.08686398331145 502.6470732297862 146.97273438453513 495.5956762523554 147.90061037880506 488.54427927492463 148.82848637307498 484.98971377756845 149.8397718835532 481.4351482802123 150.85105739403141 476.2270126365343 153.1972677038245 471.01887699285635 155.5434780136176 467.3126010545975 157.48219781913173 463.60632511633867 159.42091762464585 460.29897292907935 161.63866047217903 456.99162074182 163.85640331971217 456.59500806417475 164.1248161303917 456.1983953865295 164.39322894107121 455.74907088780776 164.5589230805399 455.299746389086 164.72461722000858 454.8238248302649 164.7779625370954 454.34790327144384 164.83130785418223 453.87304523588307 164.76920391655165 453.39818720032235 164.7070999789211 452.95199145935993 164.53315627034618 452.5057957183975 164.3592125617713 452.1141951894625 164.08353869876714 451.72259466052753 163.80786483576296 451.40834918476094 163.44648299619982 451.09410370899434 163.08510115663668 450.8754772482125 162.6590148700094 450.65685078743064 162.23292858338215 450.5465499218063 161.76690200468914 450.4362490561819 161.3008754259961 450.4406844772076 160.82199404188714 450.44511989823326 160.34311265777814 450.56403381903056 159.87920907679776 450.6829477398279 159.4153054958174 450.9094288777329 158.9933418158886 451.135910015638 158.57137813595983 451.4567952762746 158.215878905986 451.7776805369112 157.86037967601214 452.96374552241423 157.12753428630205 454.1498105079173 156.39468889659196 458.0229372918054 153.34713717236298 461.8960640756935 150.29958544813402 464.9985697005575 147.02365020187844 468.1010753254215 143.74771495562285 472.05188101881197 136.96283936996343 476.00268671220243 130.177963784304 477.80361251741044 125.63358685295637 479.6045383226184 121.08920992160871 481.3250321203954 112.77609405980309 483.0455259181724 104.46297819799746 480.69319966985574 97.7027047975529 478.3408734215391 90.94243139710834 475.82703543582954 88.42120917490006 473.31319745012 85.89998695269178 468.49986385072964 83.66886772059492 463.6865302513392 81.43774848849806 459.64904031401807 81.44502395909497 455.611550376697 81.45229942969188 451.63044461626123 81.73638690931205 447.64933885582553 82.02047438893223 442.45765886237746 83.28487555595356 437.26597886892944 84.54927672297488 432.1263752243631 86.25394148786212 426.98677157979677 87.95860625274936 421.9019904108118 90.8433077763045 416.8172092418268 93.72800929985962 411.38224198872206 97.86181192076762 405.9472747356173 101.99561454167564 402.4936947544712 105.78983772168651 399.0401147733251 109.58406090169738 396.06843763235213 114.65229430713805 393.0967604913792 119.72052771257873 389.878653784957 126.82065912408358 386.6605470785349 133.92079053558842 383.87576162551034 142.83615998380975 381.09097617248574 151.7515294320311 377.7718833254394 165.59626326227135 374.45279047839296 179.44099709251157 370.73920464820776 200.71596212337454 367.0256188180226 221.9909271542375 367.0157165527344 221.98953247070312 Z" fill="hsl(0, 0%, 0%)"></path><path d="M 352.3506104922632 219.88688240356146 Q 352.3506104922632 219.88688240356146 356.1827689886043 216.58240171988223 360.0149274849455 213.277921036203 362.8833928904519 211.2475711010288 365.75185829595836 209.2172211658546 376.04702423469905 204.2809551571991 386.3421901734398 199.34468914854358 391.6462126502545 197.05911919713807 396.95023512706916 194.77354924573257 400.6241737021377 192.98119499970957 404.2981122772062 191.18884075368658 407.79674841136216 189.92085038115542 411.29538454551806 188.65286000862426 414.60309673990463 187.68519082429668 417.9108089342912 186.7175216399691 421.6344957662261 186.1917904209378 425.35818259816097 185.66605920190648 429.0537429213416 185.3921594926261 432.7493032445222 185.11825978334574 437.4892129019603 185.42270048163894 442.22912255939843 185.72714117993215 446.0946708468803 186.06354665613526 449.9602191343622 186.3999521323384 454.81001932929877 187.626305373058 459.65981952423533 188.85265861377758 463.78121396687993 189.90981815052763 467.90260840952453 190.96697768727768 471.69705167119935 192.32268963263067 475.49149493287416 193.67840157798366 479.7470292175836 195.5532962682375 484.002563502293 197.42819095849134 487.6889607110322 199.07196799640377 491.37535791977143 200.71574503431623 495.5346254540903 203.44966237556872 499.6938929884092 206.18357971682119 503.29562864620164 208.84496088549847 506.8973643039941 211.50634205417575 509.9684748134278 213.76221042132926 513.0395853228615 216.01807878848277 516.7598271650033 219.65142337813077 520.4800690071452 223.28476796777878 523.3984556954646 226.29608255818107 526.316842383784 229.30739714858336 529.0824063762487 232.39171421544467 531.8479703687135 235.47603128230594 534.7973150459225 239.719337261674 537.7466597231315 243.9626432410421 540.252120794368 247.49702358275098 542.7575818656045 251.03140392445988 545.5063352124531 255.33823130677962 548.2550885593017 259.64505868909936 550.7079383661012 263.22133024147206 553.1607881729007 266.7976017938448 555.463319580964 270.0876372075532 557.7658509890275 273.3776726212616 560.4267477277275 277.56523955809047 563.0876444664275 281.75280649491935 565.654948808779 284.42290632051424 568.2222531511304 287.09300614610913 571.3879520458233 290.4392613411105 574.5536509405161 293.78551653611186 577.3313152512964 295.8569814544603 580.1089795620766 297.9284463728088 583.068676910952 299.9564199848479 586.0283742598274 301.98439359688706 590.5135576590526 303.4559335525505 594.9987410582778 304.92747350821395 599.9775749433059 306.0013016446803 604.956408828334 307.07512978114664 611.6358950424892 307.3384378962107 618.3153812566444 307.6017460112747 624.7724302240844 306.68497627388274 631.2294791915243 305.7682065364908 637.6177319571616 303.9883670253157 644.0059847227988 302.20852751414066 650.9612145031253 299.42948139830287 657.9164442834518 296.650435282465 663.5934240777674 293.97332764874824 669.270403872083 291.29622001503145 674.0167731270101 288.018314086667 678.7631423819371 284.7404081583025 684.5004628469217 280.48108932113183 690.2377833119062 276.22177048396117 694.0923909362187 272.5223142016728 697.9469985605313 268.8228579193845 701.4151995481975 265.1795024152 704.8834005358639 261.5361469110155 706.9578333866523 258.81507122639505 709.0322662374408 256.09399554177463 711.6762518147902 251.97276840733412 714.3202373921398 247.85154127289357 714.3247329473777 247.85372987589602 714.3292285026157 247.85591847889847 714.3337240578537 247.85810708190093 714.3382196130916 247.86029568490338 712.149555479137 252.32561194956247 709.9608913451823 256.79092821422154 707.8832668770926 259.598549983393 705.8056424090031 262.40617175256455 702.3376779680591 266.1047330873231 698.8697135271152 269.8032944220816 694.9041580967474 273.4621023702106 690.9386026663797 277.12091031833955 685.3589924834032 281.67501076413606 679.7793823004267 286.22911120993257 674.8979666667692 289.5217151092528 670.0165510331116 292.814319008573 664.3734441410514 295.6804002846659 658.7303372489913 298.54648156075876 651.8002843619263 301.72677986965687 644.8702314748614 304.907078178555 638.4209819107448 307.23239133495724 631.9717323466283 309.5577044913594 625.2231807036183 311.21662320260964 618.4746290606082 312.87554191385993 611.0824010626751 313.53253102940573 603.690173064742 314.18952014495153 598.2261407889741 313.35627531380135 592.7621085132062 312.5230304826512 586.8428307195198 310.924030528298 580.9235529258335 309.32503057394473 577.8191429412038 306.9615856017533 574.7147329565743 304.59814062956184 571.7240530359454 302.0036183460444 568.7333731153166 299.4090960625269 565.4099503579807 296.0266709359273 562.086527600645 292.6442458093277 559.3021446229658 289.39899085707464 556.5177616452866 286.1537359048216 553.6699059352012 282.0895834195083 550.8220502251158 278.025430934195 548.6630373545574 274.6498713610615 546.5040244839989 271.274311787928 544.1258854550706 267.6670153307049 541.7477464261423 264.0597188734818 538.7962296264253 259.9641769041791 535.8447128267084 255.8686349348764 533.4379171652171 252.38294986743688 531.0311215037258 248.89726479999734 528.0889774531931 245.1229340730396 525.1468334026604 241.34860334608186 522.5502145890416 238.3181289310897 519.9535957754229 235.2876545160975 517.3385347536562 232.4113886996915 514.7234737318895 229.53512288328554 511.09060101721104 226.3987901140832 507.45772830253264 223.26245734488086 504.5609176120952 220.92321856339527 501.66410692165766 218.58397978190968 498.30716934893974 216.1001065383479 494.9502317762218 213.6162332947861 491.2362941450016 211.32712267617455 487.52235651378135 209.03801205756304 484.0171312023872 207.36306403452477 480.51190589099303 205.68811601148647 476.3461190345798 204.00431765851067 472.1803321781665 202.3205193055349 468.91011758481 200.96961890738578 465.6399029914535 199.61871850923666 461.6387579699389 198.55745022028316 457.63761294842436 197.49618193132966 453.29238979478794 196.57138031561442 448.9471666411515 195.64657869989918 445.3442718933881 195.1715151434983 441.7413771456247 194.69645158709747 437.4086645619295 194.50824398716807 433.0759519782344 194.32003638723867 429.59107187191023 194.3036548135742 426.1061917655861 194.28727323990972 419.6565707037014 194.8255038026556 413.2069496418167 195.36373436540146 409.9052579749647 196.03365560526268 406.6035663081127 196.7035768451239 402.77687719882437 198.05432402623742 398.950188089536 199.40507120735094 393.68912784856246 201.6816528216343 388.4280676075889 203.95823443591763 378.11428719289415 208.33975209744912 367.80050677819935 212.7212697589806 364.6781343426719 214.19811822430384 361.5557619071444 215.67496668962707 356.95859377384687 217.78933633248593 352.3614256405493 219.9037059753448 352.35601806640625 219.89529418945312 Z" fill="hsl(0, 0%, 0%)"></path><path d="M 281.14943011249966 297.372500723436 Q 281.14943011249966 297.372500723436 285.75997931282996 295.34360341250203 290.3705285131602 293.314706101568 294.10903205759297 291.9155738453983 297.84753560202574 290.5164415892285 303.6330785531892 288.502336820387 309.4186215043527 286.4882320515455 314.1945467879908 284.37544795175575 318.97047207162893 282.26266385196607 322.7317903018868 280.3172342208194 326.49310853214473 278.37180458967276 329.4601861301652 276.53585907286055 332.4272637281856 274.69991355604833 336.53662966332604 270.8595881385375 340.6459955984665 267.0192627210267 343.13421004151024 262.670592338755 345.62242448455396 258.3219219564833 344.81815852704153 253.20321896051308 344.01389256952905 248.08451596454287 341.3075765577828 244.329237876506 338.6012605460365 240.5739597884691 335.2495056668323 238.6647771223257 331.8977507876282 236.75559445618228 327.5661723795619 236.73021528566989 323.23459397149566 236.70483611515746 316.88034192106863 239.3867036936643 310.5260898706416 242.06857127217114 307.649138165022 244.12481675641476 304.7721864594024 246.1810622406584 302.6068327526246 249.1559649947734 300.4414790458468 252.13086774888836 300.2957050849479 256.0393058357589 300.149931124049 259.9477439226295 302.2631090463291 262.89774401006906 304.3762869686091 265.8477440975086 307.27351502848944 268.99682940891137 310.17074308836976 272.1459147203141 313.622589071647 274.73156460373525 317.07443505492427 277.3172144871564 320.66348285841093 278.92793448982667 324.25253066189765 280.53865449249696 329.3848960608693 282.2019829371444 334.51726145984094 283.86531138179186 338.78866400444315 284.43070160976424 343.0600665490454 284.9960918377366 347.2685357266724 284.67490973469677 351.47700490429935 284.3537276316569 354.8111074756129 283.7776409708064 358.1452100469265 283.2015543099558 363.5855175782966 280.2533630928415 369.0258251096668 277.3051718757272 374.03828144196507 272.6216749250704 379.0507377742633 267.93817797441363 381.37025250283983 265.23105519495505 383.68976723141634 262.52393241549646 387.74505468196185 257.11789185115117 391.8003421325073 251.7118512868059 396.4095945480775 246.05744001167284 401.0188469636478 240.4030287365398 403.4515097030877 238.0354651917799 405.8841724425276 235.66790164702002 411.6926294985992 232.0498766253981 417.5010865546708 228.4318516037762 421.28905714025285 227.47749341311095 425.0770277258349 226.5231352224457 428.8784832802408 226.17918421350464 432.6799388346467 225.83523320456356 436.08226418529364 225.94998821034028 439.48458953594053 226.06474321611702 446.2174663058314 228.05459322815054 452.9503430757223 230.04444324018405 456.2535499073292 231.576021268415 459.5567567389362 233.1075992966459 463.32056006006394 235.89803466859868 467.0843633811916 238.68847004055146 469.91852401733144 241.05803320783752 472.75268465347125 243.42759637512358 477.23294208910903 247.76930725516894 481.7131995247468 252.1110181352143 484.84270107862335 256.3613666402648 487.9722026324999 260.6117151453153 490.76122896807294 264.748327578023 493.55025530364594 268.88494001073065 495.85812157531984 273.58373479605564 498.1659878469937 278.28252958138063 498.7089265336537 284.1066893470585 499.25186522031373 289.9308491127364 498.025177861159 295.21520361487524 496.79849050200437 300.4995581170141 493.10013888706624 305.76354641729597 489.40178727212805 311.02753471757785 485.1790604467359 313.4742831871031 480.9563336213438 315.9210316566284 476.88123421857813 316.96910188203503 472.8061348158124 318.0171721074417 468.1922537936267 318.21827725402477 463.5783727714411 318.41938240060784 459.3372691994945 318.1371849841663 455.09616562754786 317.8549875677248 451.16993795974975 317.0751934665552 447.24371029195163 316.29539936538566 442.52676868328933 314.07708002339893 437.8098270746271 311.8587606814122 434.18222929970585 310.0884454225644 430.5546315247846 308.31813016371666 426.5090150321601 305.8442496952566 422.4633985395356 303.3703692267966 419.2812199810231 301.053160815718 416.0990414225107 298.7359524046395 413.3064387407991 296.6186552349501 410.51383605908745 294.50135806526066 407.41483260431266 291.6097660428161 404.3158291495378 288.7181740203716 401.7685895307752 286.3500615519968 399.22134991201256 283.98194908362206 395.49600490019736 279.4185961918885 391.7706598883822 274.855243300155 389.0031576440751 271.680474804136 386.23565539976795 268.505706308117 382.7468274172932 265.3118124697751 379.2579994348185 262.11791863143316 375.86663493193237 261.21363630232264 372.4752704290463 260.3093539732121 369.1946819093849 260.79485501022225 365.91409338972346 261.28035604723243 363.13794040274786 264.92326695231094 360.36178741577226 268.56617785738945 359.74829248408366 274.3779302202401 359.1347975523951 280.18968258309076 358.67531721807404 286.15077782391234 358.21583688375296 292.11187306473397 357.2956973189056 297.0788157016581 356.3755577540582 302.0457583385822 354.9221335763097 306.5841118143167 353.4687093985612 311.12246529005125 351.04204744744777 314.34502111919954 348.61538549633434 317.56757694834783 345.88866411168357 320.1275893764972 343.1619427270328 322.68760180464665 339.5767317646324 324.7376653860756 335.991520802232 326.7877289675045 331.17401075532143 328.2770025467816 326.35650070841086 329.7662761260587 321.8351885082711 330.44997929876706 317.3138763081313 331.13368247147537 311.64598250948046 331.00452426538175 305.97808871082964 330.8753660592882 301.18939557338115 330.2538878344485 296.4007024359327 329.6324096096088 292.4538966748785 328.785992647571 288.5070909138243 327.9395756855331 283.82425805796936 325.7820197636322 279.14142520211436 323.62446384173137 275.49661147408983 321.4755304838468 271.8517977460653 319.3265971259622 268.42910105477074 315.55370852154897 265.00640436347624 311.7808199171357 262.6144644081332 308.3048327555387 260.22252445279014 304.8288455939417 258.9042948509797 301.0137303596798 257.5860652491692 297.1986151254179 257.19572672562333 292.3437043573326 256.8053882020775 287.48879358924734 257.2098842597404 283.2935008503353 257.61438031740335 279.0982081114233 259.59084505554625 274.23864915668105 261.56730979368916 269.3790902019388 264.4476783201106 265.4904675168324 267.328046846532 261.601844831726 270.7049249750604 259.0117007605958 274.0818031035888 256.4215566894656 278.3689338185983 254.91456001088247 282.6560645336078 253.40756333229933 286.3021512433803 252.989834243534 289.9482379531529 252.57210515476868 294.1844205872343 253.0977932018678 298.42060322131573 253.62348124896693 302.50522026566944 254.84028594701687 306.5898373100231 256.0570906450668 310.4186108673749 257.50703440381244 314.2473844247267 258.9569781625581 318.9820202791995 261.7330405334271 323.7166561336723 264.50910290429607 327.5539383774574 266.82598317694425 331.39122062124255 269.1428634495924 335.16333480960725 271.694184500525 338.9354489979719 274.24550555145754 343.11231978861645 277.2597799423819 347.28919057926095 280.2740543333063 351.135255894818 282.67873322327324 354.981321210375 285.0834121132402 359.52794631162584 288.10791262346083 364.0745714128767 291.13241313368155 367.8358140028106 293.15845328421597 371.59705659274454 295.1844934347503 374.9005988736495 296.4973454907074 378.2041411545545 297.8101975466645 381.7418579291253 298.60221166569625 385.279574703696 299.39422578472795 391.89407075751194 298.4223079402859 398.5085668113279 297.45039009584383 402.0438369530045 295.5324349856537 405.57910709468104 293.61447987546353 408.9886593041913 291.1694358821774 412.3982115137015 288.7243918888913 416.9297587773449 284.57537343288743 421.4613060409883 280.4263549768836 425.40267105831015 276.01728078692645 429.34403607563206 271.60820659696935 431.6841240544169 268.85013290547437 434.0242120332017 266.0920592139794 434.02825559853636 266.09500023070564 434.032299163871 266.09794124743195 434.03634272920567 266.10088226415826 434.0403862945403 266.1038232808845 432.13157419333265 269.18750659820836 430.222762092125 272.2711899155322 427.00009636056745 277.3573545284943 423.77743062901 282.4435191414564 419.95257856624596 287.8860236270641 416.12772650348194 293.32852811267173 412.6254193575436 296.45144488101283 409.1231122116053 299.57436164935393 404.8953274820059 302.2573470720366 400.66754275240646 304.94033249471926 395.921922389156 306.31228193400125 391.17630202590556 307.6842313732833 387.2923749662898 307.4711977188198 383.408447906674 307.25816406435627 379.22309363688106 306.1751752601813 375.03773936708814 305.09218645600623 371.50287459507865 303.40999881845744 367.96800982306917 301.72781118090865 364.13906777735406 299.54008031547335 360.3101257316389 297.3523494500381 355.49763647878916 294.71216643463174 350.68514722593943 292.0719834192253 346.6766730226567 289.648138802202 342.668198819374 287.22429418517874 338.2806756565676 284.54409920303794 333.89315249376125 281.8639042208971 330.26396691573404 279.5166174179261 326.6347813377068 277.1693306149552 322.9740748159007 275.04356905936993 319.3133682940946 272.9178075037847 314.90586254191425 270.90735739278085 310.4983567897339 268.89690728177703 306.9831149398873 267.58461234236603 303.4678730900406 266.272317402955 300.1892880963169 265.239808734938 296.91070310259323 264.20730006692094 291.28688382056214 263.653432981705 285.66306453853105 263.09956589648914 280.3039235974869 265.3385052798051 274.9447826564428 267.577444663121 272.7750339365999 270.3233237496896 270.60528521675707 273.06920283625817 268.7284251080491 279.8551325154853 266.8515649993412 286.64106219471245 267.73739475070374 293.00283101482313 268.62322450206636 299.3645998349338 270.51512005007754 302.267081674396 272.4070155980887 305.16956351385824 274.81386004979686 307.904693652746 277.22070450150494 310.6398237916338 280.2090051586704 312.4703096074401 283.1973058158358 314.30079542324637 287.03834791502345 315.839816325471 290.87939001421114 317.3788372276957 294.23850391127644 318.1467950770194 297.5976178083418 318.91475292634306 301.49918025433647 319.25842246536877 305.4007427003311 319.6020920043945 310.26367488386256 318.91048850923426 315.12660706739405 318.218885014074 318.3833804302245 317.57918750662543 321.640153793055 316.9394899991768 327.1834081824044 314.2882292401439 332.7266625717537 311.6369684811109 335.86486212693563 308.31342213356027 339.00306168211756 304.9898757860096 340.2038639537574 301.86447622533234 341.4046662253972 298.7390766646551 342.3456558056279 294.5276369617928 343.28664538585866 290.31619725893046 343.63083372076306 284.8800516250152 343.97502205566747 279.4439059911 344.0447887769011 275.8379616436049 344.1145554981347 272.23201729610986 344.54728090883134 267.4683370181243 344.980006319528 262.7046567401387 346.39315429800524 259.4024160044867 347.8063022764824 256.10017526883473 349.88111054460654 253.41146541892618 351.95591881273066 250.72275556901766 356.3992647242136 248.3004387516992 360.8426106356965 245.87812193438074 365.4308842095861 245.23420852791628 370.0191577834758 244.5902951214518 374.23629793440995 245.1220620059209 378.4534380853441 245.65382889039 382.45876177650314 247.66186385910527 386.46408546766224 249.66989882782056 388.95834149077797 252.08525406004873 391.4525975138937 254.5006092922769 393.75539613526394 257.2517692296847 396.05819475663424 260.00292916709253 398.75597471247227 263.8018678275054 401.4537546683103 267.6008064879183 404.2356261043684 271.7290408146982 407.0174975404266 275.85727514147806 409.39900002873674 278.19715889465544 411.78050251704684 280.53704264783283 414.61173561763167 283.05628509716996 417.44296871821643 285.57552754650715 422.66951019820635 289.6613302687444 427.8960516781962 293.74713299098164 431.70830467167065 295.69843526129443 435.5205576651451 297.64973753160723 439.0484984587332 299.20816394211465 442.57643925232134 300.766590352622 449.1345728138741 302.69609481173796 455.69270637542695 304.6255992708539 459.10413004423356 304.6755650472607 462.51555371304016 304.7255308236675 465.9907436370431 304.2915058219892 469.46593356104603 303.85748082031085 473.73413333001406 302.3415841587172 478.0023330989821 300.82568749712357 480.2057947982099 298.2656942942035 482.4092564974377 295.70570109128346 483.4397875366175 292.34128583882665 484.4703185757973 288.97687058636984 484.06728346835723 284.6304880268124 483.6642483609172 280.2841054672549 481.6376488155453 276.36630123131874 479.6110492701733 272.4484969953826 477.1528681482798 268.357578794592 474.6946870263864 264.2666605938014 471.72368719391784 260.2720760918562 468.75268736144926 256.277491589911 464.43721380099475 252.35909174100993 460.1217402405402 248.44069189210887 454.4994833388181 245.13237114870572 448.877226437096 241.82405040530253 443.7758006102365 240.07050707729718 438.674374783377 238.31696374929183 433.11051378438356 238.28016737537266 427.54665278539017 238.24337100145348 422.44628348738877 239.91641854699304 417.3459141893873 241.58946609253258 413.2040255441319 244.64341616746142 409.0621368988765 247.69736624239027 404.6610580815445 252.8658132372791 400.2599792642125 258.0342602321679 395.7652500786038 263.62957518338624 391.27052089299514 269.2248901346046 388.6932771170375 272.0571014601546 386.11603334107986 274.88931278570465 382.9598247652492 278.10831964859847 379.8036161894185 281.3273265114923 376.8408793224813 283.45890818144375 373.8781424555442 285.5904898513952 370.1117971220777 287.7036992676347 366.3454517886112 289.8169086838742 362.8425983766913 290.88999553234027 359.33974496477146 291.9630823808063 355.7307135728356 292.2952354183941 352.12168218089977 292.62738845598193 347.07681857275605 293.0265503354808 342.03195496461234 293.4257122149797 337.2810664846761 292.85264825664615 332.5301780047398 292.2795842983126 326.35045756012823 291.2641970104756 320.1707371155166 290.24880972263855 315.56013146064106 288.3900503823306 310.9495258057656 286.5312910420227 306.4415943502494 283.78684132248037 301.93366289473323 281.04239160293804 297.4355276795114 277.3168284919268 292.93739246428953 273.59126538091556 291.0499127048271 270.65366735659484 289.1624329453647 267.7160693322742 287.9504606014826 261.3161612695675 286.73848825760047 254.91625320686074 288.5313578710164 250.1935584069212 290.3242274844323 245.47086360698165 294.2977533858547 241.31851766192966 298.27127928727714 237.1661717168777 301.70321445165393 234.68659112023585 305.13514961603073 232.20701052359396 310.1013788306301 229.07884204365809 315.0676080452295 225.9506735637222 318.9357009461311 224.89351364671745 322.8037938470326 223.83635372971267 326.2788878313272 223.8748798416701 329.7539818156219 223.91340595362752 333.7849834928446 224.8311301073428 337.8159851700673 225.7488542610581 340.6367486470678 227.4880040754535 343.45751212406833 229.2271538898489 345.8211881708961 231.51345649340158 348.18486421772394 233.79975909695423 350.03913436754397 236.63486879668602 351.893404517364 239.4699784964178 353.2579944409258 242.4852884351862 354.6225843644876 245.50059837395455 355.40694184243284 249.6456456294079 356.19129932037816 253.79069288486127 355.5725477419226 258.2898948601296 354.9537961634671 262.78909683539797 350.89467537359707 268.1354397649979 346.83555458372706 273.4817826945978 341.28048024933014 277.23215952409464 335.7254059149333 280.98253635359146 332.37812518444775 282.45934209401264 329.0308444539622 283.9361478344338 325.01830198019866 285.5353552377702 321.0057595064351 287.1345626411065 315.99043274005487 289.11198788084016 310.97510597367466 291.08941312057374 305.05593362332445 293.032567918993 299.1367612729743 294.97572271741217 295.16846794240706 295.8043364329221 291.2001746118398 296.63295014843203 286.1772277184201 297.01242686093553 281.15428082500034 297.391903573439 281.15185546875 297.3822021484375 Z" fill="hsl(0, 0%, 0%)"></path><path d="M 364.93076304088146 339.27074270913664 Q 364.93076304088146 339.27074270913664 363.82977828945627 344.0685850466759 362.728793538031 348.8664273842151 361.635637786757 352.13730205931813 360.542482035483 355.4081767344211 358.5982267220204 362.35829944441605 356.6539714085579 369.30842215441106 356.0144774800185 373.4639940840035 355.3749835514792 377.6195660135959 355.674987729596 382.62358324582635 355.9749919077128 387.62760047805676 359.1822564064065 389.8566322562608 362.38952090510026 392.08566403446486 365.65479817917037 392.8402711589883 368.9200754532405 393.5948782835117 372.693820911854 394.6126580973403 376.46756637046747 395.6304379111689 379.9967585231972 396.28434069520574 383.52595067592694 396.93824347924254 387.4317164593174 397.49154496995857 391.3374822427079 398.0448464606746 394.92392721069405 399.4818124200067 398.51037217868014 400.91877837933873 400.2674271805071 405.9719164245107 402.0244821823341 411.02505446968274 400.8913829978791 414.28306623306054 399.7582838134241 417.54107799643833 397.78529828554315 420.344875289706 395.8123127576622 423.14867258297363 393.0839086538416 425.52982924296066 390.355504550021 427.9109859029477 386.3261053061264 429.88915637078424 382.2967060622318 431.8673268386207 376.47930330397367 433.70907255645943 370.6619005457156 435.5508182742981 366.4589558421927 436.0254527145027 362.2560111386698 436.50008715470733 358.17102848784185 435.4561198450665 354.0860458370139 434.41215253542566 351.2321409701596 429.27184208886024 348.3782361033053 424.1315316422949 349.5265083266586 420.7133264642805 350.6747805500119 417.2951212862661 354.6860599471297 413.50127704402973 358.6973393442475 409.70743280179335 361.83675895586276 407.95380448521945 364.97617856747803 406.20017616864556 371.3661601205713 403.0200513431495 377.75614167366456 399.83992651765345 382.6283298773163 397.4171459332731 387.500518080968 394.9943653488928 391.14880541329825 393.05904121941927 394.7970927456285 391.1237170899457 397.68990964399416 388.6848125112381 400.58272654235986 386.2459079325304 402.7640523549218 382.7894344325972 404.94537816748374 379.332960932664 409.0289007171259 376.0401823532635 413.1124232667681 372.747403773863 418.9759264663329 373.55024904738514 424.8394296658977 374.3530943209072 427.6584231413557 376.9947891247167 430.47741661681374 379.6364839285263 433.46957933245574 383.9706366200203 436.4617420480978 388.3047893115143 438.51111695861664 391.4473492053052 440.5604918691355 394.58990909909613 443.7002861241186 398.1544734113868 446.84008037910166 401.7190377236774 446.33629876395116 398.0719651939497 445.8325171488006 394.4248926642221 446.75633007134905 391.2565056335952 447.6801429938975 388.08811860296834 447.2085760048252 384.01592112065094 446.73700901575285 379.94372363833355 443.3667503285575 377.0373399191342 439.9964916413621 374.13095619993476 436.8528245430582 372.37150385270206 433.70915744475434 370.61205150546937 429.02867892524347 368.46943101428064 424.3482004057326 366.3268105230919 420.50480208409874 365.20746802583875 416.6614037624649 364.0881255285856 413.2535084843326 363.3280608961422 409.8456132062003 362.5679962636988 406.09406915917106 361.83488191548963 402.3425251121418 361.10176756728043 396.658967783557 359.93196282230247 390.9754104549722 358.76215807732456 386.64914773980206 357.57605446652735 382.322885024632 356.3899508557302 378.96384413870794 353.73002000517505 375.60480325278394 351.0700891546199 373.42563139265224 348.17180100980397 371.2464595325205 345.273512864988 369.90198627583914 341.1874728866073 368.55751301915785 337.10143290822657 368.2307987748243 333.7880191312043 367.90408453049076 330.474605354182 368.8386407142229 323.85190379965525 369.773196897955 317.2292022451285 369.7781155173608 317.2301006788438 369.7830341367666 317.2309991125592 369.78795275617244 317.2318975462745 369.7928713755782 317.2327959799899 370.9790563784625 323.4040547033538 372.16524138134673 329.5753134267177 374.6888370909062 334.9184501998103 377.21243280046565 340.26158697290293 381.1477010172025 343.49944152683713 385.08296923393937 346.7372960807714 389.03749270459787 347.66505713389427 392.9920161752563 348.5928181870172 398.48638950350795 349.6258686087533 403.9807628317596 350.65891903048947 408.04846360477757 351.1522416150318 412.11616437779554 351.6455641995742 415.77292610099227 352.3545429245241 419.429687824189 353.06352164947396 423.708868246491 353.98406115583003 427.98804866879306 354.9046006621861 433.91937652288135 356.1450119304088 439.85070437696965 357.38542319863154 444.6756649390875 359.3359737733595 449.50062550120526 361.2865243480875 453.3116405132929 363.9617417630236 457.1226555253806 366.63695917795974 460.1405072158433 370.40758207861563 463.15835890630603 374.1782049792716 464.1192979491782 377.3960764769206 465.0802369920503 380.61394797456956 465.00958258403097 386.1940104675765 464.93892817601164 391.7740729605835 464.2086832022417 394.9943438366712 463.47843822847165 398.2146147127588 459.8606507531971 404.35877287020764 456.2428632779225 410.5029310276564 453.5502268263453 412.91416160010164 450.8575903747681 415.32539217254686 447.60394492056207 416.3853058303614 444.35029946635603 417.445219488176 439.9805874411312 416.51394496171656 435.6108754159064 415.5826704352571 433.11839277730684 413.04655800700345 430.6259101387073 410.51044557874985 427.32181928149305 405.97922464260637 424.01772842427874 401.44800370646294 421.77348211398123 398.10294782927 419.52923580368366 394.7578919520771 419.47730285448154 391.47440270818277 419.4253699052794 388.19091346428837 416.6331218282545 391.7898790175957 413.84087375122954 395.3888445709031 411.0359513225741 397.9628777902256 408.2310288939186 400.53691100954813 404.9784774080887 402.6946757063471 401.7259259222588 404.852440403146 397.9461831787729 406.62392330763566 394.16644043528703 408.39540621212535 389.2484494237805 410.82776804264347 384.330458412274 413.26012987316153 381.432184358033 414.83840600225517 378.53391030379197 416.41668213134886 373.32000686940984 419.80556116405944 368.1061034350277 423.19444019677 364.585119118723 422.28541999482525 361.06413480241827 421.37639979288053 364.59741235288584 421.5985214681285 368.13068990335347 421.8206431433765 372.1957006265899 420.7878681973167 376.26071134982624 419.7550932512568 380.5477860478051 417.200312474056 384.834860745784 414.6455316968552 387.23882094363717 412.09477423474027 389.64278114149033 409.5440167726253 385.5342187488635 408.309661057271 381.42565635623663 407.0753053419167 377.5375834245659 406.19414276336 373.6495104928953 405.3129801848032 369.8877017317799 404.1355321004337 366.12589297066444 402.9580840160641 361.5773299362502 401.3808715197124 357.0287669018359 399.8036590233607 352.67475634435334 394.0531710565873 348.3207457868708 388.3026830898139 349.09320656611345 382.37999015440334 349.8656673453561 376.45729721899284 351.0004563592072 372.2142674382777 352.13524537305835 367.97123765756254 354.36577345345563 360.82670698668664 356.59630153385297 353.6821763158108 358.2426712342391 350.7063234098896 359.8890409346252 347.73047050396843 362.4006172183563 343.49689270600965 364.9121935020873 339.26331490805086 364.9214782714844 339.26702880859375 Z" fill="hsl(0, 0%, 0%)"></path><path d="M 452.8801953745164 343.445522627362 Q 452.8801953745164 343.445522627362 458.0399144843377 343.0350040831305 463.199633594159 342.624485538899 466.9561357567933 342.7541580298282 470.71263791942755 342.88383052075733 474.72468264528203 343.0849927917686 478.7367273711365 343.28615506278 484.38008665165256 344.0127790254486 490.0234459321686 344.73940298811715 494.09491701505124 345.48512678322146 498.1663880979339 346.23085057832577 505.10532979497356 348.56731721659946 512.0442714920132 350.90378385487315 515.640684658181 352.7508752145162 519.2370978243488 354.5979665741592 523.5544001364759 358.09358345718806 527.8717024486031 361.5892003402169 531.3164262453128 364.90811110900154 534.7611500420225 368.22702187778617 537.3575321236858 371.5950065614529 539.9539142053493 374.9629912451197 542.4553089051593 379.20165617724547 544.9567036049693 383.44032110937115 546.7979684161368 387.1393237169324 548.6392332273042 390.83832632449355 550.061920097668 396.64761305831064 551.4846069680319 402.45689979212773 552.0696772089625 408.08463617053735 552.6547474498931 413.7123725489469 552.2481653038917 419.29119900980277 551.8415831578905 424.87002547065856 550.1133668086857 431.18849620885646 548.3851504594809 437.5069669470544 546.9006181092685 442.6194614218563 545.4160857590562 447.73195589665806 542.7676826723548 453.26450187421466 540.1192795856533 458.79704785177125 537.9494145398282 463.312083065466 535.7795494940033 467.82711827916086 533.755145052357 471.6729743476269 531.7307406107105 475.5188304160929 529.0154858220845 479.38164839310593 526.3002310334585 483.2444663701189 523.7147917975426 486.73173087239195 521.1293525616268 490.218995374665 517.4554134150544 494.32657794166124 513.7814742684822 498.4341605086575 510.08320655999734 502.31018481214767 506.3849388515125 506.1862091156378 502.32538252404197 509.93894793424823 498.2658261965714 513.6916867528587 491.43748148465716 518.4071823822225 484.60913677274283 523.1226780115862 476.7895986197517 527.1603658625438 468.9700604667605 531.1980537135013 461.7241855532477 534.629705676155 454.47831063973496 538.0613576388088 442.88907538618685 541.29506417587 431.2998401326387 544.5287707129313 421.56195316546246 546.4559590436755 411.8240661982863 548.3831473744198 404.3692869103454 549.4727128406332 396.9145076224045 550.5622783068466 390.7325123773117 551.0874701320321 384.5505171322189 551.6126619572176 377.69179179296043 551.460528612512 370.8330664537019 551.3083952678064 365.49485373085133 551.1932932950665 360.1566410080007 551.0781913223267 354.5170426431573 550.127208143603 348.877444278314 549.1762249648793 344.3170789124157 548.3874436120916 339.75671354651735 547.5986622593038 335.5301289995083 546.144380579523 331.3035444524992 544.6900988997423 326.45430573620587 541.8107711648174 321.60506701991255 538.9314434298926 317.3635721337087 535.9441655283349 313.1220772475049 532.9568876267773 309.1430055071179 529.1869172838745 305.16393376673096 525.4169469409718 300.93777377501453 519.315605377215 296.71161378329816 513.214263813458 293.4955041615148 507.2530532315458 290.27939453973147 501.2918426496335 286.8698663274782 493.91336976604214 283.4603381152249 486.53489688245077 280.85213364903507 480.0674167146532 278.2439291828452 473.5999365468556 275.8897803111603 467.86556849701 273.5356314394753 462.13120044716436 271.4043284798359 455.7367622907087 269.2730255201965 449.34232413425315 267.3693410357292 443.64798068472624 265.4656565512619 437.95363723519927 263.861852686293 431.57504174515464 262.25804882132405 425.19644625510995 260.76367694432736 420.1373594105038 259.26930506733066 415.0782725658976 258.2642373078751 410.1931301997043 257.25916954841955 405.307987833511 256.33493562279733 399.91711792632157 255.4107016971751 394.52624801913214 254.6662010063533 390.434146547085 253.9217003155315 386.3420450750379 253.39549800973722 382.4731716275089 252.86929570394295 378.60429817998 252.43882872796195 374.05761012463154 252.0083617519809 369.5109220692831 251.97020701024192 367.40875655867325 251.93205226850293 365.3065910480634 251.93701625715548 365.30599203499395 251.94198024580803 365.3053930219245 251.94694423446057 365.304794008855 251.95190822311312 365.30419499578556 252.41051130006937 367.31863444886665 252.86911437702562 369.3330739019477 253.7721730962973 373.82704606540057 254.67523181556896 378.3210182288534 255.3567606790516 382.14738517542037 256.03828954253424 385.9737521219874 256.718818647989 390.07122313340597 257.39934775344375 394.1686941448245 258.41143451115613 399.54726293953956 259.4235212688685 404.92583173425464 260.14110032779433 409.79694851500574 260.8586793867202 414.66806529575683 262.0009035391871 419.81462561962735 263.143127691654 424.9611859434978 264.9096979860848 431.2623530925159 266.6762682805156 437.5635202415341 268.45280412974614 443.2868932985565 270.22933997897667 449.01026635557895 272.5073071749131 455.3141374884308 274.7852743708495 461.61800862128257 277.1391163983135 467.3449962550325 279.49295842577754 473.0719838887825 282.2956171965559 479.40549342687154 285.0982759673342 485.7390029649606 288.7534282575059 492.89686794919527 292.4085805476776 500.05473293342993 295.8983730760165 505.6296206434613 299.38816560435544 511.2045083534926 303.85714589693407 516.6632895659313 308.32612618951276 522.1220707783701 312.0559926410334 525.7186796038366 315.785859092554 529.315288429303 319.7661668023137 532.3276131665552 323.7464745120734 535.3399379038074 328.325819454481 538.0771786480673 332.9051643968886 540.8144193923273 336.69657655601407 542.6587587435331 340.48798871513947 544.5030980947389 344.8766224492681 545.8090155832429 349.2652561833968 547.1149330717467 354.76529207505075 548.2592718449594 360.2653279667048 549.4036106181721 365.5544227545465 549.9686061380398 370.8435175423882 550.5336016579076 377.65665553538827 550.5650071055509 384.4697935283884 550.5964125531941 390.6232200485363 550.136769758355 396.77664656868427 549.6771269635158 404.1794417726013 548.4494345002593 411.58223697651835 547.2217420370026 421.219752191471 545.1132493710161 430.8572674064237 543.0047567050295 442.19012283704365 539.5761244538272 453.52297826766363 536.1474922026249 460.5440562306171 532.4031965109085 467.56513419357066 528.6589008191921 474.8978778116077 524.3121495661169 482.2306214296447 519.9653983130415 488.38765478191453 514.8696361470708 494.5446881341843 509.77387398110005 498.37187162512936 506.0248969623426 502.1990551160744 502.2759199435851 505.72429745827344 498.41772366179316 509.24953980047246 494.55952738000127 512.6552193881607 490.3857780781353 516.0608989758491 486.2120287762693 518.7998200688232 482.9640632349648 521.5387411617972 479.7160976936603 524.2679400192726 476.23145918027024 526.997138876748 472.74682066688024 529.2830699902665 469.2213780309054 531.5690011037852 465.6959353949305 533.8743396620248 461.3669232635024 536.1796782202645 457.0379111320742 538.394403558568 451.67776815879 540.6091288968717 446.3176251855058 542.0671080521859 441.38385992763085 543.5250872075001 436.45009466975586 544.470355535821 430.46387331808467 545.4156238641419 424.47765196641353 545.6328314924658 419.52123957151116 545.8500391207896 414.56482717660884 545.0694688031471 409.5707135560608 544.2888984855045 404.5765999355127 542.4983134533436 399.5602044567088 540.7077284211825 394.54380897790486 539.2384252677693 391.1876372587798 537.7691221143562 387.83146553965463 535.3143263368441 383.96986390347433 532.8595305593321 380.108262267294 530.8777409985832 377.16701162020377 528.8959514378345 374.2257609731136 525.8185784702285 371.1995970407377 522.7412055026226 368.17343310836173 518.7958507911763 365.23960607138036 514.8504960797301 362.305779034399 511.75557872627655 360.358291869018 508.660661372823 358.4108047036369 502.6439151102353 355.4779287975966 496.62716884764757 352.5450528915562 492.92652124033987 351.4001934353583 489.2258736330322 350.25533397916035 483.6653891175812 349.36690796633843 478.10490460213015 348.47848195351645 474.17194175199586 347.7129078391823 470.23897890186157 346.94733372484814 466.63487040775755 346.21902296992766 463.0307619136535 345.49071221500725 457.95489142386543 344.4781001649164 452.87902093407735 343.4654881148255 452.8796081542969 343.45550537109375 Z" fill="hsl(0, 0%, 0%)"></path><path d="M 354.4554318227886 476.4312444066804 Q 354.4554318227886 476.4312444066804 357.7841204697629 477.7067836714997 361.11280911673714 478.98232293631895 367.1107886015749 481.1488775699248 373.1087680864127 483.3154322035307 376.75912516178556 484.31372075870627 380.40948223715844 485.3120093138819 385.9036925476322 486.0653269214262 391.397902858106 486.81864452897054 396.73812386653753 487.1468846282365 402.07834487496905 487.4751247275024 406.6534159403522 487.2082067347261 411.22848700573536 486.94128874194985 416.07925716666443 486.2668417507117 420.93002732759345 485.5923947594735 424.694863384158 484.62142008748503 428.4596994407225 483.65044541549656 431.69656780893774 482.38761766558645 434.93343617715306 481.12478991567633 438.10566173047283 479.7157097725084 441.2778872837926 478.3066296293405 446.8738194712269 474.15384211476385 452.4697516586612 470.0010546001873 456.21941674923755 465.5607503676716 459.9690818398139 461.1204461351559 461.2095077650925 456.7766501647094 462.4499336903711 452.432854194263 462.5000346085067 447.66429553114415 462.55013552664235 442.8957368680253 462.5549816421167 442.8945059477154 462.559827757591 442.8932750274054 462.5646738730653 442.89204410709544 462.56951998853964 442.8908131867855 463.44600816594004 444.4148768294301 464.32249634334045 445.93894047207465 464.92435627928546 449.3709830098509 465.5262162152305 452.80302554762716 464.9074547560299 458.2308309526752 464.2886932968293 463.6586363577233 462.7493785202146 466.5267877275415 461.2100637435998 469.39493909735967 459.03934586962157 472.0178046036785 456.8686279956434 474.6406701099973 453.70710986842255 477.90736518191534 450.54559174120163 481.1740602538334 447.42084107614573 483.15352553331866 444.2960904110899 485.132990812804 440.89709002432096 486.61735594345805 437.498089637552 488.10172107411205 433.7733935235733 489.39692804477573 430.04869740959464 490.6921350154394 425.9335253554822 491.48999376226425 421.81835330136977 492.2878525090891 416.62807151989716 492.94198529924984 411.4377897384245 493.59611808941054 406.5538035421593 493.6218889664699 401.6698173458941 493.6476598435293 396.08695784897657 493.2478890345043 390.50409835205903 492.84811822547925 384.4638900763025 491.888468989986 378.42368180054603 490.92881975449274 374.7678988660389 489.3132886927784 371.1121159315317 487.69775763106406 365.47087533122544 484.4100977184663 359.8296347309191 481.12243780586857 357.1373883192996 478.7854160355316 354.4451419076801 476.4483942651946 354.4502868652344 476.4398193359375 Z" fill="hsl(0, 0%, 0%)"></path><path d="M 449.748159052583 274.3466548488377 Q 449.748159052583 274.3466548488377 450.531378018199 277.10053347191956 451.3145969838151 279.8544120950014 455.26395960683413 280.47122839063456 459.2133222298532 281.0880446862677 461.9527830458825 278.47731284442557 464.6922438619117 275.8665810025835 461.76804132637517 272.5265913741363 458.84383879083856 269.18660174568913 455.6500392810033 267.5965537078689 452.45623977116804 266.0065056700486 449.0858184916634 265.39068597232256 445.7153972121588 264.77486627459655 445.71475651765184 264.769907493441 445.7141158231449 264.76494871228545 445.7134751286379 264.7599899311299 445.71283443413097 264.75503114997434 447.7909930788994 263.8810807893258 449.86915172366787 263.00713042867727 453.7230653628577 262.7166081833245 457.5769790020475 262.4260859379718 461.90522091756986 263.66774323309266 466.2334628330922 264.90940052821355 469.9817739538187 268.24576393852783 473.7300850745451 271.5821273488421 473.90765747735645 275.8019187357611 474.08522988016773 280.02171012268 471.60197920458836 282.66063448926764 469.11872852900893 285.29955885585525 464.5797552068155 287.1685571988076 460.04078188462205 289.03755554175996 455.8110773359067 288.2492112456275 451.58137278719136 287.460866949495 449.2695146106725 283.56763706469803 446.95765643415365 279.674407179901 448.34296890562905 277.009426702641 449.7282813771045 274.34444622538103 449.73822021484375 274.3455505371094 Z" fill="hsl(0, 0%, 0%)"></path><path d="M 282.2077161821362 289.0003925941257 Q 282.2077161821362 289.0003925941257 284.4785183369647 291.2840005634935 286.7493204917933 293.56760853286136 290.4002404517099 297.4302709159467 294.0511604116266 301.29293329903214 297.5479411063619 302.23867136443016 301.0447218010972 303.1844094298281 303.9668935371219 300.65999112423793 306.8890652731467 298.13557281864774 307.5782670236983 294.54613824505657 308.2674687742499 290.95670367146533 306.83417474455985 287.0242863614078 305.4008807148698 283.09186905135033 305.4053928240354 283.0897147832895 305.40990493320095 283.08756051522863 305.4144170423665 283.0854062471678 305.4189291515321 283.08325197910693 308.7968650377309 286.3513644486477 312.17480092392975 289.6194769181885 313.1951638591503 293.46148523009686 314.2155267943709 297.30349354200524 312.88508271819023 301.8003159243395 311.5546386420096 306.29713830667373 307.9634757632091 309.075411102397 304.37231288440864 311.8536838981203 300.31833868562353 311.5669337431783 296.26436448683836 311.28018358823635 293.5627450903013 309.39840844672483 290.8611256937642 307.51663330521336 288.85085524567853 304.341062375932 286.8405847975929 301.1654914466506 285.25507429157165 298.2230320330665 283.66956378555045 295.28057261948237 282.92989841108215 292.14533903611584 282.1902330366138 289.0101054527493 282.198974609375 289.0052490234375 Z" fill="hsl(0, 0%, 0%)"></path></svg>