<svg xmlns="http://www.w3.org/2000/svg" version="1.1" xmlns:xlink="http://www.w3.org/1999/xlink" viewBox="0 0 800 800" style="overflow: hidden; display: block;" width="800" height="800"><defs></defs><g id="two-0" transform="matrix(1 0 0 1 0 0)" opacity="1"></g><path d="M 471.72598604327453 523.5700844109936 Q 471.72598604327453 523.5700844109936 448.04029023460276 520.4921266001404 424.354594425931 517.4141687892874 406.29504204828925 514.2243778838427 388.23548967064755 511.0345869783982 363.47489391334113 508.6182708895982 338.71429815603466 506.2019548007982 307.7508923476904 506.6034509608835 276.7874865393462 507.00494712096884 257.8989375869013 508.323051440929 239.01038863445632 509.64115576088926 226.19539408842763 512.5639022712834 213.38039954239895 515.4866487816774 201.6107254611032 520.0068782508372 189.8410513798074 524.527107719997 180.61133251374167 528.8375418134787 171.38161364767598 533.1479759069603 166.53822003882328 536.1872953101997 161.6948264299706 539.2266147134392 155.7760314973205 543.1579850851367 149.85723656467042 547.0893554568341 145.846338688164 549.3131114710227 141.8354408116576 551.5368674852111 141.21930802329064 551.6466598741675 140.60317523492367 551.756452263124 139.97867142134947 551.7155992533827 139.3541676077753 551.6747462436415 138.75758895998104 551.4856222140484 138.1610103121868 551.2964981844551 137.62703000921235 550.9700950324959 137.0930497062379 550.6436918805366 136.65270270838113 550.1989801727391 136.21235571052438 549.7542684649417 135.89123500599032 549.2170948666578 135.57011430145627 548.6799212683741 135.38688344068026 548.0815063343753 135.20365257990423 547.4830914003763 135.1689609491236 546.8582150347428 135.13426931834297 546.2333386691092 135.2501331967687 545.6183187155714 135.36599707519443 545.0032987620335 135.62568244876854 544.4338802091875 135.88536782234266 543.8644616563414 136.2737817649518 543.3737391372326 136.66219570756093 542.883016618124 137.15676358261106 542.4995109486196 137.6513314576612 542.1160052791151 138.22330895701728 541.8620058267456 138.79528645637336 541.6080063743763 143.12824697025434 538.4846845362117 147.46120748413531 535.3613626980471 174.00663340203693 521.216528110476 200.5520593199385 507.071693522905 221.011468809388 496.74807380113276 241.47087829883748 486.42445407936054 259.6039219517519 477.97178472885264 277.73696560466635 469.5191153783447 300.6478669608417 462.395700344277 323.5587683170171 455.27228531020927 342.07066900353755 452.040538974834 360.58256969005805 448.80879263945883 377.8292603701173 448.7109536471762 395.07595105017657 448.61311465489365 406.6243133922252 450.1339165839636 418.17267573427375 451.6547185130335 427.34080586530047 453.99849740419074 436.5089359963272 456.3422762953479 445.53528602218205 460.4548193613939 454.561636048037 464.5673624274399 461.3551865719236 468.3660737957912 468.14873709581025 472.16478516414253 473.0879963151342 474.9917419940196 478.02725553445816 477.8186988238967 482.74022808092184 480.9873458185323 487.45320062738546 484.1559928131678 493.11801913896727 487.8071773608817 498.78283765054914 491.4583619085956 503.2605139666216 494.9714095436449 507.738190282694 498.4844571786942 523.6857725743989 491.7186843048388 539.6333548661038 484.95291143098336 558.3975135947871 478.27311782952586 577.1616723234705 471.5933242280683 591.2697754431804 467.7866501294185 605.3778785628903 463.9799760307687 615.722339416788 462.525189278055 626.0668002706858 461.07040252534136 635.4233883736454 461.54324524948794 644.7799764766048 462.0160879736345 651.1964100094256 462.3656318244989 657.6128435422463 462.71517567536324 663.2457063671914 463.5493151077343 668.8785691921365 464.38345454010533 675.8666211160751 465.89663863793874 682.8546730400136 467.4098227357722 687.9215164370298 468.64042129084055 692.9883598340459 469.8710198459089 698.3155027906547 471.7545471426158 703.6426457472635 473.6380744393227 708.8046391757181 474.84449454441085 713.9666326041727 476.0509146494991 715.7998981892575 475.71789381200676 717.6331637743424 475.3848729745145 718.8820826548547 475.5679174972686 720.1310015353669 475.7509620200227 721.2998200151957 476.227582444072 722.4686384950245 476.7042028681213 723.4894247892055 477.4466979920261 724.5102110833866 478.18919311593095 725.3236370445405 479.15440908820403 726.1370630056945 480.11962506047706 726.6958522787405 481.2514634834593 727.2546415517866 482.38330190644155 727.5263172779206 483.6159802778101 727.7979930040547 484.8486586491787 727.7667653773092 486.11053364407246 727.7355377505636 487.3724086389662 727.4032217220722 488.59014002339296 727.0709056935808 489.80787140781973 726.4568154865333 490.9106845765018 725.8427252794858 492.0134977451839 724.9825518455687 492.937297144942 724.1223784116515 493.8610965447001 723.066115071259 494.55219091101577 722.0098517308666 495.24328527733144 720.8188885589707 495.6615081731635 719.6279253870749 496.07973106899556 718.3714812191836 496.20077535998803 717.1150370512921 496.32181965098056 711.9024947672756 494.27379223651997 706.6899524832589 492.2257648220593 696.2206639331872 484.35983264805657 685.7513753831155 476.4939004740539 678.0320301385218 471.086770787038 670.312684893928 465.67964110002214 664.3386917935975 462.92149243819466 658.364698693267 460.1633437763672 651.3283399721106 457.6816040527963 644.2919812509541 455.19986432922536 637.0437874195594 453.82227876712113 629.7955935881647 452.44469320501685 622.2009191648506 452.337744681078 614.6062447415363 452.2307961571391 606.1773899819074 453.60773709300486 597.7485352222784 454.9846780288706 586.8790871067381 458.64160100067744 576.0096389911978 462.2985239724843 568.0424772555601 466.4735112287743 560.0753155199225 470.6484984850643 553.6648141701527 474.8311041977307 547.2543128203829 479.0137099103971 540.3496115082089 483.6403384369912 533.444910196035 488.26696696358533 528.7054296980942 491.7176613834494 523.9659492001534 495.1683558033135 523.9620173403257 495.16526703684536 523.9580854804979 495.16217827037724 523.95415362067 495.1590895039091 523.9502217608423 495.156000737441 527.7711272118012 490.43231792312747 531.5920326627601 485.70863510881395 538.2827136004469 480.68344096179175 544.9733945381338 475.65824681476954 551.3679709890242 471.13646876109647 557.7625474399147 466.61469070742345 565.7580745091393 461.64229980026766 573.7536015783639 456.66990889311194 584.8598246167276 451.55384583408596 595.9660476550912 446.43778277506 605.243997408554 444.1726908626425 614.5219471620169 441.9075989502251 623.0899113448747 441.7313462721228 631.6578755277327 441.5550935940204 639.7722873838845 442.8478206379284 647.8866992400364 444.1405476818365 655.7472889886583 446.52520584097834 663.6078787372803 448.9098640001202 670.018479462899 451.9352596010406 676.4290801885177 454.96065520196106 685.0996577156886 458.91179315063886 693.7702352428597 462.86293109931665 705.701176083641 469.12388913608993 717.6321169244223 475.3848471728632 718.8810541031422 475.5677668028142 720.1299912818621 475.75068643276524 721.2988574178892 476.2271899725837 722.4677235539162 476.7036935124021 723.4885840925056 477.4460865539652 724.5094446310949 478.1884795955283 725.3229671097788 479.15361422037927 726.1364895884627 480.11874884523024 726.6953920425569 481.25053138362614 727.2542944966511 482.382313922022 727.5260934892638 483.6149651196546 727.7978924818763 484.84761631728713 727.7667910427862 486.1094944286342 727.7356896036961 487.3713725399812 727.4034953500045 488.5891371499222 727.0713010963129 489.8069017598631 726.4573211736526 490.9097763320517 725.8433412509922 492.01265090424033 724.9832602013157 492.9365363167227 724.1231791516393 493.86042172920503 723.0669849259647 494.55162171839913 722.01079070029 495.2428217075932 720.8198693566385 495.6611636976511 719.628948012987 496.079505687709 718.3725159558069 496.2006756225129 717.1160838986268 496.32184555731675 713.5259043791389 495.7289353629139 709.9357248596509 495.136025168511 704.2000016694302 492.28442912270793 698.4642784792095 489.4328330769048 693.3766740555897 486.15586801177216 688.2890696319698 482.8789029466395 683.6405667559154 480.4818946910727 678.9920638798611 478.08488643550584 673.0267548277827 475.18150401289324 667.0614457757043 472.2781215902806 661.9434966901081 470.64140361579416 656.8255476045117 469.00468564130773 650.6961685307275 467.790519164456 644.5667894569433 466.5763526876042 635.7373433017149 466.2032581976393 626.9078971464863 465.8301637076744 617.1288213669178 468.05169885925716 607.3497455873493 470.27323401084 593.942019174271 475.1167290987701 580.5342927611927 479.96022418670026 562.8892177948504 487.9670074396955 545.2441428285082 495.9737906926907 534.2335453096109 502.8760542300889 523.2229477907138 509.77831776748707 518.040480874258 512.5711152695739 512.8580139578023 515.3639127716607 505.7505404360402 512.815718894381 498.643066914278 510.26752501710126 495.3725929968816 504.99915598833127 492.1021190794853 499.73078695956127 487.5093481994908 494.7726899331194 482.9165773194962 489.8145929066776 478.91910094032096 486.0002862269622 474.9216245611457 482.18597954724686 470.6992346539663 478.49929135751154 466.4768447467869 474.8126031677762 460.2137174086805 470.3685439706792 453.95059007057404 465.9244847735822 445.00560183372 461.9758396726496 436.060613596866 458.027194571717 427.0270234561466 455.5703779137334 417.9934333154272 453.11356125574986 406.54788697579374 451.8389878577973 395.10234063616025 450.5644144598447 378.0794264878821 450.9727160555193 361.0565123396039 451.38101765119393 342.85149867532584 455.00695275439455 324.64648501104773 458.6328878575951 302.24871546541317 466.22850325344837 279.8509459197786 473.8241186493016 262.2099648347487 483.0041335623256 244.56898374971877 492.1841484753496 224.77170862484144 503.51552918063777 204.9744334999641 514.8469098859259 179.29900790977592 530.4046171608544 153.6235823195877 545.9623244357829 147.729759779549 548.7495199318163 141.83593723951032 551.5367154278497 141.21981543346288 551.6465694295359 140.60369362741545 551.7564234312221 139.97918573166282 551.7156328720664 139.3546778359102 551.6748423129106 138.7580802786959 551.4857779421277 138.1614827214816 551.2967135713449 137.62746978086193 550.9703638190479 137.09345684024225 550.6440140667509 136.6530653734165 550.1993463958767 136.21267390659077 549.7546787250025 135.89149948630256 549.2175372414749 135.5703250660144 548.6803957579474 135.38703436466125 548.0819991500266 135.20374366330807 547.4836025421059 135.16898954506445 546.8587296487599 135.13423542682082 546.2338567554137 135.25003780267195 545.6188252185632 135.36584017852311 545.0037936817125 135.6254686089436 544.4343491631762 135.88509703936413 543.86490464464 136.27346190777934 543.3741432865907 136.66182677619457 542.8833819285413 137.156356298205 542.499826804167 137.65088582021542 542.1162716797928 138.22283791676642 541.8622150309435 138.7947900133174 541.6081583820942 142.63211053241207 541.1409304702984 146.46943105150672 540.6737025585027 153.36509877240948 538.4541877565493 160.26076649331225 536.2346729545961 165.66542064351165 534.3619726587768 171.07007479371106 532.4892723629575 180.28664707026792 528.0753942509331 189.50321934682475 523.6615161389086 201.30289417561744 518.9874769995247 213.10256900441016 514.3134378601409 225.99432208057956 511.18620779620437 238.88607515674897 508.0589777322678 257.8169209211143 506.4754091584675 276.74776668547963 504.8918405846672 307.8540092486054 504.13263352046306 338.9602518117312 503.373426456259 363.91082335798694 505.30949696747655 388.8613949042426 507.2455674786941 407.0178068248491 510.04661441428345 425.1742187454557 512.8476613498727 448.45186903663745 518.1990301686583 471.7295193278192 523.5503989874439 471.7277526855469 523.5602416992188 Z" fill="hsl(0, 0%, 0%)"></path><path d="M 502.08667623354825 501.5642013139133 Q 502.08667623354825 501.5642013139133 506.98488932007695 494.7959481643869 511.88310240660564 488.0276950148605 516.8683428177951 481.7235216355392 521.8535832289846 475.419348256218 528.941240946175 467.7322239558505 536.0288986633653 460.045099655483 543.033762922626 453.4540231652671 550.0386271818866 446.86294667505115 556.9145817885925 441.23616410479417 563.7905363952984 435.6093815345372 573.6547161889239 430.7126230352053 583.5188959825493 425.81586453587346 592.8540974356084 422.56587837768495 602.1892988886675 419.3158922194965 611.6461078341947 417.8835022754607 621.1029167797219 416.4511123314249 630.6064691493222 416.7703363520294 640.1100215189224 417.0895603726339 647.3109315450929 418.4097472976233 654.5118415712633 419.72993422261277 659.5605856009422 421.35427638652413 664.6093296306211 422.97861855043544 671.4297143523377 427.1494305803408 678.2500990740541 431.32024261024617 681.7767789269119 435.6056596441764 685.3034587797698 439.8910766781067 687.4881076989216 445.6468107505161 689.6727566180733 451.4025448229256 689.8083869536314 454.5858510215698 689.9440172891894 457.76915722021397 689.9392765125224 457.77074625658645 689.9345357358553 457.77233529295887 689.9297949591883 457.7739243293313 689.9250541825212 457.7755133657038 686.3534107133921 451.9009175704068 682.7817672442632 446.02632177510986 678.6244476188626 441.2147881013255 674.4671279934621 436.4032544275411 668.543927139186 432.17919197839717 662.6207262849101 427.95512952925316 658.1100802905368 425.78392538608796 653.5994342961634 423.6127212429228 646.8078055249314 421.66901467136745 640.0161767536993 419.725308099812 630.7630970207256 419.4482357268919 621.5100172877519 419.17116335397174 612.3340050636199 420.58579487829707 603.1579928394879 422.00042640262245 594.15169296504 425.44931428763675 585.145393090592 428.898202172651 575.9369219837873 434.0967378374727 566.7284508769826 439.2952735022943 559.8947730801029 444.6718675527708 553.0610952832233 450.04846160324723 546.2249787720987 456.5974676259703 539.388862260974 463.14647364869336 532.3265668040501 470.7935526445104 525.2642713471263 478.4406316403274 519.6225539221646 484.13319637059476 513.9808364972029 489.82576110086217 508.04134893065543 495.70148912199005 502.101861364108 501.57721714311793 502.0942687988281 501.5707092285156 Z" fill="hsl(0, 0%, 0%)"></path><path d="M 509.4143129808849 498.4272817375014 Q 509.4143129808849 498.4272817375014 509.1406724822531 490.8283640521901 508.86703198362125 483.22944636687885 511.55519786625314 474.6177293334301 514.243363748885 466.0060122999813 516.0075442404013 460.44506016312556 517.7717247319176 454.8841080262698 519.8934057348101 449.5738869974399 522.0150867377025 444.2636659686099 524.358669616454 439.6026030247786 526.7022524952055 434.9415400809473 530.3116725672754 430.1302645747571 533.9210926393454 425.3189890685669 537.8765808524499 421.6371602830605 541.8320690655545 417.9553314975541 548.4553684979417 414.76990088696886 555.078667930329 411.5844702763836 561.7894487785763 409.75642050676595 568.5002296268239 407.9283707371483 575.1709478110313 407.07562069573476 581.8416659952387 406.2228706543212 589.5089196323636 406.71317251636975 597.1761732694886 407.2034743784183 602.652897665724 407.63951575364024 608.1296220619595 408.0755571288622 615.1496064754293 409.66371235943586 622.1695908888992 411.2518675900095 627.4737983522798 414.8857710062373 632.7780058156605 418.519674422465 632.7743280960829 418.52306180769665 632.770650376505 418.5264491929283 632.7669726569272 418.5298365781599 632.7632949373495 418.53322396339155 627.0276488128993 417.68309112402017 621.2920026884492 416.83295828464884 614.762928581194 417.03759181711445 608.2338544739389 417.24222534958005 602.8212025596698 417.80467341805434 597.4085506454007 418.3671214865287 590.7873497686087 419.15485086211214 584.1661488918168 419.9425802376956 578.4673331324332 421.2063502419157 572.7685173730496 422.47012024613576 567.3747996959357 424.2054270406928 561.9810820188218 425.94073383524983 553.8988860069292 430.6021549224719 545.8166899950367 435.263576009694 539.7080246315658 442.6170069324802 533.5993592680949 449.9704378552664 530.8417766372711 454.5724910181856 528.0841940064474 459.1745441811048 525.4512071934479 464.18637472428367 522.8182203804483 469.1982052674625 519.410182058521 476.9634390511219 516.0021437365936 484.72867283478126 512.7180181610574 491.58001683770243 509.43389258552133 498.4313608406236 509.4241027832031 498.4293212890625 Z" fill="hsl(0, 0%, 0%)"></path><path d="M 512.5613870747778 499.4855901618201 Q 512.5613870747778 499.4855901618201 506.1839563340126 497.5694418748835 499.80652559324733 495.65329358794696 491.78210824135317 493.41543639349436 483.757690889459 491.1775791990418 476.62483120819604 489.23524991307255 469.49197152693307 487.2929206271033 457.6823600635772 484.3352071676777 445.8727486002214 481.3774937082522 428.9074125973545 478.66195426138256 411.94207659448756 475.946414814513 398.42956709070234 474.63866385317914 384.91705758691717 473.3309128918453 372.02288344903945 474.16348659306254 359.1287093111618 474.9960602942798 344.9294331419148 479.6976815401188 330.73015697266777 484.39930278595784 320.70045488095184 489.3104631699504 310.67075278923585 494.221623553943 304.57035401196265 497.49528514603685 298.4699552346895 500.76894673813075 298.4675142038263 500.764583096495 298.46507317296306 500.76021945485934 298.46263214209984 500.75585581322366 298.4601911112366 500.7514921715879 304.4500326470163 497.26184636770563 310.4398741827961 493.7722005638234 320.35765274495463 488.43645889478387 330.27543130711325 483.10071722574435 344.59438462044324 477.8589280084517 358.9133379337732 472.61713879115905 372.03681147836073 471.30381160945626 385.1602850229482 469.9904844277535 398.86515432912245 470.71704921697085 412.57002363529665 471.4436140061882 429.8950350190301 473.5146998547333 447.22004640276356 475.5857857032783 459.425898602962 478.2239575896813 471.63175080316034 480.8621294760843 478.5051050987574 483.5864043385029 485.3784593943544 486.3106792009215 493.30955241080744 489.3863046534111 501.24064542726046 492.46193010590065 506.90511989889757 495.9646409193059 512.5695943705347 499.46735173271117 512.5654907226562 499.4764709472656 Z" fill="hsl(0, 0%, 0%)"></path><path d="M 495.80836116378964 511.0042683284377 Q 495.80836116378964 511.0042683284377 488.91392973601523 510.61428537292767 482.0194983082409 510.2243024174176 472.3979008823592 507.3705630614587 462.7763034564774 504.5168237054998 453.6241630409379 501.63228615577816 444.4720226253983 498.74774860605646 436.41486662572004 496.71075877624537 428.3577106260417 494.6737689464342 422.0014322143263 493.6261713374454 415.6451538026109 492.57857372845655 409.4911991049662 492.05021526082544 403.33724440732146 491.5218567931943 392.5538296223092 492.19337605092863 381.7704148372969 492.864895308663 376.390219335143 493.8597956484916 371.0100238329891 494.8546959883203 367.98227386746305 495.6575592759981 364.95452390193697 496.4604225636759 364.95240076076277 496.4558957246513 364.95027761958863 496.4513688856267 364.9481544784145 496.4468420466021 364.9460313372403 496.44231520757756 367.62400760370826 494.5691252435481 370.3019838701762 492.69593527951866 375.5136453569052 490.22762093702147 380.72530684363426 487.75930659452433 387.03561426192124 485.9551449792575 393.3459216802082 484.15098336399075 398.6465132147943 483.9715003396635 403.9471047493804 483.79201731533624 410.51259632180233 484.27285326992796 417.0780878942243 484.75368922451963 423.6495898405012 486.0806667266434 430.2210917867782 487.4076442287672 438.41533649156713 489.5411993524931 446.60958119635615 491.67475447621894 455.862320956884 494.35319206992983 465.1150607174118 497.0316296636408 474.71532347143113 500.18379057623656 484.31558622545055 503.33595148883234 490.0651359683304 507.16062307433793 495.81468571121036 510.98529465984353 495.8115234375 510.9947814941406 Z" fill="hsl(0, 0%, 0%)"></path><path d="M 504.1805070812439 498.43532129061686 Q 504.1805070812439 498.43532129061686 497.858716463457 491.8875248424855 491.5369258456701 485.33972839435415 487.05682427831 480.85905565190785 482.57672271094987 476.3783829094616 478.91534176705693 472.83760773279016 475.253960823164 469.2968325561187 470.6412552242347 465.02699327417326 466.02854962530546 460.75715399222787 459.6596062402548 455.6745746915063 453.2906628552041 450.5919953907847 446.99659541611356 446.35391232290874 440.702527977023 442.11582925503274 434.09968145843425 438.8973407827378 427.4968349398455 435.67885231044284 416.7785467839811 432.5686787783534 406.0602586281167 429.458505246264 395.7751704704739 427.8884964463125 385.49008231283113 426.318487646361 375.49283517932633 426.6958789162336 365.4955880458215 427.07327018610624 353.7225143547689 429.51742299400735 341.9494406637164 431.96157580190845 332.09796942452294 435.02775758277073 322.2464981853295 438.09393936363307 312.03456246228495 442.6460847965321 301.8226267392405 447.1982302294311 294.6269468871294 451.2504260331453 287.4312670350183 455.3026218368595 281.9120138609204 460.35561224825904 276.39276068682256 465.40860265965864 272.38676108114976 471.3086859250888 268.38076147547696 477.208769190519 264.62685111006874 486.81312135637944 260.8729407446605 496.4174735222399 258.37116609457155 506.5617394436483 255.86939144448255 516.7060053650567 255.86448445654207 516.705045433105 255.85957746860157 516.7040855011534 255.85467048066107 516.7031255692017 255.8497634927206 516.70216563725 257.37973267681724 506.2369307098054 258.9097018609139 495.7716957823608 261.8088663718984 485.21695810337854 264.70803088288284 474.6622204243963 269.272851449662 468.54645745276554 273.8376720164412 462.43069448113476 279.98491093009807 457.62812462598924 286.132149843755 452.82555477084367 293.6368241916918 449.27179362845914 301.1414985396286 445.7180324860746 311.3516842138706 440.8739522461678 321.56186988811265 436.029872006261 331.42859566654636 432.57092540889903 341.29532144498006 429.111978811537 353.2509558101091 426.11972259071194 365.20659017523815 423.12746636988686 375.6242909525329 422.04683180010966 386.04199172982766 420.9661972303324 396.87491240010024 421.6323430924869 407.70783307037277 422.2984889546414 419.76181472387253 424.4498558039778 431.8157963773723 426.60122265331427 439.12738302982876 430.0960254995627 446.43896968228523 433.59082834581113 453.05103528179836 438.06527184086815 459.6631008813115 442.5397153359252 466.66124212753425 448.0403643220681 473.659383373757 453.541013308211 477.83155069227723 458.58924973168655 482.00371801079746 463.63748615516215 484.8457202642121 467.8546889710253 487.68772251762675 472.0718917868885 491.42620476298026 477.34514129709726 495.1646870083338 482.61839080730596 499.68059704362304 490.52085604740705 504.19650707891236 498.42332128750814 504.1885070800781 498.4293212890625 Z" fill="hsl(0, 0%, 0%)"></path><path d="M 401.5670347163394 126.71088866027196 Q 401.5670347163394 126.71088866027196 394.0304279032374 125.56681532470716 386.4938210901354 124.42274198914238 381.5387454193342 123.32356954023687 376.58366974853294 122.22439709133137 371.60413906462395 121.53518495344659 366.6246083807149 120.84597281556181 358.8369222705817 121.06624805952075 351.0492361604485 121.28652330347967 345.8622230461159 122.08268875087792 340.6752099317833 122.87885419827617 333.96682525035305 126.4467616304839 327.25844056892277 130.01466906269164 321.61239811496637 136.95351308802958 315.96635566101 143.8923571133675 314.8687992389205 150.048275562302 313.771242816831 156.2041940112365 317.1732222515985 162.26526960692604 320.575201686366 168.3263452026156 325.97214636687795 171.22833282114 331.36909104739 174.1303204396644 337.6589304843561 175.10552237105128 343.94876992132225 176.08072430243817 349.26902164037483 175.31976055022938 354.58927335942735 174.55879679802058 359.52931790534467 172.86375001548618 364.46936245126193 171.1687032329518 369.3469007384625 167.95064011969242 374.22443902566306 164.73257700643305 377.90644654900336 161.0836002655512 381.5884540723437 157.43462352466938 384.34928801485717 153.25686757634477 387.1101219573706 149.07911162802017 388.9544604684537 143.06054247775626 390.79879897953685 137.04197332749234 389.8661738391896 131.58973757539528 388.9335486988424 126.13750182329821 385.5897706053298 121.72546572616648 382.24599251181724 117.31342962903476 376.5908700071366 114.5495190753922 370.9357475024559 111.78560852174962 363.31113798295405 111.5523880800414 355.6865284634522 111.31916763833317 347.4927894761682 113.87834065181025 339.2990504888842 116.43751366528731 333.49561185952746 118.9160200724277 327.6921732301707 121.39452647956809 322.9098219373859 123.97696328865194 318.1274706446011 126.55940009773582 313.62168708302295 129.55309642068363 309.11590352144486 132.54679274363144 303.14584082861353 137.6269873267447 297.1757781357822 142.70718190985798 293.25021444692624 148.13086407826 289.3246507580703 153.55454624666206 287.8329004451147 160.3668411903493 286.34115013215916 167.17913613403653 287.9487095694115 173.65477633419783 289.55626900666385 180.1304165343591 291.99004648259665 187.95509992479933 294.42382395852945 195.77978331523954 296.81335039577687 204.7053563149108 299.2028768330243 213.63092931458206 299.6831689805638 221.9656292542398 300.1634611281033 230.30032919389748 298.2258541181115 236.3077819582682 296.2882471081197 242.31523472263893 293.7164819651712 247.11639017511513 291.14471682222273 251.91754562759132 286.35450773246055 257.34443639575284 281.56429864269836 262.7713271639143 277.1150375191522 266.58728151683295 272.66577639560614 270.40323586975154 268.0532933216278 273.3912204597548 263.44081024764944 276.37920504975807 257.0803004041781 278.7200056579263 250.7197905607068 281.0608062660946 245.14823480262328 282.1637434832056 239.57667904453976 283.2666807003167 233.4350542494384 283.0759247927646 227.293429454337 282.8851688852125 217.52228097009055 280.00184319420265 207.7511324858441 277.1185175031928 203.4661519659524 273.8447271761314 199.1811714460607 270.5709368490701 195.28090967973858 264.28984589664276 191.38064791341648 258.00875494421547 190.96099138543286 246.66950195289851 190.54133485744921 235.33024896158156 191.47238715362855 228.06275442518583 192.40343944980788 220.7952598887901 194.4147114167185 215.43409919769078 196.4259833836291 210.0729385065915 199.82663636097416 205.42209709462622 203.22728933831922 200.77125568266095 210.4971557515687 196.43482920423958 217.76702216481814 192.09840272581818 224.2276691157943 189.5034893763892 230.68831606677045 186.90857602696028 238.87251070931586 185.09512114968487 247.0567053518613 183.28166627240944 253.5158808624927 181.98719929960583 259.9750563731241 180.69273232680223 265.31427385350116 179.4711837689538 270.6534913338782 178.24963521110539 275.73239209962526 177.15500458831372 280.81129286537237 176.06037396552207 287.2304275417098 174.5272466409933 293.64956221804727 172.99411931646452 299.2262309440772 171.47079975688445 304.8028996701072 169.94748019730434 304.80591115679005 169.95147155646623 304.8089226434729 169.9554629156281 304.81193413015575 169.95945427478995 304.8149456168386 169.96344563395184 300.22166053326885 173.99365423286918 295.62837544969915 178.0238628317865 289.5616251934729 181.31014717763517 283.49487493724655 184.59643152348386 278.5948540602799 186.6378102534917 273.6948331833133 188.6791889834995 268.3044917404623 190.5864141555837 262.91415029761134 192.4936393276679 256.8775202306107 194.31092108981605 250.84089016360997 196.1282028519642 243.7900953495946 198.80312849994294 236.7393005355792 201.47805414792165 231.43669499398123 203.77725309969958 226.13408945238328 206.07645205147753 221.30933197312152 209.00551212277088 216.48457449385972 211.9345721940642 212.39691354598384 217.49120494101777 208.30925259810795 223.0478376879713 207.59736355589442 228.43858064663203 206.8854745136809 233.82932360529276 210.02102372857445 244.0720177025715 213.15657294346798 254.31471179985022 217.5231992355122 257.61623515843667 221.8898255275564 260.9177585170231 228.94838374226026 261.918591390763 236.00694195696408 262.9194242645029 244.0499618623479 260.68141485894785 252.09298176773177 258.44340545339276 258.61820274449633 253.7083075336178 265.14342372126083 248.97320961384287 268.22000618181943 244.9904329213465 271.296588642378 241.00765622885012 274.2661886307619 234.99855227145295 277.2357886191458 228.98944831405578 277.2880176258221 223.55049865749498 277.34024663249835 218.11154900093422 275.44317427814775 210.61603597501426 273.54610192379715 203.1205229490943 271.722528285417 198.08033955615957 269.8989546470369 193.04015616322488 267.9925175478673 184.77925590131284 266.0860804486977 176.5183556394008 266.01082287284544 166.57961778301095 265.9355652969932 156.6408799266211 269.40214456744616 149.129982742146 272.86872383789904 141.6190855576709 278.69316510552585 134.8665270381743 284.51760637315266 128.11396851867767 291.6926894912445 122.78353079048662 298.8677726093363 117.45309306229558 304.01278294229405 113.89449745771562 309.15779327525183 110.33590185313565 314.3329356158648 107.41803604408202 319.50807795647785 104.50017023502839 325.80051129541005 101.12025146113639 332.0929446343422 97.74033268724439 337.8489118949341 95.5183329349619 343.60487915552596 93.2963331826794 349.1648227409029 92.19284797582006 354.7247663262798 91.08936276896071 361.3686595161737 90.82918751490318 368.01255270606754 90.56901226084565 373.42098797667904 91.76715060560969 378.8294232472905 92.96528895037372 384.65267020411386 95.62645479530264 390.47591716093723 98.28762064023157 396.9722914754528 105.64980888740357 403.4686657899683 113.01199713457558 405.5011323954481 117.90715554706061 407.5335990009279 122.80231395954564 407.62969750289597 131.97693174710696 407.72579600486404 141.1515495346683 403.84863076368106 149.61089723235068 399.971465522498 158.07024493003306 396.11840925148505 163.33306287461028 392.2653529804721 168.5958808191875 387.46871889386057 172.99309245596297 382.6720848072491 177.39030409273843 376.1000217419895 181.77090346648754 369.52795867672995 186.15150284023665 363.1114026570011 188.16875588926632 356.69484663727224 190.18600893829597 349.46059128090735 191.07639466482473 342.2263359245425 191.9667803913535 333.1430647336883 191.16074809991701 324.05979354283403 190.35471580848053 314.5351135355288 186.23218287514112 305.01043352822353 182.10964994180168 301.42380012654854 177.2750870303436 297.83716672487355 172.44052411888552 296.10405472863476 162.98256625205966 294.370942732396 153.52460838523376 295.36880173844133 148.15468563420376 296.3666607444867 142.78476288317378 298.4888337157986 138.06392724528325 300.61100668711055 133.3430916073927 303.9698450004948 128.7687224915883 307.328683313879 124.19435337578392 312.67357957570573 118.92855944312753 318.0184758375325 113.66276551047113 328.5874093417498 109.83805420809843 339.1563428459671 106.01334290572572 345.4722265612984 105.8121852277923 351.78811027662965 105.61102754985887 360.7486300873808 107.463308541093 369.70914989813184 109.31558953232714 374.78721809069907 111.32112372637252 379.86528628326636 113.3266579204179 384.40824312512996 115.73468387200982 388.9511999669935 118.14270982360175 395.2627613362646 122.41748681457506 401.5743227055356 126.69226380554835 401.5706787109375 126.70157623291016 Z" fill="hsl(0, 0%, 0%)"></path><path d="M 403.6563725856537 117.28263367462571 Q 403.6563725856537 117.28263367462571 399.2437183945747 113.78246275141154 394.83106420349577 110.28229182819739 390.0778139187688 99.18721313221212 385.32456363404185 88.09213443622687 382.6273371634957 81.03171092784658 379.9301106929496 73.9712874194663 378.4683079398716 67.59947533457888 377.00650518679356 61.22766324969148 375.6223112516595 53.318199205164866 374.2381173165254 45.40873516063825 373.6127205377901 40.08893472041662 372.98732375905473 34.76913428019499 372.33941319052167 28.695969446767492 371.6915026219886 22.62280461333999 374.12660064235854 17.592602168956383 376.5616986627285 12.562399724572774 386.2610847496246 12.42596186791061 395.9604708365208 12.289524011248446 401.33001253574355 15.273109674930863 406.6995542349663 18.25669533861328 411.16830976571873 21.070093795878662 415.6370652964711 23.883492253144045 419.8663515397367 27.08190949812336 424.09563778300225 30.28032674310267 428.64055608328806 34.73247327914649 433.1854743835739 39.18461981519031 436.9425096248669 42.79150993286649 440.6995448661599 46.398400050542676 445.32524385855424 51.8691547620388 449.95094285094865 57.33990947353492 453.58872062550046 62.0191013824924 457.22649840005226 66.69829329144989 460.2899278880134 71.49343745860578 463.35335737597444 76.28858162576168 465.73203614743403 81.14497471947686 468.1107149188936 86.00136781319203 471.01516343297726 93.04725500725405 473.91961194706084 100.09314220131607 473.91542105809066 100.09586918676516 473.9112301691205 100.09859617221424 473.9070392801503 100.10132315766333 473.9028483911801 100.10405014311242 468.1205779842488 95.11237630724318 462.3383075773175 90.12070247137395 458.7518644315771 86.61617671576977 455.16542128583666 83.1116509601656 451.2767228022609 79.56759035404943 447.3880243186852 76.02352974793325 443.16799753704754 72.41459850513729 438.94797075540987 68.80566726234133 433.58486146302016 64.69180027069399 428.2217521706305 60.57793327904666 424.0593470055152 57.21638959698963 419.89694184039985 53.85484591493259 412.19333467162255 47.780294922489006 404.48972750284526 41.705743930045415 396.26938550177294 37.10045363897592 388.0490435007006 32.49516334790643 389.85577099474335 27.5495088592535 391.66249848878607 22.60385437060057 391.0616000235869 28.554795461690958 390.4607015583877 34.50573655278134 390.0557597255781 39.56018016012531 389.6508178927686 44.61462376746929 389.48713576898837 51.88966120679468 389.32345364520813 59.164698646120065 389.87694387269374 64.81685119481072 390.43043410017935 70.46900374350137 392.47507346625355 77.53333506142837 394.51971283232774 84.59766637935539 398.0904127238398 95.40376462238075 401.66111261535184 106.20986286540612 402.6673175246147 111.74110330388629 403.67352243387757 117.27234374236647 403.6649475097656 117.2774887084961 Z" fill="hsl(0, 0%, 0%)"></path><path d="M 190.0623305700392 226.17715799691803 Q 190.0623305700392 226.17715799691803 192.61846549273395 232.9313608188481 195.17460041542867 239.68556364077818 197.13817142043334 250.00021635811572 199.101742425438 260.31486907545326 199.48050730050852 266.04266294746617 199.85927217557906 271.77045681947914 199.80741547200557 280.7308104643476 199.7555587684321 289.69116410921606 198.75241626824902 296.63603156831357 197.74927376806596 303.58089902741114 194.69022002229792 309.5271963003353 191.63116627652988 315.4734935732594 182.38411888109886 315.96533785806673 173.1370714856678 316.45718214287405 169.27335540148954 311.374491472198 165.40963931731125 306.29180080152196 162.74281837211473 293.18290143120936 160.0759974269182 280.07400206089676 158.38536971103758 268.382397393107 156.69474199515696 256.6907927253173 154.83923056185293 245.7388495252789 152.9837191285489 234.78690632524055 151.1853078628535 227.49945560693067 149.3868965971581 220.21200488862078 147.46927829391717 215.269722506213 145.5516599906762 210.3274401238052 143.42808519017046 205.3098150557976 141.30451038966476 200.29218998779 137.052588439942 192.75100414420143 132.80066649021927 185.20981830061285 128.53515961058957 180.84693185270683 124.26965273095985 176.4840454048008 118.73129048123134 173.55180188800222 113.19292823150283 170.6195583712036 106.90569892198975 169.5133185130988 100.61846961247667 168.40707865499402 95.4363717243964 169.60256865031872 90.25427383631613 170.7980586456434 85.71179552127134 173.57358034941504 81.16931720622654 176.34910205318667 76.6579032678501 181.71777614672453 72.14648932947367 187.08645024026237 68.78077054193864 194.15752660492234 65.41505175440362 201.22860296958234 64.09543665493338 212.00116172529178 62.77582155546313 222.77372048100122 62.92477546457137 230.19803251858383 63.073729373679605 237.6223445561664 64.26342031194206 248.31651094455898 65.4531112502045 259.01067733295156 67.054161623232 267.6262005862279 68.65521199625952 276.24172383950435 70.101356496477 282.32562698940956 71.54750099669447 288.4095301393148 72.83918964432866 294.01687679123097 74.13087829196283 299.6242234431472 76.04405495529497 307.81300582951116 77.95723161862709 316.00178821587514 79.25602950610786 321.6571166041753 80.55482739358862 327.3124449924755 80.5502894981554 327.31454439835267 80.54575160272218 327.31664380422984 80.54121370728896 327.318743210107 80.53667581185573 327.3208426159842 77.16936571875735 322.43270067371157 73.80205562565895 317.54455873143894 70.29915474792341 309.61199802466615 66.79625387018788 301.67943731789336 64.96088180386795 296.12676072601437 63.12550973754803 290.5740841341353 61.46394645076754 284.5660563720546 59.80238316398704 278.558028609974 56.9245611245929 270.0554745335776 54.04673908519876 261.55292045718113 50.36467426926535 250.3862769493537 46.68260945333194 239.21963344152624 45.28545834402267 230.62403141809256 43.8883072347134 222.0284293946589 43.666924387949585 213.9372620514867 43.44554154118577 205.84609470831452 44.3999222267296 199.82621361371213 45.35430291227343 193.80633251910976 47.4582128234419 188.378588713945 49.562122734610355 182.95084490878023 55.339122996330225 174.93053197828 61.116123258050095 166.91021904777972 69.1720968193797 160.36754102179634 77.2280703807093 153.82486299581294 86.22759914855052 151.48939736047657 95.22712791639177 149.1539317251402 103.60595355909608 150.21483400880595 111.9847792018004 151.2757362924717 116.71047339156758 153.02174539704697 121.43616758133476 154.76775450162228 128.94114965907102 160.27142026040235 136.44613173680725 165.77508601918245 140.72507593525944 172.0321833607888 145.00402013371166 178.28928070239513 148.63964008309682 187.29311838200775 152.27526003248198 196.29695606162036 153.9545597144671 201.7222040334713 155.6338593964522 207.1474520053222 156.99741864392496 212.60970893458747 158.36097789139768 218.07196586385274 160.0329125860213 225.34894990003093 161.7048472806449 232.62593393620912 165.18145390568571 243.1930129195825 168.65806053072652 253.76009190295585 172.43013994201752 264.3676272789704 176.20221935330852 274.97516265498496 177.08143324448042 286.73394975798203 177.96064713565232 298.49273686097905 179.82295269660284 293.01556843946696 181.6852582575534 287.5384000179548 183.24716388430227 279.4772081705855 184.80906951105118 271.41601632321624 185.4415979834194 266.3365970017768 186.0741264557876 261.2571776803374 186.7063181959607 250.81199949414486 187.33850993613382 240.3668213079523 188.69045784710983 233.27285594750933 190.0424057580858 226.17889058706635 190.0523681640625 226.1780242919922 Z" fill="hsl(0, 0%, 0%)"></path><path d="M 111.51713435197453 114.12620251841423 Q 111.51713435197453 114.12620251841423 118.7722974048721 110.96333354769038 126.02746045776968 107.80046457696653 131.70867778208867 106.77711878763327 137.3898951064077 105.75377299830002 148.79567918678248 105.98838462093781 160.20146326715727 106.2229962435756 165.43895502658677 107.27952956331806 170.67644678601624 108.33606288306054 180.3288597036847 112.10971886372741 189.98127262135318 115.88337484439427 196.06772715002353 118.49513419838942 202.15418167869385 121.10689355238456 207.76815786987243 124.25561484559236 213.382134061051 127.40433613880015 218.84526975192244 122.40324972788 224.3084054427939 117.40216331695986 230.15222664763758 112.0743355344997 235.99604785248124 106.74650775203953 241.36040020685516 102.30536954891787 246.7247525612291 97.8642313457962 252.1034214836249 95.17300593548245 257.4820904060207 92.48178052516869 257.4844913238686 92.48616636528064 257.48689224171653 92.49055220539259 257.48929315956445 92.49493804550454 257.4916940774124 92.49932388561649 254.85929939010396 98.02264747137878 252.2269047027955 103.54597105714107 249.66575894476426 109.39121651598317 247.104613186733 115.23646197482527 243.30591150883794 122.31063921757467 239.50720983094288 129.3848164603241 235.35435058491564 135.73632776495162 231.2014913388884 142.0878390695792 227.6454860649663 145.94407491722808 224.0894807910442 149.80031076487697 219.20636832711557 150.99348662994834 214.32325586318692 152.18666249501973 208.29949033799045 148.61831652290954 202.27572481279398 145.04997055079934 197.7784854649158 141.99233763143488 193.28124611703763 138.9347047120704 187.55608620942587 135.6865070419848 181.8309263018141 132.4383093718992 177.32569907271173 130.07253299906873 172.82047184360937 127.70675662623826 165.32088960625498 124.50340470333917 157.82130736890056 121.30005278044008 148.00039490917 119.33531518880716 138.17948244943946 117.37057759717423 132.64669199559074 117.11490289224497 127.11390154174205 116.8592281873157 119.31670940054782 115.50264412107182 111.51951725935359 114.14606005482796 111.51832580566406 114.1361312866211 Z" fill="hsl(0, 0%, 0%)"></path><path d="M 339.8000382408449 18.844898224622394 Q 339.8000382408449 18.844898224622394 344.8832374453564 25.850579929046127 349.9664366498679 32.856261633469856 352.8636800948685 39.163179846189294 355.7609235398691 45.47009805890874 357.3300817129442 51.769910162908175 358.8992398860193 58.069722266907604 358.3731098109976 64.44270800436172 357.84697973597594 70.81569374181583 354.02424235306046 74.07421448034577 350.2015049701449 77.3327352188757 343.99836404200596 79.42015355924934 337.79522311386705 81.50757189962297 327.19592878566465 81.61485654744627 316.59663445746224 81.72214119526957 311.43199084329615 81.4581717969738 306.2673472291301 81.19420239867802 299.32684711295906 80.3643714739687 292.386346996788 79.5345405492594 285.9957399251316 77.69609162784855 279.60513285347525 75.8576427064377 276.7886398772635 73.89197951360102 273.97214690105176 71.92631632076433 273.97365811144243 71.92155016474977 273.97516932183316 71.91678400873522 273.9766805322239 71.91201785272067 273.97819174261457 71.90725169670611 277.10665536923403 71.75744690316091 280.2351189958535 71.60764210961571 286.15415047341 70.24122285478182 292.0731819509665 68.87480359994792 298.3851318059351 67.40590117231477 304.6970816609037 65.9369987446816 309.7829329116869 64.61780292256935 314.86878416247015 63.29860710045709 320.28297486162217 62.01335243347334 325.6971655607742 60.72809776648958 333.4292607773243 60.657594657565554 341.1613559938745 60.58709154864153 341.7935255798775 55.06409435483339 342.4256951658804 49.54109716102524 341.43905918964685 42.84503688723656 340.45242321341334 36.14897661344787 340.11678086519044 27.500208521194963 339.7811385169676 18.85144042894206 339.79058837890625 18.848169326782227 Z" fill="hsl(0, 0%, 0%)"></path><path d="M 378.54375904302054 209.42166217149006 Q 378.54375904302054 209.42166217149006 382.4719007220089 214.83683693063867 386.4000424009973 220.25201168978728 389.82495597095965 227.41399574034006 393.249869540922 234.5759797908928 396.7051000173711 241.46252598333638 400.16033049382014 248.34907217577998 401.74375296017774 254.8744798701518 403.3271754265353 261.39988756452357 403.13877175160127 267.89562636824166 402.95036807666725 274.3913651719598 400.136050372181 280.3734795335533 397.32173266769473 286.35559389514674 391.7900963156306 290.51881163674875 386.25845996356645 294.6820293783508 379.79052371687 295.9202777433455 373.3225874701736 297.15852610834014 366.08551679913774 295.19547971557336 358.84844612810184 293.23243332280657 353.32040854836157 288.2254881803009 347.79237096862136 283.21854303779526 344.31965423291854 276.9110421652871 340.8469374972157 270.60354129277886 339.34668791137415 265.7472759041727 337.8464383255325 260.8910105155665 336.8557367169684 255.78080705963188 335.8650351084043 250.67060360369726 335.8691839150198 250.667813011705 335.8733327216353 250.66502241971276 335.87748152825077 250.66223182772052 335.88163033486626 250.65944123572825 338.56975704277824 252.79042612467273 341.2578837506902 254.92141101361722 346.11940085302786 258.96517834772806 350.98091795536556 263.00894568183884 355.36869938023483 266.2513828050344 359.7564808051041 269.49381992822987 366.7343580121927 271.54521498806855 373.71223521928124 273.5966100479072 377.5789599684491 270.3986043599816 381.44568471761704 267.200598672056 382.07725721557006 260.63387434642243 382.708829713523 254.0671500207889 381.01737313363327 246.6628042993467 379.3259165537435 239.2584585779045 378.0074622228575 230.96919863326758 376.68900789197147 222.6799386886307 377.60668204166296 216.05322578298438 378.52435619135446 209.42651287733807 378.5340576171875 209.42408752441406 Z" fill="hsl(0, 0%, 0%)"></path><path d="M 437.1823785097237 149.73537933577535 Q 437.1823785097237 149.73537933577535 441.886148924075 157.1846389641277 446.5899193384262 164.63389859248005 448.2573688242479 170.0023873135208 449.9248183100696 175.37087603456158 451.96031687079505 183.71366281051633 453.99581543152055 192.0564495864711 454.60302151738915 198.98829680167339 455.21022760325775 205.92014401687567 454.4567588271589 212.73935563844387 453.7032900510601 219.55856726001207 452.0197608751982 225.36016042840117 450.3362316993363 231.16175359679028 448.8308574494643 237.42389688434616 447.3254831995923 243.68604017190208 451.2623406794347 248.24262633287816 455.19919815927705 252.79921249385424 459.90666977603735 254.5883354248362 464.6141413927977 256.37745835581813 470.8424631641556 257.5195071722478 477.07078493551353 258.6615559886775 484.199256424493 259.76588896549447 491.3277279134725 260.87022194231145 496.9049288713891 261.88020728868 502.4821298293056 262.89019263504855 511.08093042613336 265.77063462535034 519.6797310229612 268.6510766156522 526.2218092385169 272.06678634849595 532.7638874540726 275.4824960813397 537.0940939890274 278.73828673969115 541.4243005239822 281.9940773980426 548.285389022444 287.7297983039068 555.1464775209056 293.465519209771 559.0046115952416 297.55026591376134 562.8627456695777 301.6350126177516 568.3189480095118 308.55239095260737 573.7751503494459 315.4697692874631 576.9128044510016 320.7511231872535 580.0504585525573 326.0324770870438 582.0978217508391 331.88333717475933 584.145184949121 337.7341972624749 584.5328903264428 344.47000145707716 584.9205957037645 351.20580565167944 583.2873056573725 358.1642964018314 581.6540156109804 365.12278715198335 581.6490169251259 365.12290178063586 581.6440182392714 365.12301640928837 581.6390195534169 365.1231310379409 581.6340208675624 365.1232456665934 579.069785126676 359.2456578100538 576.5055493857897 353.3680699535142 573.944440140192 348.8318874946689 571.3833308945945 344.2957050358236 566.7423793149532 338.4193343117794 562.1014277353119 332.54296358773524 557.4699783283473 327.9697882423114 552.8385289213828 323.3966128968875 546.3665558064124 317.8639786340003 539.8945826914421 312.3313443711132 533.320435162366 307.42314889006946 526.7462876332901 302.5149534090258 520.847915745607 298.7787343689989 514.949543857924 295.042515328972 509.56640446268375 292.69755912419987 504.1832650674434 290.3526029194278 498.3154439999584 288.83290581142364 492.4476229324734 287.31320870341943 486.3311357844898 286.2318648794103 480.21464863650624 285.1505210554012 472.20782778736293 283.9697133238031 464.20100693821956 282.78890559220497 456.4649388342832 280.5252125520541 448.72887073034684 278.26151951190326 441.3870782193168 273.73200614842784 434.0452857082867 269.2024927849524 429.1576225853422 261.92923408438145 424.26995946239776 254.65597538381047 423.8807868621135 247.7725309472906 423.49161426182917 240.88908651077068 425.478610570918 234.6599995317445 427.46560688000693 228.4309125527183 430.43402736819235 221.5901637535601 433.40244785637776 214.74941495440186 435.00735168308955 209.54983889551036 436.61225550980134 204.35026283661887 437.44264556938333 198.90976011369202 438.2730356289653 193.46925739076516 438.21076515358845 185.5655570740521 438.14849467821165 177.66185675733905 437.76882624411144 172.5087502768875 437.3891578100112 167.35564379643594 437.2761801774875 158.54835244517403 437.1632025449638 149.74106109391215 437.17279052734375 149.73822021484375 Z" fill="hsl(0, 0%, 0%)"></path><path d="M 246.60552464705117 294.2358474989456 Q 246.60552464705117 294.2358474989456 251.78739571060567 301.6787637249438 256.96926677416013 309.12167995094194 261.0352133842134 316.6710212177561 265.10115999426665 324.22036248457033 267.6452577842781 330.54575248102367 270.1893555742896 336.87114247747695 272.10076194270596 343.221337098817 274.01216831112237 349.571531720157 275.4027317094883 354.3231593330752 276.79329510785425 359.07478694599337 277.61106470271693 362.95400154286153 278.4288342975796 366.83321613972964 278.5862707667037 371.04004731592295 278.7437072358278 375.24687849211625 278.10294362386253 381.39059896308277 277.4621800118972 387.5343194340493 275.58178560493326 391.06396070016774 273.7013911979693 394.59360196628614 271.69638937935883 397.3933118535554 269.6913875607483 400.1930217408247 265.71511358798637 403.1330435462137 261.7388396152244 406.0730653516027 258.300860097626 408.22792082536444 254.86288058002762 410.38277629912614 251.27720298661882 411.83120832899556 247.69152539321001 413.279640358865 243.10673201638934 413.8885307743444 238.52193863956867 414.49742118982385 234.90284562512505 414.5333798873054 231.2837526106814 414.56933858478686 227.6443107282338 413.6029175645016 224.00486884578618 412.63649654421624 221.0555185798013 410.7455560306614 218.10616831381637 408.8546155171066 214.51577700703683 402.33676550788226 210.9253857002573 395.81891549865793 211.11928770628037 390.77416978329575 211.31318971230345 385.7294240679335 214.7347987436793 379.13111645124616 218.15640777505516 372.53280883455886 223.63319274374277 367.39121779154954 229.10997771243035 362.2496267485402 235.22553102167956 358.7564889626085 241.34108433092877 355.26335117667685 249.53959164356374 353.5813974502731 257.7380989561987 351.8994437238693 264.2342932104225 351.86703945806005 270.73048746464633 351.83463519225086 278.061261930136 353.7499005791906 285.3920363956257 355.66516596613036 291.50169958242736 358.65204693874455 297.61136276922906 361.6389279113587 303.48321983682933 365.0450798614489 309.3550769044296 368.4512318115392 316.6494057222325 372.9307271012218 323.94373454003534 377.4102223909045 330.63267983063554 380.82836468978564 337.32162512123574 384.24650698866685 343.46241960999487 386.61283731607284 349.60321409875394 388.9791676434788 363.6296449728547 389.9915592559222 377.65607584695545 391.0039508683657 390.84582715961426 390.24053163344956 404.035578472273 389.47711239853345 415.6596622904516 387.35282202216547 427.2837461086302 385.22853164579755 441.55336086070974 380.1193500633374 455.8229756127893 375.01016848087716 467.6130874217206 369.83848343037175 479.40319923065186 364.6667983798663 488.63440435036534 360.3716476259973 497.8656094700789 356.0764968721283 505.7057453467905 352.1501605827432 513.5458812235021 348.223824293358 513.5481278073888 348.22829115588553 513.5503743912756 348.23275801841305 513.5526209751623 348.2372248809406 513.5548675590491 348.2416917434681 505.7272058808045 352.19538787306647 497.8995442025599 356.1490840026648 488.6823624253866 360.47835178519074 479.4651806482132 364.8076195677167 467.6810330047959 370.01180851196875 455.89688536137857 375.21599745622075 441.6147757816452 380.35373101767516 427.33266620191193 385.4914645791296 415.69371342019076 387.6438530598816 404.05476063846953 389.79624154063356 390.84180857441095 390.5954524750437 377.6288565103524 391.39466340945387 363.5318951762534 390.41706948281205 349.43493384215435 389.4394755561703 343.2373249475344 387.12348696808147 337.03971605291434 384.8074983799927 330.28076188158855 381.4584915073053 323.52180771026275 378.109484634618 316.174307371328 373.74972900130854 308.8268070323932 369.3899733679991 302.91439229909884 366.1648351609342 297.00197756580445 362.9396969538693 290.96753901980253 360.24037647674334 284.93310047380055 357.5410559996174 277.8564652296375 355.9938580719113 270.7798299854744 354.4466601442052 264.6266370063929 354.76746827396744 258.47344402731136 355.0882764037296 251.07559328180145 357.07079187094973 243.67774253629153 359.0533073381699 238.5964342481939 362.76575940580176 233.51512596009627 366.4782114734337 229.64666209765295 371.2074551990345 225.77819823520966 375.93669892463527 224.21129435596274 381.2303600649717 222.6443904767158 386.5240212053081 222.85606596343604 391.8731138111429 223.06774145015626 397.2222064169777 225.25653392636985 399.9697411412767 227.44532640258348 402.71727586557563 232.4241223942244 403.8610277087381 237.40291838586532 405.0047795519006 243.8147420448669 403.79539142306857 250.2265657038685 402.58600329423655 253.41900076227887 400.7636000215276 256.6114358206893 398.94119674881864 259.7359730645128 396.77303448622513 262.86051030833636 394.6048722236316 266.5778009110337 390.0516650250444 270.2950915137311 385.4984578264572 271.8279865625591 380.3102134338191 273.36088161138713 375.12196904118105 273.7024062592109 371.2552161498255 274.0439309070346 367.38846325847 273.8781585556391 363.6045755657701 273.7123862042436 359.8206878730702 272.7887332584727 355.04163018149 271.86508031270176 350.2625724899098 269.7479623557592 344.1044594324669 267.63084439881675 337.94634637502395 264.9461332293441 331.8407526988584 262.26142205987156 325.7351590226928 258.2743605713225 318.2020329623891 254.28729908277344 310.6689069020854 250.4377500108299 302.4573744281324 246.58820093888633 294.2458419541794 246.59686279296875 294.2408447265625 Z" fill="hsl(0, 0%, 0%)"></path><path d="M 440.31414794921875 319.3817346191406 Q 440.31414794921875 319.3817346191406 436.4005401611328 320.3503256646843 432.4869323730469 321.318916710228 428.1142195129395 321.65005786407994 423.741506652832 321.98119901793194 417.98889827301474 322.8114053540938 412.23628989319747 323.6416116902556 405.81061846482754 326.07491286125406 399.3849470364576 328.5082140322525 396.4265410112259 329.97093987233006 393.46813498599414 331.43366571240756 387.8778836552158 335.30043943150633 382.2876323244375 339.1672131506051 377.89070292889164 342.03697866452546 373.4937735333458 344.9067441784459 371.34043565446285 346.695464929108 369.1870977755799 348.4841856797702 369.1833551106854 348.48087019194975 369.17961244579084 348.4775547041294 369.1758697808963 348.474239216309 369.1721271160018 348.4709237284886 370.6681689549502 345.95753755679016 372.16421079389863 343.44415138509174 375.63791805524784 339.5796458688044 379.11162531659704 335.7151403525171 381.7740982923166 332.63837822453866 384.43657126803606 329.56161609656016 387.0077113440629 327.2224636059824 389.57885142008973 324.8833111154046 392.8608628418964 322.65036006119885 396.14287426370305 320.41740900699307 400.2943972093674 318.88679527856414 404.44592015503173 317.35618155013526 408.01715879336984 316.8311130549398 411.58839743170796 316.3060445597444 417.66495204227 316.53415739004686 423.741506652832 316.7622702203493 428.1142195129395 317.0934113742013 432.4869323730469 317.42455252805325 436.4005401611328 318.39314357359694 440.31414794921875 319.36173461914063 440.31414794921875 319.3717346191406 Z" fill="hsl(0, 0%, 0%)"></path><path d="M 394.2400777615737 317.28746688274566 Q 394.2400777615737 317.28746688274566 390.25209672524375 317.9539543307824 386.2641156889138 318.62044177881904 381.9270739831003 318.8557955387469 377.5900322772867 319.0911492986748 372.82053268638276 319.8408463011256 368.0510330954788 320.59054330357645 364.6188117683472 322.9483127762641 361.18659044121557 325.3060822489518 358.76075749907193 328.9743420519806 356.33492455692834 332.64260185500945 352.74674713966266 336.46002701111263 349.158569722397 340.27745216721576 345.96593195322123 342.2401446216172 342.7732941840454 344.2028370760187 338.08788985268103 346.4484851998381 333.40248552131663 348.6941333236575 328.62779306253503 348.7472975448105 323.8531006037535 348.80046176596346 320.6291302215223 347.1711016264529 317.4051598392911 345.5417414869424 317.4077479041059 345.53746341254913 317.4103359689208 345.5331853381559 317.41292403373564 345.5289072637626 317.41551209855044 345.52462918936936 320.5025761880675 345.7368540861574 323.5896402775846 345.9490789829454 327.1711485801578 344.7810101451654 330.752656882731 343.6129413073854 334.3291752598362 340.51412814986094 337.90569363694135 337.41531499233645 341.16405513564735 333.5386620536482 344.4224166343533 329.66200911495986 347.271401452758 326.23263314042754 350.12038627116283 322.8032571658952 354.22233648803194 319.2362040982649 358.324286704901 315.6691510306347 362.7819477620857 314.4059372376479 367.23960881927036 313.14272344466116 372.4929917011676 313.4453001650342 377.74637458306483 313.74787688540727 382.1547585974662 314.23912038532535 386.5631426118675 314.73036388524343 390.4023771517094 315.99894483913954 394.2416116915513 317.2675257930356 394.2408447265625 317.2774963378906 Z" fill="hsl(0, 0%, 0%)"></path><path d="M 394.2326524073573 316.224642573822 Q 394.2326524073573 316.224642573822 395.4929591191153 312.6206128837948 396.7532658308733 309.01658319376764 398.94697920817663 305.91589543054926 401.14069258547994 302.81520766733087 405.2441485231884 298.2876566573538 409.34760446089683 293.76010564737675 413.3418351930976 291.0366081865103 417.33606592529844 288.31311072564387 422.0928745929892 287.22168472435726 426.8496832606799 286.1302587230707 430.7156308401933 286.57998311786514 434.5815784197067 287.0297075126595 438.564640460564 287.64586857967413 442.5477025014213 288.2620296466887 446.4881809365967 288.9048232543777 450.42865937177197 289.5476168620667 453.9315496544386 289.2375062593586 457.4344399371052 288.92739565665056 459.226477317089 288.51161357431334 461.01851469707276 288.0958314919761 461.02079630375266 288.1002805672686 461.02307791043256 288.1047296425611 461.02535951711246 288.1091787178536 461.02764112379236 288.11362779314607 458.25545588990644 290.6242034931664 455.4832706560205 293.1347791931867 451.99774906244363 294.09986295754555 448.5122274688668 295.0649467219044 444.0828385675512 295.66674924765243 439.6534496662357 296.26855177340053 435.5285605495436 296.244354842556 431.40367143285147 296.22015791171145 426.5791922558744 296.61013676434277 421.7547130788973 297.000115616974 417.9532216914313 298.5068771290209 414.1517303039652 300.01363864106776 409.7627313836567 303.23927514873367 405.3737324633482 306.4649116563996 402.7657325838156 308.93360636998784 400.157732704283 311.4023010835761 397.20338487502534 313.8192064521427 394.2490370457677 316.23611182070925 394.2408447265625 316.2303771972656 Z" fill="hsl(0, 0%, 0%)"></path><path d="M 185.86387634277344 50.271783599853514 Q 185.86387634277344 50.271783599853514 178.33769874572755 50.91385047385053 170.81152114868163 51.555917347847554 162.19412102252392 51.633104869487454 153.5767208963662 51.710292391127346 148.46062620164554 52.171815591316694 143.34453150692485 52.63333879150604 137.28127530842315 53.300717559457965 131.21801910992144 53.96809632740989 127.50171868632718 54.87315424141509 123.78541826273292 55.778212155420285 118.09716688406598 57.64374807906278 112.40891550539907 59.50928400270528 108.59936646137888 61.4683087891281 104.78981741735869 63.42733357555093 102.29428056522954 65.74587914342203 99.79874371310041 68.06442471129311 97.67252360083272 70.56265510481686 95.54630348856503 73.06088549834058 93.23785297196977 76.83772674335307 90.92940245537451 80.61456798836556 89.04920575720791 84.83920000794407 87.16900905904131 89.06383202752257 84.44818308990776 95.76950335751057 81.72735712077419 102.47517468749858 79.20806624331878 108.66911645801373 76.68877536586338 114.86305822852889 74.49674447365797 120.26483702475645 72.30471358145255 125.666615820984 69.05136657906814 131.53611875357961 65.79801957668374 137.4056216861752 63.391761388821834 142.35915689310812 60.98550320095993 147.31269210004103 58.17606885195185 151.9282576030517 55.36663450294376 156.54382310606235 51.930462430049175 161.69542518851375 48.49429035715459 166.84702727096513 45.28287699588765 171.51507360068643 42.071463634620706 176.1831199304077 38.1130287049498 181.34322077237397 34.15459377527889 186.50332161434025 31.0782993611935 191.15847957944797 28.002004947108112 195.8136375445557 25.58215601145402 199.66733969303584 23.16230707579993 203.52104184151602 20.556346482497958 207.78333760225178 17.95038588919598 212.04563336298753 15.918342241030782 215.64339297722796 13.88629859286558 219.2411525914684 11.303805533095444 223.37417931170037 8.721312473325307 227.50720603193236 6.557695215607344 230.97892209690767 4.394077957889382 234.45063816188298 4.389653911601643 234.44830839484655 4.385229865313905 234.44597862781015 4.3808058190261665 234.44364886077375 4.376381772738427 234.44131909373732 6.020683923245471 230.6820925542885 7.664986073752514 226.92286601483966 9.792226580432482 222.54207439280296 11.91946708711245 218.16128277076626 13.885687435686322 214.47676470093472 15.851907784260195 210.79224663110318 18.403550216158266 206.41991498262547 20.95519264805634 202.04758333414776 23.587418200317654 198.33475117045055 26.219643752578968 194.62191900675336 29.363813278026555 189.97361043769374 32.50798280347414 185.3253018686341 36.10247286217901 179.92843867886245 39.696962920883884 174.53157548909076 42.92359746820046 169.94332371650358 46.15023201551704 165.35507194391644 49.36225402856462 160.06069454018018 52.5742760416122 154.76631713644394 55.49080677030925 150.3867246443233 58.407337499006296 146.00713215220264 60.97378438325505 141.12911453970895 63.5402312675038 136.25109692721526 66.32059405752244 130.32107986275702 69.10095684754108 124.39106279829876 71.1890456364782 119.02957299937891 73.27713442541533 113.66808320045907 75.16194065573211 107.2869231624817 77.0467468860489 100.90576312450433 79.0217399388793 93.6065768774672 80.9967329917097 86.30739063043008 83.08205889534366 81.66317746503904 85.16738479897762 77.01896429964802 87.93949357019547 72.67817058364534 90.71160234141331 68.33737686764266 93.45617604470885 65.9022163703012 96.2007497480044 63.46705587295976 99.49914181852407 61.261086206321544 102.79753388904372 59.055116539683326 106.9539860504575 57.45168129843201 111.11043821187128 55.848246057180695 117.08225574905197 53.581600059305345 123.05407328623266 51.314954061429994 126.93954006266819 50.997384917882854 130.8250068391037 50.679815774335715 136.98148896928538 49.887115597127725 143.13797109946705 49.094415419919734 148.3572034134706 48.95384511424971 153.57643572747415 48.813274808579685 162.1939784380779 48.89046233021958 170.81152114868163 48.96764985185948 178.33769874572755 49.6097167258565 185.86387634277344 50.25178359985352 185.86387634277344 50.261783599853516 Z" fill="hsl(0, 0%, 0%)"></path><path d="M 205.75469839757494 49.205716371969565 Q 205.75469839757494 49.205716371969565 211.3831420119784 45.40945833613995 217.01158562638187 41.613200300310325 221.04800205027314 39.740120935814 225.0844184741644 37.86704157131767 229.05301663066984 35.3138152000145 233.02161478717525 32.76058882871133 229.52345897586548 34.013689077243285 226.0253031645557 35.26678932577525 224.4706742472577 38.350752208499706 222.91604532995973 41.43471509122416 225.2972774357729 43.713799029676906 227.6785095415861 45.99288296812965 232.95293777378788 47.54601886822958 238.22736600598964 49.099154768329505 242.0990178351427 49.41756300212602 245.97066966429574 49.73597123592254 250.46454107146843 49.76939937006833 254.95841247864112 49.80282750421412 259.2681291495313 49.11404643980773 263.5778458204215 48.42526537540134 270.43386462828596 47.255354192354325 277.2898834361505 46.08544300930731 283.8574746173329 44.313401913249535 290.42506579851533 42.54136081719175 298.169366991042 40.41164654545322 305.91366818356863 38.28193227371469 312.5267814271033 36.29534600750432 319.139894670638 34.30875974129395 325.9337965632561 32.63009058456316 332.7276984558743 30.951421427832386 343.77890689526293 29.091642352106582 354.83011533465157 27.231863276380775 365.2560064488698 26.1870380457163 375.6818975630881 25.142212815051828 388.87864684907686 26.237403165028013 402.07539613506566 27.3325935150042 414.0070424878922 30.235128239693555 425.9386888407187 33.13766296438291 437.92856933000326 37.400514758634 449.91844981928784 41.6633665528851 465.5584361661365 51.020024012678654 481.19842251298525 60.37668147247221 494.4610738515114 70.38240401885162 507.7237251900376 80.38812656523102 516.9696766826514 88.86270616345377 526.2156281752654 97.3372857616765 532.8498699447744 104.55868072470315 539.4841117142835 111.78007568772982 543.0836577760809 115.59791690949564 546.6832038378784 119.41575813126144 549.0008069120288 122.4862972422873 551.3184099861791 125.55683635331317 553.9423128214473 129.8706329022176 556.5662156567155 134.18442945112207 557.8715545942684 138.58765336625495 559.1768935318214 142.99087728138784 560.6803836776858 147.5562318511969 562.18387382355 152.121586421006 563.3117237978645 155.63481325065138 564.4395737721791 159.14804008029677 565.3829508226886 161.5992289792964 566.326327873198 164.05041787829606 566.3218574267111 164.05265732202326 566.3173869802241 164.0548967657505 566.3129165337372 164.05713620947773 566.3084460872502 164.05937565320494 564.8902924138533 161.7964042452742 563.4721387404563 159.53343283734347 561.8768270390351 156.20458957439533 560.281515337614 152.8757463114472 558.2109474504973 148.42558608244934 556.1403795633805 143.9754258534515 554.7030151731014 139.91590983383418 553.2656507828224 135.85639381421686 551.3352392948718 131.32303609299186 549.4048278069212 126.78967837176683 547.6074355198323 123.47866039855224 545.8100432327435 120.16764242533765 542.5606284721399 116.05351854582881 539.3112137115363 111.93939466631998 532.6636347500282 104.74742446041802 526.01605578852 97.55545425451606 516.7608798028214 89.11654132376842 507.5057038171227 80.67762839302078 494.23657772506067 70.72058700261098 480.9674516329987 60.76354561220118 465.34696091143667 51.482847137890516 449.7264701898747 42.202148663579855 437.7465406365294 38.0297045989782 425.76661108318405 33.857260534376536 413.8826295295239 31.078961800463027 401.9986479758638 28.300663066549518 388.90916964812925 27.36272675446668 375.81969132039467 26.424790442383845 365.4797038553329 27.679601103812807 355.1397163902711 28.934411765241766 344.2471967817903 31.068847488359708 333.35467717330954 33.203283211477654 326.76696531990683 35.255996372934774 320.1792534665042 37.3087095343919 313.72319454568833 39.85176940267294 307.2671356248724 42.39482927095399 299.84408140024607 45.2563383347519 292.42102717561977 48.117847398549806 285.9678141784598 51.00639787740428 279.5146011812998 53.894948356258766 272.73372091144677 56.607671664302416 265.9528406415938 59.320394972346065 260.8428268739897 60.68376630404051 255.73281310638558 62.047137635734956 250.81282831177026 62.65908267593201 245.89284351715494 63.27102771612906 240.36448152219052 63.5339564363749 234.8361195272261 63.79688515662074 231.22431548377676 63.03847395186321 227.61251144032744 62.280062747105674 223.0905813711014 60.82052715206502 218.56865130187538 59.36099155702436 214.29575150704744 54.82768796040414 210.02285171221948 50.29438436378392 209.09100459068497 44.87958674450428 208.1591574691505 39.46478912522464 210.25096736458232 34.652665356644974 212.34277726001417 29.840541588065307 216.3695824933869 26.844398786967673 220.39638772675963 23.84825598587004 224.12132328146697 22.440446338010833 227.84625883617434 21.032636690151627 232.0340430098458 21.715205412304254 236.2218271835172 22.39777413445688 240.11736038799756 25.171267280059247 244.01289359247795 27.944760425661613 243.42329986834767 31.915652892558942 242.83370614421742 35.88654535945627 239.2803040613064 37.36326363429632 235.72690197839538 38.83998190913636 231.25056973597168 40.519195472082416 226.77423749354801 42.19840903502846 222.68238413060456 43.48632337294379 218.5905307676611 44.77423771085911 212.17708671726965 46.99892131397603 205.76364266687818 49.223604917092935 205.75917053222656 49.21466064453125 Z" fill="hsl(0, 0%, 0%)"></path></svg>