<svg xmlns="http://www.w3.org/2000/svg" version="1.1" xmlns:xlink="http://www.w3.org/1999/xlink" viewBox="0 0 800 800" style="overflow: hidden; display: block;" width="800" height="800"><defs></defs><g id="two-0" transform="matrix(1 0 0 1 0 0)" opacity="1"></g><path d="M 295.82148110440335 336.12475221870255 Q 295.82148110440335 336.12475221870255 300.23219471421874 355.45241252019787 304.6429083240342 374.78007282169324 305.37888868050726 388.57907473171787 306.11486903698034 402.3780766417425 306.49087028063036 414.2928173648661 306.8668715242803 426.20755808798964 307.5643374939076 434.8966060390572 308.2618034635349 443.58565399012474 308.155922247738 453.7076999277068 308.0500410319411 463.82974586528894 307.5386037952908 473.33751668849544 307.02716655864054 482.84528751170194 306.9210438661976 489.6203433307494 306.81492117375467 496.39539914979684 305.85278293759444 505.45206902484244 304.8906447014342 514.508738899888 300.7000889779599 524.9190387207731 296.50953325448563 535.3293385416581 288.84356056964 546.5727267455907 281.17758788479426 557.8161149495232 275.47656210606135 563.4416363744592 269.7755363273285 569.0671577993951 263.6065388839262 574.2199335777367 257.4375414405239 579.3727093560783 250.03694945514746 584.5103071958285 242.63635746977107 589.6479050355789 237.07830042070304 593.3711047209034 231.520243371635 597.0943044062279 223.18195059813706 602.249517000876 214.84365782463914 607.4047295955243 208.2275432167334 611.5782954357514 201.6114286088277 615.7518612759787 206.4900881183635 620.0863373261825 211.3687476278993 624.4208133763861 221.08923840858685 628.7265823978275 230.8097291892744 633.0323514192689 237.95700523574243 634.8714080580656 245.10428128221042 636.7104646968623 251.83652157900698 637.7852120795847 258.56876187580355 638.859959462307 267.0734272954078 639.7578207864448 275.578092715012 640.6556821105826 284.22548615045696 640.9227222302968 292.87287958590184 641.1897623500109 299.5963948776035 640.5253827039776 306.3199101693051 639.8610030579441 312.7419009898248 638.9132568782114 319.16389181034447 637.9655106984787 325.826957246088 636.9352859741 332.49002268183153 635.9050612497214 340.55804897347105 634.5584377221693 348.6260752651105 633.2118141946172 355.8246099494142 631.8836225355067 363.0231446337179 630.5554308763961 370.52395967727284 629.164246052012 378.02477472082774 627.773061227628 384.19619977983535 626.4089477198588 390.36762483884297 625.0448342120897 396.59365277284485 624.0120623358372 402.8196807068467 622.9792904595847 410.0178298378663 622.535535223614 417.21597896888596 622.0917799876433 428.69124081193047 621.5462054955053 440.166502654975 621.0006310033672 449.0967047948278 620.9702343767142 458.0269069346807 620.9398377500613 465.43263893964297 621.4129498863344 472.8383709446053 621.8860620226076 479.3456176736932 622.7833437490494 485.8528644027811 623.6806254754914 480.70133701981723 632.5339481222527 475.54980963685335 641.387270769014 469.4622966767173 637.2337839485945 463.37478371658125 633.080297128175 456.1330135108301 621.6098536958553 448.8912433050789 610.1394102635358 445.439293161257 604.2665246695518 441.98734301743514 598.3936390755679 435.50015962852655 582.0483193396435 429.01297623961796 565.7029996037191 426.335738088253 558.1730027055718 423.658499936888 550.6430058074244 421.67015376268444 537.6578255683806 419.6818075884808 524.6726453293369 418.0284385557073 513.129360286338 416.37506952293376 501.5860752433392 414.4513974091118 487.00365524350775 412.5277252952898 472.4212352436762 411.0570935843863 458.5955378087963 409.5864618734827 444.76984037391634 407.3508498392401 427.1640623119554 405.1152378049975 409.55828424999436 402.79142428580144 385.4570198308527 400.4676107666054 361.3557554117111 398.9777786415764 333.0276281836863 397.4879465165473 304.69950095566156 397.22943556768473 290.85266883119743 396.97092461882215 277.00583670673325 397.63284715374266 266.5138862591605 398.2947696886631 256.0219358115877 398.4256616806755 247.62748958770302 398.5565536726879 239.23304336381835 401.7616819083696 229.71090619214976 404.96681014405124 220.18876902048117 411.69351783841574 210.96355872999487 418.42022553278025 201.73834843950854 423.7081218743972 197.6907157608947 428.99601821601414 193.64308308228087 434.80940190831484 190.3118057421762 440.6227856006156 186.98052840207154 448.17203579218983 183.852973039402 455.721285983764 180.72541767673243 462.3303693728816 179.4815569669884 468.9394527619992 178.23769625724435 468.9410732862914 178.24242636305905 468.94269381058365 178.24715646887375 468.9443143348759 178.25188657468846 468.9459348591681 178.25661668050316 464.0716668408196 182.61367052580778 459.1973988224711 186.9707243711124 453.27126619008595 191.82409580827107 447.3451335577009 196.67746724542977 438.4265148634312 204.06638619805514 429.5078961691614 211.45530515068052 422.81624530791834 218.90519945130444 416.12459444667525 226.3550937519284 411.542453112222 233.6505092549092 406.9603117777688 240.94592475789 404.395642183124 248.65761784375655 401.8309725884791 256.3693109296231 400.4528788840628 266.65571722173894 399.07478517964654 276.94212351385477 399.6830397171562 290.73514222278004 400.29129425466584 304.5281609317054 402.2576009348877 332.7348332289353 404.2239076151095 360.94150552616526 407.19880419834186 384.86173882671744 410.1737007815742 408.7819721272697 413.3221476309178 426.2498877175756 416.4705944802614 443.7178033078814 419.1681930009577 457.16742782249884 421.865791521654 470.61705233711626 425.49964814670665 484.7945541147096 429.1335047717593 498.97205589230305 432.0565303359703 509.76503447828645 434.9795559001813 520.5580130642699 439.50912520693396 531.7948939174316 444.03869451368655 543.0317747705934 446.78085257957605 549.9941034461328 449.52301064546555 556.9564321216723 454.5173965178134 565.7124497493796 459.5117823901613 574.4684673770869 465.56570890182945 584.428738460989 471.6196354134977 594.3890095448913 477.12411699099914 601.0155088349727 482.62859856850054 607.6420081250541 487.1189678678643 613.8354305948069 491.6093371672281 620.0288530645598 495.18759287620105 626.4070543895277 498.76584858517407 632.7852557144957 491.6731667773033 642.4724312030044 484.58048496943263 652.1596066915131 478.2026731337613 650.6458478021027 471.82486129809007 649.1320889126922 464.5495442468035 647.4316526606742 457.274227195517 645.7312164086561 448.846424845314 644.9189990084719 440.41862249511104 644.1067816082879 429.3789205021995 643.9828678625493 418.33921850928795 643.8589541168108 406.36479493065565 644.716880963893 394.3903713520233 645.5748078109752 388.12595193686053 646.6486232418328 381.86153252169777 647.7224386726903 374.2684843465015 649.2341760292659 366.6754361713053 650.7459133858416 359.6093988950135 651.9980550523351 352.5433616187217 653.2501967188285 344.047976403813 655.141564518065 335.5525911889042 657.0329323173015 328.7433957929487 657.9547483066901 321.9342003969932 658.8765642960786 315.07373179274316 659.688473885872 308.2132631884931 660.5003834756653 300.6842612876069 661.1429891421196 293.1552593867207 661.7855948085738 283.8509148736133 662.2945132830384 274.546570360506 662.803431757503 264.8956338946151 662.8537280202079 255.24469742872427 662.9040242829128 247.5917277944614 661.9845009328517 239.93875816019857 661.0649775827906 231.65547989823415 659.6283230994133 223.3722016362697 658.1916686160359 213.1870304191331 655.5277543373248 203.0018592019965 652.8638400586137 193.10760244494136 644.9017946542886 183.21334568788623 636.9397492499635 179.52709948105638 630.7713644162221 175.84085327422656 624.6029795824808 176.51582251950612 615.1226980697676 177.1907917647857 605.6424165570544 181.41835719135617 600.8981033263155 185.64592261792666 596.1537900955766 192.43819442945647 592.9241778607252 199.2304662409863 589.6945656258737 205.91772456723987 586.9461295434919 212.60498289349346 584.1976934611101 222.0549340596944 579.2648740734485 231.50488522589538 574.3320546857868 238.13299101505757 569.270060710211 244.76109680421976 564.2080667346354 250.35042033221566 559.5287089677245 255.93974386021156 554.8493512008135 260.90504779273056 550.0906561727654 265.8703517252496 545.3319611447174 273.1027306065497 535.8192098468301 280.3351094878499 526.3064585489427 284.95872722493255 518.7223737401046 289.5823449620152 511.13828893126646 292.25096911291314 503.2401727762632 294.91959326381107 495.34205662125987 295.98681857325084 488.7359046858246 297.05404388269056 482.12975275038934 297.8867348719775 472.90254427536445 298.71942586126454 463.67533580033955 298.94281809068764 453.798859029652 299.16621032011074 443.92238225896443 299.2217054468044 435.3066265921135 299.277200573498 426.6908709252626 298.1426821867159 414.8887551778013 297.0081637999337 403.08663943034 295.606712210606 389.4150852147238 294.20526062127834 375.7435309991075 295.00341319593747 355.9350607769212 295.80156577059665 336.12659055473495 295.8115234375 336.12567138671875 Z" fill="hsl(0, 0%, 0%)"></path><path d="M 298.9439365852927 349.7426923464542 Q 298.9439365852927 349.7426923464542 293.7760353680784 343.2952255231903 288.6081341508641 336.84775869992643 284.4544571617829 330.2181959954231 280.3007801727017 323.58863329091986 275.77592479458553 313.71638319027693 271.2510694164694 303.844133089634 267.64266202555484 293.44355445699836 264.0342546346402 283.0429758243627 261.48182408480943 273.67648726673565 258.9293935349786 264.30999870910864 257.74176380843255 250.0136748397223 256.5541340818865 235.71735097033599 256.22615472982613 223.32514202509356 255.89817537776574 210.93293307985113 255.91108739621671 201.06578651079707 255.92399941466772 191.19863994174298 256.4812143941034 183.2006092786569 257.03842937353915 175.20257861557084 257.95511259264276 167.7904357972363 258.8717958117464 160.37829297890178 263.33381743984864 147.52596225128423 267.79583906795085 134.67363152366667 271.1479762185754 128.80025149268394 274.50011336920005 122.9268714617012 277.9349324638073 117.5859744286372 281.3697515584146 112.24507739557322 287.14414491143725 106.02556362403801 292.91853826446 99.80604985250281 297.7255371698611 95.13401945775684 302.5325360752623 90.46198906301085 309.51754772566164 85.59455734830236 316.50255937606096 80.72712563359387 322.06104909792805 77.0135807819579 327.61953881979514 73.30003593032191 333.26752730167453 70.21380518322476 338.91551578355393 67.12757443612762 345.90855246255103 64.48381733584937 352.9015891415481 61.84006023557112 364.7887476308249 58.42596597001476 376.67590612010173 55.01187170445839 386.54364191992227 53.262239139684894 396.4113777197428 51.5126065749114 404.54472693469404 51.271369504714826 412.6780761496452 51.03013243451825 420.84231569869144 52.4721972897906 429.0065552477376 53.914262145062956 436.6288011506519 58.79287176063913 444.2510470535662 63.6714813762153 449.43456940780254 70.46024664729575 454.6180917620389 77.2490119183762 456.67918998460095 83.88155203440888 458.74028820716296 90.51409215044157 459.27308861324013 103.52571932070302 459.8058890193173 116.53734649096445 457.5705414718543 127.14715681611293 455.33519392439126 137.7569671412614 451.03407692109715 146.1691048398291 446.73295991780304 154.58124253839676 441.6043105909955 160.12695029285828 436.4756612641879 165.67265804731983 433.5588810204024 167.70402726137365 430.6421007766169 169.73539647542748 430.63825655213464 169.73219929884033 430.6344123276523 169.72900212225315 430.63056810316994 169.72580494566597 430.62672387868764 169.72260776907882 431.06174553491246 166.47579651165216 431.4967671911372 163.2289852542255 432.25086478359174 156.55778067172992 433.0049623760462 149.88657608923435 433.3511094590581 142.03611997085216 433.69725654206997 134.18566385246996 433.4403054350661 125.51163792268255 433.18335432806225 116.83761199289516 431.83566445262005 107.58904745439378 430.48797457717785 98.34048291589238 427.63718320169664 91.35171756780792 424.7863918262155 84.36295221972347 418.4628568582134 80.44750222638523 412.13932189021125 76.53205223304698 405.26964216423926 75.86776059941997 398.3999624382673 75.20346896579295 389.79041210845674 75.86174606147159 381.18086177864615 76.52002315715025 370.52311232824115 78.85345517323853 359.86536287783616 81.18688718932682 353.89029413003345 83.2116403501698 347.9152253822308 85.23639351101278 337.4809429711551 90.60067778386491 327.04666056007943 95.96496205671703 316.3632508473943 103.93552121720862 305.6798411347092 111.90608037770022 300.5892038727627 117.15119441541196 295.49856661081617 122.39630845312371 288.236342260815 131.87835610030692 280.9741179108138 141.36040374749015 275.573161501503 151.92148039724182 270.1722050921922 162.4825570469935 268.42338241715413 169.47256829747462 266.67455974211606 176.46257954795576 265.2100679531669 183.93497175272864 263.7455761642177 191.40736395750153 263.2516028866528 200.94090450313627 262.7576296090878 210.47444504877103 264.0703601763282 222.48053199292738 265.38309074356863 234.48661893708373 268.05595494478916 247.84750617062562 270.7288191460097 261.2083934041675 273.0098319142693 270.1668438774998 275.2908446825289 279.125294350832 278.80517329281975 289.1751490438566 282.3195019031106 299.2250037368812 286.0538817392279 309.13756695592133 289.78826157534513 319.05013017496145 292.317822501303 326.38914426412884 294.84738342726087 333.7281583532962 296.9046042803591 341.73095321826474 298.9618251334573 349.7337480832333 298.952880859375 349.73822021484375 Z" fill="hsl(0, 0%, 0%)"></path><path d="M 434.0258180908641 70.1487992171513 Q 434.0258180908641 70.1487992171513 440.7234180315337 61.87535476437719 447.4210179722033 53.601910311603085 459.949677522438 46.52107912525213 472.4783370726727 39.440247938901166 479.34856488373646 35.19109267620924 486.2187926948002 30.94193741351731 493.97474462499383 27.4469990971264 501.7306965551874 23.95206078073549 514.0228763512793 18.89161165736016 526.3150561473711 13.831162533984827 532.6669464707363 11.972878461336427 539.0188367941014 10.114594388688026 551.3559023054838 7.900324649912693 563.6929678168661 5.68605491113736 574.980869327901 5.364867506610404 586.2687708389359 5.043680102083448 597.1912588984112 7.367141426366785 608.1137469578864 9.690602750650122 617.229133693417 14.327553576530331 626.3445204289475 18.96450440241054 633.5779755741803 28.030255798439395 640.8114307194131 37.09600719446825 643.2578650358762 42.93795863303724 645.7042993523391 48.77991007160623 647.0429383464453 56.66447536297238 648.3815773405515 64.54904065433854 648.9392175885346 70.9295476382468 649.4968578365175 77.31005462215506 648.6690267131385 85.17236847608123 647.8411955897593 93.0346823300074 645.2108595321484 104.77188395499005 642.5805234745376 116.50908557997269 639.3827688955721 122.79172813261063 636.1850143166065 129.07437068524857 629.8675548064734 138.65752301271996 623.5500952963403 148.24067534019136 615.2409325140459 156.08876290948956 606.9317697317515 163.93685047878773 601.021766755699 167.3719417169754 595.1117637796464 170.8070329551631 583.1694705518526 175.3850214264068 571.2271773240586 179.9630098976505 559.7538090916498 181.91499260946483 548.280440859241 183.86697532127914 542.0013895051027 183.5146596369339 535.7223381509643 183.16234395258869 525.3944035370162 181.5615125635815 515.066468923068 179.9606811745743 506.86299813969737 176.86766760067647 498.65952735632675 173.77465402677865 489.69702875046687 166.1096234424727 480.73453014460705 158.44459285816671 474.33127793545975 146.0328525439386 467.92802572631246 133.62111222971046 465.24112661720204 121.00320612550233 462.5542275080916 108.3853000212942 462.28824906589546 99.99988359519087 462.0222706236992 91.61446716908753 464.72902371999885 82.16233552532212 467.43577681629847 72.71020388155671 471.9270014069534 65.7045495742645 476.4182259976083 58.69889526697231 484.1541586647959 53.02611178824228 491.8900913319834 47.35332830951226 499.2089505273234 44.94458809059091 506.52780972266333 42.53584787166956 515.427614095666 42.30422646282988 524.3274184686686 42.0726050539902 531.0491102256644 44.04323218366311 537.7708019826603 46.013859313336006 542.9138762790922 49.80935009146786 548.056950575524 53.60484086959972 551.6634470375648 59.57655231952194 555.2699434996056 65.54826376944415 556.755474917355 72.60520366841668 558.2410063351043 79.66214356738921 557.3950964405165 83.12666295573659 556.5491865459287 86.59118234408398 556.5441872347994 86.59126533946642 556.5391879236703 86.59134833484886 556.5341886125411 86.5914313302313 556.5291893014119 86.59151432561374 555.3306662151895 84.9417304828739 554.1321431289671 83.29194664013404 548.5507165129754 79.54533256563201 542.9692898969839 75.79871849112997 535.1840519974592 73.42984747965235 527.3988140979345 71.06097646817474 520.841049342324 71.90341562484662 514.2832845867135 72.74585478151847 507.67510469856927 75.57841534715755 501.06692481042506 78.4109759127966 496.47991069737725 85.14818397231124 491.8928965843295 91.88539203182589 491.60062872610945 98.36749021579878 491.30836086788935 104.84958839977168 493.2259950726931 113.79207592150428 495.1436292774968 122.73456344323687 499.06568011197004 130.43654346103588 502.98773094644326 138.1385234788349 509.8832372889358 143.92917965742976 516.7787436314284 149.71983583602463 522.9792736805749 151.92129822962605 529.1798037297215 154.12276062322746 537.4682387656472 155.13177861017215 545.756673801573 156.14079659711683 554.321558301199 155.0228274581213 562.8864428008251 153.9048583191258 572.1309740508436 150.48672562779774 581.3755053008621 147.0685929364697 588.7026682605227 142.5226673343446 596.0298312201834 137.9767417322195 602.1209033422576 131.17394237563704 608.2119754643318 124.37114301905459 612.9106581115906 116.25555407696699 617.6093407588494 108.13996513487939 619.9554477044717 99.24221974553825 622.301554650094 90.34447435619711 622.4988143940793 79.59699608537944 622.6960741380647 68.84951781456178 620.485631001816 59.64019769625318 618.2751878655675 50.43087757794459 612.9689221645224 43.30169103650444 607.6626564634773 36.17250449506428 600.5660687451798 32.811543513541196 593.4694810268824 29.45058253201811 584.8629737744064 27.54319024546414 576.2564665219305 25.635797958910167 564.9030191238746 26.17116012396054 553.5495717258187 26.706522289010916 542.6127270575392 28.472798222050464 531.6758823892598 30.239074155090012 519.5815646599403 33.9688969623427 507.487246930621 37.698719769595385 500.2284249056721 40.4914045760903 492.9696028807232 43.28408938258521 485.7613511161529 46.74588071615812 478.5530993515827 50.20767204973103 466.4561095068284 57.02016507163965 454.3591196620741 63.83265809354828 444.19808389107374 66.99900341280787 434.0370481200734 70.16534873206744 434.03143310546875 70.15707397460938 Z" fill="hsl(0, 0%, 0%)"></path><path d="M 447.6434825581502 153.91672451270773 Q 447.6434825581502 153.91672451270773 453.63773913031747 153.06294217276223 459.63199570248474 152.20915983281674 467.3989447024951 152.91524833813997 475.16589370250546 153.62133684346324 479.96136999194414 154.1962375093933 484.7568462813828 154.7711381753234 489.2972717758213 155.8816766025177 493.83769727025975 156.99221502971204 497.66436634648335 158.26321921165635 501.49103542270694 159.53422339360068 505.04979085641406 161.24130596118715 508.6085462901212 162.94838852877362 511.208125440942 164.50996965308326 513.8077045917629 166.0715507773929 515.8154425718667 168.06706708316744 517.8231805519704 170.062583388942 519.6779922590869 172.802688963059 521.5328039662033 175.54279453717604 522.7597244070421 179.13045978555346 523.9866448478808 182.71812503393087 524.030832813248 187.56395963541763 524.0750207786152 192.40979423690436 523.0128313763017 197.2897231018704 521.9506419739882 202.16965196683645 520.2490740776409 206.45460264713142 518.5475061812936 210.73955332742636 515.3532481480793 215.48515747874978 512.1589901148649 220.2307616300732 509.04667436673026 223.8751754434458 505.93435861859564 227.5195892568184 501.3602804242498 230.7744915691887 496.78620222990395 234.02939388155903 493.1259757505062 236.2073698739345 489.4657492711085 238.38534586631 486.1100907591402 240.0402145004744 482.75443224717185 241.6950831346388 478.4416958826436 242.720437652928 474.1289595181154 243.7457921712172 470.4627222400543 244.3008380520498 466.79648496199314 244.8558839328824 462.78560172180926 245.09199186231965 458.7747184816253 245.3280997917569 455.5798701159308 244.9566995049155 452.3850217502364 244.58529921807406 449.4410912172657 243.87027594379094 446.497160684295 243.1552526695078 442.8791311344237 241.15934174418186 439.26110158455236 239.1634308188559 436.2978134946542 236.31822019154572 433.33452540475594 233.47300956423553 430.8814828237445 229.64666753756575 428.42844024273296 225.82032551089594 426.51392454092854 220.28770976432713 424.59940883912407 214.75509401775832 423.67819089114596 209.9312102583175 422.75697294316785 205.10732649887663 422.93940163260254 199.04378327107318 423.1218303220372 192.98024004326973 423.29881319762615 188.6163132473872 423.4757960732151 184.25238645150472 423.66059130538054 181.12143946109592 423.84538653754595 177.99049247068714 424.44463755809943 175.24800319040955 425.0438885786529 172.50551391013195 426.22850612631373 168.20965409723976 427.4131236739746 163.9137942843476 431.07161844259497 159.58298496162917 434.7301132112153 155.25217563891073 439.45066861687974 153.31632107499888 444.1712240225442 151.380466511087 449.0188579691437 150.36252974688094 453.8664919157432 149.34459298267487 459.66662571319137 149.25936753222493 465.4667595106395 149.174142081775 470.04372980468804 149.29189230836803 474.6207000987365 149.40964253496108 478.41076174214396 149.6363825353289 482.2008233855514 149.86312253569668 486.3055968333374 150.58731446839937 490.41037028112333 151.31150640110204 493.51591469485436 152.10303334723403 496.6214591085853 152.89456029336603 499.9431410975203 154.49797308498142 503.26482308645535 156.1013858765968 507.07946323695035 158.45194298824632 510.8941033874454 160.80250009989584 512.6292732068462 163.19861835275697 514.3644430262469 165.59473660561807 516.0417437292563 170.44505011388384 517.7190444322655 175.2953636221496 517.2869006613744 178.9953111240833 516.8547568904833 182.69525862601694 515.6235410945028 186.209607553755 514.3923252985223 189.7239564814931 511.7099975388079 193.5325111224244 509.02766977909346 197.34106576335574 506.30529951278356 200.2357712120519 503.58292924647367 203.13047666074806 500.8061148762683 205.39579362083606 498.0293005060629 207.66111058092403 494.1321244261491 209.5637024364359 490.23494834623534 211.4662942919478 487.1632055370752 212.89217118098554 484.0914627279151 214.31804807002328 480.2279263829338 215.04597474865602 476.36439003795255 215.7739014272888 473.57886577937654 216.14284028452855 470.79334152080054 216.5117791417683 466.57314230593386 216.59319841610392 462.35294309106723 216.6746176904395 457.7703810676833 213.43382134513018 453.1878190442993 210.19302499982086 450.93907490448134 205.88216086712822 448.69033076466343 201.57129673443558 448.204906929621 198.67088627011142 447.7194830945786 195.77047580578727 447.7086961143302 191.14911619373856 447.6979091340818 186.52775658168983 449.36190602566126 182.213088933015 451.0259029172408 177.8984212843402 455.6181569903981 175.45304455081327 460.2104110635555 173.00766781728632 463.33792600523344 172.18079475151694 466.4654409469114 171.35392168574754 469.216797270388 170.98029674944326 471.9681535938646 170.60667181313895 475.8091209041611 171.5191983206953 479.6500882144576 172.43172482825167 482.94241072112345 174.2981013029455 486.2347332277893 176.16447777763932 488.7642523930889 178.38301026703215 491.29377155838847 180.60154275642498 493.6318439533226 184.01558575311805 495.9699163482566 187.4296287498111 497.60405299180184 190.48691929067218 499.23818963534706 193.54420983153327 500.09690500707416 197.18617262815366 500.9556203788012 200.82813542477405 501.18485565684296 206.38019638028078 501.4140909348847 211.93225733578754 499.45241060296956 215.89738206424124 497.4907302710544 219.86250679269497 494.9065583812443 222.83689100114515 492.3223864914342 225.81127520959532 487.64897317696875 228.49345433190067 482.9755598625033 231.175633454206 478.36722806966895 232.60724799877528 473.75889627683466 234.03886254334458 469.9127611171941 234.70675162299665 466.0666259575536 235.3746407026487 461.811038162906 235.28709040020476 457.5554503682585 235.19954009776086 454.2601511046871 234.61926469509294 450.9648518411158 234.03898929242501 447.5486236154229 231.99753422144914 444.13239538973005 229.95607915047324 441.3832789972025 225.49347675567458 438.63416260467494 221.03087436087588 437.56614222508233 216.16217743633695 436.4981218454898 211.29348051179798 436.2086701721359 207.94839529990736 435.919218498782 204.6033100880167 436.364830491769 201.62478487739776 436.8104424847559 198.64625966677877 438.3504962913925 195.31369747433718 439.8905500980291 191.98113528189555 441.8560675295744 189.19220212144117 443.8215849611197 186.4032689609868 447.1765193572168 184.02347353848876 450.53145375331394 181.64367811599075 453.2061890805985 180.26684126232203 455.88092440788313 178.8900044086533 458.5383050887359 178.147137291801 461.19568576958875 177.40427017494866 464.25790110086814 177.09656942343284 467.3201164321476 176.78886867191702 470.09881516957114 176.92445590745507 472.87751390699464 177.0600431429931 476.2819363941311 178.18895749890763 479.68635888126755 179.31787185482216 482.62695505778856 181.2198566803931 485.5675512343096 183.12184150596406 487.8410658759035 185.29445598387184 490.11458051749736 187.46707046177966 492.0878188800385 190.5073405121591 494.06105724257964 193.5476105625385 495.4585143807227 196.0222661679878 496.8559715188658 198.4969217734371 497.63069397231044 201.61230984553998 498.4054164257551 204.7276979176429 498.8157754513618 208.47918538008827 499.2261344769684 212.23067284253366 498.3635513022306 216.1021284453593 497.5009681274928 219.97358404818496 494.4792272998959 222.82892198332775 491.4574864722991 225.68425991847053 486.91850311206053 225.89949255108513 482.37951975182193 226.11472518369973 478.4997620143522 223.9679707577152 474.62000427688247 221.82121633173062 472.3581506988702 217.41973392014398 470.0962971208579 213.01825150855734 469.9995762012534 209.6406397120772 469.90285528164884 206.26302791559704 470.2954409620647 203.60424400822885 470.6880266424805 200.94546010086066 470.69302579645836 200.94536812528918 470.6980249504362 200.94527614971773 470.70302410441406 200.94518417414628 470.7080232583919 200.9450921985748 471.6773619387659 204.7192429851749 472.64670061913995 208.49339377177498 474.1607260311289 211.40443051927969 475.6747514431178 214.3154672667844 478.221571347289 215.9494470873977 480.7683912514601 217.58342690801095 483.912980263896 217.87667329577596 487.0575692763318 218.16991968354094 488.52881137625104 215.50732595751185 490.0000534761703 212.84473223148277 489.7240186266188 209.80352238738948 489.4479837770673 206.76231254329622 487.8200588695094 202.74626982832467 486.1921339619515 198.73022711335315 483.15047845411067 194.9281085290218 480.1088229462698 191.12598994469047 476.0199631496476 188.914279270196 471.9311033530254 186.70256859570156 467.5074441674699 186.5061639727362 463.0837849819144 186.30975934977081 459.0887134570141 187.3889613937647 455.09364193211377 188.4681634377586 452.691085263275 189.9536687684747 450.28852859443623 191.43917409919084 447.289141597131 195.8950691792573 444.2897545998257 200.35096425932377 443.59956613789075 205.08644975743772 442.90937767595585 209.82193525555167 443.8489056571482 213.57041300365228 444.78843363834045 217.31889075175292 446.7629604476597 220.38175740660478 448.73748725697885 223.4446240614566 453.20829819972596 225.60909986290295 457.6791091424731 227.77357566434932 461.25000293952905 227.78470603111555 464.82089673658504 227.79583639788174 468.0564875647763 227.27922468541794 471.2920783929676 226.76261297295412 474.8464876652522 225.4071668301919 478.40089693753686 224.05172068742965 483.3737208447061 219.553933658896 488.3465447518754 215.05614663036235 489.7940141125581 211.21542854674152 491.24148347324086 207.37471046312066 490.66708076783283 202.87016661988633 490.0926780624248 198.36562277665197 488.7595323075877 195.95015302305012 487.42638655275056 193.53468326944827 485.61599921435857 191.15509623045648 483.80561187596663 188.77550919146472 480.1495135251199 186.07028048207093 476.4934151742732 183.36505177267713 472.8634282970727 182.89546770901032 469.2334414198722 182.4258836453435 465.02666357177395 183.57053990258942 460.81988572367567 184.71519615983533 459.83344783007385 187.8103177330006 458.847009936472 190.9054393061659 458.9949980773449 194.35586024172267 459.1429862182179 197.8062811772794 460.18195629297145 200.667118079477 461.2209263677249 203.5279549816746 463.9534703548298 205.67327122296945 466.68601434193465 207.81858746426428 470.8353672657822 207.7378177783084 474.98472018962985 207.65704809235248 477.87766596723645 207.23499446269568 480.7706117448431 206.8129408330389 483.67959842736497 205.53298170257187 486.5885851098868 204.25302257210484 489.68026070617327 202.62234328883477 492.7719363024597 200.99166400556467 495.105954001255 199.1934736216436 497.43997170005025 197.39528323772254 499.65963564480796 194.97886674187535 501.8792995895657 192.56245024602816 503.74179332200026 189.5410304227192 505.60428705443485 186.51961059941019 506.566625274908 183.88026559014907 507.5289634953811 181.24092058088792 507.90793067190873 177.3438203014785 508.28689784843635 173.44672002206906 507.08837912659226 170.0728798138208 505.8898604047481 166.69903960557258 503.1057583116891 164.1972361652987 500.32165621863015 161.69543272502483 497.56930107214964 160.10842524881485 494.8169459256691 158.5214177726049 492.1307818682018 157.47283590841255 489.44461781073454 156.4242540442202 485.5886456111008 155.65215939196855 481.7326734114671 154.8800647397169 478.1250936418282 154.41951162658916 474.5175138721893 153.9589585134614 470.1884126888493 153.87623907502822 465.8593115055093 153.79351963659505 460.6208585058624 154.65331210293772 455.38240550621543 155.5131045692804 451.25718127215004 156.71873937399806 447.13195703808464 157.92437417871574 441.721610028678 160.99390703766056 436.31126301927134 164.06343989660536 434.1109662865249 167.21161544111231 431.91066955377846 170.35979098561924 430.1250309157682 174.48604927996774 428.3393922777579 178.61230757431625 427.699962603502 181.54173754162576 427.0605329292461 184.4711675089353 426.7148536858658 188.7001681494695 426.3691744424856 192.92916879000373 426.7385418013264 198.58413474163663 427.1079091601672 204.23910069326953 428.0432375069314 208.5711812384423 428.9785658536956 212.90326178361505 431.4323943748142 217.58054599924594 433.8862228959328 222.25783021487683 436.0448336134581 225.45447434840355 438.2034443309834 228.65111848193024 440.4243427707306 230.99703571230896 442.64524121047776 233.3429529426877 445.55853520462495 235.06131689390912 448.4718291987721 236.77968084513057 453.5264323309883 238.41233541372915 458.58103546320456 240.04498998232773 462.41486885929805 239.94908491082407 466.2487022553916 239.8531798393204 469.707096952395 239.62701865911555 473.1654916493984 239.40085747891067 477.1164516140661 238.58807773593526 481.06741157873375 237.77529799295982 484.4054877228927 236.5218354379354 487.74356386705165 235.26837288291102 491.3331576722917 233.43659786947464 494.9227514775318 231.60482285603825 498.9069303407895 228.25839812348354 502.8911092040472 224.91197339092884 505.74892157685946 221.5240172373248 508.6067339496717 218.13606108372082 510.9596925889058 213.41836538168016 513.3126512281399 208.7006696796395 514.7464823525582 204.8859591341307 516.1803134769766 201.07124858862187 516.8287711272 196.8100058983304 517.4772287774233 192.5487632080389 517.2963968250463 188.6361949184211 517.1155648726692 184.72362662880332 516.3963360814995 181.87019109480238 515.6771072903298 179.01675556080144 514.369434935919 176.51818474066195 513.0617625815082 174.01961392052246 509.80300043134207 170.414674400646 506.54423828117586 166.80973488076953 503.35303700599013 164.9177038236306 500.1618357308044 163.02567276649168 496.6064386279006 161.49495735435556 493.05104152499683 159.96424194221942 488.7220431512679 158.73257077764356 484.39304477753893 157.50089961306773 479.65285454066003 156.81479069266356 474.9126643037811 156.1286817722594 467.32620389903684 155.28437949999477 459.73974349429255 154.44007722773011 453.69211240166493 154.188388393644 447.6444813090373 153.9366995595579 447.64398193359375 153.9267120361328 Z" fill="hsl(0, 0%, 0%)"></path><path d="M 412.0411336714861 227.21517288763067 Q 412.0411336714861 227.21517288763067 415.9227758688807 226.49282261694225 419.80441806627533 225.7704723462538 423.33819569331246 225.73246069480845 426.8719733203496 225.6944490433631 430.5100514226435 225.87175839033722 434.1481295249375 226.0490677373113 437.61977442835087 226.63506429032412 441.0914193317642 227.22106084333697 444.4249244081192 227.982600132987 447.7584294844742 228.74413942263698 452.08021346666555 231.02985967956255 456.40199744885695 233.3155799364881 460.3261648795776 235.80034873541675 464.2503323102983 238.2851175343454 468.6249085768657 242.97494587216337 472.99948484343315 247.66477420998135 476.52851572527874 252.1249419398535 480.0575466071243 256.5851096697257 483.3470191896645 260.5605962616603 486.63649177220464 264.53608285359496 490.0463400221156 269.0360172193423 493.4561882720265 273.5359515850896 496.2808869615578 276.8062208070485 499.10558565108914 280.0764900290074 501.8692665787822 282.8626640179088 504.6329475064752 285.6488380068102 508.3177350544353 289.37637934830866 512.0025226023954 293.1039206898071 515.9416520918305 296.51437389617735 519.8807815812655 299.92482710254757 524.1952400835657 303.25215840869146 528.509698585866 306.5794897148354 531.9976980656592 308.67671235479816 535.4856975454524 310.7739349947609 538.2928895674181 312.43603120770774 541.1000815893839 314.09812742065463 544.5639728596184 315.59806789999936 548.0278641298529 317.09800837934415 551.3306645145396 318.24210956340596 554.6334648992265 319.3862107474677 558.5892479258451 319.68099813501107 562.5450309524638 319.9757855225544 566.2583348809994 319.4762852891098 569.971638809535 318.9767850556652 573.57817523453 317.5256628742695 577.1847116595251 316.07454069287394 578.7952160309235 314.80910248992814 580.4057204023218 313.5436642869823 581.021954591648 313.37392668665484 581.638188780974 313.20418908632746 582.2771373245905 313.1868631615436 582.9160858682071 313.16953723675977 583.5406130467381 313.30562997108194 584.1651402252693 313.4417227054041 584.7389484897554 313.7233243827192 585.3127567542416 314.00492606003434 585.8024963413907 314.41566997762584 586.2922359285396 314.82641389521734 586.6694431505362 315.34242759729614 587.0466503725326 315.8584412993749 587.2894019279111 316.4497340453313 587.5321534832894 317.04102679128766 587.6263406402456 317.67323261894495 587.720527797202 318.30543844660224 587.6606763937483 318.94181352355287 587.6008249902947 319.5781886005035 587.3904135928119 320.1817467773752 587.1800021953292 320.7853049542469 586.8312599241252 321.32096740144175 586.4825176529213 321.85662984863666 586.015713425184 322.29326383955583 585.5489091974468 322.72989783047495 584.9911736968252 323.04212617705093 584.4334381962035 323.35435452362697 586.0393815148582 320.3384453672486 587.645324833513 317.3225362108703 586.6229881330285 320.7558313913728 585.6006514325438 324.18912657187525 583.7690238845746 326.42643327100404 581.9373963366054 328.6637399701328 578.1617979329267 331.32497720040095 574.386199529248 333.9862144306691 571.0365412031401 335.49439823120383 567.6868828770323 337.0025820317386 564.3619062900968 338.2156562220751 561.0369297031613 339.4287304124116 557.584248752667 340.2822651863778 554.1315678021729 341.13579996034406 550.6090988382148 341.5063578501668 547.0866298742568 341.87691573998956 542.6690503885216 341.50506394476594 538.2514709027864 341.1332121495423 534.5621364674352 340.6770306627368 530.8728020320839 340.2208491759313 525.9520037868265 338.0722435063426 521.031205541569 335.923637836754 517.1516424105421 333.8069107064563 513.2720792795153 331.69018357615863 509.47064611414544 328.78948300903056 505.6692129487755 325.8887824419025 500.6902583290587 321.36841800889096 495.7113037093419 316.8480535758794 491.8403198897274 312.685992451696 487.96933607011294 308.52393132751257 483.9965489893179 303.98685671526204 480.02376190852283 299.4497821030115 476.9874364748232 296.1402933175828 473.95111104112357 292.8308045321541 471.3523540807754 290.3621743589239 468.7535971204273 287.8935441856936 466.0836678523357 285.03107286711816 463.4137385842441 282.1686015485427 461.0259141590051 279.8657792924562 458.6380897337661 277.5629570363697 455.84393750927165 274.3821343241922 453.04978528477716 271.2013116120147 450.6231183982415 268.75010545485884 448.19645151170585 266.298899297703 445.71351074206893 264.1329581985351 443.23056997243197 261.96701709936724 440.1897662335442 259.4822265240767 437.14896249465653 256.9974359487861 434.09183470796575 254.69431231523757 431.034706921275 252.39118868168902 428.326868203176 250.86813952956877 425.61902948507696 249.3450903774485 422.4335891951067 247.66181391263288 419.2481489051364 245.97853744781725 414.3238673666473 244.4353106795625 409.39958582815814 242.89208391130774 405.7203448259627 242.35114338754232 402.04110382376723 241.8102028637769 398.6766043166041 241.63981297165054 395.31210480944094 241.46942307952415 395.31111994021205 241.4645210358073 395.3101350709831 241.45961899209044 395.30915020175416 241.45471694837357 395.3081653325253 241.44981490465673 398.71102107424133 240.76723238675208 402.1138768159574 240.08464986884746 405.98374903761305 240.04143048047936 409.8536212592687 239.99821109211126 412.6590228003323 240.3043202777632 415.46442434139595 240.61042946341513 418.19517985653147 241.51664304804027 420.9259353716669 242.4228566326654 424.37502648643215 243.87281656443548 427.82411760119743 245.32277649620556 430.81010679773345 246.92197647116194 433.7960959942695 248.52117644611832 437.0527160610628 250.73114014282362 440.3093361278562 252.94110383952892 443.62426607915177 255.4085592242681 446.93919603044736 257.87601460900726 449.49408855296963 260.2789432908492 452.04898107549184 262.68187197269117 454.39258657216163 265.31418524511713 456.73619206883143 267.9464985175431 459.49940646118523 271.0601355845288 462.2626208535391 274.1737726515144 464.45080956169306 276.76460977930446 466.63899826984704 279.35544690709446 469.0693963192978 282.34070584837565 471.4997943687486 285.32596478965684 473.8183545572134 288.1165150331159 476.13691474567815 290.9070652765749 479.00398490109717 294.30535623997383 481.8710550565162 297.7036472033728 486.1218068417769 301.86613075472417 490.3725586270376 306.02861430607555 494.5175532054955 309.5858863839333 498.6625477839534 313.1431584617911 504.04457519462755 316.86905547211643 509.42660260530164 320.5949524824418 513.0036221751577 322.93031399706217 516.5806417450137 325.26567551168256 520.1453096591874 326.9689508439549 523.7099775733612 328.67222617622724 527.8048321808965 329.8450578984623 531.8996867884318 331.0178896206973 535.2567471629606 331.29340192807246 538.6138075374893 331.5689142354476 542.275836933457 331.5020042950977 545.9378663294248 331.43509435474783 548.6760263748047 331.10647188931017 551.4141864201847 330.7778494238725 554.1922536442357 329.9862539501672 556.9703208682866 329.1946584764619 559.805784609325 327.9535285684168 562.6412483503634 326.7123986603717 567.218552747768 324.0565098726746 571.7958571451725 321.40062108497744 574.6691487499206 321.0185760458123 577.5424403546687 320.6365310066472 578.9738351213095 317.0901983642859 580.4052298879506 313.5438657219246 581.0214471004356 313.37406649902704 581.6376643129205 313.2042672761295 582.2766111207497 313.18687745657803 582.9155579285791 313.1694876370265 583.5400987132609 313.3055179179505 584.1646394979429 313.44154819887444 584.7384759197276 313.72309249395516 585.3123123415124 314.00463678903594 585.8020930006045 314.4153317306151 586.2918736596965 314.8260266721943 586.669132481177 315.3420026509708 587.0463913026575 315.8579786297474 587.2892019860967 316.4492470975918 587.532012669536 317.04051556543624 587.626263046604 317.6727119712168 587.7205134236718 318.3049083769974 587.6607256580251 318.94128943590647 587.6009378923783 319.5776704948156 587.3905868517652 320.1812497098092 587.1802358111521 320.7848289248028 586.8315471079366 321.32052624354645 586.4828584047209 321.8562235622901 586.0160978427167 322.2929042314488 585.5493372807125 322.72958490060745 584.9916330057141 323.0418690191723 584.4339287307157 323.3541531377371 584.5422635727723 322.97145951402115 584.650598414829 322.5887658903051 581.1690525263208 324.0173669483819 577.6875066378126 325.4459680064586 574.3724937965022 326.1288586376519 571.0574809551919 326.8117492688452 566.3921523176225 326.6246954020466 561.726823680053 326.437641535248 557.2963556378377 325.1288461451395 552.8658875956223 323.820050755031 549.5540819072012 322.3163372391516 546.2422762187801 320.81262372327217 542.6425321055992 318.91579317150536 539.0427879924183 317.0189626197386 536.5631862813477 314.93872821260686 534.0835845702771 312.85849380547506 530.7988317921908 310.4003044395542 527.5140790141044 307.9421150736333 522.9761028609158 304.80090170141136 518.4381267077273 301.65968832918946 514.2982136024461 298.35018002212536 510.1583004971651 295.04067171506125 506.16710087373406 291.4567238079229 502.17590125030307 287.8727759007846 499.6286925990566 284.7889705914229 497.0814839478101 281.7051652820613 494.4934248734764 278.2471715182173 491.90536579914266 274.7891777543733 488.246117124771 270.54135810481245 484.5868684503994 266.29353845525156 481.1600060134878 262.4363311296182 477.73314357657625 258.57912380398494 473.9591768483149 254.5262577066751 470.1852101200535 250.47339160936522 465.8764062102663 246.46609757894012 461.56760230047905 242.45880354851502 457.8105436699931 240.06337227688783 454.0534850395071 237.66794100526064 450.2186301506607 235.55429057687098 446.3837752618144 233.44064014848135 443.2754042951027 232.35088325847198 440.1670333283911 231.26112636846264 436.98150773697387 230.3245131145564 433.7959821455566 229.38789986065012 430.2702732839109 228.81597910127044 426.7445644222652 228.2440583418908 423.3392069365399 227.8598429245763 419.93384945081453 227.4756275072618 415.98825852442985 227.35537074243274 412.04266759804517 227.2351139776037 412.0419006347656 227.2251434326172 Z" fill="hsl(0, 0%, 0%)"></path><path d="M 301.03931044809 354.9800933804717 Q 301.03931044809 354.9800933804717 295.69727814282123 349.37937198722176 290.3552458375524 343.7786505939718 287.45641338284486 340.4892932658561 284.5575809281374 337.19993593774035 277.6855533850312 329.1903523555185 270.813525841925 321.18076877329656 266.93383372254857 316.92545733623444 263.0541416031722 312.6701458991724 257.79954149474213 308.0665761841225 252.54494138631205 303.46300646907264 249.16268651462275 301.559097117517 245.78043164293348 299.65518776596144 241.78486303013872 298.1259773817364 237.78929441734397 296.59676699751134 234.35008984010838 295.8275336166735 230.9108852628728 295.0583002358357 227.28017419628455 294.8583058642662 223.6494631296963 294.6583114926966 219.9990701857854 294.65801247034665 216.34867724187453 294.6577134479967 209.23859017318688 295.5215135185481 202.12850310449926 296.38531358909944 198.06815378229902 296.6584172289739 194.00780446009875 296.93152086884834 189.40883769053966 297.25942493345036 184.80987092098056 297.5873289980524 180.6108127537056 297.8195945469196 176.41175458643067 298.0518600957867 172.30322821866085 297.9056030168054 168.19470185089102 297.7593459378241 163.85246602422586 297.0655393908645 159.51023019756073 296.37173284390497 155.9594242577415 295.52170015582044 152.40861831792225 294.671667467736 148.1713523232178 292.1423884574548 143.93408632851336 289.61310944717366 140.79011459469675 285.89506279105115 137.64614286088013 282.1770161349287 136.1727923651942 275.56573734440974 134.69944186950823 268.95445855389084 135.66645927199744 257.26049064217665 136.63347667448664 245.56652273046248 138.50435017798844 235.9151075378477 140.37522368149024 226.2636923452329 142.5583778547786 218.28594259653048 144.74153202806693 210.30819284782805 147.0118594610624 203.05316052361525 149.28218689405784 195.79812819940244 150.64831724482622 190.56646164429202 152.01444759559456 185.3347950891816 153.2128665822945 180.42863956882547 154.41128556899446 175.52248404846938 155.4125249915115 169.64619073037431 156.41376441402855 163.76989741227928 157.35076127638249 159.94462147084198 158.28775813873642 156.11934552940465 159.4598525347754 151.84455405654467 160.6319469308144 147.56976258368465 160.63692520334416 147.57022820436634 160.64190347587396 147.570693825048 160.64688174840376 147.57115944572968 160.65186002093353 147.57162506641137 160.5399461149541 151.99506073179094 160.42803220897463 156.41849639717054 159.87723851796494 160.38487698006247 159.32644482695525 164.35125756295443 158.25755238774886 170.27827962415114 157.18865994854247 176.20530168534782 155.96307339408403 181.14517233407668 154.7374868396256 186.08504298280556 153.23345594465366 191.2702607630996 151.72942504968174 196.45547854339364 150.07981310850883 203.79392808833106 148.43020116733592 211.13237763326848 147.05675163020743 219.07523381203575 145.68330209307896 227.01808999080302 144.85245868604116 236.40990492451857 144.02161527900336 245.80171985823412 144.29841412360528 256.24828196717084 144.5752129682072 266.69484407610753 147.34618723830062 273.4520087715546 150.117161508394 280.2091734670016 155.73261939303043 283.0080480320432 161.34807727766687 285.80692259708474 165.0949172755238 286.51606133235714 168.84175727338072 287.2252000676295 172.43282567654515 287.54660950750286 176.02389407970958 287.86801894737624 180.02467463270506 287.78398570329114 184.0254551857005 287.6999524592061 188.80337172308515 287.2836240698028 193.5812882604698 286.8672956803995 197.41728775791654 286.8059547364012 201.25328725536326 286.74461379240284 209.02209688209712 286.3865797202358 216.790906508831 286.02854564806876 220.68319531315706 286.4216296746196 224.5754841174831 286.8147137011705 228.77540465893622 287.5403265034853 232.97532520038936 288.26593930580003 236.62759071106592 289.6746051576313 240.27985622174248 291.0832710094625 244.4699559683734 293.2618388059661 248.66005571500432 295.44040660246964 251.78796092069757 298.01060939950344 254.91586612639085 300.5808121965373 260.729217923383 305.0878745820287 266.5425697203751 309.59493696752014 270.28809826368797 314.0261502368098 274.03362680700076 318.45736350609945 280.85322313474416 326.6365897798155 287.67281946248755 334.8158160535316 290.07240985934254 338.45054150053187 292.4720002561976 342.08526694753215 296.7634640446788 348.5264332190771 301.05492783316 354.96759949062204 301.047119140625 354.9738464355469 Z" fill="hsl(0, 0%, 0%)"></path><path d="M 49.7322801182497 132.97625694514298 Q 49.7322801182497 132.97625694514298 56.1785900709 127.21205689735629 62.6249000235503 121.44785684956962 69.1553334060292 116.53522559710527 75.6857667885081 111.62259434464093 81.53073713784147 107.22600909493838 87.37570748717484 102.82942384523581 92.20612418703496 98.80193498467062 97.0365408868951 94.77444612410544 100.73250795388327 91.1190818742459 104.42847502087146 87.46371762438635 106.97000436328884 84.05837150966508 109.5115337057062 80.6530253949438 112.359658962249 76.54601363618607 115.20778421879179 72.43900187742835 116.6956564694409 67.75386494123036 118.18352872009002 63.06872800503236 116.20508948768924 59.57991389498173 114.22665025528845 56.091099784931096 109.18619361605525 53.712799382139195 104.14573697682205 51.3344989793473 98.21010485981284 50.73656211953272 92.27447274280365 50.13862525971814 86.34187349393153 51.620700130894484 80.40927424505941 53.10277500207083 75.69853440890776 56.694768601225434 70.9877945727561 60.286762200380046 67.64918012349477 65.79832134764379 64.31056567423343 71.30988049490755 62.92237687494427 75.61887652527541 61.53418807565511 79.92787255564328 60.484985258286684 84.76780052761586 59.43578244091827 89.60772849958845 58.67571795964268 96.79020603024428 57.9156534783671 103.97268356090011 57.959421676687995 113.1215676562513 58.0031898750089 122.27045175160248 58.46469402289882 130.09369752867013 58.92619817078874 137.9169433057378 59.34139417933271 143.70310746016924 59.75659018787668 149.48927161460065 60.4811451007937 153.659637163479 61.205700013710704 157.83000271235736 61.60478688038429 162.42246713804033 62.003873747057874 167.0149315637233 62.337330938504486 170.76670060634365 62.6707881299511 174.51846964896396 62.89383920726655 178.5323853052081 63.11689028458201 182.54630096145226 62.91742823453353 188.88684181968705 62.71796618448506 195.22738267792184 61.451630385019214 199.84592994857772 60.18529458555338 204.4644772192336 56.46044117407014 208.64642659432656 52.7355877625869 212.82837596941948 47.25008250360653 214.77920075413596 41.76457724462615 216.7300255388524 36.14230907507207 215.97496299501253 30.520040905517984 215.21990045117266 26.96957693078582 213.01954927263637 23.41911295605366 210.81919809410007 19.03563240693952 205.38583441896066 14.65215185782538 199.9524707438212 12.869799341885933 194.38782542253654 11.087446825946486 188.8231801012519 11.434206737998498 181.94657579878597 11.780966650050509 175.06997149632005 13.96754996360327 170.647542576141 16.15413327715603 166.22511365596196 18.781075068660925 162.51987331461055 21.408016860165823 158.81463297325917 24.631463734226216 155.5102709475063 27.85491060828661 152.20590892175346 32.31095441885912 149.04007733908668 36.76699822943163 145.87424575641987 40.524413981827806 143.5442847237266 44.28182973422398 141.21432369103331 48.66830412791688 138.88808758960994 53.05477852160979 136.56185148818653 56.99690494263973 134.39288904985486 60.93903136366968 132.22392661152318 65.13396120727523 130.1035334824432 69.3288910508808 127.98314035336318 75.28930710959122 125.67399640012249 81.24972316830163 123.36485244688178 85.72259250754993 121.11130634447923 90.19546184679822 118.85776024207668 94.16430921246427 116.64499719793446 98.13315657813033 114.43223415379222 101.79890304248809 112.03916731267437 105.46464950684586 109.64610047155651 108.41656893869497 107.3705495069961 111.36848837054407 105.09499854243569 114.27270406730386 102.43971301430747 117.17691976406365 99.78442748617925 121.25966386360315 95.20521502635296 125.34240796314263 90.62600256652665 127.51425855020437 87.7076579037759 129.6861091372661 84.78931324102514 131.60327372826896 79.78249721816499 133.52043831927185 74.77568119530486 133.71816851102403 70.62741585456354 133.91589870277622 66.47915051382222 131.89001734400333 63.06503683613097 129.86413598523043 59.650923158439724 125.1808253168673 58.07548094457169 120.49751464850415 56.50003873070365 116.0573945187033 56.60672424996754 111.61727438890246 56.71340976923144 107.47330997585283 57.922760880388836 103.3293455628032 59.13211199154623 101.00533719045853 63.07788480531735 98.68132881811388 67.02365761908847 97.51034816561075 70.86688004036236 96.33936751310762 74.71010246163627 95.7223990015265 78.79146250703266 95.10543048994536 82.87282255242904 94.47786523296837 88.96041706757059 93.85029997599138 95.04801158271214 93.931771401139 100.39665705359121 94.01324282628663 105.74530252447028 94.35080810565458 110.72165829782605 94.68837338502254 115.69801407118183 94.92206090407619 121.47943365597253 95.15574842312984 127.26085324076323 95.42695616054831 131.89347279483417 95.69816389796681 136.5260923489051 96.11133942667657 141.08446953838802 96.52451495538632 145.64284672787096 97.12655167167362 149.318504676963 97.72858838796093 152.99416262605502 98.32098937947858 156.99526330080664 98.91339037099623 160.9963639755583 99.55604385748472 164.43728096557703 100.19869734397321 167.87819795559574 100.8853616696608 173.18501310270804 101.57202599534837 178.49182824982034 101.58389265664118 183.94696117396458 101.59575931793401 189.40209409810882 99.83706333872406 195.010899941995 98.07836735951412 200.6197057858812 94.8996056816566 204.94714028347335 91.72084400379906 209.27457478106552 85.57784883692139 211.40387960024353 79.43485367004371 213.53318441942153 72.64661925848499 212.33117308096377 65.85838484692627 211.129161742506 59.895764432415234 206.86613986242764 53.93314401790419 202.6031179823493 50.72552820673703 198.47908023782816 47.51791239556987 194.35504249330705 46.20065361826883 187.5989368831247 44.88339484096778 180.84283127294236 45.91854540437309 174.22222980496255 46.9536959677784 167.60162833698274 49.24557978073942 163.62781075937073 51.53746359370043 159.65399318175872 54.344267189603926 156.49542894719377 57.15107078550743 153.33686471262882 60.611336742296245 150.35105390358967 64.07160269908506 147.36524309455055 67.41830875537835 145.14755390659013 70.76501481167162 142.92986471862974 74.23366163914048 140.96008512880047 77.70230846660932 138.99030553897123 80.86603185967853 137.39962913421743 84.02975525274773 135.80895272946367 87.34324835636045 134.46984385585623 90.65674145997318 133.13073498224878 97.04761220047237 130.87443833855363 103.43848294097157 128.61814169485848 107.77908005799864 127.61542249396174 112.1196771750257 126.612703293065 116.53112308365843 125.92331458288432 120.94256899229117 125.23392587270364 124.52875129984102 124.61594904811932 128.11493360739087 123.99797222353502 134.2003636199454 122.78933985125337 140.28579363249992 121.58070747897175 144.36719903451205 120.18241844707569 148.44860443652422 118.78412941517962 152.88014375611232 116.41983786520817 157.31168307570044 114.0555463152367 160.06147850674495 111.60002652414855 162.81127393778942 109.1445067330604 165.1324334303297 106.22825747737745 167.45359292287 103.31200822169451 168.7228496233393 99.45666715786993 169.99210632380857 95.60132609404536 169.85996385689566 91.49843514872123 169.72782138998275 87.3955442033971 167.43897873333745 84.36094698470006 165.15013607669215 81.32634976600303 160.00287236642754 77.78416811061538 154.8556086561629 74.24198645522775 151.1563938598625 73.43436901582017 147.4571790635621 72.62675157641259 142.7966000845086 72.40442035464702 138.13602110545511 72.18208913288144 132.837096511168 72.67133788231374 127.5381719168809 73.16058663174601 122.56455055717201 74.88180822039776 117.59092919746313 76.6030298090495 113.53708957542341 78.88070937804066 109.48324995338368 81.15838894703182 106.02960266980931 84.22744818515022 102.57595538623494 87.29650742326862 99.74469476755114 90.17114069726674 96.91343414886734 93.04577397126485 94.75776837602616 97.61191442534778 92.60210260318499 102.17805487943072 91.14804161042616 106.90028165788698 89.69398061766732 111.62250843634325 90.51301387579694 115.22826524239565 91.33204713392657 118.83402204844806 93.57101643811008 122.1653540080263 95.80998574229359 125.49668596760453 98.88754785948498 127.92738248777763 101.96510997667637 130.35807900795072 105.36461451144629 131.42453461497894 108.76411904621621 132.49099022200718 112.69387122121452 132.79759257185577 116.62362339621285 133.1041949217044 122.94555760913754 132.45116048102437 129.26749182206223 131.79812604034433 132.9503847001758 131.27349383259826 136.63327757828932 130.74886162485222 141.58584768626844 130.21790875734513 146.53841779424752 129.68695588983806 150.11865722993167 129.64280496854275 153.69889666561582 129.59865404724746 157.35148121724865 129.66500334201453 161.00406576888145 129.73135263678162 166.05164659362325 131.0489610552936 171.09922741836505 132.36656947380558 174.5011618434002 135.4035075692079 177.90309626843535 138.44044566461022 181.52244556487312 143.9112164102445 185.14179486131087 149.38198715587873 187.08764778200484 154.25293893150666 189.0335007026988 159.12389070713456 189.91119650907007 162.60141220731938 190.78889231544133 166.0789337075042 190.7849543265495 166.08201465597634 190.7810163376577 166.08509560444847 190.77707834876588 166.0881765529206 190.77314035987405 166.09125750139273 188.3746326568682 163.66578352008395 185.97612495386232 161.24030953877516 182.21034690347557 157.67953351183365 178.4445688530888 154.11875748489211 174.91374997727667 151.58071645542168 171.38293110146452 149.04267542595124 167.93193644800104 146.89874110930324 164.48094179453756 144.75480679265524 160.56502415152113 144.74662251004105 156.6491065085047 144.73843822742683 152.1285899602355 144.91981466134482 147.60807341196627 145.1011910952628 143.7631557111938 145.5741204826292 139.9182380104213 146.0470498699956 135.88489180723064 147.18001478071966 131.85154560403996 148.3129796914437 128.4152762364719 149.00589637880933 124.97900686890382 149.69881306617498 120.36254591541768 150.5132269665799 115.74608496193153 151.32764086698484 109.92751204836836 150.76114291005575 104.10893913480517 150.1946449531267 100.63819202038647 149.26387809410596 97.16744490596776 148.33311123508523 91.4509722984138 144.95737666723178 85.73449969085985 141.58164209937834 81.59543695790754 137.0212972258824 77.45637422495523 132.46095235238647 74.8820342460898 127.59785359356692 72.30769426722438 122.73475483474738 71.59494193810829 119.15826831708375 70.8821896089922 115.58178179942013 71.38510646607094 111.33713241460983 71.88802332314965 107.09248302979952 73.09894075386126 103.10624280510937 74.30985818457285 99.12000258041923 75.99086788186938 95.38532528000576 77.67187757916592 91.65064797959228 81.11835112531864 86.09064269616036 84.56482467147134 80.53063741272845 87.72402437759109 77.59814241566657 90.88322408371084 74.66564741860469 95.42762858826177 70.75164201735107 99.9720330928127 66.83763661609746 103.03714732698862 64.82242737276599 106.10226156116453 62.80721812943452 111.49496847440047 60.50526845000671 116.8876753876364 58.203318770578896 124.03312414327468 56.325995473349295 131.17857289891296 54.44867217611969 134.87382647898448 54.05178736620019 138.569080059056 53.65490255628069 144.0520807808741 53.846590117396964 149.53508150269218 54.03827767851324 156.40994136073596 55.5228057498702 163.28480121877973 57.007333821227164 167.99515030321845 59.36585783876953 172.7054993876572 61.724381856311894 176.64152440908433 65.69196711021021 180.57754943051145 69.65955236410852 183.28270438669873 73.76216422415584 185.987859342886 77.86477608420314 187.64980709126354 82.96188050739596 189.3117548396411 88.05898493058876 189.056230444251 92.63738173097357 188.80070604886095 97.21577853135838 187.96031846355373 101.33284916626887 187.1199308782465 105.44991980117936 185.16809079194297 108.80516608649214 183.21625070563945 112.1604123718049 179.22989551545953 116.58897512648484 175.2435403252796 121.01753788116478 171.48425059771034 123.68730204982595 167.7249608701411 126.35706621848709 164.40738850747147 127.99742750758983 161.08981614480183 129.63778879669258 157.15357791241564 131.25782513495307 153.21733968002948 132.87786147321356 147.97294639159026 134.19710809787978 142.72855310315106 135.51635472254603 136.60064492962647 136.5193419741837 130.47273675610188 137.52232922582138 126.94090309831914 138.14528282073502 123.4090694405364 138.7682364156487 119.57238610169543 139.58199338461765 115.73570276285444 140.39575035358664 112.00248240506971 141.5131539133729 108.269262047285 142.63055747315912 102.21452513704193 144.76694712589895 96.15978822679887 146.9033367786388 90.73501885288334 149.29258033997297 85.31024947896783 151.68182390130713 79.89989759544291 155.10851486061244 74.48954571191798 158.53520581991776 71.8055419328366 161.31173841142885 69.12153815375522 164.08827100293996 66.08046175944658 168.24927830110337 63.03938536513793 172.41028559926679 62.2608771334612 176.0626856721831 61.48236890178447 179.71508574509943 62.25406742625806 184.1757704358558 63.02576595073165 188.6364551266122 65.40928584273763 191.39021105656735 67.79280573474362 194.1439669865225 72.71936541607388 196.16016918688257 77.64592509740416 198.1763713872426 81.70393465076816 196.19398297535184 85.76194420413216 194.21159456346112 87.26776657915055 190.9303123345536 88.77358895416893 187.6490301056461 89.27524860915028 183.3030149826951 89.77690826413165 178.9569998597441 89.84183965046506 174.16888577896307 89.90677103679846 169.38077169818206 89.52282730660306 165.79653332244294 89.13888357640768 162.21229494670385 88.7324523071618 158.18376190239292 88.32602103791591 154.155228858082 87.99455480148754 150.27117645803557 87.66308856505917 146.38712405798913 87.29648748211142 141.65809109692566 86.92988639916366 136.92905813586222 86.78301624058653 132.45918398638423 86.63614608200939 127.98930983690622 85.88612090460276 122.26995203645077 85.13609572719614 116.55059423599533 84.57573349926784 111.46660520669248 84.01537127133956 106.38261617738962 83.40076269310632 100.81008785292187 82.78615411487307 95.2375595284541 81.93744415784552 88.37851058757505 81.08873420081797 81.519461646696 81.3681261426737 76.38851088191296 81.64751808452945 71.25756011712994 82.58562085187776 66.1749931651301 83.52372361922608 61.09242621313025 85.23553246752266 57.29991390754495 86.94734131581926 53.507401601959636 89.55215254622657 50.64467016400452 92.15696377663387 47.78193872604941 97.77957951631171 45.2128756367229 103.40219525598957 42.643812547396394 106.83958309972832 41.87578036730878 110.27697094346708 41.10774818722117 116.57924223803522 41.25170886032103 122.88151353260336 41.3956695334209 130.3803692357114 44.16222451415794 137.87922493881945 46.92877949489499 141.15579940879064 51.20736590521454 144.43237387876187 55.485952315534085 145.83403078373553 61.45864166330881 147.2356876887092 67.43133101108353 146.24528750507469 73.00894310537221 145.25488732144018 78.58655519966089 143.93112987877885 82.09606941843074 142.6073724361175 85.60558363720061 140.68710064059707 88.68417070515159 138.76682884507665 91.76275777310256 133.98074258537937 97.21534901380778 129.1946563256821 102.66794025451301 126.50489983578021 104.99735048985515 123.81514334587831 107.32676072519729 120.44865802845936 110.19033017048189 117.08217271104041 113.05389961576648 113.77965545554684 115.26373583086422 110.47713820005328 117.47357204596196 106.51002637936647 119.96758466206477 102.54291455867966 122.46159727816757 98.46893990757609 124.66438138937107 94.39496525647252 126.86716550057456 89.86040235583778 129.33636938642226 85.32583945520305 131.80557327226998 80.0091418387004 134.94201982447112 74.69244422219776 138.07846637667222 70.76998741818574 140.27106312166717 66.84753061417372 142.46365986666214 63.023458884990184 144.7761464886539 59.19938715580665 147.08863311064565 55.22930383456999 149.64022062542443 51.259220513333325 152.19180814020325 48.104378426100304 154.25560549127846 44.94953633886728 156.31940284235364 41.64159799044898 159.24175447425233 38.333659642030675 162.16410610615105 34.1828135783018 167.60184161053047 30.031967514572916 173.03957711490992 28.267106918897895 177.34555713217551 26.50224632322287 181.6515371494411 26.673545033498566 185.37583671236757 26.844843743774263 189.10013627529403 28.070207192190217 192.5924600197276 29.295570640606172 196.0847837641612 32.24537427234851 198.74957421631686 35.19517790409086 201.41436466847253 39.11377153889411 202.37327303416185 43.03236517369737 203.33218139985118 46.33262447150757 201.89299110395325 49.63288376931777 200.45380080805532 51.40628101621793 196.7274208391668 53.179678263118085 193.00104087027827 54.14223426673175 187.8086141108709 55.104790270345404 182.61618735146354 55.2582088993512 178.64714760633456 55.411627528356995 174.6781078612056 55.58124366495734 170.97999789042728 55.75085980155769 167.281887919649 55.76443830388711 162.84538951135866 55.778016806216534 158.40889110306833 55.595493214794345 154.08485363726683 55.41296962337215 149.76081617146534 55.11055903184811 144.06031395949702 54.808148440324075 138.35981174752868 53.58116647040691 130.48915271113503 52.35418450048975 122.61849367474142 51.25842539036752 113.25754138542038 50.1626662802453 103.89658909609933 49.55474743832631 95.8603534343336 48.94682859640732 87.82411777256787 49.67230612072353 82.35577062395872 50.39778364503975 76.88742347534956 51.7686226947512 71.10858118057794 53.13946174446266 65.32973888580632 55.20481033264204 61.583552256184305 57.27015892082142 57.83736562656228 59.88266600253215 54.427274082516625 62.495173084242865 51.01718253847097 66.13096347217714 47.798585702084964 69.76675386011144 44.57998886569896 73.05147718757121 43.00834157113812 76.33620051503098 41.43669427657727 80.86614715329605 39.94589095924485 85.39609379156111 38.45508764191242 88.9937904170871 38.27190297456475 92.59148704261307 38.08871830721708 96.58453066880239 38.35551909371247 100.57757429499169 38.62231988020786 104.82324974152624 39.78491665099672 109.06892518806079 40.94751342178559 112.45502476021116 42.73126718236679 115.84112433236155 44.515020942948006 120.67149340457391 49.722910598350616 125.50186247678627 54.930800253753226 125.70075949651937 60.1093317752601 125.89965651625248 65.28786329676699 122.87361063531452 70.56502062732554 119.84756475437656 75.8421779578841 116.65905862064079 79.95802047176767 113.470552486905 84.07386298565123 110.30839719821537 87.2661732147022 107.14624190952576 90.45848344375317 103.08854728059009 93.82686253910336 99.03085265165444 97.19524163445355 94.11751341300695 101.19405376953925 89.20417417435947 105.19286590462495 83.45619510079693 109.76485022605982 77.7082160272344 114.33683454749468 71.12804802030519 119.19318479470226 64.54788001337597 124.04953504190986 57.14602397710415 128.52093775443814 49.744167940832334 132.9923404669664 49.738224029541016 132.9842987060547 Z" fill="hsl(0, 0%, 0%)"></path><path d="M 177.47985214996157 149.73114914703189 Q 177.47985214996157 149.73114914703189 179.16068166531718 147.79941762723124 180.8415111806728 145.8676861074306 182.15812180131792 144.4419808696951 183.47473242196307 143.0162756319596 184.97147033732492 142.03091313107973 186.46820825268676 141.0455506301999 188.3196070518967 140.0646375333214 190.17100585110663 139.0837244364429 191.5919788530033 138.43323435406109 193.01295185489997 137.78274427167923 194.877533185392 137.27474649406247 196.742114515884 136.76674871644568 198.73725802389626 136.47557765698707 200.73240153190852 136.18440659752844 200.73281042078196 136.18938985047095 200.73321930965537 136.19437310341348 200.73362819852878 136.19935635635602 200.7340370874022 136.20433960929853 198.82394578987552 136.73960452183474 196.91385449234883 137.27486943437097 195.1952307470682 137.97796093863707 193.47660700178758 138.6810524429032 192.1332716452486 139.46349359822375 190.78993628870964 140.24593475354428 188.9704613309387 141.21993396688458 187.15098637316774 142.19393318022492 185.67713668019218 142.97496250216 184.20328698721661 143.7559918240951 182.78037215620162 145.06981203801973 181.3574573251866 146.3836322519444 179.42572580538595 148.0644617673 177.4939942855853 149.74529128265561 177.48692321777344 149.73822021484375 Z" fill="hsl(0, 0%, 0%)"></path><path d="M 180.61828063964845 149.73822021484375 Q 180.61828063964845 149.73822021484375 180.42397217331717 147.02879943847657 180.22966370698592 144.3193786621094 180.15468525727363 142.26473018646243 180.07970680756137 140.21008171081544 180.06456754166376 138.43371584987642 180.04942827576616 136.6573499889374 180.14024589769974 134.99925423924924 180.2310635196333 133.34115848956108 180.42467207964086 130.32540595894127 180.61828063964845 127.30965342832145 180.62328063964844 127.30965342832145 180.62828063964844 127.30965342832145 180.63328063964843 127.30965342832145 180.63828063964843 127.30965342832145 180.83188919965602 130.32540595894127 181.02549775966358 133.34115848956108 181.11631538159713 134.99925423924924 181.2071330035307 136.6573499889374 181.1919937376331 138.43371584987642 181.1768544717355 140.21008171081544 181.10187602202325 142.26473018646243 181.02689757231096 144.3193786621094 180.8325891059797 147.02879943847657 180.63828063964843 149.73822021484375 180.62828063964844 149.73822021484375 Z" fill="hsl(0, 0%, 0%)"></path><path d="M 195.2790195952775 137.16830313259968 Q 195.2790195952775 137.16830313259968 195.5800663482072 136.56620962674032 195.8811131011369 135.96411612088093 195.8855852370919 135.96635218885842 195.8900573730469 135.96858825683594 195.89452950900187 135.97082432481346 195.89900164495688 135.97306039279096 195.5979548920272 136.57515389865034 195.2969081390975 137.1772474045097 195.2879638671875 137.1727752685547 Z" fill="hsl(0, 0%, 0%)"></path><path d="M 234.03504230674247 646.0826232703629 Q 234.03504230674247 646.0826232703629 228.96619369662847 649.089947819473 223.89734508651446 652.097272368583 215.5349279042636 656.7766720621958 207.17251072201273 661.4560717558086 204.3235047134527 664.0295285662323 201.47449870489268 666.602985376656 198.18976219360098 670.99797696614 194.90502568230932 675.3929685556238 192.10955998347322 680.0675109233742 189.31409428463712 684.7420532911246 186.7768385990152 688.1825774275723 184.23958291339326 691.6231015640199 181.06615393044297 694.6696237921857 177.89272494749267 697.7161460203515 173.97564020947408 700.5229987286962 170.0585554714555 703.3298514370407 166.2718159403211 705.2934194444076 162.4850764091867 707.2569874517744 158.71342739299877 708.5047387698656 154.94177837681082 709.7524900879569 149.01298844393526 709.704335986258 143.0841985110597 709.6561818845593 137.558869384861 708.0729518312664 132.0335402586623 706.4897217779735 127.26059713950237 703.9691897250023 122.48765402034243 701.448657672031 117.95552599289047 698.1902255656831 113.4233979654385 694.9317934593353 110.32005228713822 692.1893650477401 107.21670660883795 689.446936636145 103.01711740736619 685.4267702265576 98.8175282058944 681.4066038169701 96.59662635283749 678.6486442470498 94.37572449978059 675.8906846771293 94.37869205382646 675.8866605470389 94.38165960787232 675.8826364169485 94.38462716191819 675.878612286858 94.38759471596406 675.8745881567676 99.35306738201126 678.6012225848231 104.31854004805847 681.3278570128786 110.63201824019713 685.0783111719809 116.94549643233579 688.8287653310833 121.62348680178124 690.8767708003311 126.30147717122668 692.9247762695788 130.4491751279754 694.3898360764649 134.5968730847241 695.854895883351 138.72774220612524 696.5660760196122 142.85861132752638 697.2772561558733 146.90006211927107 696.9609518568016 150.94151291101576 696.6446475577297 156.53988234797185 694.4070670237234 162.13825178492792 692.1694864897171 168.0535072068371 687.7729449586586 173.9687626287463 683.3764034276003 176.45295230469583 680.530007514721 178.93714198064538 677.6836116018417 183.0066088354463 673.0929379175925 187.0760756902472 668.5022642333433 191.8806934194124 664.3526643246794 196.68531114857765 660.2030644160153 200.38326894025124 657.8887206381173 204.08122673192483 655.5743768602192 213.28566679011243 652.02651000949 222.4901068483 648.4786431587607 228.25895011745845 647.2713131668552 234.0277933866169 646.0639831749496 234.0314178466797 646.0733032226562 Z" fill="hsl(0, 0%, 0%)"></path><path d="M 412.0432222694435 637.686437818313 Q 412.0432222694435 637.686437818313 416.7238747253922 637.0536513756127 421.4045271813409 636.4208649329124 425.6215045541185 636.84843163548 429.83848192689607 637.2759983380477 433.5559860291758 637.8905558724687 437.27349013145556 638.5051134068898 443.8982390751494 640.3439570874923 450.52298801884314 642.1828007680949 455.46966396943367 645.0718423592593 460.41633992002414 647.9608839504237 464.6298708530702 651.5344568076582 468.8434017861163 655.1080296648926 472.5242470663607 659.6527305319389 476.2050923466051 664.1974313989853 478.2832777467224 667.9017251244737 480.36146314683964 671.6060188499622 483.730163080474 676.834067601259 487.0988630141083 682.0621163525558 491.25113608829713 685.3427615992216 495.403409162486 688.6234068458875 500.9834120501644 691.076976767675 506.5634149378428 693.5305466894623 511.52567601600276 694.6172467230739 516.4879370941627 695.7039467566855 522.4444806910737 696.5731573248836 528.4010242879848 697.4423678930816 533.8035631966696 698.0409106073839 539.2061021053545 698.6394533216862 539.2067709059403 698.6444083903816 539.2074397065261 698.6493634590771 539.2081085071119 698.6543185277726 539.2087773076977 698.659273596468 536.2565857341893 699.8924806017417 533.304394160681 701.1256876070153 527.5904156515744 702.6292640597737 521.8764371424679 704.1328405125322 515.4967114657442 704.7450021409529 509.1169857890205 705.3571637693736 502.83581911159047 704.4491875385031 496.5546524341604 703.5412113076326 492.1763401992571 702.2007385864356 487.79802796435376 700.8602658652385 484.39676573184795 698.9200821926029 480.9955034993422 696.9798985199674 477.94757276447007 694.47322293233 474.89964202959794 691.9665473446927 470.4092965530658 685.7464269507402 465.9189510765337 679.5263065567877 462.95196161369995 674.1297185031194 459.98497215086616 668.733130449451 457.70856574659365 664.9729646362216 455.4321593423211 661.2127988229921 452.20916619485024 657.9722199166555 448.98617304737934 654.7316410103189 444.7927201931103 651.965564650819 440.5992673388413 649.1994882913193 434.5067215748386 646.57824857771 428.4141758108359 643.9570088641008 424.57814508501116 642.6686090749693 420.7421143591864 641.3802092858376 416.3913466796371 639.5432358314185 412.04057900008775 637.7062623769995 412.0419006347656 637.6963500976562 Z" fill="hsl(0, 0%, 0%)"></path><path d="M 557.5995399963758 39.78447981024563 Q 557.5995399963758 39.78447981024563 561.3320358442337 43.142721280241275 565.0645316920916 46.50096275023692 567.9277552442231 49.740500010134205 570.7909787963548 52.98003727003149 574.1692865772523 58.98656660192786 577.5475943581496 64.99309593382424 576.0904488727333 74.72263498976245 574.633303387317 84.45217404570067 571.7733594395879 88.68584509166419 568.9134154918589 92.91951613762772 564.4638507043258 96.18041876660158 560.0142859167927 99.44132139557544 551.3970944074963 102.93238359489158 542.7799028981999 106.42344579420772 539.423263365057 107.23582392627488 536.0666238319142 108.04820205834203 536.064724912954 108.04357668194841 536.0628259939938 108.03895130555479 536.0609270750335 108.03432592916117 536.0590281560734 108.02970055276755 538.9924702124606 106.25972555830818 541.9259122688479 104.4897505638488 548.8489846635977 99.44146663131042 555.7720570583474 94.39318269877205 558.8139351347418 91.35826246053176 561.8558132111363 88.32334222229146 563.8724956539443 84.82677573645401 565.8891780967524 81.33020925061655 567.8211451779553 74.574608735849 569.7531122591581 67.81900822108145 568.0609369935476 61.97642565678032 566.3687617279371 56.1338430924792 564.2646989412626 52.4342436493621 562.160636154588 48.73464420624501 559.8721618486373 44.26565913281414 557.5836875426867 39.79667405938328 557.5916137695312 39.79057693481445 Z" fill="hsl(0, 0%, 0%)"></path><path d="M 518.8426585582262 309.9559828523138 Q 518.8426585582262 309.9559828523138 515.3407695299916 309.33838085339573 511.8388805017569 308.7207788544776 508.99403657575954 304.51626093194477 506.14919264976214 300.311743009412 509.67144532936607 298.29600657932707 513.1936980089699 296.28027014924214 514.466292152209 299.9535951368995 515.738886295448 303.6269201245568 516.0448187273007 305.8831924604632 516.3507511591533 308.1394647963696 516.3463603965138 308.1418567000975 516.3419696338743 308.1442486038254 516.3375788712349 308.14664050755334 516.3331881085953 308.1490324112812 515.6765002694837 306.04921054915377 515.019812430372 303.9493886870263 516.9367825024792 306.9443652708719 518.8537525745863 309.93934185471744 518.8482055664062 309.9476623535156 Z" fill="hsl(0, 0%, 0%)"></path><path d="M 374.33934350644637 158.1073481413535 Q 374.33934350644637 158.1073481413535 381.11942717885535 151.8250498280588 387.8995108512643 145.54275151476415 395.50218523370813 140.32703433501507 403.104859616152 135.11131715526602 413.09981790001626 130.80844910779217 423.0947761838805 126.50558106031829 432.1977587458615 123.585754752522 441.30074130784243 120.66592844472574 446.5686003059215 118.79489514369055 451.8364593040006 116.92386184265537 457.7477716317884 115.49158324279017 463.65908395957626 114.05930464292499 470.1516579998396 113.1914617048087 476.6442320401029 112.32361876669242 480.58248602421304 111.60729445391893 484.52074000832323 110.89097014114543 490.2660825984543 110.96359502205269 496.01142518858546 111.03621990295994 500.8742091419781 111.27157319003439 505.7369930953708 111.50692647710882 510.89203359387216 112.2878789568979 516.0470740923736 113.06883143668698 520.127941632366 113.98253356267838 524.2088091723583 114.8962356886698 531.0458249404693 117.09656867137542 537.8828407085803 119.29690165408103 542.4452676796893 121.41018941404657 547.0076946507984 123.52347717401211 551.3606149179298 125.33843799026067 555.713535185061 127.15339880650923 557.9165163020197 128.33381362226137 560.1194974189783 129.5142284380135 560.1185555373942 129.5191389226211 560.11761365581 129.52404940722872 560.1166717742259 129.52895989183634 560.1157298926418 129.53387037644393 557.6102688931743 129.2676857088648 555.1048078937068 129.00150104128565 550.2938508280652 128.34364604403368 545.4828937624234 127.68579104678169 540.825360013254 126.23967555889081 536.1678262640846 124.79356007099993 529.460710381757 122.95482028425386 522.7535944994295 121.1160804975078 518.9357274426258 120.18223791178204 515.117860385822 119.24839532605627 510.1877866216415 118.51557530444164 505.25771285746094 117.78275528282701 500.557722212999 117.28967212358393 495.85773156853713 116.79658896434083 490.4359941507338 116.57193633828771 485.0142567329304 116.3472837122346 481.0940474602048 116.34817351451758 477.1738381874792 116.34906331680057 470.84267285504075 117.16878300234659 464.5115075226023 117.9885026878926 458.66633455880776 119.11026907109314 452.8211615950133 120.23203545429367 447.42698948422213 121.53713855642782 442.032817373431 122.84224165856197 433.1321209246512 125.97898687384796 424.23142447587134 129.11573208913393 414.5318760081983 133.39684783634925 404.8323275405253 137.67796358356458 397.2622205699723 142.74300047409747 389.6921135994193 147.8080373646304 382.02193558359585 152.96553321027125 374.3517575677724 158.12302905591213 374.3455505371094 158.1151885986328 Z" fill="hsl(0, 0%, 0%)"></path></svg>