<svg xmlns="http://www.w3.org/2000/svg" version="1.1" xmlns:xlink="http://www.w3.org/1999/xlink" viewBox="0 0 800 800" style="overflow: hidden; display: block;" width="800" height="800"><defs></defs><g id="two-0" transform="matrix(1 0 0 1 0 0)" opacity="1"></g><path d="M 382.7321818187847 210.46857549422546 Q 382.7321818187847 210.46857549422546 386.1694115751424 220.20464533380397 389.60664133150016 229.94071517338244 392.51425288066935 240.7448155214961 395.4218644298386 251.54891586960977 397.706778098977 261.90771844922426 399.9916917681154 272.2665210288387 401.76315867799497 279.01480410159775 403.53462558787453 285.7630871743567 405.85601346694625 293.42378145175917 408.17740134601803 301.0844757291616 410.2213165063416 305.0367115551171 412.2652316666652 308.9889473810726 414.7149017595691 312.5071189199639 417.16457185247305 316.0252904588552 421.698456345257 321.0983119410432 426.232340838041 326.1713334232312 430.6044238608514 329.21357352903027 434.9765068836618 332.25581363482934 439.0377500786651 333.5368962631279 443.0989932736684 334.81797889142655 447.6882085476444 333.566013922468 452.2774238216204 332.3140489535095 456.34667116133426 328.5575244686072 460.41591850104817 324.80099998370486 462.85126531614833 319.70660564587934 465.2866121312485 314.6122113080539 466.26348172807286 310.07508914676487 467.24035132489723 305.5379669854758 467.02649617525856 300.25203595772393 466.8126410256198 294.9661049299721 471.0403668932325 297.56180773094746 475.26809276084515 300.1575105319228 478.03771694800963 304.2451074225153 480.8073411351741 308.33270431310774 481.0381562953863 312.6239215248464 481.26897145559843 316.91513873658516 483.7674919935477 321.2625147348675 486.266012531497 325.6098907331499 489.15868928853257 329.41044403980015 492.05136604556816 333.21099734645037 494.4418753311169 337.8631668722536 496.83238461666554 342.5153363980569 497.3528852921617 348.1275377128211 497.8733859676579 353.73973902758524 496.27660808635216 360.00332996094005 494.6798302050464 366.26692089429486 492.42545142808865 370.6127181195724 490.1710726511309 374.95851534484984 487.3040073968363 378.51488798916876 484.43694214254174 382.0712606334877 481.5107002805523 385.4210382020908 478.584458418563 388.77081577069384 473.41786846106345 393.7213311707084 468.251278503564 398.671846570723 462.8681156306276 401.82440143497035 457.4849527576912 404.97695629921765 451.9302134390373 406.5473281256928 446.37547412038333 408.1176999521679 440.4800792766506 407.50479548809153 434.5846844329179 406.89189102401514 433.4486643163525 406.9478600227635 432.31264419978714 407.0038290215119 430.7914998254445 406.3246242404037 429.27035545110186 405.6454194592955 427.9559649842196 404.6219073475726 426.6415745173373 403.5983952358497 425.61033039360694 402.2900623655349 424.5790862698766 400.98172949522007 423.89092444622224 399.4646162342078 423.20276262256783 397.94750297319564 422.89767909651334 396.30978401549726 422.59259557045885 394.6720650577989 422.6883218108728 393.0089247061837 422.78404805128673 391.3457843545685 423.2750204445787 389.75388440441463 423.76599283787056 388.1619844542608 424.623676045474 386.7338462054664 425.4813592530774 385.305707956672 426.65590468666846 384.1243348713577 427.83045012025946 382.9429617860434 429.25359314405193 382.0770153234343 430.67673616784447 381.2110688608252 432.26576364242953 380.71087787001443 433.85479111701466 380.21068687920365 435.51734869090933 380.1053224840785 437.17990626480395 379.99995808895335 438.8193660136984 380.295544073109 440.45882576259294 380.5911300572647 433.5465342256932 382.7835201893444 426.6342426887935 384.9759103214241 430.01209422079376 381.9975735219222 433.38994575279406 379.0192367224203 438.0871408312272 378.4048299002447 442.7843359096604 377.79042307806907 447.8269466396838 377.7723542013234 452.86955736970714 377.7542853245777 459.0985469435982 378.89155875878384 465.32753651748925 380.02883219298997 470.05938597901724 383.40624277492725 474.7912354405452 386.7836533568645 478.5895778374733 390.8727016620157 482.3879202344014 394.9617499671669 485.450950137704 399.17379100331976 488.5139800410066 403.38583203947263 491.5942504560917 408.74872125542004 494.67452087117675 414.11161047136744 497.91497584455544 420.69383387068 501.15543081793413 427.2760572699926 504.52483770931383 434.6227709325765 507.8942446006936 441.96948459516045 511.48029735927827 450.1629174060598 515.066350117863 458.3563502169592 517.8108360907111 466.2154617897418 520.5553220635591 474.07457336252446 521.7655854931921 479.19856987485457 522.9758489228252 484.3225663871846 524.0885270281426 488.5372520027404 525.2012051334599 492.75193761829615 526.1501188301924 498.1926871407071 527.0990325269248 503.63343666311806 527.817278151796 508.4317822692857 528.5355237766673 513.2301278754534 529.0946154114288 518.039983608095 529.6537070461901 522.8498393407366 529.7555176069246 529.5890814074792 529.8573281676591 536.3283234742219 529.7604222020495 542.9031594680364 529.66351623644 549.477995461851 529.503431406265 555.8787737269006 529.3433465760901 562.2795519919503 528.2088883348213 571.1086657613612 527.0744300935523 579.9377795307722 526.540707352388 586.7162230397495 526.0069846112237 593.4946665487267 524.6365984574305 601.0088343336947 523.2662123036373 608.5230021186626 522.3562156358327 614.1787777817324 521.446218968028 619.8345534448023 520.6338353607603 624.4458475524223 519.8214517534926 629.0571416600421 518.5830666723291 634.3486220971931 517.3446815911655 639.640102534344 515.9983887156998 644.4503700680488 514.6520958402341 649.2606376017535 513.2639631438695 653.7607262464605 511.875830447505 658.2608148911675 509.5896625049206 666.8324474657561 507.3034945623363 675.4040800403448 505.33030868168777 682.2920454639474 503.3571228010392 689.18001088755 502.69678216688675 693.614129589084 502.0364415327343 698.048248290618 514.4611395846066 704.4276188799405 526.885837636479 710.806989469263 541.918994227054 714.6397240646895 556.952150817629 718.4724586601159 565.5711662772974 720.5307021091171 574.1901817369659 722.5889455581183 579.0314840463419 722.8985846379721 583.872786355718 723.208223717826 589.3292471235188 723.5874346225976 594.7857078913198 723.9666455273692 600.6449559147441 724.8045901583353 606.5042039381682 725.6425347893012 606.5041967294751 725.6475347841047 606.5041895207821 725.6525347789081 606.5041823120891 725.6575347737116 606.504175103396 725.6625347685151 600.6184907743359 726.442802278571 594.7328064452756 727.2230697886267 589.2073996477304 727.331814033332 583.6819928501853 727.4405582780372 578.6169276807424 727.303606381517 573.5518625112994 727.1666544849969 564.5285404288938 726.7574050346257 555.5052183464882 726.3481555842544 538.9438266992786 724.3750245340984 522.382435052069 722.4018934839426 506.47212679329635 716.6868110373993 490.5618185345237 710.971728590856 488.4518494307191 706.9747719666032 486.3418803269145 702.9778153423505 486.66792499977896 698.6758712798842 486.99396967264335 694.3739272174178 488.5365706346738 689.6620839055765 490.07917159670427 684.9502405937353 492.7187407076289 678.2037473414284 495.35830981855355 671.4572540891215 498.1928328680873 662.9616479884222 501.027355917621 654.4660418877229 502.7010455952065 650.2209323722859 504.374735272792 645.9758228568488 505.98265852996633 641.5427609363086 507.5905817871406 637.1096990157683 509.05322168259295 631.9856937885193 510.5158615780453 626.8616885612703 511.8087177623785 622.5495541984269 513.1015739467116 618.2374198355834 514.3117014668649 612.8137274293645 515.5218289870181 607.3900350231454 516.3065891302583 600.168390990669 517.0913492734985 592.9467469581926 517.3784871898761 586.3031336804903 517.6656251062536 579.659520402788 517.0459131042376 571.0742301061148 516.4262011022216 562.4889398094415 516.0605932917963 556.2484617241457 515.6949854813708 550.0079836388501 515.114496032819 543.8390568448579 514.5340065842673 537.6701300508655 513.4979736557261 531.4243351352684 512.4619407271849 525.1785402196712 511.76044416567237 520.685726788903 511.0589476041598 516.1929133581349 510.22779395746744 511.8528410568309 509.39664031077507 507.5127687555269 508.11659926467405 502.78488331182814 506.836558218573 498.0569978681294 505.5380181330322 493.92912147415774 504.2394780474915 489.8012450801861 502.60966811444365 485.21255942568246 500.9798581813958 480.62387377117875 498.4018922978679 474.0246977123447 495.82392641433995 467.4255216535106 491.7769170531201 460.15763432461347 487.7299076919003 452.88974699571634 485.198384966745 448.88138888236296 482.6668622415897 444.8730307690096 479.27793961661615 439.01419402117915 475.8890169916426 433.1553572733487 472.77049850366086 428.2208305475781 469.6519800156791 423.28630382180745 467.0746059663228 419.57629137256407 464.49723191696654 415.8662789233207 459.8750579060925 410.69256599105154 455.2528838952185 405.5188530587823 451.1473318885142 402.81856557286494 447.04177988180993 400.11827808694756 439.67787237863536 403.56125714273617 432.3139648754607 407.00423619852484 430.7927525882458 406.32518353524983 429.2715403010309 405.6461308719749 427.9570474895096 404.622750204416 426.64255467798824 403.5993695368571 425.6111797261273 402.29113979749616 424.5798047742664 400.98291005813525 423.89149124272694 399.4658656208908 423.20317771118755 397.9488211836464 422.897930414763 396.3111327424891 422.59268311833836 394.6734443013319 422.6882430442388 393.01029438540843 422.7838029701393 391.3471444694849 423.2746161709815 389.75519543005134 423.7654293718238 388.16324639061776 424.6229697613142 386.7350223806434 425.4805101508046 385.30679837066907 426.65493744121454 384.1253078367185 427.82936473162454 382.9438173027679 429.2524211536552 382.0777285301864 430.6754775756859 381.21163975760487 432.2644550232268 380.7112898665479 433.85343247076776 380.2109399754908 435.51597949991015 380.1054093251354 437.1785265290525 379.99987867477995 438.81801582834805 380.2953007114831 440.4575051276436 380.59072274818624 443.7178298754652 382.5297426735016 446.97815462328685 384.46876259881697 443.07797456354376 382.76032299705975 439.1777945038006 381.0518833953025 443.40142529570517 380.5608173351975 447.62505608760966 380.0697512750925 451.2761959533235 377.40974273113926 454.9273358190374 374.74973418718605 458.01748380768333 371.46634239457376 461.1076317963292 368.1829506019614 464.720342030917 363.72669981190325 468.3330522655047 359.270449021845 469.59310785285584 354.1099206417272 470.85316344020697 348.9493922616094 468.21228571886184 345.61648655339775 465.57140799751664 342.28358084518607 462.79297258381064 338.04512282131816 460.0145371701046 333.8066647974502 457.8072215005862 328.45454556316884 455.5999058310678 323.1024263288875 455.7794951934308 318.57848184942776 455.9590845557938 314.05453736996805 456.27177833271674 309.56586387870504 456.5844721096397 305.077190387442 457.80695072916836 300.81237438991195 459.029429348697 296.54755839238186 461.3887810438475 291.4740035307788 463.7481327389979 286.4004486691758 467.03748218677634 283.6472011675346 470.32683163455476 280.8939536658935 475.539752330096 280.55529287508773 480.7526730256373 280.2166320842819 485.0753470644688 286.0239381922637 489.3980211033003 291.8312443002455 489.13274691443195 296.2668460664215 488.8674727255636 300.70244783259756 488.23945005338874 306.2486468575122 487.61142738121396 311.7948458824268 485.8569364832423 316.8913258598177 484.10244558527063 321.98780583720855 481.34964827976023 327.1353368417514 478.5968509742498 332.28286784629427 474.7303745544941 336.8146981536289 470.8638981347384 341.3465284609635 464.56819126814196 344.8453297881622 458.27248440154546 348.3441311153609 453.0417494091774 349.29693509253434 447.8110144168093 350.24973906970786 441.78656415606355 348.90169029018995 435.7621138953178 347.55364151067204 431.5787203762393 344.6359471182595 427.3953268571608 341.7182527258469 423.1092748204308 337.25105649713265 418.8232227837008 332.7838602684184 414.84026659876747 326.1993198437526 410.85731041383417 319.6147794190869 408.8875234650351 315.3668301590723 406.91773651623606 311.11888089905773 405.64638223560405 306.71472552997733 404.37502795497204 302.31057016089693 401.72916305936894 294.55923931486933 399.0832981637658 286.80790846884173 397.66725509830735 279.95969393672397 396.2512120328489 273.11147940460626 393.869524723136 262.8120477300989 391.4878374134231 252.51261605559162 389.0819737733833 241.62626912091417 386.67611013334357 230.7399221862367 384.69449833696694 220.60688001104467 382.7128865405903 210.47383783585266 382.7225341796875 210.47120666503906 Z" fill="hsl(0, 0%, 0%)"></path><path d="M 282.2080292009629 212.56120061228057 Q 282.2080292009629 212.56120061228057 287.7312555907331 221.72244181471623 293.25448198050333 230.8836830171519 296.56053293373293 237.9375606132926 299.8665838869626 244.99143820943328 303.1846146338522 252.8804312628675 306.5026453807418 260.7694243163017 308.91768828910995 265.80415434760533 311.33273119747804 270.838884378909 313.45427482535626 275.6609026353088 315.57581845323443 280.4829208917086 317.52036692413407 285.2038553034788 319.4649153950337 289.924789715249 322.08230609989664 298.1951875334163 324.69969680475964 306.4655853515835 325.807988661421 312.03493593291785 326.9162805180824 317.6042865142522 327.51044448052926 322.89661715454434 328.10460844297614 328.1889477948365 328.49006960887914 332.5506669614854 328.8755307747821 336.9123861281343 328.75135918214005 342.0065806093973 328.62718758949796 347.1007750906603 327.7887268192492 353.27078620622075 326.95026604900045 359.4407973217812 325.77780795746656 364.51083149237013 324.6053498659327 369.5808656629591 323.1649884085416 375.210424210988 321.7246269511505 380.8399827590168 318.53272835422126 385.9118773215891 315.34082975729194 390.9837718841614 310.99624587000983 395.87824535781135 306.65166198272766 400.77271883146136 301.5599745397557 403.5892345260804 296.46828709678374 406.4057502206994 289.70761033337965 408.5372559793632 282.9469335699756 410.668761738027 276.3998333906545 412.0398058389518 269.85273321133343 413.4108499398766 264.248008067982 414.4308483187243 258.6432829246307 415.450846697572 254.21544866185127 416.3988893101954 249.78761439907188 417.3469319228188 244.5460344398395 418.6177570351914 239.3044544806071 419.8885821475641 234.8488049666234 421.5376288024184 230.39315545263972 423.1866754572727 226.59162660293921 425.403617525969 222.7900977532387 427.6205595946653 223.4323629595174 434.0814234885287 224.0746281657961 440.54228738239215 225.00104393806583 445.45588984887837 225.9274597103356 450.3694923153646 228.0483104539349 455.100069596888 230.16916119753424 459.83064687841136 232.68191824925546 463.67083734653875 235.19467530097668 467.5110278146661 238.17998690735845 470.8022897460767 241.16529851374025 474.09355167748737 244.9930126221424 476.07681248245854 248.82072673054455 478.06007328742965 244.03367584575506 478.6455251637876 239.24662496096553 479.23097704014566 233.74381737629776 479.09222418202194 228.24100979162998 478.9534713238982 223.27597502067198 481.266572542439 218.31094024971395 483.5796737609798 214.84136008174016 487.6848748341663 211.37177991376637 491.79007590735273 210.3398811792149 495.9459626262394 209.30798244466342 500.101849345126 210.64923897770137 504.7116446263687 211.99049551073932 509.32143990761136 215.8700722403223 514.9489699888738 219.74964896990525 520.5765000701363 223.09294984721856 523.4531612593003 226.43625072453185 526.3298224484641 230.464525321233 529.2537816873094 234.49279991793412 532.1777409261545 240.70813900791694 535.8212013764123 246.92347809789976 539.4646618266701 253.3579172762609 541.7581877197626 259.79235645462205 544.0517136128552 269.4484390876653 545.9096415240591 279.1045217207086 547.767569435263 288.99917602508106 548.8394812064284 298.89383032945346 549.9113929775939 308.5364154979941 550.5546476924732 318.1790006665347 551.1979024073524 330.6882869406255 551.3044759591896 343.1975732147164 551.4110495110268 353.6396134354253 551.2526181128012 364.0816536561343 551.0941867145755 375.76643096236563 551.0965745642357 387.451208268597 551.0989624138958 398.14447857662543 551.4521876174438 408.8377488846539 551.8054128209918 419.69263526251814 551.992384996142 430.54752164038234 552.1793571712923 446.0030687928696 552.5867212448474 461.45861594535694 552.9940853184024 474.6502170075669 553.4877038672455 487.84181806977676 553.9813224160885 498.8669709223349 554.5062515663351 509.8921237748929 555.0311807165816 520.2969738588637 555.5655110180339 530.7018239428344 556.0998413194862 538.1392518040981 556.0786901850815 545.5766796653618 556.0575390506767 552.9033807047433 555.3585596543476 560.2300817441247 554.6595802580183 566.2933165139384 553.4891959655358 572.3565512837522 552.3188116730532 577.6421855714445 551.279783614799 582.9278198591369 550.240755556545 592.3061168166432 550.9008968162191 601.6844137741497 551.5610380758931 618.3829874408377 556.502841502381 635.0815611075259 561.444644928869 666.3111725370063 580.9313624885835 697.5407839664867 600.4180800482981 697.5382128750714 600.4223683450384 697.5356417836559 600.4266566417788 697.5330706922405 600.4309449385191 697.5304996008251 600.4352332352595 665.9248914639376 582.2484633022796 634.31928332705 564.0616933692996 617.9223028842234 559.6947531031885 601.5253224413967 555.3278128370773 592.5328152384182 555.335469368531 583.5403080354395 555.3431258999846 578.1844871925329 555.6022208617264 572.8286663496262 555.8613158234684 566.6033985832878 556.328648034837 560.3781308169495 556.7959802462057 552.9576142620758 557.1170702431291 545.5370977072023 557.4381602400524 538.1089410578568 556.983791179845 530.6807844085113 556.5294221196376 520.2746946053868 556.0444161250837 509.86860480226227 555.5594101305297 498.8439617118389 555.102591539254 487.8193186214155 554.6457729479785 474.6295190014953 554.246087412909 461.4397193815751 553.8464018778394 445.9886171090826 553.5685645912695 430.53751483659005 553.2907273046995 419.67181740544845 553.28215158746 408.8061199743069 553.2735758702205 398.1426781920965 553.1666883857927 387.47923640988614 553.059800901365 375.8300478833864 553.3962612636923 364.18085935688663 553.7327216260196 353.72006629642215 554.3603431987756 343.2592732359577 554.9879647715314 330.6692039007389 555.5273841236561 318.0791345655202 556.0668034757808 308.3317905631439 556.3118282951968 298.5844465607676 556.5568531146129 288.3562102349266 556.6917533670414 278.12797390908554 556.82665361947 267.3532413155925 556.4798485454105 256.57850872209946 556.133043471351 248.94105722209844 554.6556529423165 241.30360572209742 553.1782624132819 232.82561227470012 550.7823595449318 224.34761882730282 548.3864566765817 219.3038184021123 545.6002928955406 214.26001797692183 542.8141291144995 209.0074753973945 539.3386597375707 203.75493281786714 535.863190360642 198.8345843761659 531.2322835900961 193.91423593446467 526.6013768195502 190.14074195339208 519.4606290113643 186.3672479723195 512.3198812031785 185.2682183256246 504.919304283678 184.1691886789297 497.51872736417744 185.4297155502781 491.5446608030908 186.69024242162655 485.57059424200406 189.71933533785312 479.3779178091539 192.74842825407973 473.18524137630385 196.82191100370744 468.96990061672284 200.89539375333518 464.75455985714177 204.87213146311308 462.0414433038768 208.848869172891 459.3283267506118 215.47582098611767 456.5563961380502 222.10277279934434 453.78446552548866 229.53507802764778 453.4794045240707 236.96738325595126 453.17434352265275 242.4470212608665 453.7100344698858 247.92665926578178 454.2457254171188 253.922923457074 456.39113273928626 259.91918764836623 458.53654006145365 264.25104579738604 462.31415984668376 268.58290394640585 466.0917796319138 270.8131598960982 470.35559398651634 273.0434158457906 474.61940834111886 273.39899563809877 480.40559456011954 273.754575430407 486.19178077912017 271.6017751535823 491.14690311315564 269.44897487675763 496.10202544719107 265.27341784256134 499.19830325846624 261.097860808365 502.2945810697414 254.8570979957118 502.433486426303 248.61633518305862 502.57239178286454 243.99834368103825 501.22708001214977 239.38035217901785 499.881768241435 234.68155295484814 497.37211665435586 229.9827537306784 494.86246506727673 225.14364659163667 490.5166923494396 220.30453945259492 486.17091963160254 216.3359952071325 481.05597102231013 212.3674509616701 475.94102241301766 209.0953181831424 470.05579470073155 205.8231854046147 464.17056698844544 203.2594009435973 457.53958388083316 200.69561648257994 450.9086007732209 200.37868117891546 445.6358926649373 200.06174587525098 440.36318455665366 200.16543429764658 435.66368198332316 200.26912272004216 430.9641794099927 201.257140060893 424.7158121076046 202.24515740174385 418.4674448052165 204.81595517724475 414.51070847377605 207.38675295274564 410.5539721423357 211.01834567228607 408.22681514557223 214.6499383918265 405.89965814880884 220.43351287152416 403.7799017898356 226.21708735122178 401.66014543086237 232.16868088849532 400.2124896449425 238.12027442576886 398.76483385902253 244.3872129500015 397.95255205306 250.65415147423414 397.14027024709753 255.9303413639378 396.73474256916523 261.20653125364146 396.32921489123294 267.26639723052995 395.39219564898065 273.32626320741844 394.4551764067284 279.2192238105299 393.46398888273 285.11218441364144 392.4728013587316 289.82944858973633 391.08409635362955 294.5467127658313 389.6953913485275 298.9934882413679 386.5447916726128 303.44026371690455 383.3941919966981 305.8697281715687 379.6336763261019 308.29919262623275 375.8731606555057 310.3732776836832 371.155797569015 312.4473627411337 366.43843448252426 313.67288402177434 362.22802272384 314.898405302415 358.0176109651558 315.45217713121656 352.268112931875 316.0059489600181 346.5186148985942 316.3340909731808 337.8562532057813 316.66223298634355 329.1938915129683 316.3726139709451 324.4281168676855 316.08299495554667 319.6623422224027 315.111797452572 314.3158194267177 314.1405999495973 308.96929663103276 312.6858723662849 300.87256391829294 311.2311447829726 292.7758312055532 309.85689361613106 287.9192803785462 308.48264244928953 283.06272955153923 307.04531755913706 278.0997038407795 305.60799266898465 273.1366781300198 303.8992991056998 267.89803200410523 302.1906055424149 262.6593858781907 298.63910814828284 254.87587276206727 295.0876107541507 247.09235964594387 292.1469415840893 239.93680176959617 289.2062724140279 232.78124389324847 285.6980962159075 222.675466586773 282.1899200177871 212.56968928029755 282.198974609375 212.56544494628906 Z" fill="hsl(0, 0%, 0%)"></path><path d="M 326.18705721987357 550.7810813843585 Q 326.18705721987357 550.7810813843585 329.7112260706843 555.3738159970769 333.235394921495 559.9665506097955 336.20233748109 564.9195495557258 339.16928004068507 569.8725485016562 342.2573562176866 576.9284213492716 345.3454323946882 583.984294196887 347.74148514859104 589.6418412696335 350.1375379024939 595.2993883423798 352.38870209615686 601.3308670708311 354.6398662898198 607.3623457992826 357.24925195189235 616.6741039737091 359.85863761396496 625.9858621481355 360.36741640114167 631.1375813612267 360.8761951883184 636.289300574318 360.64120480322475 642.5788913924023 360.4062144181311 648.8684822104867 359.3955793474556 654.8490778442251 358.38494427678006 660.8296734779634 355.13865221620904 668.7958880656618 351.89236015563796 676.76210265336 348.1260634580768 684.5215553159856 344.35976676051564 692.281007978611 337.4129108779366 703.4152131825526 330.46605499535764 714.5494183864944 324.7012147034932 723.6346513650226 318.93637441162866 732.7198843435509 311.79860443883865 741.9528432314717 304.66083446604864 751.1858021193925 299.8848547126522 756.9494428365767 295.1088749592558 762.7130835537608 291.60690692963107 766.9839383358437 288.10493890000635 771.2547931179266 284.65109043217336 774.4779146181404 281.1972419643404 777.7010361183543 278.3912957453002 779.5140523948068 275.5853495262601 781.3270686712592 275.5822936325227 781.3231112082505 275.5792377387853 781.3191537452417 275.5761818450479 781.3151962822329 275.57312595131054 781.3112388192242 277.97801245135764 779.1005280166286 280.38289895140474 776.889817214033 283.52307094392415 773.478726791119 286.66324293644357 770.067636368205 290.1764322658511 765.8120337530387 293.6896215952586 761.5564311378724 298.3364414412396 755.7579627677792 302.98326128722056 749.9594943976858 309.51664087730387 740.487634339439 316.0500204673872 731.0157742811922 321.20219059287626 721.5901819762287 326.3543607183653 712.164589671265 332.3443727525373 700.994270885557 338.3343847867093 689.8239520998487 340.92399578216975 681.9362100752007 343.5136067776303 674.0484680505529 345.3055574276617 666.4481129926444 347.0975080776931 658.847757934736 348.0247275236924 653.7015617093261 348.95194696969173 648.5553654839164 349.02650117633766 642.8311755948139 349.1010553829836 637.1069857057113 348.92148378399605 632.4080460110372 348.7419121850085 627.7091063163632 347.3374040876688 619.0573331355724 345.93289599032903 610.4055599547817 343.96723127550354 604.3726815290431 342.0015665606781 598.3398031033047 340.14247263824325 592.6109972615507 338.2833787158084 586.8821914197968 335.6094168721992 579.8968610632572 332.9354550285899 572.9115307067177 330.844804681233 567.493454098754 328.7541543338761 562.0753774907904 327.4615575902044 556.4324874086847 326.1689608465327 550.789597326579 326.1780090332031 550.7853393554688 Z" fill="hsl(0, 0%, 0%)"></path><path d="M 385.85633471485244 210.4777559751746 Q 385.85633471485244 210.4777559751746 380.6205240600793 207.1075393839148 375.3847134053061 203.73732279265496 372.3282498198614 200.51450664211387 369.2717862344167 197.29169049157275 366.64398692026634 192.94747007785324 364.0161876061159 188.60324966413373 361.24396140864593 182.54881150041666 358.47173521117594 176.49437333669962 357.3383819761339 171.423808659402 356.2050287410919 166.35324398210437 356.8008183283044 159.86953946677292 357.3966079155169 153.38583495144147 362.8470160486048 146.91329304679516 368.29742418169275 140.44075114214886 372.0554592314853 138.28629067227024 375.8134942812779 136.13183020239163 380.3250004105786 134.40064460240438 384.8365065398793 132.66945900241717 389.5720037249868 131.7622855525358 394.30750091009435 130.85511210265437 398.87003315466166 130.80048984663915 403.43256539922896 130.74586759062393 408.04393337676515 131.1462798874892 412.65530135430134 131.54669218435444 417.10436993880313 132.371479186709 421.5534385233049 133.19626618906355 429.8316756974592 136.6121447553613 438.1099128716136 140.02802332165905 443.5853888351011 141.31469130956566 449.0608647985887 142.60135929747227 454.8548042203316 142.86685410167846 460.64874364207446 143.13234890588464 464.8441686223129 141.23114285354592 469.03959360255135 139.32993680120717 470.3525337522061 133.39210167841333 471.6654739018609 127.45426655561945 471.36564569381017 120.05267540594706 471.0658174857594 112.65108425627466 470.0311338926929 108.05990559525188 468.99645029962636 103.46872693422911 466.86247791475614 98.00618748219367 464.7285055298859 92.54364803015824 461.2398838764602 85.98336433770866 457.75126222303453 79.42308064525909 453.4815049477564 74.16570107137883 449.2117476724782 68.90832149749859 443.23182749190784 64.05516017372435 437.25190731133745 59.20199884995009 430.57056909214555 54.83605540654884 423.8892308729536 50.47011196314759 417.6651301171614 47.47052000139544 411.4410293613693 44.470928039643304 404.89767149723764 42.79922633131929 398.35431363310596 41.12752462299527 392.2830848193428 40.07470297805984 386.2118560055796 39.02188133312441 379.97872168786546 38.21805929865629 373.74558737015127 37.41423726418817 369.2274531182844 36.731712823933236 364.7093188664175 36.0491883836783 360.43922842378413 35.56616274384188 356.1691379811507 35.08313710400546 351.1848139048492 35.06427846357248 346.20048982854763 35.0454198231395 346.1983133539079 35.040918383576134 346.1961368792682 35.03641694401277 346.19396040462846 35.03191550444941 346.19178392998873 35.027414064886045 347.935862869733 33.868185530008 349.6799418094772 32.70895699512995 354.349568922828 30.589325430192478 359.01919603617876 28.469693865255003 363.8784466450122 27.33169443051157 368.7376972538456 26.193694995768137 374.56075613760845 25.52309453471322 380.38381502137133 24.852494073658303 387.575962292663 24.6838982343423 394.7681095639546 24.515302395026296 401.8184825205738 25.418900602639344 408.868855477193 26.32249881025239 413.49101115342984 27.534840510589696 418.1131668296667 28.747182210927004 425.29684722909553 32.23218785333862 432.48052762852444 35.71719349575024 436.69492962660513 38.13498380477007 440.90933162468576 40.552774113789916 444.40913613993683 43.08611665110935 447.9089406551879 45.61945918842878 451.7538177755607 48.536906769080886 455.5986948959335 51.454354349733 458.97119444216924 54.43209958211195 462.34369398840494 57.4098448144909 467.47067514869354 64.15806451584866 472.59765630898215 70.90628421720643 474.6641310734328 74.63165462359098 476.7306058378835 78.35702502997552 478.53155347288555 82.28739238316132 480.3325011078876 86.21775973634712 482.34008070126947 92.95864454703883 484.34766029465135 99.69952935773055 485.7522554876725 105.04338120533123 487.1568506806937 110.38723305293189 487.60070860310566 120.19805802543063 488.04456652551755 130.00888299792936 487.0370182548527 136.97237178233263 486.0294699841878 143.93586056673587 480.710022662585 150.20464448773342 475.3905753409822 156.47342840873097 467.47239819830764 157.13517385312815 459.5542210556331 157.79691929752536 452.9415510034413 156.60758853881023 446.3288809512495 155.4182577800951 440.539643260101 154.30273701601604 434.7504055689525 153.18721625193697 426.44030964660556 152.36757659205523 418.13021372425857 151.54793693217349 410.73949419743457 150.69183786611896 403.34877467061057 149.83573880006443 397.56906459836125 150.18475478220006 391.78935452611194 150.5337707643357 385.91812320725785 152.98855940095052 380.04689188840376 155.44334803756536 376.18852784529327 158.36490352860255 372.3301638021827 161.28645901963978 371.97012041511493 166.91450771844626 371.6100770280472 172.5425564172527 372.71300487303307 178.23103361819193 373.8159327180189 183.91951081913118 377.2522681341396 191.53088931658283 380.68860355026027 199.1422678140345 383.2800260192664 204.803462584469 385.87144848827256 210.46465735490352 385.8638916015625 210.47120666503906 Z" fill="hsl(0, 0%, 0%)"></path><path d="M 267.5364544604748 56.55409972821018 Q 267.5364544604748 56.55409972821018 262.11084977469403 56.095493305996676 256.6852450889133 55.63688688378317 250.50708398027587 54.615989228566974 244.32892287163847 53.595091573350786 238.9559511479607 52.76299819581169 233.5829794242829 51.93090481827259 227.47096757004556 51.08338051405535 221.3589557158082 50.23585620983811 215.23715505075876 49.63827744726608 209.11535438570928 49.04069868469405 202.73649384837918 48.7490027477499 196.35763331104909 48.45730681080574 190.4539107070356 48.66964786881439 184.5501881030221 48.881988926823034 177.12228499435227 50.81652990734743 169.69438188568245 52.75107088787183 165.59643561985513 54.56703701586833 161.4984893540278 56.383003143864826 157.59861914571144 58.81680235542707 153.6987489373951 61.25060156698931 150.63114769495903 64.37015009163999 147.56354645252296 67.48969861629067 142.74782695102584 75.39661477684996 137.9321074495287 83.30353093740923 136.77886618398125 87.39850418074732 135.6256249184338 91.49347742408543 134.5586785406295 97.40478600413459 133.4917321628252 103.31609458418377 133.53327964024612 107.80138717237557 133.574827117667 112.28667976056735 134.3943290880231 117.11927830758619 135.2138310583792 121.95187685460502 138.06005249885533 127.90511491936559 140.90627393933144 133.85835298412616 149.26703485177575 138.5193996888512 157.62779576422005 143.18044639357623 163.4442914559617 145.59915683016763 169.26078714770333 148.01786726675903 176.4729429260077 149.95320014206766 183.6850987043121 151.88853301737632 188.93023648036444 152.3554703639153 194.17537425641677 152.82240771045429 200.30704660699536 153.38139497073865 206.4387189575739 153.94038223102302 215.45712059110295 155.2392584537835 224.475522224632 156.53813467654396 229.44804822458144 158.17761292717557 234.4205742245309 159.8170911778072 239.91091838361456 162.46390401959496 245.40126254269825 165.11071686138274 253.03625456718044 170.0574163744276 260.6712465916626 175.0041158874724 265.8562120751121 180.11223728114464 271.04117755856157 185.22035867481685 273.8599140316377 189.47693674964464 276.67865050471386 193.73351482447242 280.2992265450944 201.64193174123196 283.919802585475 209.5503486579915 284.95058112059564 216.81186613510215 285.9813596557163 224.07338361221284 284.9744532359822 230.83571462836892 283.96754681624816 237.59804564452497 282.5433016633155 240.61765588556915 281.11905651038285 243.63726612661333 281.1141749780161 243.6361841646211 281.10929344564937 243.6351022026289 281.10441191328266 243.6340202406367 281.0995303809159 243.63293827864447 281.0344332048866 240.52042475913697 280.96933602885736 237.40791123962947 279.768129983143 231.37619683089554 278.5669239374286 225.34448242216158 276.6052961508912 219.69162892120676 274.6436683643538 214.03877542025197 270.69748233910354 207.44997697258304 266.7512963138533 200.86117852491412 263.88598076977905 197.21113317989906 261.02066522570476 193.561087834884 256.9465251069927 188.95934210517322 252.87238498828054 184.35759637546246 246.74654693731887 179.7147281759759 240.6207088863572 175.07185997648935 235.59278923992372 172.6712517241125 230.56486959349022 170.2706434717356 226.37215684694476 168.53398040705338 222.1794441003993 166.79731734237117 213.89179100430238 164.71135387913682 205.60413790820544 162.62539041590247 199.34039370900337 161.99457223128766 193.07664950980126 161.36375404667285 187.57309975690043 160.4478397719417 182.0695500039996 159.5319254972105 173.90753116081265 158.21348985188348 165.74551231762567 156.89505420655644 159.47126101107423 154.49121991628448 153.1970097045228 152.08738562601252 141.6090977625275 146.81795886955172 130.02118582053222 141.5485321130909 126.48963289901053 132.7420479556487 122.95807997748885 123.93556379820649 122.045079433678 118.01723162386206 121.13207888986715 112.09889944951763 121.34723199155404 106.87150172451783 121.56238509324093 101.64410399951801 122.32061313926101 94.6188784657501 123.07884118528108 87.59365293198218 124.80343737376893 82.5001020526785 126.5280335622568 77.40655117337484 129.41237830256003 71.72377775068011 132.29672304286325 66.0410043279854 135.46713727782065 62.14091019663829 138.63755151277806 58.24081606529118 142.88153411193116 54.32835714094185 147.12551671108426 50.41589821659252 151.92920893248373 47.63733268645322 156.73290115388323 44.85876715631393 165.7506309642867 42.20373878564885 174.7683607746902 39.54871041498377 179.5199972466151 39.076765861005754 184.27163371854004 38.60482130702773 190.5690610180603 38.498333645917384 196.86648831758055 38.39184598480704 203.6125985220785 38.76666058948949 210.35870872657648 39.141475194171946 216.70219368941514 40.112156529544876 223.04567865225383 41.0828378649178 229.2634427598328 42.50864155748799 235.48120686741177 43.93444525005818 240.70245358617402 45.6179777197395 245.92370030493626 47.301510189420824 251.92289658384158 49.36634580961814 257.92209286274687 51.43118142981546 262.7320953241829 53.983046923800686 267.542097785619 56.53491241778591 267.5392761230469 56.54450607299805 Z" fill="hsl(0, 0%, 0%)"></path><path d="M 267.5409895342017 40.847552007787996 Q 267.5409895342017 40.847552007787996 260.91243526091023 43.75103683692908 254.28388098761874 46.65452166607017 248.1062183566698 48.158393237838 241.92855572572088 49.66226480960584 233.48474466596133 52.589946826467155 225.04093360620178 55.51762884332848 218.6089268021471 59.28795824739635 212.1769199980924 63.058287651464205 208.98771531816686 66.07486655930441 205.7985106382413 69.09144546714461 203.73964037802494 73.03153708135913 201.6807701178086 76.97162869557366 201.2619850842173 81.30185445348454 200.84320005062597 85.6320802113954 201.1200840269517 91.62585548893618 201.39696800327744 97.61963076647696 202.00037826049055 104.048032515436 202.6037885177037 110.47643426439507 201.83984201824646 115.13836486182925 201.07589551878922 119.80029545926344 197.544559893165 123.21932749149008 194.01322426754078 126.63835952371673 187.877680832931 128.05099976593004 181.74213739832118 129.46364000814336 180.12472037166356 129.67884077123 178.50730334500594 129.89404153431664 178.50511368837817 129.8895464921753 178.50292403175038 129.88505145003396 178.5007343751226 129.8805564078926 178.49854471849483 129.87606136575127 182.51457115253663 126.22628593294354 186.53059758657847 122.57651050013583 188.25386880303103 118.52575854787099 189.9771400194836 114.47500659560616 188.6154618636885 109.73117513883628 187.2537837078934 104.98734368206641 185.94682591573437 99.89230103877428 184.63986812357533 94.79725839548215 184.3170018387874 89.63495898804015 183.9941355539995 84.47265958059815 184.80951120908395 77.95481049102312 185.6248868641684 71.43696140144812 187.32304086661892 67.32511954834153 189.02119486906946 63.21327769523494 192.46214587831463 60.026955188599985 195.90309688755983 56.84063268196502 200.8651598728003 53.82011080944868 205.82722285804078 50.79958893693233 213.68941803763454 47.7303452609933 221.55161321722827 44.66110158505427 226.73857051514767 43.35477560888097 231.92552781306705 42.04844963270767 236.18108516858155 41.666917615923325 240.43664252409602 41.28538559913897 246.76748870891245 40.56150807355955 253.0983348937289 39.837630547980126 260.31794880281046 40.332739160232784 267.53756271189206 40.82784777248544 267.5392761230469 40.83769989013672 Z" fill="hsl(0, 0%, 0%)"></path><path d="M 290.57350237812466 53.39344341142433 Q 290.57350237812466 53.39344341142433 295.038873441655 50.78305629321235 299.5042445051854 48.172669175000365 305.44768628835124 46.485045005447944 311.3911280715171 44.79742083589553 317.09687774758856 43.87318935858417 322.8026274236601 42.94895788127281 327.03600283352574 42.35005698293418 331.2693782433914 41.75115608459555 338.18812732053004 41.27047809062656 345.10687639766866 40.78980009665757 353.9228193910332 44.08400844412241 362.7387623843978 47.37821679158725 368.6602889747416 51.857045077047715 374.58181556508544 56.33587336250818 377.5477657966073 59.94787318004045 380.5137160281291 63.559872997572725 382.94613923520205 67.16753450301402 385.3785624422749 70.77519600845532 388.7583920184942 75.64811019292792 392.13822159471346 80.52102437740051 396.94433990450204 85.35050903124215 401.75045821429063 90.17999368508382 406.8487806927861 92.50898463101588 411.9471031712815 94.83797557694794 411.9466918851664 94.84295863261003 411.9462805990513 94.84794168827213 411.9458693129362 94.85292474393422 411.9454580268211 94.85790779959632 405.60983040926465 95.19081197543129 399.2742027917082 95.52371615126626 393.2148860168706 93.16901996749864 387.155569242033 90.81432378373103 383.6103896729918 87.4153887857745 380.0652101039506 84.01645378781797 374.9310499903745 78.75324353623594 369.79688987679845 73.4900332846539 364.736148200878 68.68642126963277 359.67540652495757 63.88280925461166 354.07466909761786 60.4533900407773 348.4739316702782 57.02397082694294 343.36403284972585 55.32258085533437 338.25413402917354 53.6211908837258 330.9442261797823 53.15634226085193 323.63431833039107 52.69149363797806 318.2524953789182 52.71405499101472 312.87067242744536 52.73661634405138 306.8926553368624 53.27674001061193 300.9146382462794 53.81686367717249 295.7464956684524 53.61485496929986 290.57835309062534 53.412846261427234 290.575927734375 53.40314483642578 Z" fill="hsl(0, 0%, 0%)"></path><path d="M 244.51021707495318 125.64794917529649 Q 244.51021707495318 125.64794917529649 249.55393999920528 128.63309537515096 254.59766292345736 131.6182415750054 258.1120054322122 134.05295650246455 261.62634794096704 136.48767142992367 265.6899680849149 139.09475241141774 269.75358822886267 141.70183339291182 273.86073164418724 139.39351242742103 277.96787505951187 137.08519146193024 281.7609901769187 133.35455446464854 285.55410529432555 129.62391746736685 288.6836798241487 125.88937022521631 291.8132543539719 122.15482298306577 298.0801387590933 120.12020585716802 304.34702316421476 118.08558873127026 308.954866302764 120.72477841398079 313.5627094413133 123.36396809669131 318.5021926070734 126.25222541022195 323.44167577283355 129.1404827237526 329.60702817991614 125.49133967738408 335.7723805869987 121.84219663101557 340.1618497967771 118.47932962231971 344.55131900655556 115.11646261362385 348.5470335711848 111.7694224893404 352.54274813581395 108.42238236505695 352.54717436464614 108.42470798289423 352.5516005934783 108.42703360073152 352.5560268223105 108.4293592185688 352.5604530511427 108.43168483640609 351.0648745881375 113.6599361765415 349.56929612513227 118.88818751667692 347.0192853411724 124.2772557733748 344.46927455721254 129.66632403007267 339.3313663434973 136.1824362776421 334.19345812978196 142.69854852521152 329.94774664501307 145.23985074894034 325.7020351602442 147.7811529726692 318.812775847544 147.32575249532653 311.9235165348439 146.87035201798386 309.5990731111933 141.64700369534174 307.27462968754276 136.4236553726996 303.8436692043275 139.11823094062862 300.41270872111227 141.81280650855766 296.4662617731134 144.66883896933635 292.51981482511445 147.52487143011504 288.6322491292161 149.95657754797836 284.7446834333178 152.38828366584167 279.3529095145327 153.70760873120747 273.96113559574763 155.02693379657325 268.0845706740158 153.28551905520004 262.20800575228407 151.54410431382686 258.7018384080694 147.6028317535742 255.19567106385472 143.66155919332155 252.02676819983736 140.10543814418003 248.85786533581998 136.54931709503853 246.67644864215214 131.10514105215617 244.49503194848432 125.66096500927382 244.50262451171875 125.65445709228516 Z" fill="hsl(0, 0%, 0%)"></path><path d="M 247.63482036129798 92.14259062517033 Q 247.63482036129798 92.14259062517033 248.28150116564922 86.68681811116261 248.92818197000042 81.23104559715489 250.68084009110112 76.11963191404935 252.4334982122018 71.00821823094381 254.81235072249302 67.39684978823882 257.19120323278423 63.78548134553385 257.13322721181083 60.80511580724761 257.07525119083743 57.82475026896137 257.0802376473616 57.824382503638546 257.08522410388576 57.82401473831572 257.0902105604099 57.82364697299289 257.0951970169341 57.82327920767007 259.0529495744574 61.424831401067706 261.0107021319807 65.02638359446534 260.15984193271925 69.30764355896471 259.3089817334578 73.58890352346407 257.0490451301418 78.692018524617 254.78910852682577 83.79513352576993 251.22112601635763 87.97287026621777 247.65314350588952 92.15060700666561 247.64398193359375 92.14659881591797 Z" fill="hsl(0, 0%, 0%)"></path><path d="M 302.09993037708455 57.58340328896939 Q 302.09993037708455 57.58340328896939 306.96081928193837 58.92447874183745 311.82170818679225 60.265554194705494 315.69257316722104 62.637638607843 319.56343814764983 65.00972302098052 324.51089239680357 66.66322300870829 329.45834664595736 68.31672299643604 329.45974385452985 68.32152380972184 329.46114106310233 68.32632462300762 329.4625382716748 68.3311254362934 329.4639354802473 68.3359262495792 323.13433514119424 69.41544161331944 316.8047348021411 70.49495697705967 312.41298471270375 68.12517473788729 308.02123462326637 65.75539249871491 305.0548904043409 61.677619818495806 302.08854618541545 57.5998471382767 302.09423828125 57.59162521362305 Z" fill="hsl(0, 0%, 0%)"></path><path d="M 275.9115503719304 34.54613953725286 Q 275.9115503719304 34.54613953725286 280.25905323211987 30.381206995615607 284.6065560923093 26.216274453978347 289.0728440080883 23.636634228798343 293.5391319238672 21.056994003618335 299.24922333947546 18.08452830909286 304.9593147550837 15.112062614567382 309.0716578568117 13.524817386186276 313.18400095853974 11.937572157805171 319.45952422120365 9.844431055842943 325.73504748386756 7.751289953880715 330.3501743144168 6.53028700532836 334.96530114496596 5.309284056776006 338.0307639836125 4.242111506337643 341.0962268222589 3.1749389558992798 341.0987836261668 3.1792357865658185 341.1013404300746 3.1835326172323573 341.10389723398237 3.187829447898896 341.1064540378902 3.1921262785654347 338.7010640286901 5.649647321364345 336.2956740194899 8.107168364163254 332.45604439623844 10.73308969914273 328.6164147729869 13.359011034122204 322.75089147437706 16.896767870072818 316.8853681757672 20.43452470602343 313.00490177471477 22.32904983446508 309.1244353736623 24.223574962906735 303.11136920460336 26.610125033124348 297.0983030355444 28.996675103341964 292.3977098668812 30.526328511861376 287.69711669821805 32.05598192038079 281.8090124111907 33.30989860855615 275.92090812416336 34.56381529673151 275.9162292480469 34.55497741699219 Z" fill="hsl(0, 0%, 0%)"></path></svg>