<svg xmlns="http://www.w3.org/2000/svg" version="1.1" xmlns:xlink="http://www.w3.org/1999/xlink" viewBox="0 0 640 800" style="overflow: hidden; display: block;" width="640" height="800"><defs></defs><g id="two-0" transform="matrix(1 0 0 1 0 0)" opacity="1"></g><path d="M 405.74093053877215 540.3527235337959 Q 405.74093053877215 540.3527235337959 411.9547999306485 531.7850893487421 418.16866932252486 523.2174551636882 424.3894044057562 515.7044883848811 430.6101394889875 508.191521606074 434.7930850854033 502.9578554515338 438.97603068181905 497.72418929699364 447.2578692917465 486.8963706460265 455.5397079016739 476.06855199505947 461.3786531415325 467.9674996384722 467.21759838139104 459.866447281885 471.65007932201934 453.40322614853005 476.08256026264763 446.9400050151752 479.67752027609856 441.53228929921767 483.27248028954943 436.12457358326014 485.6454027006103 432.2451285334598 488.0183251116712 428.36568348365955 491.35355925435067 422.7518897477473 494.6887933970301 417.1380960118351 496.9875216155075 413.0385002706611 499.28624983398487 408.93890452948705 501.8808652345021 405.18701872246095 504.4754806350193 401.4351329154348 509.0457456498541 399.0547207837656 513.6160106646889 396.67430865209644 519.1074044386362 397.19038977539526 524.5987982125835 397.70647089869414 528.7711625977912 403.0562375218602 532.943526982999 408.4060041450264 534.2696676231872 412.2190459106856 535.5958082633755 416.03208767634493 535.6846910130796 424.15858313486774 535.7735737627838 432.2850785933906 534.6556713683227 441.52673053336594 533.5377689738616 450.7683824733413 531.9521555847875 459.8765248998204 530.3665421957135 468.9846673262996 527.5549037561796 480.05248363579346 524.7432653166455 491.12029994528734 521.7593763247045 501.26924428675005 518.7754873327634 511.41818862821276 514.3546799223566 521.5537833500175 509.93387251194963 531.6893780718224 507.0609562892906 538.4702794748634 504.1880400666315 545.2511808779044 502.19420249389754 550.0071736229177 500.20036492116355 554.7631663679308 497.7987321263916 559.1659701030197 495.39709933161964 563.5687738381087 492.3857560398624 569.3941102501807 489.3744127481051 575.2194466622527 487.6008327108147 579.7668038639526 485.8272526735243 584.3141610656527 485.2252061857667 588.3293853197351 484.6231596980091 592.3446095738177 485.047587125639 597.2163599932634 485.4720145532689 602.088110412709 483.6547283862451 607.4531386862745 481.83744221922126 612.8181669598399 475.14886959503383 615.5234682057082 468.46029697084634 618.2287694515766 458.2848474907662 617.5781742293902 448.10939801068605 616.9275790072039 435.0222572425092 615.997097885231 421.93511647433246 615.0666167632581 408.0909971595423 613.5784239122631 394.24687784475225 612.0902310612681 382.89946016755687 610.7179961593326 371.55204249036154 609.3457612573972 361.4594633380143 607.5178425470729 351.36688418566706 605.6899238367487 341.2924320448173 603.156405245554 331.21797990396755 600.6228866543593 325.20729440529044 599.3458385751851 319.1966089066134 598.0687904960108 314.812210985458 596.9512160424417 310.4278130643026 595.8336415888726 305.84512042582753 594.2585753102423 301.26242778735246 592.6835090316121 298.8698711901511 588.4421008403408 296.4773145929498 584.2006926490697 298.7981400053111 576.7623762864803 301.1189654176724 569.3240599238908 303.4408210964718 565.999170801774 305.76267677527113 562.6742816796572 310.1600525069067 559.6213519992602 314.55742823854223 556.5684223188632 318.4125477527658 554.7034086614278 322.26766726698946 552.8383950039923 330.1664870650509 551.6386868910236 338.06530686311226 550.4389787780547 342.18275766801435 551.2545308210063 346.3002084729165 552.0700828639579 350.1402204957475 553.2555471509472 353.9802325185785 554.4410114379365 359.717010301972 557.4625206716648 365.4537880853655 560.4840299053933 369.44251356340584 564.1226657210815 373.4312390414462 567.7613015367697 376.1364831110898 571.4171191491805 378.8417271807334 575.0729367615913 379.82082429816376 581.239031751204 380.79992141559416 587.4051267408167 374.0927448736971 593.5128156513671 367.3855683318 599.6205045619174 363.38514315913835 600.7450539363892 359.38471798647674 601.869603310861 354.7348373362963 602.301337789431 350.08495668611585 602.7330722680011 344.8380222691928 602.4219748521825 339.5910878522697 602.1108774363638 334.84387584937895 601.0692837913757 330.09666384648824 600.0276901463877 326.0830037645683 598.6887956322271 322.06934368264837 597.3499011180666 317.2760254385066 595.5543087073534 312.4827071943649 593.7587162966402 308.22214467767924 589.59250858001 303.96158216099366 585.4263008633798 302.952491424948 578.4342471550449 301.9434006889023 571.4421934467101 303.13938941625486 567.4523771030405 304.3353781436074 563.4625607593708 307.9581356937924 559.2062480855745 311.58089324397747 554.9499354117784 314.8328429243995 552.3041411404095 318.0847926048215 549.6583468690404 322.61187215274686 547.5376387515753 327.13895170067224 545.41693063411 333.09193788398863 544.8610908024897 339.0449240673051 544.3052509708693 343.228970629858 544.7027152062414 347.4130171924109 545.1001794416134 351.50367576045016 546.2634998898218 355.59433432848937 547.4268203380302 360.88001714920233 550.4006004467919 366.16569996991535 553.3743805555536 368.5504996131082 561.8517055312543 370.93529925630105 570.3290305069552 366.5176134619855 575.4455820244441 362.09992766766993 580.5621335419329 352.74999189413427 582.8256959905947 343.40005612059855 585.0892584392565 332.2534072574522 585.7207487464343 321.10675839430576 586.352239053612 309.4096249850499 585.1884542214806 297.71249157579405 584.0246693893491 289.433336591376 581.9177026921675 281.15418160695793 579.8107359949859 274.70381996349175 577.1219816856833 268.2534583200256 574.4332273763806 264.1724849570259 572.4383860726678 260.09151159402626 570.4435447689548 254.65573414468366 564.2923394789696 249.21995669534107 558.1411341889844 247.96718027781912 554.2299275919308 246.7144038602972 550.3187209948771 246.72143420365342 545.1624726165019 246.72846454700962 540.0062242381266 247.47743284572482 532.3741991292703 248.22640114444002 524.742174020414 248.676187262291 518.2228692902444 249.12597338014197 511.7035645600747 248.94721675012437 506.0830507923217 248.76846012010677 500.46253702456875 248.250014686578 496.26794287375543 247.73156925304923 492.0733487229421 244.60502468200264 495.9214355892781 241.47848011095607 499.76952245561404 237.60972342576753 504.67990603235955 233.740966740579 509.59028960910507 229.21686246967187 515.2874598278224 224.6927581987647 520.9846300465399 221.56243800646536 525.7102109458679 218.432117814166 530.4357918451958 216.49827242905712 534.0973620468047 214.56442704394826 537.7589322484137 211.84736001939572 543.2086697627421 209.1302929948432 548.6584072770708 214.1343389274277 550.2659885597892 219.13838486001222 551.8735698425077 221.80645792765858 546.9314924963825 224.47453099530495 541.9894151502573 223.25824493872582 534.370884295947 222.0419588821467 526.7523534416366 220.3794081038672 522.800319300331 218.71685732558768 518.8482851590253 214.43425331877572 513.679930156312 210.15164931196375 508.5115751535988 204.13002976448269 505.69089651698346 198.10841021700162 502.87021788036805 191.4756569695357 500.362655856317 184.84290372206976 497.85509383226605 178.15673867861855 492.70304248384093 171.47057363516734 487.5509911354158 169.28934672959934 483.20934078278094 167.10811982403132 478.8676904301461 167.35632775651345 471.75219787309766 167.60453568899558 464.6367053160492 168.73945821284138 459.309911755116 169.87438073668716 453.9831181941828 171.54928521724153 449.41727858995824 173.2241896977959 444.8514389857337 175.0670035537109 440.9255423926186 176.90981740962584 436.99964579950347 180.86436246512218 430.9493468146912 184.81890752061852 424.8990478298789 190.51641769157362 420.8608926278677 196.2139278625287 416.82273742585653 201.127426980647 415.45959116251913 206.04092609876528 414.0964448991817 211.47871470843006 413.67085232950217 216.91650331809487 413.2452597598226 224.56348590194494 414.5952589065812 232.21046848579505 415.9452580533397 238.21221937389552 417.30544856175555 244.213970261996 418.6656390701714 249.25699170812214 420.3359679895154 254.30001315424832 422.0062969088594 259.3673641453963 424.53389449933263 264.43471513654436 427.0614920898059 268.4559637154182 429.5234861377737 272.4772122942921 431.9854801857416 275.63641304719675 434.5523538499828 278.7956138001014 437.119227514224 282.0284245237335 441.3741571457209 285.2612352473657 445.6290867772178 287.4000739798294 449.63575671115166 289.53891271229315 453.6424266450855 290.7256803495711 459.5499080664524 291.91244798684914 465.4573894878194 292.39959487761183 470.45670292339526 292.8867417683745 475.45601635897117 292.28538156495904 480.4346068470194 291.68402136154356 485.4131973350676 289.8167848199843 490.7704995796754 287.9495482784251 496.12780182428315 285.68890567494714 500.5922255132051 283.42826307146913 505.0566492021271 279.535528735961 509.3439319664031 275.6427944004529 513.6312147306791 271.94811165184797 516.6670927390735 268.2534289032431 519.702970747468 264.7189716645754 521.820829115018 261.18451442590765 523.938687482568 256.09595130892086 525.0561397343102 251.00738819193404 526.1735919860525 246.70429690659088 526.0726905135779 242.40120562124773 525.9717890411032 237.86139957959156 524.2789488801816 233.3215935379354 522.58610871926 228.2295820060036 519.4527430769703 223.1375704740718 516.3193774346805 220.93960115146763 512.5336272913039 218.7416318288635 508.7478771479274 218.60422193528353 502.4219376716352 218.4668120417036 496.095998195343 220.12149767096588 491.16482343341335 221.77618330022815 486.2336486714837 226.06825593422477 480.03252537567187 230.36032856822138 473.8314020798601 236.99681617708148 471.14884216201244 243.6333037859416 468.4662822441648 250.40028356217795 467.23071038019634 257.1672633384143 465.9951385162279 263.8880958677496 465.1985319320677 270.608928397085 464.4019253479074 279.05085720994316 464.9245102001896 287.4927860228013 465.44709505247187 293.7595528449964 465.68927273507336 300.02631966719144 465.9314504176748 305.32855221667984 466.4384205887226 310.63078476616823 466.9453907597704 317.5127815628832 468.3203902209528 324.39477835959815 469.69538968213516 328.99731309181743 470.21482420362344 333.59984782403666 470.7342587251117 338.8918141675661 470.10843002618026 344.18378051109556 469.48260132724886 348.51364545025746 465.1570671099911 352.84351038941935 460.8315328927334 355.4611101958368 455.02695140087314 358.0787100022543 449.2223699090129 359.59450199901596 442.1948769634865 361.11029399577757 435.16738401796005 360.9495071266325 427.6251207646295 360.7887202574875 420.082857511299 358.9974716116391 412.4737700324958 357.20622296579074 404.8646825536926 354.72441233752784 399.88465645209044 352.2426017092649 394.9046303504882 348.7971227464715 391.54317496765543 345.35164378367807 388.1817195848226 340.61777176329883 385.5550725886354 335.88389974291965 382.92842559244826 330.9301941041785 382.2653051030145 325.97648846543734 381.6021846135807 321.8499522990911 382.0089478274949 317.7234161327449 382.41571104140917 309.6323138991886 386.43042594152587 301.5412116656323 390.44514084164257 297.19675855384867 394.15444887676284 292.85230544206496 397.8637569118831 287.37452046790577 403.61361558971726 281.8967354937466 409.3634742675514 277.501804073891 416.0582359504812 273.1068726540353 422.75299763341104 269.7414326084827 430.1961848711288 266.37599256293 437.63937210884654 263.74514900296333 445.4589562479336 261.1143054429966 453.27854038702066 260.15959505570675 458.6386983437504 259.2048846684169 463.9988563004801 259.338480349287 468.30998393383777 259.4720760301571 472.6211115671954 260.8500554836938 477.7301255371923 262.22803493723046 482.8391395071892 266.5712680130091 485.0581446332591 270.9145010887877 487.2771497593289 280.05057847778016 487.5835153810495 289.1866558667726 487.8898810027701 293.9995808431721 487.13082575019826 298.81250581957164 486.37177049762647 303.3468402955683 484.36973921112036 307.88117477156493 482.36770792461425 311.87793780426864 479.67615096817656 315.8747008369723 476.9845940117389 319.30732884766735 473.7877329824253 322.7399568583624 470.59087195311173 326.8897563017193 465.0307983553688 331.03955574507614 459.47072475762593 333.6138533769967 453.8173826923058 336.18815100891726 448.16404062698564 337.6485031598596 442.1293050900347 339.1088553108019 436.0945695530838 339.7033297723567 430.7898629304352 340.29780423391156 425.48515630778667 340.35163145292324 420.58722686347403 340.40545867193487 415.68929741916145 339.63615590349383 410.4551120144669 338.8668531350528 405.2209266097724 338.0967574765318 401.2452527053255 337.3266618180109 397.26957880087866 335.6192904046534 391.88230506726734 333.91191899129586 386.49503133365596 333.1710313727791 384.46144284985553 332.4301437542623 382.42785436605504 332.43475584114566 382.42592339361084 332.439367928029 382.42399242116664 332.44398001491237 382.42206144872245 332.4485921017957 382.42013047627825 333.8094970833124 384.1103771263886 335.17040206482915 385.800623776499 338.1606712381014 391.0411520073311 341.1509404113736 396.2816802381633 342.42953968353004 400.25783172685516 343.7081389556864 404.233983215547 345.1668319713989 409.9325865776816 346.62552498711136 415.6311899398162 346.7367694751332 420.90269210104816 346.848013963155 426.1741942622801 346.2813770873164 431.8352476242998 345.7147402114779 437.49630098631957 344.4430656862004 444.3010392672692 343.17139116092295 451.10577754821884 340.61360152503784 457.5157219794065 338.0558118891527 463.9256664105942 334.0188268374888 471.1950603649515 329.9818417858249 478.4644543193087 325.81750975423756 482.1224098791508 321.65317772265024 485.7803654389929 316.8483813670333 488.84793718727815 312.04358501141644 491.91550893556337 306.2382194905375 494.39072800782634 300.43285396965854 496.8659470800893 295.1755982462634 497.56799913135376 289.9183425228683 498.27005118261815 283.1727194255137 498.7995648379606 276.4270963281591 499.3290784933031 271.4215013910882 498.0519561862319 266.4159064540173 496.77483387916067 262.4594692857846 494.35538150759635 258.503032117552 491.935929136032 256.38714848174504 488.52799596686856 254.27126484593808 485.12006279770515 254.10442598844082 478.6972931861806 253.93758713094354 472.2745235746561 254.6359234991483 467.6642447098774 255.33425986735307 463.05396584509873 257.0045825354532 457.79243060538636 258.6749052035533 452.530895365674 260.92437857107814 444.43185964169413 263.1738519386029 436.3328239177143 266.10658479344386 428.3563900995256 269.03931764828474 420.37995628133694 272.98243874739285 412.8291704602498 276.9255598465009 405.2783846391627 281.99312255310656 398.24901102353783 287.0606852597122 391.21963740791296 291.974037668616 386.89607738006896 296.88739007751985 382.57251735222496 302.4661350459057 379.3441039997956 308.0448800142915 376.1156906473663 312.7419933384749 375.11326684570486 317.43910666265833 374.11084304404346 322.35436843051866 374.27429576337425 327.269630198379 374.43774848270505 333.220891723304 375.7945955881621 339.17215324822905 377.15144269361923 344.542250237717 380.57391270896306 349.912347227205 383.9963827243069 353.38992494204024 388.38696600429057 356.8675026568755 392.7775492842742 359.0091335650136 398.2602255252134 361.15076447315164 403.74290176615267 363.7570652488902 411.67833802359127 366.3633660246288 419.61377428102986 367.4761135539329 427.9071579852169 368.5888610832371 436.2005416894039 367.9163201417218 444.3974807222735 367.24377920020663 452.59441975514306 364.71236032832553 460.5760760611402 362.1809414564445 468.55773236713736 358.4740609648338 472.415493068451 354.7671804732232 476.2732537697646 350.3939161769025 478.2636369823215 346.02065188058174 480.2540201948783 339.10709500922815 479.83380816657996 332.19353813787455 479.41359613828166 327.6718056847461 478.4532699963577 323.1500732316176 477.4929438544337 316.3405946915999 476.68240560172785 309.5311161515821 475.871867349022 304.6540677071268 475.12506951048454 299.77701926267144 474.378271671947 293.7585989862948 474.2628698553174 287.74017870991827 474.1474680386878 280.23809931922096 475.1249414457435 272.7360199285236 476.10241485279926 266.5699157179903 477.6723450737586 260.403811507457 479.242275294718 254.9958273237313 480.98256244888483 249.58784314000562 482.72284960305166 244.47202021086042 485.3200909242863 239.3561972817152 487.9173322455209 236.9240954008348 492.3086844702258 234.49199351995443 496.70003669493065 234.8369372679674 501.3986567025277 235.18188101598034 506.0972767101248 239.47008510959807 508.7539760030468 243.7582892032158 511.4106752959688 249.25237899055622 511.50357552883906 254.74646877789664 511.59647576170937 260.39079773443626 508.129181981751 266.03512669097586 504.6618882017926 270.7644561861239 498.2429152431202 275.49378568127185 491.8239422844478 277.6137638407877 484.2015659837373 279.7337420003036 476.5791896830268 279.3606022044827 472.3018805945085 278.98746240866177 468.0245715059902 276.8222840254489 460.71956193391736 274.65710564223605 453.4145523618446 270.1700778527122 447.9404012082801 265.68305006318843 442.4662500547156 262.3837150466861 440.2028240550976 259.08438003018375 437.93939805547956 254.70421707276734 435.82953807477185 250.3240541153509 433.71967809406414 246.09990406945042 432.25573076883256 241.87575402354997 430.791783443601 236.44226766794577 429.9621320702489 231.00878131234157 429.13248069689683 224.71161705984383 429.2185843802355 218.41445280734607 429.3046880635742 214.37465004139 429.7939387738993 210.33484727543396 430.28318948422447 203.75048354916066 432.7318543086176 197.1661198228874 435.18051913301065 193.90452819287123 439.39941914015697 190.64293656285506 443.6183191473033 187.68299581959536 450.2720991162125 184.7230550763357 456.92587908512166 183.71698378599194 464.8952070890519 182.71091249564816 472.8645350929821 184.81660045665308 476.50260078160613 186.92228841765802 480.1406664702302 191.78051218424753 482.75093461712845 196.63873595083703 485.36120276402676 200.43117694365765 486.8685698038369 204.22361793647826 488.3759368436471 208.20202776292626 490.12607589824523 212.18043758937424 491.8762149528434 216.86756523467096 494.73791272598726 221.55469287996772 497.5996104991312 224.33803970928983 500.7119502277894 227.12138653861192 503.82428995644756 230.0756866424599 508.0228803130792 233.02998674630794 512.2214706697108 235.58717284421425 517.4591342041404 238.1443589421206 522.6967977385698 239.42770336541406 527.540203374042 240.71104778870756 532.3836090095143 241.53625412386782 538.5898419718843 242.36146045902805 544.7960749342543 241.40189349347014 549.3896544352085 240.4423265279122 553.9832339361627 238.22809920515556 557.8460768547047 236.01387188239894 561.7089197732469 232.23293733427954 564.4941727951207 228.45200278616014 567.2794258169944 223.1149182268291 567.8172123702695 217.77783366749807 568.3549989235447 210.89549816698906 566.7253849011477 204.01316266648004 565.0957708787506 199.69852642213382 559.3941545029384 195.3838901777876 553.692538127126 196.47134149562265 548.2537092813488 197.5587928134577 542.8148804355716 201.1116752827228 537.4312611867231 204.66455775198793 532.0476419378747 206.98900829874626 528.3276113018073 209.31345884550458 524.60758066574 212.3139641784971 519.742036346133 215.31446951148956 514.876492026526 218.73467987413903 508.37616029398106 222.15489023678848 501.87582856143615 225.31255562854614 496.23348896931066 228.47022102030377 490.59114937718516 232.30655239955414 484.1472857163167 236.1428837788045 477.7034220554482 240.31779364070823 474.69218361831906 244.49270350261196 471.6809451811899 248.68250822143506 471.65343910217547 252.87231294025818 471.62593302316105 256.6066490735624 474.78520447548493 260.34098520686655 477.9444759278088 261.7088185651379 481.8569018869559 263.0766519234092 485.76932784610295 263.5492752311133 490.86578115073496 264.0218985388174 495.962234455367 263.65205319049846 501.29692552863924 263.2822078421795 506.63161660191145 262.554967097764 512.9407748819376 261.8277263533485 519.2499331619639 261.0848082872385 523.3008225362053 260.34189022112844 527.3517119104465 258.9420161283073 533.9406198872688 257.5421420354861 540.529527864091 257.43825396890236 547.2121798123746 257.33436590231855 553.8948317606581 260.4315120209002 559.3026305587546 263.5286581394818 564.7104293568509 266.91953285103364 567.1338159831407 270.31040756258545 569.5572026094304 276.2559391655363 572.0793529711359 282.2014707684871 574.6015033328415 290.12680904137846 575.6818480915707 298.05214731426975 576.7621928502999 308.9284560763943 576.616827838602 319.80476483851885 576.4714628269041 329.3663322460378 574.3143093119863 338.9278996535567 572.1571557970686 345.9091966816801 569.4368099494072 352.89049370980354 566.7164641017459 349.0366694492376 564.9542381049812 345.1828451886717 563.1920121082164 339.8461396018572 562.9749538690162 334.50943401504276 562.757895629816 330.04838564884534 565.5201308152804 325.5873372826479 568.2823660007448 322.79043683348596 572.766262272046 319.99353638432405 577.2501585433472 323.792811930936 579.0271329683494 327.592087477548 580.8041073933516 333.84450292964016 582.5716761743392 340.09691838173234 584.3392449553269 344.1986594393961 584.2597266286944 348.3004004970599 584.1802083020617 354.7512834034365 581.9669704003998 361.2021663098131 579.7537324987377 357.252803672387 575.4917744779746 353.303441034961 571.2298164572115 347.9583659295064 568.8375862143505 342.61329082405183 566.4453559714896 337.36757929091533 565.4243726610363 332.12186775777883 564.403389350583 326.69000133591624 565.8764399528219 321.2581349140536 567.3494905550608 316.2370883118208 571.1925393782828 311.21604170958807 575.0355882015048 308.78039448509037 579.9566562319211 306.34474726059267 584.8777242623374 309.27553241480905 587.8377846265328 312.20631756902543 590.7978449907281 316.16601739534656 592.6270413299773 320.1257172216676 594.4562376692264 325.9708142647321 596.2240529674552 331.8159113077965 597.9918682656842 341.86002945990015 600.0303125041329 351.9041476120038 602.0687567425816 361.9285413571388 603.2209677141391 371.9529351022738 604.3731786856964 383.31115333275727 604.8280878709547 394.6693715632408 605.282997056213 408.3256904394277 605.5015451755454 421.98200931561456 605.7200932948778 434.714838794015 604.9167583209178 447.4476682724155 604.1134233469578 458.722475225851 601.9684037263999 469.99728217928646 599.823384105842 470.60867613653284 595.2396237123093 471.2200700937792 590.6558633187765 473.13239654738635 585.7368636968531 475.0447230009935 580.8178640749296 478.63370745579255 575.7348136834489 482.2226919105916 570.6517632919683 486.4152398462158 565.5801994874114 490.60778778184 560.5086356828544 493.48352857381553 556.6517714215544 496.3592693657911 552.7949071602543 499.0053927801422 548.4862384776427 501.6515161944933 544.177569795031 504.51122948303635 537.4072034145522 507.3709427715794 530.6368370340733 511.25374963500286 520.5531580935981 515.1365564984263 510.46947915312296 517.4320169812147 500.2645014928055 519.7274774640031 490.059523832488 521.560490448235 479.1604290124485 523.393503432467 468.261334192409 523.6628409175572 459.38460300528016 523.9321784026474 450.5078718181514 523.2901513416979 442.0605920477992 522.6481242807483 433.6133122774471 521.2642921097629 427.3396315034897 519.8804599387776 421.0659507295324 517.090204445791 415.04739332577645 514.2999489528045 409.0288359220205 510.8099741750426 411.96160601406217 507.3199993972807 414.89437610610383 504.044215547273 418.3790136411753 500.76843169726527 421.8636511762467 496.2685341163427 426.5190978328536 491.7686365354202 431.1745444894605 488.73151100048784 434.518441774303 485.69438546555546 437.8623390591456 481.74474665272623 442.9695451192088 477.79510783989696 448.07675117927204 473.54923225338626 454.6884601611407 469.3033566668756 461.3001691430093 463.7962389126158 469.7051330588 458.28912115835607 478.11009697459076 450.24419246364846 489.26893433043676 442.19926376894085 500.4277716862827 437.7795887284166 505.4480490513348 433.3599136878924 510.4683264163869 427.1165770777033 518.008644854865 420.8732404675142 525.548963293343 413.3146596030429 532.957372809461 405.7560787385716 540.3657823255791 405.7485046386719 540.3592529296875 Z" fill="hsl(0, 0%, 0%)"></path><path d="M 331.9699042950367 381.32524581709566 Q 331.9699042950367 381.32524581709566 326.5829993521095 378.02029679999725 321.19609440918225 374.7153477828989 317.47487629218057 372.26980119617343 313.7536581751789 369.82425460944796 304.279369043148 363.57304721689854 294.80507991111716 357.3218398243491 287.0473905534522 352.2840448953819 279.28970119578725 347.24624996641467 269.769360672469 341.97411669832144 260.2490201491508 336.7019834302282 252.1614665276851 333.2615460467357 244.07391290621936 329.82110866324314 235.15238643848397 326.915709582253 226.23085997074858 324.01031050126284 219.8732882335044 322.5084352866826 213.51571649626027 321.0065600721023 208.790724933423 320.1219039402308 204.06573337058575 319.2372478083593 199.49131034737468 318.2001040771786 194.9168873241636 317.1629603459978 188.04281765559602 314.9482167101829 181.16874798702847 312.73347307436796 176.24183073923393 307.9144892552521 171.3149134914394 303.09550543613625 170.57133142137786 297.0825038875398 169.82774935131636 291.06950233894344 171.45646394632212 285.03781624499743 173.08517854132788 279.0061301510515 177.49892178247703 272.16268537046915 181.91266502362618 265.31924058988676 185.9092967678783 260.12552525190563 189.9059285121304 254.9318099139245 193.83195253544068 250.8562329849311 197.75797655875093 246.7806560559377 202.9369938638751 242.85883590856193 208.11601116899925 238.93701576118616 212.92694306149428 236.1861487410324 217.7378749539893 233.4352817208787 224.556807155669 231.5804137443164 231.37573935734866 229.72554576775408 237.82595249188233 228.44010428492845 244.27616562641603 227.15466280210282 251.0474144037933 226.6544586231806 257.8186631811706 226.15425444425838 267.642869316453 226.675839359331 277.46707545173535 227.1974242744036 284.9617961395444 227.95602266629908 292.45651682735337 228.71462105819458 297.9992154437433 229.54262015245814 303.5419140601332 230.3706192467217 309.33225029059594 232.10489596658945 315.1225865210587 233.8391726864572 319.90250482251815 235.52339378903787 324.6824231239776 237.20761489161856 329.88824993112297 239.93230005726872 335.0940767382683 242.6569852229189 339.34875737834244 245.068313278444 343.60343801841657 247.47964133396914 347.51949062805716 250.14683330826287 351.4355432376977 252.8140252825566 356.13486337783723 257.58928500947945 360.8341835179768 262.36454473640237 364.82017393598176 266.8633944293766 368.8061643539868 271.36224412235094 372.92373797360176 279.05870147730445 377.04131159321673 286.7551588322579 380.4289370670061 293.23623715905467 383.8165625407954 299.7173154858515 386.90624814054115 306.0814243483502 389.99593374028683 312.4455332108489 392.8241379233596 319.3848553669253 395.6523421064324 326.32417752300177 397.9037983978594 331.6804557279041 400.1552546892865 337.0367339328064 401.9197631438944 342.70425366027484 403.6842715985023 348.3717733877433 405.0405460627119 352.66352033614663 406.39682052692143 356.95526728454996 408.00569987402594 364.21444181722916 409.61457922113044 371.4736163499084 410.20179239303786 376.55812815609187 410.7890055649452 381.6426399622753 410.1887058144821 386.92819159244635 409.588406064019 392.2137432226174 409.58340610511175 392.2137634939145 409.57840614620443 392.21378376521164 409.5734061872971 392.2138040365088 409.56840622838985 392.2138243078059 408.5573504428313 387.1308944772032 407.5462946572727 382.04796464660046 406.2591364110689 377.3276077702812 404.971978164865 372.6072508939619 403.1424345710852 365.5378432774181 401.31289097730536 358.46843566087426 400.10716988911224 354.15549444207375 398.9014488009192 349.8425532232732 397.2301953026082 344.3373472741178 395.5589418042972 338.8321413249624 393.6149672827901 333.45443048950887 391.6709927612829 328.07671965405535 388.51626870172095 321.4256593082375 385.361544642159 314.77459896241976 382.1511406527321 308.6048294484485 378.9407366633052 302.4350599344773 375.28201055606786 296.27564777987425 371.62328444883053 290.11623562527114 366.9385959183506 283.62513969333713 362.25390738787064 277.1340437614032 358.49100712814777 272.8787918125512 354.72810686842496 268.62353986369914 350.2683424836488 264.46701696199125 345.8085780988726 260.3104940602833 342.4324100547593 257.51650416596965 339.056242010646 254.72251427165605 335.2263558292725 252.06137062088766 331.39646964789904 249.40022697011923 326.65342699809975 246.6708417822088 321.91038434830045 243.94145659429842 317.539723220391 241.86619104954212 313.16906209248157 239.79092550478586 307.7984747000727 237.86427704227071 302.4278873076638 235.93762857975557 297.26436642193846 234.6328432590718 292.10084553621306 233.328057938388 284.77431301821775 232.95703437421486 277.4477805002224 232.58601081004167 267.9532269382537 233.04212458709884 258.45867337628505 233.49823836415604 252.17978229271324 234.1402158868588 245.9008912091414 234.7821934095616 239.79213303999433 236.18423828350066 233.68337487084722 237.58628315743974 227.80277440945446 239.46244961464825 221.92217394806167 241.33861607185676 217.59155552579057 243.47795928735633 213.2609371035195 245.61730250285586 208.59650719943988 249.31316506615102 203.9320772953603 253.00902762944617 200.2518263193033 256.4875585146233 196.57157534324625 259.9660893998004 193.04094094698337 264.76935676048794 189.5103065507205 269.57262412117547 186.5826662044102 275.88164006769955 183.65502585809992 282.1906560142237 182.20743047079867 290.1117969715812 180.75983508349745 298.03293792893874 182.97162406509705 301.57792517307985 185.18341304669664 305.122912417221 190.9157278307282 308.34447617570845 196.6480426147598 311.5660399341958 200.95014130344913 313.274247897613 205.25223999213847 314.98245586103025 209.74711957012386 316.66877710511994 214.24199914810924 318.3550983492096 220.50462179293623 320.3101187900388 226.76724443776325 322.2651392308681 235.8742100434789 324.90114940398945 244.98117564919457 327.5371595771108 253.3889746143875 330.65415436838884 261.7967735795805 333.77114915966695 271.6455764500777 338.74334231497704 281.494379320575 343.71553547028714 289.49784257439217 348.52351283294445 297.50130582820935 353.33149019560176 306.9648415305253 359.8769543371138 316.42837723284117 366.4224184786258 319.6760146112924 369.45831058590056 322.9236519897436 372.49420269317534 327.4529175485253 376.9018307329617 331.98218310730704 381.3094587727481 331.9760437011719 381.3173522949219 Z" fill="hsl(0, 0%, 0%)"></path><path d="M 350.18086683163995 607.4350326396171 Q 350.18086683163995 607.4350326396171 345.9261142964836 609.2086836594965 341.67136176132726 610.9823346793758 335.30334282675824 611.7397624156283 328.9353238921893 612.4971901518809 324.59831191622084 613.0116040598562 320.2612999402524 613.5260179678313 313.14830333511577 614.9415881083725 306.0353067299792 616.3571582489136 299.834450259023 617.4610956755835 293.6335937880668 618.5650331022533 287.8750288992801 620.0973788429842 282.1164640104935 621.6297245837151 277.5680678156742 623.2205584075315 273.0196716208549 624.8113922313479 267.5852333837879 626.6444652195516 262.15079514672084 628.4775382077555 257.2755735330741 629.9620408293761 252.40035191942738 631.4465434509966 246.99015123994985 633.3162458405029 241.57995056047235 635.1859482300092 236.96498480867945 636.7387001391239 232.35001905688657 638.2914520482385 226.82361209560815 640.0419647763372 221.29720513432974 641.792477504436 216.40374984176168 643.313554920932 211.51029454919365 644.834632337428 207.57542657204957 645.7056491535202 203.64055859490549 646.5766659696125 198.69096484526693 647.0260778962456 193.7413710956284 647.4754898228787 187.3233281532739 647.3577058436076 180.9052852109194 647.2399218643365 174.6148180265609 645.9821373380064 168.32435084220242 644.7243528116762 164.4352430238667 643.369763543207 160.54613520553096 642.0151742747377 156.51028941865556 640.1570300861387 152.47444363178016 638.2988858975397 148.2464042465448 636.0590593058168 144.01836486130946 633.8192327140939 140.22952553098975 631.5638560340522 136.44068620067 629.3084793540104 133.55297247155846 625.7753879766278 130.66525874244692 622.2422965992453 129.4758243145776 617.8179936527954 128.28638988670832 613.3936907063455 133.02591379153273 607.4372693582791 137.76543769635714 601.4808480102126 142.2238529030376 599.8653917689458 146.68226810971805 598.249935527679 151.6570051337158 599.0897287506034 156.6317421577136 599.9295219735278 161.384034221528 603.0908393969077 166.13632628534242 606.2521568202875 168.56224731204225 610.983000177203 170.9881683387421 615.7138435341186 171.25597632804528 622.3026271056162 171.52378431734846 628.8914106771139 169.45839749845612 634.0121952128944 167.39301067956376 639.132979748675 163.85300035541306 642.7298973114963 160.31299003126236 646.3268148743176 156.58419421335452 649.0801892423649 152.85539839544668 651.8335636104122 148.3250603185828 653.5700385696523 143.79472224171892 655.3065135288924 139.56312982141287 655.6614980155397 135.3315374011068 656.0164825021869 131.11571453396826 655.3147229220315 126.8998916668297 654.6129633418761 123.02242601834439 652.2505451218813 119.14496036985908 649.8881269018865 115.46538592794496 645.2603463501089 111.78581148603087 640.6325657983313 110.3339565289907 636.4083017258588 108.88210157195053 632.1840376533862 108.40627608309647 627.9482682750913 107.93045059424242 623.7124988967965 106.23548078934057 618.1649244095362 104.54051098443873 612.6173499222758 100.41388543475435 613.0293383720358 96.28725988506997 613.4413268217958 92.69881394902987 615.8517603605181 89.11036801298977 618.2621938992405 87.90841051350108 613.9310506026732 86.70645301401241 609.5999073061057 85.7270399094575 605.5208633246903 84.7476268049026 601.4418193432749 87.71597100334259 597.5021756705448 90.68431520178258 593.5625319978146 95.20419523356814 588.9698729295278 99.7240752653537 584.3772138612411 105.29724260027426 579.9094612468921 110.87040993519481 575.4417086325432 118.2174046710307 571.3570033349297 125.5643994068666 567.2722980373163 130.17623715224957 565.7078900683132 134.78807489763255 564.14348209931 139.48022189689863 562.9147288208987 144.1723688961647 561.6859755424875 148.76638618628022 560.8281033200135 153.36040347639576 559.9702310975396 163.0347102031214 558.6232648897246 172.709016929847 557.2762986819098 178.49756699807966 556.7317040851899 184.28611706631236 556.1871094884699 191.6244759865724 555.989033944902 198.96283490683246 555.790958401334 204.3856488263658 555.0684082658339 209.8084627458992 554.3458581303338 215.0342896632854 553.8145576250902 220.26011658067156 553.2832571198464 226.92455893772603 553.0422248412563 233.58900129478053 552.801192562666 239.12788124580516 552.2915250174269 244.6667611968298 551.7818574721879 250.95511939813696 551.2193833345126 257.2434775994441 550.6569091968373 262.4446194900582 549.8842436071498 267.6457613806723 549.1115780174622 271.03963617052295 548.7089042857349 274.43351096037367 548.3062305540076 274.434759998752 548.3110720313781 274.4360090371303 548.3159135087486 274.4372580755086 548.3207549861191 274.43850711388694 548.3255964634897 271.2768081642208 549.6141757452073 268.11510921455476 550.9027550269249 263.0762974705982 552.8132974985139 258.03748572664165 554.7238399701029 251.8978976749608 556.5860816062034 245.75830962327993 558.4483232423039 240.20222387477634 559.7551543237798 234.64613812627272 561.0619854052558 228.1670725744533 562.5026459546898 221.68800702263385 563.9433065041239 216.72763598807404 564.776426135362 211.76726495351426 565.6095457666 206.18486866155246 566.8011851583456 200.60247236959069 567.9928245500911 193.71230197069627 569.7063027769724 186.82213157180186 571.4197810038537 181.16770292837515 572.7804558199095 175.51327428494847 574.1411306359655 170.30053558767742 575.4966853119796 165.08779689040634 576.8522399879937 157.76533779590557 578.8126627756905 150.44287870140477 580.7730855633872 146.38850198077068 582.4230175781045 142.3341252601366 584.0729495928217 136.24578182188552 587.4413115184851 130.15743838363443 590.8096734441485 126.04324207552442 594.2793190203843 121.92904576741441 597.7489645966201 118.23612407931881 601.697817276139 114.54320239122322 605.6466699556579 112.03741697617488 608.9580013791641 109.53163156112656 612.2693328026703 107.23222952528168 616.212798704983 104.9328274894368 620.1562646072957 102.52679295519142 623.5689654402738 100.12075842094605 626.9816662732518 95.47551540932201 630.9518103566314 90.830272397698 634.9219544400111 84.0599911840074 635.09401807684 77.28970997031682 635.2660817136689 73.1084381366843 632.5162954247969 68.92716630305176 629.7665091359248 66.32097767886185 625.0924756960064 63.71478905467194 620.4184422560879 63.55890034328807 615.4067360683439 63.4030116319042 610.3950298806 66.48639383814103 605.0438588460196 69.56977604437785 599.6926878114392 73.0756675127567 596.5711222410072 76.58155898113556 593.4495566705751 80.47487440737673 591.2879262900669 84.3681898336179 589.1262959095587 88.41131807252663 588.074118061655 92.45444631143536 587.0219402137512 97.88062046695231 587.1074099479712 103.30679462246927 587.1928796821911 108.62250589366803 588.123593418205 113.93821716486681 589.0543071542189 118.50041223273081 592.0405889465814 123.06260730059479 595.0268707389438 125.95373256123042 598.6145598926717 128.84485782186607 602.2022490463994 130.7499148653503 607.1248520881138 132.6549719088345 612.0474551298282 133.63005839666351 616.1821836865315 134.6051448844925 620.3169122432347 134.01271421259298 625.0247557284862 133.42028354069348 629.7325992137377 137.89819044388838 628.4107725998326 142.3760973470833 627.0889459859275 146.7794097232889 624.5641716405094 151.18272209949453 622.0393972950914 147.07290076440464 622.6223872833727 142.96307942931475 623.205377271654 148.19363041047063 617.8928633736426 153.42418139162655 612.5803494756312 157.05431059613707 614.7721420028699 160.6844398006476 616.9639345301088 164.58342923369804 619.0648350496361 168.48241866674846 621.1657355691635 173.89363818760495 623.3280519905654 179.3048577084614 625.4903684119674 184.51115472020294 625.9972782265323 189.71745173194446 626.5041880410972 194.59185442153876 626.5143968140155 199.46625711113302 626.5246055869337 204.97799318287565 625.5451200567395 210.4897292546183 624.5656345265452 215.61485423248752 623.1853978756294 220.7399792103567 621.8051612247135 226.14002594881856 620.0686503641713 231.54007268728043 618.332139503629 236.74299651716524 616.9442680649673 241.94592034705008 615.5563966263056 247.582129191967 613.8501524149339 253.2183380368839 612.1439082035621 257.5396762155092 611.1857531905052 261.8610143941345 610.2275981774483 267.5122424194235 608.7073141083602 273.1634704447126 607.1870300392721 279.67325363877166 606.2064760221255 286.18303683283074 605.2259220049788 292.75551782471325 604.9425382218947 299.32799881659577 604.6591544388107 305.5052208366513 604.7149110402404 311.6824428567068 604.77066764167 315.87176376856047 604.8165352375007 320.0610846804141 604.8624028333314 324.36765044416126 605.1778015387843 328.6742162079084 605.4932002442372 334.86667990883745 605.7823569157315 341.05914360976647 606.0715135872258 345.618764853907 606.7433503370855 350.17838609804755 607.4151870869454 350.17962646484375 607.4251098632812 Z" fill="hsl(0, 0%, 0%)"></path><path d="M 374.1376723317938 391.84826174088784 Q 374.1376723317938 391.84826174088784 383.24281326746325 397.4204322858201 392.34795420313276 402.9926028307523 399.0018223863407 407.8889049130327 405.65569056954854 412.78520699531316 416.96551866643705 422.4670376615551 428.27534676332556 432.14886832779695 433.80085430142685 436.88982565535935 439.32636183952815 441.6307829829217 444.37157009463476 446.5138287476748 449.4167783497414 451.3968745124278 452.6309391914971 454.88437100725866 455.8451000332528 458.37186750208946 457.8974021363655 461.0795589496787 459.94970423947814 463.787250397268 459.9459459119038 463.79054811979177 459.94218758432936 463.7938458423155 459.93842925675494 463.7971435648392 459.9346709291806 463.80044128736296 457.5339931946396 461.43318880274944 455.1333154600986 459.06593631813587 451.7585503539973 455.7973140191348 448.383785247896 452.52869172013374 443.110564084102 447.99612392816823 437.837342920308 443.4635561362028 432.04650738349153 439.0124430057464 426.25567184667506 434.5613298752899 414.8275253141614 425.2072223401043 403.3993787816477 415.85311480491873 396.7352841276364 410.95720224562814 390.07118947362505 406.06128968633755 382.09847243810316 398.96280669733426 374.1257554025812 391.8643237083309 374.1317138671875 391.8562927246094 Z" fill="hsl(0, 0%, 0%)"></path><path d="M 360.7230390352346 413.88326764452665 Q 360.7230390352346 413.88326764452665 367.93927570515666 415.97823740289084 375.1555123750788 418.0732071612551 381.46246641744483 421.54127716965 387.7694204598109 425.009347178045 391.6243702642267 426.75684725479766 395.4793200686425 428.5043473315504 400.60986066600765 431.8129511488353 405.74040126337286 435.1215549661202 410.82560686231074 438.8206108820274 415.9108124612486 442.5196667979346 420.45963740764853 447.3745007561861 425.0084623540484 452.22933471443764 428.3642033966098 456.99944526646925 431.7199444391712 461.76955581850086 433.1493767377117 466.9410726113623 434.57880903625227 472.1125894042237 434.61627819335104 474.45304301370254 434.6537473504498 476.7934966231814 434.6488980769203 476.79471504274625 434.6440488033908 476.79593346231104 434.63919952986123 476.79715188187583 434.63435025633174 476.7983703014407 433.5826369925585 474.80391035992864 432.53092372878524 472.8094504184166 429.64040531362616 468.7910361829531 426.749886898467 464.7726219474896 422.9713089476684 461.16547144132716 419.1927309968698 457.5583209351647 414.8851341039988 453.6705316640488 410.57753721112783 449.7827423929329 405.7462702316657 445.94914674229983 400.9150032522035 442.11555109166676 396.2892040819577 438.69428600881946 391.6634049117119 435.27302092597216 388.11703840286094 432.8515976542981 384.57067189401 430.43017438262393 378.64768977533475 426.68147585921963 372.7247076566595 422.9327773358153 366.7194012052437 418.41696675970684 360.7140947538279 413.90115618359835 360.71856689453125 413.8922119140625 Z" fill="hsl(0, 0%, 0%)"></path><path d="M 400.95549222370477 379.39152173195413 Q 400.95549222370477 379.39152173195413 404.7890542853726 377.1715157644672 408.6226163470404 374.95150979698025 412.764662392029 373.4245927911208 416.90670843701764 371.89767578526136 421.1003165721524 370.4680926848359 425.29392470728715 369.0385095844104 430.1907988909369 367.21882998966043 435.0876730745866 365.39915039491046 439.43723864630704 363.8828784818011 443.78680421802744 362.3666065686916 447.63086171240957 360.8097005455453 451.47491920679175 359.2527945223989 458.60410016966466 356.06727524012297 465.73328113253757 352.88175595784696 472.42981466929797 349.4519856719144 479.12634820605837 346.0222153859817 484.8900503312095 342.3062436012091 490.6537524563606 338.59027181643637 495.9174620667595 335.0884650249951 501.18117167715843 331.58665823355386 505.47984614042105 328.83291524482786 509.7785206036836 326.0791722561018 513.6168583863033 323.4292181659913 517.455196168923 320.77926407588075 522.6300490974443 316.6442118745348 527.8049020259655 312.50915967318883 531.9765894314655 309.64888249460773 536.1482768369656 306.7886053160267 539.8286666995323 304.17933730676214 543.509056562099 301.5700692974976 547.3669210649551 297.1697394900686 551.2247855678113 292.7694096826396 555.8881271340974 287.87467088463245 560.5514687003836 282.9799320866253 566.1465393942236 277.3120997331946 571.7416100880637 271.64426737976396 576.7786850024931 266.2767219139699 581.8157599169226 260.9091764481758 586.2006364578028 256.38962798841067 590.5855129986832 251.8700795286456 594.6071049325923 247.94848259981077 598.6286968665014 244.02688567097596 603.5269309580569 239.98720988785232 608.4251650496125 235.9475341047287 613.5618132287284 232.78559445488486 618.6984614078443 229.62365480504099 623.6822407521394 228.30460269339585 628.6660200964344 226.98555058175074 628.6680536519632 226.99011836588653 628.6700872074921 226.99468615002235 628.672120763021 226.99925393415816 628.6741543185498 227.00382171829395 626.3352899523729 228.91617864573038 623.9964255861961 230.82853557316685 621.2795178306708 234.11135143064823 618.5626100751455 237.3941672881296 615.2443852366787 242.17987590349958 611.926160398212 246.96558451886958 608.232643450655 251.81408252660293 604.539126503098 256.66258053433626 600.5903333608147 261.6402560631235 596.6415402185314 266.61793159191075 592.6569441089036 271.2609555193337 588.6723479992758 275.90397944675675 586.0290867813967 279.1075310866229 583.3858255635175 282.31108272648896 580.3512819179798 285.8439256806808 577.3167382724422 289.37676863487263 572.4902362225662 294.07809026413656 567.6637341726902 298.7794118934005 562.9372660278841 303.33785582778455 558.2107978830779 307.89629976216867 555.2570457143942 310.7724894075293 552.3032935457104 313.6486790528899 548.6950903688447 316.3115782554914 545.086887191979 318.97447745809285 541.182584627629 322.0381217666459 537.278282063279 325.10176607519895 531.732225986447 329.04397405237745 526.1861699096149 332.98618202955595 522.4420478715122 335.7594736935598 518.6979258334095 338.5327653575636 514.2290764997517 342.05842277890906 509.76022716609384 345.58408020025456 504.489975876514 348.6178441501292 499.21972458693415 351.65160810000384 492.71826050714526 355.44917875792817 486.2167964273563 359.24674941585243 478.4597595631727 362.6449438355139 470.70272269898913 366.04313825517545 466.8861618487047 367.2752448757717 463.0696009984203 368.50735149636796 459.18846155209343 369.7145670875873 455.30732210576656 370.92178267880655 451.0201173182488 372.0349318671375 446.73291253073114 373.1480810554684 442.3199477677423 374.02561832274205 437.9069830047534 374.90315559001573 432.55599025884817 376.12350530813865 427.2049975129429 377.34385502626156 422.84075483611934 377.88235632124474 418.4765121592958 378.4208576162279 414.1485009456785 378.9322645468309 409.82048973206116 379.44367147743384 405.39056760183445 379.4272589547711 400.96064547160773 379.41084643210837 400.95806884765625 379.40118408203125 Z" fill="hsl(0, 0%, 0%)"></path><path d="M 505.38425979918617 543.2248380780121 Q 505.38425979918617 543.2248380780121 510.74703949290097 539.181562115313 516.1098191866157 535.1382861526138 521.4584839946682 531.8110069877368 526.8071488027207 528.48372782286 531.7328430398076 525.2941409809716 536.6585372768944 522.1045541390833 541.7127155033008 518.7631759257531 546.7668937297074 515.4217977124227 558.0941310833148 510.005016281591 569.4213684369221 504.5882348507592 578.509659173691 500.7031514176949 587.59794991046 496.8180679846306 600.992214141701 493.04840241084844 614.386478372942 489.2787368370662 614.3880491589917 489.2834836919393 614.3896199450415 489.2882305468123 614.3911907310913 489.29297740168533 614.3927615171411 489.2977242565584 601.5631820527032 494.2058145759588 588.7336025882652 499.11390489535927 580.1906418731147 503.9810083237817 571.6476811579643 508.84811175220403 560.9330306168899 514.9510704607619 550.2183800758155 521.0540291693197 544.8886986878974 524.078260150578 539.5590172999792 527.1024911318364 534.3106671435268 529.8171675660483 529.0623169870743 532.5318440002601 523.434326903159 535.319519097163 517.8063368192437 538.1071941940659 511.600259701435 540.6746985658394 505.39418258362633 543.2422029376129 505.38922119140625 543.2335205078125 Z" fill="hsl(0, 0%, 0%)"></path><path d="M 199.7633791463526 7.674240066930672 Q 199.7633791463526 7.674240066930672 193.92786617032306 11.244553659573668 188.09235319429348 14.814867252216665 184.20645390629363 16.57310230622999 180.32055461829376 18.331337360243314 175.25167816683918 20.499727174421473 170.1828017153846 22.66811698859963 166.2296749779602 25.294668092071056 162.27654824053582 27.921219195542484 159.8642162797339 33.29479326229023 157.451884318932 38.66836732903796 157.69086606397332 43.398342280751024 157.92984780901466 48.12831723246409 160.18325065005928 53.190957112462854 162.43665349110387 58.253596992461624 165.8613374873616 62.07611390912428 169.2860214836193 65.89863082578694 173.6039277459451 69.07472189477889 177.92183400827088 72.25081296377083 181.70502015294377 74.16695611520603 185.48820629761667 76.08309926664124 189.29174094700488 77.38837037863684 193.0952755963931 78.69364149063242 197.7187282424294 79.97658119806519 202.34218088846572 81.25952090549796 207.69662189776926 83.57321275175755 213.0510629070728 85.88690459801715 216.36046427605868 89.18935917037304 219.66986564504455 92.49181374272892 221.6714703739093 97.38720599561914 223.67307510277402 102.28259824850936 224.84589701468025 107.28154249449696 226.01871892658647 112.28048674048456 226.53130174976565 117.02350915699425 227.04388457294485 121.76653157350394 227.03906455771352 125.88196749252657 227.03424454248218 129.99740341154921 227.02937697503216 129.99854655944844 227.02450940758214 129.99968970734767 227.01964184013212 130.0008328552469 227.0147742726821 130.00197600314613 224.64925965360177 126.65792629701602 222.28374503452144 123.31387659088593 219.71534531985054 119.77447194820795 217.1469456051796 116.23506730552997 214.21728774221975 112.19216204916755 211.2876298792599 108.14925679280513 208.17789522616567 104.8706199828823 205.06816057307148 101.59198317295947 200.91687461704507 100.53434489837716 196.76558866101865 99.47670662379485 192.7866863699952 98.58649635685519 188.8077840789718 97.69628608991553 183.45558944530399 96.18408284532339 178.10339481163618 94.67187960073126 172.90552646569634 92.27438720822006 167.7076581197565 89.87689481570887 163.00851580111862 86.58339725881433 158.3093734824807 83.28989970191978 154.81582066860403 79.46269212822901 151.32226785472733 75.63548455453822 148.02634006144808 72.06220781809904 144.73041226816883 68.48893108165984 142.0624965817476 62.588979050189515 139.39458089532636 56.68902701871919 138.49351947619493 50.80071780299846 137.59245805706354 44.91240858727773 138.56446483896946 40.15227391609166 139.5364716208754 35.39213924490559 141.63589117202892 31.277202862118276 143.73531072318244 27.16226647933096 147.4321991899542 22.739994936803452 151.12908765672594 18.317723394275944 155.06152035063567 16.19927555415491 158.9939530445454 14.08082771403387 163.08265946600488 12.963810940610118 167.17136588746436 11.846794167186367 172.37570007199375 11.019407653771458 177.58003425652313 10.192021140356548 181.83365452647615 9.209537430005152 186.0872747964292 8.227053719653757 192.92241535433516 7.941080154761201 199.75755591224114 7.655106589868645 199.76046752929688 7.664673328399658 Z" fill="hsl(0, 0%, 0%)"></path></svg>