<svg xmlns="http://www.w3.org/2000/svg" version="1.1" xmlns:xlink="http://www.w3.org/1999/xlink" viewBox="0 0 800 800" style="overflow: hidden; display: block;" width="800" height="800"><defs></defs><g id="two-0" transform="matrix(1 0 0 1 0 0)" opacity="1"></g><path d="M 444.5126023633617 132.98496389519488 Q 444.5126023633617 132.98496389519488 445.51115154807235 142.12278621019493 446.50970073278296 151.26060852519495 446.9897106759717 159.1942306203333 447.46972061916046 167.12785271547162 448.58302058122285 175.12979849687937 449.6963205432852 183.13174427828713 451.0778119147031 188.8505350900812 452.459303286121 194.56932590187526 455.57760199044674 200.65365824364437 458.6959006947725 206.73799058541346 469.8802341739596 198.03001238350288 481.06456765314664 189.3220341815923 490.018272209295 173.90499199013004 498.9719767654434 158.48794979866776 503.4102330070176 147.46653607350225 507.84848924859176 136.44512234833678 508.99142286209394 125.64888517227922 510.1343564755961 114.85264799622168 509.23645244415235 106.36922495092287 508.3385484127086 97.88580190562405 506.43665836162734 91.42925896800453 504.53476831054604 84.97271603038502 501.5497895394725 79.5732082681316 498.5648107683989 74.17370050587817 491.64398366318517 66.5667220555375 484.7231565579714 58.959743605196834 478.8562556257559 54.791550770832814 472.98935469354046 50.6233579364688 466.9730234686132 47.77951649353089 460.95669224368595 44.935675050592984 453.30488895167804 42.31390343081542 445.6530856596701 39.69213181103786 439.2166629157334 38.843667743736745 432.7802401717967 37.99520367643562 425.93849803098817 38.485848828447665 419.09675589017957 38.97649398045971 410.2732122349715 40.71190399636578 401.4496685797634 42.447314012271846 395.4860014824269 45.05418618245133 389.52233438509046 47.661058352630825 383.9752384880228 51.3484413869585 378.4281425909552 55.035824421286165 374.2289861377883 59.01538670965543 370.02982968462146 62.9949489980247 366.75074669353086 67.49954725973933 363.47166370244025 72.00414552145395 359.1047647560814 78.90887214616797 354.73786580972256 85.81359877088198 351.471546873747 92.41880348903248 348.2052279377715 99.024008207183 345.3743239534987 107.13624841408534 342.5434199692258 115.2484886209877 340.88551119091676 122.38673282998177 339.2276024126078 129.52497703897583 338.35365461263336 135.50770805589016 337.47970681265895 141.4904390728045 336.59860924143146 148.14450541975725 335.717511670204 154.79857176671 334.9331722030795 160.38477061053342 334.14883273595495 165.97096945435683 333.2469936023116 171.02513009027558 332.3451544686682 176.07929072619436 331.3913288482189 181.64605292757489 330.43750322776964 187.21281512895538 328.87894059187624 192.05470964758865 327.3203779559829 196.8966041662219 327.31539568689266 196.8961834588265 327.31041341780247 196.89576275143108 327.3054311487123 196.89534204403566 327.300448879622 196.89492133664027 326.853944905443 191.96617420937247 326.407440931264 187.03742708210464 326.13494630892376 181.2002765766474 325.8624516865835 175.36312607119015 326.0856172969798 170.23658011134836 326.30878290737616 165.11003415150654 326.75482282420535 159.49186530304178 327.2008627410346 153.87369645457701 327.7980848829703 146.9147601202267 328.39530702490595 139.9558237858764 329.58306794799927 133.74166997534508 330.7708288710926 127.52751616481376 332.54730883915624 120.13413450310621 334.32378880721996 112.74075284139866 336.7404183162505 103.66122972244864 339.157047825281 94.5817066034986 342.57110411251927 87.65285590089925 345.9851603997575 80.72400519829989 350.25333838026205 72.78421372952735 354.5215163607666 64.84442226075481 358.8100047261974 59.92120445820533 363.0984930916282 54.99798665565585 368.2052432769675 50.961368664569825 373.3119934623069 46.9247506734838 379.7443142652171 43.08407334962908 386.17663506812727 39.243396025774366 392.8161928835374 36.887415901612144 399.45575069894744 34.53143577744993 408.95332908108423 31.673009609490165 418.45090746322103 28.814583441530406 426.3838344342946 28.413051975901446 434.31676140536814 28.01152051027249 441.39390695317627 29.313891729236285 448.4710525009844 30.61626294820008 457.0322425729394 33.055280237281146 465.59343264489445 35.49429752636221 472.22484897499487 38.89142454282368 478.85626530509535 42.288551559285146 485.7484831604451 47.13822282494688 492.6407010157949 51.98789409060862 496.24180441487204 56.64052965423889 499.84290781394924 61.293165217869166 502.64620589608995 66.09363168177057 505.44950397823067 70.89409814567199 508.0134722692153 77.21045436560519 510.5774405601999 83.52681058553839 511.81502103484837 90.47008492613085 513.0526015094969 97.41335926672332 513.8749245422703 106.29199138804688 514.6972475750435 115.17062350937046 514.2209705842452 126.80928237248185 513.7446935934469 138.44794123559325 510.1229707247181 150.46397425987402 506.5012478559893 162.48000728415477 497.90698628403516 180.01834247563812 489.312724712081 197.5566776671215 477.2738995141233 209.56993012636246 465.23507431616565 221.58318258560342 455.81962201157626 217.3334265592267 446.40416970698686 213.08367053284996 444.1940179175023 204.709034132591 441.9838661280178 196.334397732332 441.3771882968218 190.23304206787518 440.7705104656259 184.13168640341834 440.0391464491116 175.65506828936216 439.3077824325973 167.17845017530598 439.69747834990716 159.00605102830258 440.087174267217 150.83365188129918 442.2899104636464 141.90864269910685 444.4926466600758 132.9836335169145 444.50262451171875 132.9842987060547 Z" fill="hsl(0, 0%, 0%)"></path><path d="M 327.21820285537115 197.91297559179225 Q 327.21820285537115 197.91297559179225 318.3557921070419 192.07991961408302 309.49338135871267 186.2468636363738 303.6735078195161 181.7614022734453 297.8536342803195 177.27594091051677 291.8839911432581 173.49850257860317 285.9143480061967 169.72106424668956 280.81741899042896 166.78043574116376 275.72048997466123 163.83980723563795 266.50552582226436 160.97019709697642 257.2905616698675 158.1005869583149 250.52822287699513 157.71946717812642 243.76588408412277 157.33834739793795 237.35694300159966 158.8885174688388 230.94800191907655 160.43868753973968 224.51100593568162 165.1274009629571 218.07400995228667 169.81611438617452 210.25173516329204 177.5516569131584 202.42946037429738 185.28719944014233 198.76278360777394 189.9738557577322 195.09610684125053 194.66051207532206 190.5506076316789 200.98402450499322 186.00510842210727 207.3075369346644 182.6545831394689 213.27529819041658 179.30405785683055 219.24305944616876 176.7647397000593 225.1847255797357 174.225421543288 231.12639171330267 171.62258171926746 238.70679592961721 169.0197418952469 246.2872001459318 167.4230023499299 253.15101171334447 165.82626280461292 260.0148232807571 163.98576469257955 268.99640000811206 162.14526658054618 277.977976735467 161.24695669598776 285.7743487529617 160.34864681142932 293.57072077045643 159.96195825085144 301.28787177945753 159.57526969027356 309.0050227884586 159.40741317047585 320.6072601287123 159.23955665067814 332.20949746896605 159.95675977249033 340.741231418832 160.6739628943025 349.27296536869795 161.6613545242816 355.5955225446777 162.6487461542607 361.91807972065743 164.00250020787104 368.6745085143607 165.3562542614814 375.4309373080639 166.77171627143764 380.9648692429697 168.1871782813939 386.4988011778756 170.43028353693444 393.10083363934893 172.673388792475 399.70286610082223 175.24526068168166 405.40056244298336 177.81713257088828 411.0982587851445 181.1744803940693 416.92337431276735 184.53182821725028 422.74848984039016 190.3144880191461 431.5152078011512 196.0971478210419 440.28192576191213 202.3293717753105 448.4326036211006 208.5615957295791 456.58328148028914 214.77463102575277 464.02870258321127 220.98766632192644 471.47412368613334 225.82478071161626 476.4322785630405 230.66189510130607 481.3904334399476 234.46518919062407 485.11765353416945 238.26848327994207 488.8448736283913 241.95626055265802 493.5195648631782 245.644037825374 498.194256097965 248.6435852866141 502.5870376483224 251.6431327478542 506.9798191986797 254.2667288360979 515.4629766766805 256.8903249243416 523.9461341546812 258.2631052119376 533.4183082950863 259.6358854995337 542.8904824354913 260.3561234544189 551.163369370507 261.07636140930407 559.4362563055226 260.81998132047914 567.3405664546943 260.5636012316542 575.244876603866 260.06002903866494 581.1181050941801 259.55645684567565 586.9913335844942 258.035695501106 593.013961393774 256.5149341565363 599.036589203054 252.8625080303497 607.1165017741785 249.21008190416308 615.196414345303 244.78023805367295 620.9321105074438 240.35039420318282 626.6678066695846 235.88509649561283 630.1444944157056 231.41979878804284 633.6211821618267 229.08000634349025 635.9937075288301 226.74021389893767 638.3662328958336 226.73522820822956 638.3658548903271 226.73024251752142 638.3654768848206 226.72525682681328 638.3650988793141 226.72027113610517 638.3647208738076 227.24149805863783 635.4465639952898 227.76272498117052 632.5284071167719 231.1174310267731 627.6609825112041 234.47213707237563 622.7935579056365 237.7909234177915 616.7134720373883 241.10970976320738 610.6333861691402 244.2722827853921 603.6313881968048 247.4348558075768 596.6293902244694 248.94016320969806 591.2200369755299 250.4454706118193 585.8106837265902 251.39529776766165 580.3687298786305 252.345124923504 574.9267760306707 252.6751061601123 567.5406525530216 253.00508739672065 560.1545290753725 252.27161785446356 552.2835935520598 251.5381483122065 544.412658028747 249.49044037123247 535.7331185666056 247.44273243025845 527.0535791044642 242.66434349423156 515.3110244986 237.88595455820465 503.5684698927358 235.03650054697198 498.81037261169615 232.18704653573934 494.0522753306565 229.1087635690753 489.75164622576006 226.03048060241127 485.45101712086364 221.75912263238004 480.02025867080124 217.4877646623488 474.58950022073884 210.76924390072293 467.50725359200464 204.05072313909704 460.4250069632704 196.85606423764017 452.80995633333646 189.66140533618326 445.1949057034026 182.26839806572633 436.6994603533609 174.87539079526937 428.20401500331917 171.31495055930696 421.7461290109237 167.7545103233446 415.2882430185283 165.38275865427266 409.08508782634027 163.0110069852007 402.88193263415224 160.70553046385186 395.6488675056129 158.40005394250298 388.4158023770735 157.61311420720472 382.6469638307684 156.82617447190648 376.8781252844633 155.831208620265 369.7900154229276 154.83624276862352 362.7019055613918 154.54730642760566 356.28278738301793 154.2583700865878 349.86366920464405 153.3891391727821 341.1652059742295 152.51990825897644 332.4667427438149 151.45264697706318 320.5276681726318 150.38538569514992 308.58859360144874 150.71583183952072 300.58180061099836 151.0462779838915 292.57500762054804 151.83534387568295 284.62422337554665 152.62440976747436 276.67343913054526 153.3375169977715 267.01990259033136 154.05062422806864 257.36636605011745 155.6289866371323 250.1333962130252 157.207349046196 242.900426375933 159.24195614608578 234.3122203941478 161.27656324597558 225.72401441236258 163.98210185783756 219.1223639694034 166.68764046969952 212.52071352644427 170.01119223458056 205.97511723253484 173.3347439994616 199.42952093862542 177.40950247982536 191.89343575604136 181.48426096018912 184.35735057345732 185.35030740165934 179.10027990069943 189.21635384312958 173.84320922794154 194.01890546538598 167.8536123010316 198.8214570876424 161.86401537412166 202.95688642017353 158.3081643937503 207.09231575270465 154.75231341337891 211.45049076943684 151.7045449362498 215.808665786169 148.65677645912066 225.4558869758663 145.10322886113704 235.10310816556355 141.54968126315345 240.13717116891985 141.2645171422854 245.17123417227617 140.97935302141738 253.5046211409847 142.72009869654596 261.83800810969325 144.46084437167454 267.3005784571983 146.52366728451113 272.7631488047033 148.58649019734773 277.5760606986977 151.1513373415388 282.388972592692 153.71618448572988 287.2050146214528 157.33905762518498 292.02105665021355 160.96193076464007 298.0424851603193 165.5445727049242 304.0639136704251 170.12721464520834 309.45803913559257 175.39567553493487 314.85216460076003 180.66413642466136 321.04210904652257 189.28134213518456 327.2320534922851 197.89854784570775 327.2251281738281 197.90576171875 Z" fill="hsl(0, 0%, 0%)"></path><path d="M 226.69471762991307 638.736199103981 Q 226.69471762991307 638.736199103981 231.00122860248575 632.4406014929518 235.30773957505843 626.1450038819225 238.70328801587323 622.2246680910988 242.098836456688 618.3043323002751 246.99821460669298 613.3918266808032 251.89759275669797 608.4793210613315 256.30576872576205 604.36036937832 260.7139446948262 600.2414176953085 265.30590889151074 596.46724395865 269.89787308819524 592.6930702219914 275.7289967421765 589.107681525061 281.56012039615774 585.5222928281305 286.5338131793344 582.9085041861287 291.5075059625111 580.2947155441268 300.2830090842958 576.8863889516924 309.0585122060806 573.4780623592582 317.13705327006625 572.1627681508041 325.2155943340519 570.8474739423502 331.94953271401 570.6822276151782 338.6834710939681 570.5169812880063 346.23363697317063 572.5854627834586 353.7838028523732 574.653944278911 361.6709076090424 579.2475592482249 369.5580123657116 583.8411742175387 375.47226605670016 588.3290322772325 381.3865197476888 592.8168903369263 386.45303612697825 596.5721918129746 391.5195525062677 600.3274932890226 396.37110035575625 603.4648300456918 401.2226482052448 606.602166802361 405.89527464142225 609.1618741201817 410.56790107759963 611.7215814380024 415.1571224315716 614.5583057178121 419.7463437855436 617.3950299976218 424.4850512613993 619.5758156286536 429.22375873725497 621.7566012596853 429.661957578284 622.0506677361727 430.100156419313 622.3447342126601 431.303040549569 623.5475747744808 432.50592467982494 624.7504153363016 433.385985397166 626.2061793219036 434.26604611450705 627.6619433075056 434.77213424869194 629.286021645647 435.2782223828768 630.9100999837883 435.3809240677681 632.6081011651493 435.48362575265946 634.3061023465103 435.17697196150596 635.9793384626499 434.8703181703525 637.6525745787895 434.1721316359042 639.2037970680211 433.4739451014558 640.7550195572527 432.42480445789886 642.0940712956182 431.37566381434186 643.4331230339836 430.0365451651735 644.4821782715342 428.6974265160051 645.5312335090847 427.14615950003326 646.2293211061242 425.59489248406135 646.9274087031638 423.92163681314014 647.2339557757527 422.248381142219 647.5405028483418 420.55038651456005 647.4376928662184 418.8523918869011 647.3348828840951 417.2283458300439 646.8286911682509 415.6042997731867 646.3224994524066 414.14859192026125 645.4423458891497 412.6928840673358 644.5621923258927 410.00960491730524 638.2337561438549 407.3263257672747 631.905319961817 405.8412044578454 626.1684374690219 404.356083148416 620.4315549762268 402.5301871795868 609.3761411361115 400.70429121075756 598.3207272959962 398.8821470123379 588.0779738996976 397.0600028139182 577.8352205033988 394.5865373837538 566.7833396244541 392.11307195358944 555.7314587455095 389.7041540559186 546.486846054627 387.29523615824775 537.2422333637444 384.18008013959036 526.9293634895951 381.0649241209329 516.6164936154457 378.36260077738956 509.9762040761563 375.6602774338462 503.3359145368669 372.96866088046085 496.3007469633481 370.2770443270755 489.2655793898293 367.2698018875832 479.14676410319623 364.26255944809094 469.0279488165632 361.2910600205016 460.9078156435462 358.31956059291224 452.7876824705292 355.443354388089 445.1445437279024 352.5671481832658 437.5014049852756 349.35087440829415 426.8605077787654 346.1346006333225 416.21961057225525 343.5770894693486 406.84566826631664 341.01957830537464 397.471725960378 338.3051537117798 389.04857152367697 335.5907291181849 380.625417086976 333.5167235211481 370.5737487497389 331.44271792411126 360.5220804125018 329.5878411666252 353.3445562076432 327.73296440913913 346.16703200278465 326.584068420537 339.7481826776591 325.43517243193486 333.3293333525335 325.43380450638614 324.76312702147436 325.4324365808374 316.1969206904152 325.8959672143466 310.46483927332326 326.35949784785583 304.73275785623133 327.0493848391506 301.718975830127 327.7392718304454 298.7051938040227 327.7442378771308 298.70577550868836 327.74920392381625 298.706357213354 327.7541699705017 298.70693891801966 327.75913601718713 298.7075206226853 327.7413347797205 301.73531431400477 327.72353354225385 304.7631080053242 327.93864729271684 310.4131176604795 328.1537610431798 316.06312731563474 328.9845734066032 324.36147752864974 329.8153857700266 332.65982774166474 330.62456104959415 339.0051252051007 331.4337363291617 345.3504226685366 332.769395482994 352.62254711426857 334.1050546368263 359.8946715600005 336.7047698680065 369.67527049804994 339.3044850991867 379.4558694360993 341.9202882815436 387.94632936323876 344.5360914639005 396.43678929037816 347.4368397038204 405.60918634524523 350.33758794374035 414.7815834001123 354.29751506396013 425.11208211608607 358.2574421841799 435.4425808320598 360.93288974010125 443.1432873464953 363.60833729602257 450.8439938609309 366.6160583009985 458.9933162818519 369.6237793059743 467.1426387027729 373.60183781534886 476.88787628710156 377.57989632472334 486.63311387143017 379.9907571877892 493.75296909459064 382.40161805085506 500.8728243177511 384.6216709123808 507.70480234233935 386.84172377390655 514.5367803669276 391.05851631968096 524.5897974795904 395.27530886545543 534.6428145922532 398.7845098326242 543.5673920570364 402.293710799793 552.4919695218197 406.66177792384696 562.940765272934 411.0298450479009 573.3895610240482 415.38859029231105 582.5693591711329 419.74733553672115 591.7491573182174 426.51199471522875 606.1090560969615 433.2766538937363 620.4689548757055 434.4118556448609 627.1646580755112 435.5470573959855 633.8603612753168 432.8230514276806 628.1021126177252 430.09904545937565 622.3438639601335 431.3020498676732 623.5465842275271 432.5050542759707 624.7493044949208 433.38526056530975 626.2049804671724 434.2654668546488 627.660656439424 434.7717173941368 629.2846841606317 435.2779679336247 630.9087118818394 435.38083941812044 632.6067027845419 435.4837109026161 634.3046936872444 435.1772244366073 635.9779604603968 434.8707379705984 637.6512272335493 434.17270656188964 639.2025195336781 433.47467515318084 640.7538118338069 432.42566842004317 642.0929684795414 431.37666168690555 643.4321251252758 430.03764794995635 644.4813142694456 428.69863421300715 645.5305034136156 427.1474370135512 646.228746133866 425.5962398140952 646.9269888541165 423.9230148062475 647.2337032507396 422.24978979839983 647.5404176473628 420.55178489823265 647.437777465216 418.85377999806553 647.3351372830691 417.22968333015706 646.8291079743612 415.6055866622486 646.3230786656534 414.14979080124544 645.4430706775822 412.69399494024236 644.5630626895111 410.32618260801644 642.9894574359982 407.9583702757905 641.4158521824855 402.1847616322628 637.4549411915216 396.41115298873507 633.4940302005577 392.28771011286153 630.6359779540996 388.16426723698805 627.7779257076414 382.5128916235794 623.3066793575938 376.8615160101707 618.835433007546 371.92042012676137 614.7210391572344 366.97932424335204 610.6066453069228 361.65556629514947 606.1927025627003 356.33180834694684 601.7787598184779 351.4191463646899 598.4230802202617 346.5064843824329 595.0674006220456 339.422250515277 592.6386556262618 332.3380166481212 590.2099106304779 326.0177365317969 590.1410587541021 319.6974564154726 590.0722068777263 313.01684733121726 591.3003408012423 306.33623824696195 592.5284747247584 297.82612594583753 595.7295329632809 289.3160136447131 598.9305912018035 283.94584217376877 601.828323043505 278.5756707028244 604.7260548852063 273.81193359453687 607.7061388037845 269.04819648624937 610.6862227223627 264.1932143267718 613.959498380717 259.33823216729417 617.2327740390714 253.7754689486716 621.2136009047986 248.21270573004904 625.1944277705256 243.99175881907246 628.0325915829734 239.77081190809585 630.8707553954212 233.23963100139608 634.8107473840014 226.7084500946963 638.7507393725815 226.7015838623047 638.7434692382812 Z" fill="hsl(0, 0%, 0%)"></path><path d="M 328.26862131160414 294.2315372103328 Q 328.26862131160414 294.2315372103328 335.8138372246567 288.6695784746488 343.35905313770934 283.1076197389648 349.17772463951803 280.30844313812275 354.9963961413267 277.5092665372807 360.53062040811176 275.1735015270877 366.06484467489685 272.83773651689467 374.7214819975456 270.7529567116225 383.37811932019434 268.66817690635037 390.52659681224395 269.0455017732689 397.67507430429356 269.4228266401874 405.03626886379084 272.65984566461157 412.3974634232881 275.8968646890357 416.54585425272614 279.5978963305758 420.6942450821641 283.2989279721159 426.67145463677775 289.25605682195953 432.64866419139145 295.2131856718031 436.03941611318544 299.4450106572879 439.4301680349794 303.67683564277274 444.5360769042327 310.20574696320307 449.64198577348594 316.73465828363334 454.9486009534212 322.2591328809074 460.2552161333565 327.7836074781814 464.5708451386482 331.59623833417936 468.88647414393995 335.40886919017726 473.6295332945145 339.44230511264186 478.372592445089 343.4757410351064 474.09541666422854 347.5755596891245 469.81824088336805 351.6753783431425 465.56806611863277 343.9805158394503 461.3178913538975 336.28565333575807 459.72106073553624 331.4863661075792 458.124230117175 326.6870788794004 453.58026481837965 319.1285417748712 449.0362995195843 311.5700046703421 443.5066838674871 304.6165141893442 437.97706821538986 297.66302370834626 433.80250305506394 293.0896533205501 429.627937894738 288.51628293275394 421.24483665281105 281.760843278269 412.861735410884 275.00540362378405 405.04189169487404 270.67179377942364 397.2220479788641 266.3381839350632 392.2662442795421 264.62938476489944 387.31044058022 262.9205855947357 377.5066618497874 260.65804261332977 367.70288311935474 258.3954996319238 358.57252273806205 257.3040352865759 349.44216235676936 256.212570941228 341.49344558826346 255.37663768333297 333.54472881975755 254.54070442543792 327.35785032319905 254.06127153679358 321.1709718266406 253.58183864814924 318.94558597057596 254.11748739613833 316.7202001145113 254.65313614412742 316.7175888559707 254.64887218718178 316.7149775974301 254.64460823023617 316.7123663388895 254.64034427329057 316.70975508034894 254.63608031634493 321.88876145508186 251.11926427596802 327.06776782981484 247.6024482355911 333.5526210758269 245.95802857297025 340.0374743218389 244.31360891034942 349.518425627223 243.10604622073325 358.99937693260716 241.89848353111708 364.1561610678856 241.8194433600662 369.31294520316396 241.74040318901535 376.1092946595553 242.0532884630381 382.90564411594664 242.36617373706085 387.90820391007435 243.66155584199612 392.910763704202 244.95693794693136 399.36727196796323 246.80616786406492 405.8237802317245 248.65539778119847 410.5139756609234 251.0310034433552 415.2041710901222 253.4066091055119 419.64437124564 256.26732446688436 424.0845714011578 259.1280398282568 429.6023916559021 262.78774953665277 435.12021191064645 266.4474592450487 439.5600729490857 270.09725334612733 443.99993398752486 273.7470474472059 449.2566938953014 278.35489100152864 454.51345380307794 282.9627345558514 458.1866062246705 287.00782162588314 461.8597586462631 291.0529086959148 464.89557514153483 295.0696624874523 467.93139163680655 299.08641627898976 471.3643604080481 303.8857816592365 474.79732917928965 308.6851470394833 477.5761632112632 313.4559502644281 480.35499724323665 318.2267534893729 482.47531392187716 323.2682978457916 484.59563060051767 328.30984220221035 486.39070859351807 333.17637957614136 488.18578658651853 338.0429169500724 490.02951567696994 348.9854586296617 491.87324476742134 359.928000309251 485.4999047650579 365.20773775565954 479.1265647626945 370.4874752020681 472.59800402986195 368.3010056835906 466.06944329702935 366.1145361651131 462.59478907099935 362.16228513643455 459.1201348449694 358.210034107756 454.30387912355525 353.31832614864965 449.487623402141 348.4266181895433 444.3918328202632 342.89699895453384 439.2960422383853 337.3673797195243 433.6282826590684 330.50973974433975 427.9605230797515 323.65209976915526 422.4236377592506 316.59258556387863 416.88675243874974 309.533071358602 411.6745246884491 303.88002427186757 406.4622969381485 298.2269771851331 402.1719671785281 294.3833305701482 397.88163741890776 290.5396839551633 391.31457202045726 287.8788901041298 384.7475066220067 285.2180962530964 377.5670567955268 285.4166690953958 370.3866069690469 285.61524193769515 364.807687181896 287.04971865723843 359.2287673947451 288.4841953767817 353.06577067221906 290.3061039810178 346.902773949693 292.12801258525394 337.58935415107567 293.18908241402306 328.27593435245836 294.2501522427922 328.27227783203125 294.2408447265625 Z" fill="hsl(0, 0%, 0%)"></path><path d="M 404.7155778866756 184.30256092291071 Q 404.7155778866756 184.30256092291071 400.69153049174486 188.22273379207093 396.66748309681407 192.1429066612311 390.97233732267784 195.70560207325858 385.2771915485417 199.26829748528604 381.52157723343635 202.88452167469148 377.76596291833096 206.5007458640969 379.5329340781792 212.87033259644636 381.2999052380274 219.23991932879585 384.76093799365105 223.6583602136024 388.22197074927476 228.076801098409 392.4529694550698 230.81907554404197 396.68396816086494 233.56134998967494 403.1046203570253 231.5434625425728 409.5252725531856 229.52557509547066 414.9265362132197 225.35201566936763 420.3277998732538 221.17845624326458 423.335483511671 215.42851790139832 426.3431671500882 209.6785795595321 427.1008610610813 202.8179990426719 427.85855497207433 195.95741852581168 424.9402605867317 190.8878378294597 422.02196620138903 185.81825713310772 415.7926999832514 183.85753754679547 409.5634337651137 181.89681796048322 402.49661148628263 182.37064050974197 395.4297892074515 182.84446305900076 390.1663262595051 184.01511661886582 384.9028633115588 185.18577017873085 379.5697846219567 189.45862600971446 374.2367059323546 193.73148184069808 374.2319124755156 193.73005959897012 374.2271190186766 193.72863735724215 374.2223255618376 193.72721511551418 374.2175321049986 193.72579287378622 373.9953425301884 191.3035239478378 373.7731529553781 188.88125502188936 375.2033057362813 183.55192546848136 376.63345851718447 178.22259591507336 380.85250652054845 174.03944682136702 385.07155452391237 169.8562977276607 389.9760778099602 166.64893340716986 394.880601096008 163.44156908667904 401.8746359378458 161.28514399171448 408.8686707796837 159.12871889674992 417.3382285689957 159.18525459471863 425.8077863583077 159.24179029268737 433.4473199403783 163.42383022903027 441.08685352244896 167.6058701653732 445.998314555544 174.27754604314765 450.9097755886391 180.94922192092213 452.66727815354204 189.12072867488973 454.42478071844505 197.2922354288573 453.68150265309345 203.82733010715782 452.93822458774184 210.36242478545833 450.2087469557032 218.71020498646266 447.47926932366454 227.05798518746695 442.59922510612193 233.8131516233987 437.7191808885794 240.56831805933047 431.8100089773253 245.20659967839617 425.90083706607123 249.84488129746188 419.83096431710067 252.72006483801187 413.76109156813004 255.59524837856185 403.7972877866466 256.80267139407187 393.8334840051632 258.0100944095819 389.0636105097916 256.49646399623145 384.29373701441995 254.982833582881 376.67120700190026 249.05420617903923 369.0486769893806 243.12557877519745 363.88564159061673 233.70629129709988 358.7226061918528 224.28700381900228 358.7817406652328 215.0845055407334 358.84087513861283 205.88200726246455 362.9570060459856 199.1742825470301 367.07313695335836 192.46655783159562 373.4439387597089 189.61291370792003 379.81474056605947 186.75926958424446 386.6521817436559 185.21394890230258 393.48962292125236 183.6686282203607 399.09908916767904 183.9762312805609 404.70855541410566 184.28383434076116 404.7120666503906 184.29319763183594 Z" fill="hsl(0, 0%, 0%)"></path><path d="M 403.6747862092837 204.19028067337712 Q 403.6747862092837 204.19028067337712 405.08548299587005 207.8676039691786 406.49617978245647 211.54492726498006 404.79753392656664 217.40252616786933 403.0988880706769 223.2601250707586 403.0939229771002 223.25953528624294 403.08895788352356 223.25894550172728 403.08399278994693 223.25835571721163 403.07902769637025 223.25776593269597 401.86941012821467 219.07601539619642 400.65979256005903 214.89426485969688 405.13749580861577 210.9481097211434 409.61519905717245 207.00195458258995 414.8500269250295 207.2297029002413 420.0848547928865 207.45745121789264 421.7125799638047 213.40496747145409 423.3403051347229 219.3524837250155 417.5673183594696 222.90649101532406 411.79433158421637 226.46049830563263 405.78440930706967 224.7367954030438 399.77448702992297 223.01309250045497 399.0999141217801 216.54561177728334 398.42534121363724 210.07813105411174 401.0402250119424 207.13241701165637 403.65510881024755 204.186702969201 403.6649475097656 204.18849182128906 Z" fill="hsl(0, 0%, 0%)"></path><path d="M 347.1270074100069 385.3328062648691 Q 347.1270074100069 385.3328062648691 354.7934053898464 391.1504683315484 362.45980336968586 396.96813039822763 379.1705755974699 410.34024665560776 395.8813478252539 423.7123629129879 410.6354436869758 435.00369618801307 425.38953954869777 446.29502946303825 438.5119942852525 455.0718105892754 451.63444902180726 463.84859171551255 469.1846333647121 471.5157799234902 486.7348177076169 479.18296813146776 500.2022416349182 483.3850454619344 513.6696655622195 487.58712279240103 527.197982990531 489.6987180712449 540.7263004188425 491.81031335008873 550.6834391920711 492.1239616910402 560.6405779652998 492.43761003199165 569.6527392358839 491.1663376441517 578.6649005064679 489.8950652563118 586.5947562373628 487.3504112598665 594.5246119682579 484.8057572634212 600.0752758756523 481.88482639075903 605.6259397830469 478.9638955180969 610.692401478778 475.0233574225027 615.7588631745091 471.0828193269086 622.0587272459192 464.04727814256114 628.3585913173292 457.01173695821365 630.9965337786513 452.4925143574154 633.6344762399733 447.9732917566172 635.631114793795 442.98919494593474 637.6277533476165 438.00509813525224 639.8527282177101 430.89237468499095 642.0777030878037 423.7796512347296 643.3282491231392 418.3810334643334 644.5787951584748 412.9824156939373 645.055702484316 410.91283211275356 645.5326098101574 408.84324853156977 645.5376092252287 408.8433250099615 645.5426086403 408.8434014883533 645.5476080553714 408.8434779667451 645.5526074704427 408.8435544451369 645.9437044041358 410.96673095464814 646.334801337829 413.08990746415947 646.4675242309938 418.8621539533234 646.6002471241586 424.6344004424873 644.7494642769616 432.41433722248405 642.8986814297647 440.19427400248077 640.5763421250408 445.6089518238034 638.2540028203168 451.023629645126 634.9797162440685 455.3885154385676 631.7054296678202 459.7534012320092 625.5108571940281 467.95488209660846 619.3162847202359 476.15636296120766 613.4010500182485 479.73378812244124 607.4858153162612 483.3112132836748 601.3640996021859 485.3293510145089 595.2423838881105 487.347488745343 587.0414243734053 489.34071962936684 578.8404648587001 491.33395051339073 569.7314351561811 492.23991070275764 560.6224054536619 493.14587089212455 550.608497451942 492.9156570066509 540.5945894502219 492.68544312117723 526.9658770128451 490.68398136909434 513.3371645754685 488.6825196170115 499.73973293070014 484.62350630026094 486.1423012859318 480.5644929835104 468.3442845585258 473.0438926511607 450.5462678311199 465.5232923188111 437.16423270152524 456.9810782352709 423.78219757193057 448.4388641517307 408.7567130012375 437.3966395773487 393.73122843054443 426.35441500296673 377.20639658194295 412.67745550427384 360.68156473334153 399.00049600558094 353.89770102494856 392.17417690160596 347.1138373165556 385.3478577976309 347.12042236328125 385.34033203125 Z" fill="hsl(0, 0%, 0%)"></path><path d="M 154.45962762321798 343.4590359447227 Q 154.45962762321798 343.4590359447227 149.1655337051741 359.6888141541782 143.87143978713024 375.91859236363376 139.5089843112474 387.8105894333602 135.14652883536453 399.7025865030866 130.7769228069624 414.9012134579911 126.40731677856027 430.0998404128956 122.93305054942516 442.86793319382645 119.45878432029005 455.6360259747573 117.033612757457 466.7573739697975 114.60844119462396 477.8787219648378 112.33950839828955 494.92968862005495 110.07057560195516 511.9806552752721 109.15569747313121 521.6437712361943 108.24081934430727 531.3068871971165 109.28444105712984 543.1964171224479 110.32806276995241 555.0859470477794 112.05685816283301 563.0892180245039 113.78565355571361 571.0924890012284 118.1117445457435 581.9887931023403 122.4378355357734 592.8850972034522 127.24979266319536 602.6788100851134 132.06174979061734 612.4725229667745 137.97956758141856 621.1477971979823 143.8973853722198 629.82307142919 151.80328872865695 638.3339286671412 159.70919208509412 646.8447859050925 177.19126998836845 658.893842757205 194.67334789164278 670.9428996093176 205.11614928249543 677.5879947146495 215.55895067334808 684.2330898199814 230.2192055828615 691.2748114815167 244.87946049237488 698.316533143052 253.85151712933362 701.830147086841 262.8235737662924 705.3437610306298 275.9211895237616 708.100727766018 289.0188052812308 710.8576945014064 296.4726489721003 711.529334455665 303.9264926629697 712.2009744099236 315.35951122768904 711.3456260057173 326.79252979240835 710.4902776015113 333.7189107412644 708.9896479732253 340.6452916901204 707.4890183449393 348.59181222377424 705.1190276515588 356.53833275742807 702.7490369581782 362.87018681264226 700.5059723984837 369.2020408678564 698.2629078387893 375.42223032696427 695.9580766858335 381.64241978607214 693.6532455328777 388.73597719778616 690.9336545990368 395.82953460950023 688.2140636651959 408.21483729445936 681.9472302353213 420.60013997941843 675.6803968054468 430.1998669126516 669.8323233077341 439.7995938458848 663.9842498100214 450.2525220617108 656.1878841276655 460.7054502775369 648.3915184453097 468.81436298850224 641.5314015001743 476.9232756994676 634.6712845550388 483.63815294727965 627.8275011457583 490.35303019509166 620.983717736478 497.18423506841907 612.1583134092664 504.0154399417465 603.3329090820548 507.786690489496 596.102728265359 511.55794103724554 588.8725474486632 513.7608283721424 580.2811891382305 515.9637157070392 571.6898308277979 516.045938007882 563.9078155666389 516.1281603087248 556.1258003054799 514.9899815200345 549.6656824412676 513.8518027313443 543.2055645770552 511.1163412911955 535.9063357288894 508.38087985104676 528.6071068807238 505.4452686992856 523.2437064499272 502.5096575475244 517.8803060191308 498.9177663309026 512.1035917687841 495.32587511428085 506.32687751843736 491.73136786700877 502.3773303952902 488.13686061973675 498.4277832721431 481.83145012235326 492.5735374021358 475.52603962496977 486.71929153212847 470.33078785017597 481.93843733534504 465.13553607538216 477.1575831385616 462.1593587414402 472.9266148080129 459.1831814074983 468.69564647746415 458.2403620722374 462.1485499765349 457.2975427369765 455.6014534756057 457.8574150246992 452.50125047515394 458.417287312422 449.4010474747022 458.4222746367992 449.40069167200863 458.4272619611764 449.4003358693151 458.43224928555355 449.39998006662154 458.4372366099308 449.399624263928 460.41331871685964 454.55395305588297 462.38940082378843 459.7082818478379 466.9142058768656 465.00818971223225 471.43901092994275 470.3080975766266 476.8037114902087 474.6646131922932 482.1684120504746 479.02112880795977 488.74226070713746 485.75365829045484 495.3161093638003 492.48618777294985 498.94500081403135 497.26546061918543 502.5738922642623 502.04473346542096 506.061399062905 508.3062755309012 509.5489058615477 514.5678175963815 511.937135699862 520.5293976312487 514.3253655381762 526.4909776661158 517.0331357704476 534.5051955736706 519.740906002719 542.5194134812255 520.0767650444704 549.4238854098851 520.412624086222 556.3283573385446 519.7130988879203 564.4088390854296 519.0135736896186 572.4893208323145 516.5436739401314 581.3878164654413 514.0737741906443 590.286312098568 509.68361280271074 597.2915247807347 505.29345141477717 604.2967374629013 498.58809649458567 613.3827800401821 491.8827415743942 622.4688226174628 485.1639090110542 629.4357255425118 478.4450764477142 636.4026284675607 470.52889810199366 643.6212662475018 462.6127197562731 650.8399040274428 452.3598385923972 659.1697328268847 442.1069574285212 667.4995616263265 432.7376768110538 674.0950443082112 423.3683961935864 680.6905269900959 410.9544496525176 688.1189700777024 398.54050311144874 695.5474131653091 391.2003358248571 698.1348808341812 383.86016853826544 700.7223485030534 377.36905314370824 702.4045704502311 370.87793774915104 704.0867923974088 364.30112643177097 705.5582668417048 357.72431511439083 707.029741286001 349.46445266829625 709.1497705606498 341.20459022220166 711.2697998352987 334.0820868592186 711.8336968838557 326.9595834962355 712.3975939324127 315.25323789431127 713.5665741520284 303.5468922923871 714.7355543716438 296.22255138331866 713.0868674894904 288.8982104742503 711.4381806073369 275.72377078517457 708.7355547864613 262.54933109609885 706.0329289655858 253.6222779220236 702.3672051850776 244.69522474794834 698.7014814045696 229.9901425791096 691.6840249188617 215.28506041027083 684.6665684331538 204.8004934300123 678.0649953737868 194.31592644975376 671.4634223144197 176.72406426193697 659.4273012008803 159.1322020741202 647.3911800873409 151.09572844117932 638.8983672039053 143.05925480823845 630.4055543204696 136.96604881055598 621.7393251812723 130.8728428128735 613.0730960420751 125.84058661157923 603.3136306119378 120.80833041028497 593.5541651818005 116.13847252943845 582.5267311365852 111.46861464859192 571.49929709137 110.44748031441611 563.3346494689698 109.4263459802403 555.1700018465697 108.2496269340595 543.1842763824166 107.07290788787871 531.1985509182635 108.01715157151008 521.5186336040659 108.96139525514145 511.8387162898684 111.06686672340777 494.71018829039195 113.1723381916741 477.5816602909155 115.37312013746042 466.3650651818514 117.57390208324674 455.14847007278723 120.73415021679253 442.27385945332077 123.89439835033832 429.3992488338543 128.05195101954132 414.01260572440486 132.20950368874432 398.6259626149554 136.57741589245742 386.7201814025163 140.94532809617053 374.81440019007715 147.69312184292158 359.13318749377095 154.44091558967264 343.4519747974648 154.4502716064453 343.45550537109375 Z" fill="hsl(0, 0%, 0%)"></path><path d="M 565.9593971646575 448.17138766783415 Q 565.9593971646575 448.17138766783415 559.7519941170989 438.0375698069722 553.5445910695403 427.9037519461103 550.9269693195363 420.51739708874555 548.3093475695323 413.13104223138083 546.4316263556709 406.005329821169 544.5539051418097 398.8796174109572 543.5806316286231 392.02347041292137 542.6073581154366 385.16732341488546 541.9871067637167 379.82195497390694 541.3668554119969 374.4765865329284 543.4400384997393 365.54747654330595 545.5132215874818 356.6183665536834 546.584765339507 351.63698631789146 547.6563090915323 346.65560608209944 550.9211559577973 339.5111131617931 554.1860028240621 332.36662024148677 557.408396108344 326.9852543530425 560.630789392626 321.60388846459824 565.4114071228437 316.295024430854 570.1920248530614 310.9861603971098 574.5120878232149 307.2328127855998 578.8321507933682 303.4794651740898 584.1167697450481 300.5735831083704 589.4013886967281 297.66770104265106 596.3714593057639 295.3540716870549 603.3415299147997 293.04044233145873 608.045906739958 293.12349149808915 612.7502835651163 293.20654066471957 612.7506198740774 293.21152934152633 612.7509561830385 293.21651801833315 612.7512924919996 293.22150669513996 612.7516288009607 293.2264953719467 608.8375044329437 294.9305409365454 604.9233800649266 296.6345865011441 599.2641091288701 300.3610387117165 593.6048381928136 304.0874909222889 589.5187053551579 307.3273617046355 585.4325725175021 310.5672324869821 581.8707137682627 314.19102680198773 578.3088550190232 317.8148211169933 574.4606088001182 322.78048507670485 570.6123625812131 327.7461490364164 567.6984525936618 332.37319582386533 564.7845426061106 337.0002426113142 560.5440482313136 347.9158202212982 556.3035538565165 358.8313978312821 555.0014876409801 366.37453410184776 553.6994214254438 373.91767037241334 553.6375506193181 378.9966750970658 553.5756798131923 384.07567982171827 553.9162428778742 390.41394486781417 554.2568059425561 396.75220991391 555.4704649119146 403.6718443889025 556.6841238812733 410.591478863895 558.5069566524486 417.8360212042537 560.3297894236239 425.0805635446124 563.1538240591707 436.6221294422954 565.9778586947175 448.16369533997835 565.9686279296875 448.16754150390625 Z" fill="hsl(0, 0%, 0%)"></path><path d="M 568.0603878815908 454.45994437550763 Q 568.0603878815908 454.45994437550763 554.6841997294512 452.8338765682291 541.3080115773114 451.2078087609505 531.2842149964829 448.58936820311595 521.2604184156544 445.9709276452814 513.6896196362818 444.5240633446808 506.1188208569093 443.0771990440803 500.37648855494274 442.15932664961804 494.63415625297614 441.24145425515576 488.94201178431047 440.39579016734706 483.24986731564485 439.55012607953836 473.17085466660797 439.4653994143241 463.0918420175711 439.38067274910986 455.29988936519874 440.308066634523 447.5079367128264 441.23546051993617 440.94675481063337 443.3469428554175 434.3855729084403 445.45842519089894 428.427104805981 448.11106470446884 422.4686367035217 450.76370421803875 416.5122015291434 453.69558705578874 410.55576635476507 456.6274698935387 410.55151399500267 456.6248397915539 410.5472616352402 456.622209689569 410.54300927547774 456.6195795875841 410.53875691571534 456.61694948559926 414.7775630002085 450.98100503983176 419.01636908470164 445.34506059406425 424.52624992083275 440.8175935469505 430.03613075696387 436.29012649983673 437.63332999879026 432.8173977591931 445.2305292406166 429.34466901854955 454.07293728231815 428.3565053944905 462.9153453240197 427.36834177043147 474.1783452804808 428.0953119804902 485.4413452369419 428.8222821905489 491.15361075329827 430.3110501046099 496.86587626965456 431.79981801867086 502.37385319255577 433.54134560103427 507.88183011545703 435.28287318339767 515.4488223431264 437.2600393889312 523.0158145707958 439.2372055944647 533.0267118605117 441.8419261999602 543.0376091502276 444.4466468054557 555.5514768452558 449.4436075626303 568.0653445402842 454.44056831980487 568.0628662109375 454.45025634765625 Z" fill="hsl(0, 0%, 0%)"></path><path d="M 570.1477596131946 446.07686317161773 Q 570.1477596131946 446.07686317161773 566.5788323168563 440.19543793851244 563.0099050205181 434.3140127054071 560.7945126873342 427.380699937504 558.5791203541503 420.4473871696009 557.5250231025414 412.1554364153699 556.4709258509323 403.8634856611388 557.6452303142878 394.8304198805752 558.8195347776434 385.79735410001166 563.973708520507 374.960889705485 569.1278822633705 364.12442531095826 576.2523619687895 354.94466240780025 583.3768416742085 345.76489950464224 590.8142397557449 338.5011951472269 598.2516378372811 331.23749078981155 602.297615837045 327.59920208713856 606.3435938368087 323.96091338446564 606.3471143990578 323.96446382689595 606.3506349613067 323.96801426932626 606.3541555235556 323.97156471175657 606.3576760858047 323.9751151541869 602.703665121224 327.97201305084604 599.0496541566436 331.96891094750515 592.6195855286473 339.8369703256505 586.1895169006513 347.70502970379584 580.5183316001851 357.1291295423983 574.8471462997189 366.55322938100073 571.1442320002423 376.8234687521283 567.4413177007655 387.0937081232559 566.19239283196 395.13954959747167 564.9434679631546 403.18539107168743 565.2711902229591 410.9953229234859 565.5989124827638 418.8052547752843 566.6348601764354 425.6749430869406 567.670807870107 432.54463139859683 568.9186286206436 439.30718733614583 570.1664493711804 446.06974327369477 570.1571044921875 446.07330322265625 Z" fill="hsl(0, 0%, 0%)"></path><path d="M 570.1472716717857 440.83588662882977 Q 570.1472716717857 440.83588662882977 569.8740902294219 432.3779342937863 569.6009087870582 423.9199819587429 571.0003317375292 416.59287648080306 572.3997546880004 409.2657710028633 578.055223579827 398.85975250814386 583.7106924716537 388.45373401342437 587.774203312298 382.3964271844507 591.8377141529423 376.33912035547706 597.0943516800842 370.7515234444437 602.350989207226 365.16392653341035 605.3173093754588 362.3725125280128 608.2836295436915 359.58109852261526 608.2875092905167 359.58425249860954 608.2913890373418 359.5874064746039 608.2952687841669 359.5905604505982 608.299148530992 359.5937144265925 606.1912058377516 363.04421705664254 604.0832631445111 366.4947196866926 600.2338398487011 372.7606042432564 596.3844165528911 379.02648879982024 593.1888905249632 385.2760886897563 589.9933644970353 391.52568857969237 585.6521996493905 401.57695404674587 581.3110348017457 411.6282195137993 579.0226350288281 418.43528409124895 576.7342352559106 425.2423486686985 573.45058628425 433.0409385394656 570.1669373125893 440.83952841023273 570.1571044921875 440.83770751953125 Z" fill="hsl(0, 0%, 0%)"></path><path d="M 568.0614519996832 461.7900203448757 Q 568.0614519996832 461.7900203448757 557.3285126079618 461.6587952919499 546.5955732162404 461.52757023902404 539.3602481466079 461.0822438694282 532.1249230769754 460.63691749983246 517.7866829757444 459.90467550438035 503.4484428745134 459.17243350892824 495.03277036942416 459.38568338949517 486.6170978643349 459.5989332700621 480.83062127905384 460.76526449572964 475.04414469377286 461.9315957213972 470.11341982998766 463.8050672080699 465.18269496620246 465.67853869474254 460.7875901646438 468.26672954582534 456.39248536308514 470.8549203969082 449.3051468488107 477.69254999425846 442.21780833453624 484.5301795916087 439.96160119093696 486.8772629197506 437.7053940473377 489.2243462478924 437.7012186209011 489.2215956453997 437.6970431944645 489.21884504290705 437.69286776802795 489.2160944404144 437.6886923415914 489.2133438379217 438.9751494222584 486.18264760784587 440.2616065029255 483.15195137777 446.45639999583864 474.06329701030336 452.6511934887518 464.9746426428367 457.56142529445606 461.6957624981725 462.4716571001603 458.4168823535083 468.10227579585853 456.40231512316586 473.73289449155675 454.3877478928235 480.0464226280383 453.48920573562464 486.35995076451985 452.5906635784258 495.08135278857776 452.19545965831446 503.8027548126357 451.80025573820313 518.4534769106158 452.4697802336873 533.104199008596 453.13930472917144 540.2438713068224 454.5755205653862 547.3835436050488 456.01173640160096 557.7239120136203 458.890978877972 568.0642804221918 461.77022135434305 568.0628662109375 461.7801208496094 Z" fill="hsl(0, 0%, 0%)"></path><path d="M 564.9256753278049 465.97768806417116 Q 564.9256753278049 465.97768806417116 558.7089337197735 471.48920135785625 552.492192111742 477.00071465154133 547.0356123775707 480.35605516387704 541.5790326433994 483.7113956762128 533.6960217491021 487.48815533413756 525.8130108548047 491.26491499206236 521.4113741330696 494.2438547894242 517.0097374113345 497.222794586786 513.5806806730495 500.5396774854458 510.1516239347644 503.8565603841056 510.1473996338716 503.85388544822473 510.1431753329787 503.85121051234387 510.13895103208586 503.848535576463 510.13472673119304 503.84586064058215 511.9286046604353 498.91460281295076 513.7224825896776 493.9833449853194 517.360032103117 488.8884609431312 520.9975816165564 483.793576900943 528.6202938118349 478.4579888057244 536.2430060071133 473.12240071050593 542.3466365009083 470.65246900604484 548.4502669947033 468.1825373015837 556.6838046225116 467.07102203081564 564.9173422503201 465.9595067600476 564.9215087890625 465.9685974121094 Z" fill="hsl(0, 0%, 0%)"></path><path d="M 615.1930227467775 299.47873081930413 Q 615.1930227467775 299.47873081930413 614.3555811995253 304.68281613690965 613.5181396522731 309.8869014545151 611.9763397007083 318.7037783140879 610.4345397491435 327.5206551736607 609.4441694883778 338.13395741655205 608.4537992276121 348.7472596594434 608.562314958947 362.2474324372607 608.670830690282 375.7476052150781 609.798761663558 385.07913002094756 610.9266926368341 394.41065482681705 612.4120646115313 400.45447767638274 613.8974365862284 406.4983005259484 615.8411387353544 411.39396183992346 617.7848408844804 416.28962315389845 621.2945279228416 422.35680690180345 624.8042149612028 428.4239906497084 628.9441109312884 434.401955498646 633.0840069013739 440.3799203475835 636.6294297184957 444.7540452713217 640.1748525356176 449.12817019505985 640.1710352010743 449.1313994297965 640.167217866531 449.1346286645332 640.1634005319877 449.1378578992699 640.1595831974445 449.1410871340065 636.4227652455256 444.9067485959505 632.6859472936067 440.67241005789447 628.1913027133758 434.8953516620543 623.6966581331448 429.11829326621404 619.6399945889598 423.1101954133552 615.5833310447749 417.1020975604963 613.8907613728364 412.0023506933312 612.198191700898 406.90260382616606 610.7943923870611 400.76134400687255 609.3905930732242 394.62008418757904 607.970545761898 385.19766045734605 606.5504984505719 375.775236727113 606.3306161443778 362.14880028567734 606.1107338381837 348.5223638442416 607.1810435166881 337.8091096262756 608.2513531951923 327.09585540830955 610.1415213222408 318.3165245538015 612.0316894492893 309.5371936992935 613.6026219254746 304.50567186968215 615.17355440166 299.47415004007087 615.1832885742188 299.4764404296875 Z" fill="hsl(0, 0%, 0%)"></path><path d="M 634.0363944948523 436.65791338845247 Q 634.0363944948523 436.65791338845247 630.2597890863542 439.8328725568516 626.4831836778562 443.00783172525075 623.3862047142812 445.2587979848821 620.2892257507062 447.5097642445134 613.4690724765167 451.1793616569403 606.6489192023272 454.84895906936714 602.6551609543511 457.18120652586 598.661402706375 459.5134539823528 593.3969580251314 461.2008336899562 588.1325133438877 462.88821339755964 583.8504040350674 463.16210002018096 579.5682947262471 463.4359866428023 575.3239251655375 462.009508318166 571.0795556048278 460.5830299935297 567.5484974417323 458.7034358979712 564.0174392786367 456.82384180241263 562.5338775740657 455.66895684019096 561.0503158694947 454.5140718779693 561.0511493897347 454.50914184308 561.0519829099746 454.50421180819075 561.0528164302145 454.4992817733015 561.0536499504545 454.4943517384122 562.8605158132427 454.9383938580931 564.6673816760309 455.382435977774 568.4415516580927 456.03770747220585 572.2157216401546 456.69297896663767 575.7329269155714 457.17975685314536 579.2501321909883 457.666534739653 582.7714185876913 457.11598373501107 586.2927049843943 456.56543273036914 590.9798892835026 455.10514247383117 595.6670735826111 453.64485221729325 599.8785664708427 451.7738774516486 604.0900593590742 449.902902686004 610.9096169384613 446.5159466621515 617.7291745178484 443.12899063829906 621.2251194434335 441.52655846043035 624.7210643690187 439.9241262825617 629.373768042552 438.28233740408587 634.0264717160852 436.64054852561003 634.0314331054688 436.64923095703125 Z" fill="hsl(0, 0%, 0%)"></path><path d="M 569.1198629812158 455.4989656315941 Q 569.1198629812158 455.4989656315941 568.8846794405038 461.3246684545811 568.6494958997918 467.15037127756807 567.226085655203 473.3073661374392 565.8026754106143 479.46436099731034 565.1219015581562 483.3195955580974 564.441127705698 487.1748301188845 562.3445834032748 491.5805163442803 560.2480391008517 495.9862025696761 558.2572569913225 499.4817444277123 556.2664748817933 502.97728628574845 551.3793680624212 506.8519962673527 546.492261243049 510.726706248957 541.2340301043034 513.3225963196011 535.9757989655577 515.9184863902452 527.5310476082533 516.357017873291 519.0862962509489 516.7955493563369 505.50819166072915 513.4098972914759 491.9300870705095 510.0242452266149 479.0025712848849 503.9141712483281 466.0750554992602 497.80409727004127 455.2478896468362 490.86466877886517 444.4207237944122 483.9252402876891 435.97920515464875 476.9655526539268 427.53768651488525 470.0058650201645 419.52365670722565 461.55139268161025 411.50962689956606 453.096920343056 411.5131931355288 453.0934157801649 411.5167593714916 453.08991121727377 411.5203256074544 453.08640665438264 411.5238918434172 453.0829020914915 419.7997053099631 461.2049406381184 428.075518776509 469.32697918474526 436.71264281605727 475.87037445005336 445.3497668556055 482.41376971536147 456.2906234867871 488.8293231604172 467.2314801179688 495.24487660547294 480.0224099279603 500.72457981917 492.81333973795194 506.2042830328671 505.748609047459 508.8382946303257 518.683878356966 511.4723062277843 525.872663731785 510.4911142996749 533.061449106604 509.50992237156555 537.6708475518299 507.3485961668813 542.2802459970559 505.18726996219704 546.4441851197494 502.11860169027125 550.6081242424427 499.04993341834546 552.9136335958619 496.12499018248286 555.2191429492811 493.20004694662026 557.5647573280598 489.5822037202644 559.9103717068386 485.9643604939085 561.1815097386884 482.2742270432209 562.4526477705381 478.58409359253335 564.2052807693576 472.65404377467013 565.957913768177 466.7239939568069 567.5290107450431 461.1099201684658 569.1001077219092 455.49584638012465 569.1099853515625 455.4974060058594 Z" fill="hsl(0, 0%, 0%)"></path></svg>