<svg xmlns="http://www.w3.org/2000/svg" version="1.1" xmlns:xlink="http://www.w3.org/1999/xlink" viewBox="0 0 640 800" style="overflow: hidden; display: block;" width="640" height="800"><defs></defs><g id="two-0" transform="matrix(1 0 0 1 0 0)" opacity="1"></g><path d="M 353.0529886868084 210.78840131499535 Q 353.0529886868084 210.78840131499535 349.98582002344244 210.92329307230233 346.9186513600765 211.0581848296093 340.41770392191006 211.4932322284925 333.91675648374365 211.92827962737573 328.94599922292184 212.21834550064028 323.97524196210003 212.50841137390483 317.5319341369771 213.13045320711865 311.08862631185417 213.7524950403325 306.64482680555443 214.05321037409527 302.2010272992547 214.35392570785802 298.80282376304194 214.79150830673188 295.40462022682925 215.22909090560572 292.95293072379764 215.75497612451852 290.501241220766 216.28086134343135 288.7536465709295 216.84912886883134 287.00605192109305 217.41739639423133 285.432181812361 218.42936527076893 283.85831170362906 219.44133414730655 282.70243341888005 222.2026938180117 281.54655513413104 224.9640534887169 281.0500390428224 226.51989593126555 280.55352295151374 228.0757383738142 279.72145735365854 230.46688361704432 278.88939175580333 232.85802886027443 278.30716134071815 234.89476544253165 277.72493092563303 236.93150202478887 276.4752809318687 239.7672890031182 275.2256309381044 242.60307598144755 274.0963004021951 244.77472931748173 272.9669698662858 246.94638265351588 270.90326464367547 249.02538284661875 268.8395594210651 251.10438303972163 266.7047736951462 252.8303804329206 264.5699879692273 254.55637782611956 262.12093655639904 255.88210309574856 259.67188514357076 257.20782836537757 257.0633531538875 258.06794950989865 254.4548211642042 258.9280706544198 252.6907499697012 259.34059868140537 250.92667877519818 259.7531267083909 247.99548048275955 260.05164717886066 245.0642821903209 260.3501676493304 241.79883784526834 259.0972804586745 238.5333935002158 257.8443932680186 238.25251250651758 254.82689581299337 237.97163151281939 251.80939835796812 238.82743245702179 250.36432988182355 239.6832334012242 248.91926140567895 241.80967951329106 248.0459436150157 243.93612562535793 247.17262582435245 247.3993535066502 246.9121554519711 250.86258138794247 246.65168507958973 253.52459798418346 246.60854190690677 256.1866145804245 246.5653987342238 260.46287042802777 247.19658133403559 264.73912627563107 247.82776393384736 268.05336941895337 248.41123735591776 271.36761256227567 248.99471077798813 274.8676457678911 249.86093155617408 278.36767897350654 250.72715233436006 282.6274273740531 251.95895288706816 286.8871757745997 253.19075343977624 291.19687801023235 254.5695204943932 295.50658024586494 255.9482875490102 300.77273673390897 257.3346181516671 306.038893221953 258.72094875432396 310.75914742760176 259.87522003047343 315.4794016332505 261.02949130662284 319.9503178527814 261.4806741916075 324.4212340723122 261.9318570765921 330.698875726092 262.1411370638973 336.97651737987184 262.3504170512025 342.31216550942736 262.17323597230893 347.64781363898294 261.9960548934153 353.0004842342612 261.12548007105056 358.3531548295395 260.2549052486859 362.4201977290975 259.10637697754953 366.48724062865546 257.95784870641324 369.6314294067995 256.47460229805506 372.7756181849435 254.99135588969693 376.1011239286846 252.59071650884738 379.42662967242575 250.1900771279978 381.7651835227339 247.71973045973976 384.10373737304195 245.2493837914817 385.70681005441156 242.0900810816011 387.3098827357812 238.93077837172052 388.2728677255215 236.06498074418678 389.23585271526184 233.19918311665305 389.60518375543774 230.1125464587097 389.97451479561363 227.02590980076633 389.09927371830065 223.19596537303505 388.22403264098773 219.36602094530375 386.6041014206395 215.67924137467554 384.98417020029126 211.9924618040473 382.51884851183996 208.41523296268676 380.05352682338867 204.8380041213262 375.0630321664643 199.90916131124015 370.07253750954 194.9803185011541 364.014737699682 190.79878273108096 357.95693788982396 186.6172469610078 349.32558976498905 183.02827891926006 340.69424164015413 179.4393108775123 334.3583924014973 177.63366767432507 328.0225431628405 175.8280244711378 323.14045266502296 175.37364778907056 318.2583621672054 174.91927110700334 312.22535750465056 175.2526115091012 306.1923528420958 175.5859519111991 301.3088653890014 176.51332565709237 296.425377935907 177.44069940298562 290.7621408824099 179.66591333889198 285.0989038289128 181.89112727479832 280.41636245377924 183.9463035731726 275.73382107864575 186.00147987154688 271.75475401332625 188.40848937772122 267.77568694800675 190.81549888389557 263.3687995062521 193.97449654780365 258.9619120644975 197.13349421171176 255.5514763501978 200.2450174472031 252.14104063589812 203.3565406826945 248.47335328749568 207.30172032969827 244.80566593909327 211.24689997670205 242.09778447228263 214.4808651008493 239.389903005472 217.71483022499652 237.40104803253004 220.5765268670616 235.41219305958808 223.43822350912666 233.34219018447237 226.98429071509565 231.27218730935667 230.53035792106462 229.71621597658242 233.36409303250562 228.1602446438082 236.19782814394662 227.08770658226456 239.3686067164595 226.0151685207209 242.53938528897237 225.43967101398545 244.98371472934286 224.86417350724997 247.4280441697134 224.52589602343716 249.28785474725188 224.1876185396243 251.14766532479038 223.8884817816403 253.0305509938911 223.5893450236563 254.91343666299184 223.46104491780596 257.39761836806133 223.33274481195562 259.8818000731308 223.3278751173599 259.8829341253978 223.32300542276414 259.88406817766474 223.3181357281684 259.8852022299317 223.31326603357266 259.88633628219867 222.71400217412574 257.3745291444456 222.11473831467882 254.86272200669254 221.94758852488386 252.90803196314414 221.7804387350889 250.95334191959572 221.7527188234855 248.96848833754612 221.72499891188215 246.98363475549652 221.88022510446314 244.2703898994672 222.0354512970441 241.5571450434379 222.68226311624494 237.77738043577295 223.32907493544576 233.99761582810797 224.52240129570316 230.8469831971268 225.71572765596054 227.69635056614564 227.52219765289075 223.64270968648668 229.32866764982097 219.5890688068277 231.27599956445945 216.2351823082493 233.22333147909794 212.88129580967095 235.88837190396333 209.26774805521316 238.5534123288287 205.65420030075538 242.34296838478343 201.2649529238241 246.1325244407382 196.87570554689282 249.89869229045905 193.33912663679706 253.66486014017994 189.80254772670133 258.3667307468675 186.39257217379838 263.0686013535551 182.9825966208954 267.5595711413601 180.30305006315766 272.0505409291651 177.6235035054199 276.9276465269164 175.48770122338064 281.8047521246678 173.35189894134137 288.26499184962677 170.90091255821403 294.7252315745858 168.44992617508672 300.22033170165935 167.44809570782394 305.71543182873296 166.4462652405612 312.4365296497306 166.12899592609938 319.15762747072813 165.81172661163754 324.84173894765235 166.4189457696849 330.52585042457656 167.0261649277323 337.38559059225156 169.01462572765251 344.24533075992656 171.00308652757275 353.7001139157299 175.0451905844165 363.15489707153324 179.08729464126029 369.83935655366406 183.78762320989972 376.5238160357949 188.48795177853918 382.07165702052174 194.0877617897806 387.6194980052486 199.687571801022 390.5068092517716 204.0326350200114 393.39412049829457 208.37769823900084 395.2949790020126 212.96175436414092 397.19583750573065 217.54581048928102 398.12367099745245 222.80680442889064 399.0515044891742 228.0677983685003 398.47843817455123 232.11307975262287 397.90537185992827 236.15836113674544 396.6509513089654 239.703695632547 395.3965307580025 243.24903012834858 393.0783894316054 247.39735555046553 390.7602481052083 251.5456809725825 387.7611310135286 254.60367049524928 384.76201392184885 257.66166001791606 380.7132196722638 260.4914818692748 376.66442542267873 263.3213037206335 372.82717160393383 265.07142549479204 368.989917785189 266.8215472689506 364.40742555615276 268.0960183806202 359.8249333271165 269.3704894922897 353.89935598367595 270.3123747296521 347.9737786402354 271.25425996701443 342.32715005391753 271.4530171232094 336.6805214675996 271.6517742794043 330.0798264065255 271.4493627374831 323.47913134545144 271.2469511955619 318.38778183425984 270.7294481294256 313.2964323230682 270.21194506328925 308.47955213186543 269.0869552779776 303.6626719406627 267.961965492666 298.1545744997638 266.57779176814887 292.6464770588649 265.1936180436317 288.4559816308083 263.94226634589074 284.2654862027518 262.6909146481497 280.1908730996961 261.62287415957894 276.1162599966404 260.5548336710081 272.9683452221576 259.8983787224716 269.82043044767477 259.24192377393507 266.5660424722687 258.83507301220766 263.3116544968626 258.42822225048025 259.9096963409552 258.02546173831144 256.50773818504774 257.6227012261426 254.06568327199415 257.7392136074162 251.62362835894058 257.8557259886898 248.87984873357357 257.3199834689864 246.13606910820658 256.7842409492829 246.0414638936445 254.3141539654311 245.94685867908245 251.84406698157932 244.71531067005105 250.5195909864098 243.48376266101965 249.1951149912403 245.20047536961204 249.1833462900479 246.9171880782044 249.17157758885548 249.0819672179049 248.94270354060592 251.2467463576054 248.71382949235635 253.06227513089482 248.18130612018604 254.87780390418425 247.64878274801575 256.3571500371029 246.99392882826743 257.8364961700215 246.33907490851914 260.7642784250102 244.04985538149913 263.6920606799989 241.7606358544791 264.59641759888325 240.100605658525 265.50077451776764 238.44057546257096 266.4438498886833 236.14933079767658 267.38692525959897 233.8580861327822 268.0753336851211 231.60860747742208 268.7637421106433 229.35912882206196 269.62520416738806 226.8499874940141 270.4866662241328 224.34084616596624 271.38245820856025 222.14399118724046 272.2782501929877 219.94713620851468 273.3847392061574 218.03870632037558 274.4912282193271 216.13027643223649 276.27444006886776 213.76368701590422 278.0576519184084 211.39709759957194 279.85106545945524 210.39581979071482 281.6444790005021 209.39454198185774 283.29011431866707 208.97521508992742 284.935749636832 208.5558881979971 287.05368549860646 208.2230259975861 289.171621360381 207.8901637971751 291.9266240968706 207.59197521701742 294.68162683336027 207.29378663685978 298.34953810819945 207.08860349958206 302.0174493830387 206.88342036230432 306.4224137445404 206.96797716678356 310.8273781060421 207.05253397126276 317.4273025175429 207.16596750027998 324.0272269290437 207.27940102929722 329.00672486193224 207.66897291905462 333.9862227948208 208.05854480881203 340.52778901327054 208.72772401120778 347.06935523172035 209.39690321360357 350.06207731542474 210.0826933321166 353.0547993991291 210.76848345062965 353.05389404296875 210.7784423828125 Z" fill="hsl(0, 0%, 0%)"></path><path d="M 258.2111085231941 261.5502997110608 Q 258.2111085231941 261.5502997110608 260.5251810795869 263.41618078140124 262.8392536359796 265.2820618517417 265.50528799082406 267.6552805849245 268.17132234566844 270.02849931810744 271.44261664852024 273.43591032042417 274.7139109513721 276.8433213227409 278.41331204671053 280.61379612767706 282.112713142049 284.3842709326132 286.6769002537593 289.8029166629333 291.2410873654696 295.2215623932533 294.631474079168 299.73117812529097 298.02186079286645 304.2407938573286 300.8910845712552 308.3527896376768 303.76030834964394 312.46478541802503 306.7174368773443 317.2982580416384 309.67456540504475 322.1317306652517 312.04874042052904 326.4239236943365 314.4229154360134 330.7161167234213 315.83380702621673 334.80310079458843 317.24469861642007 338.8900848657555 318.6260687573359 343.5922865522981 320.0074388982517 348.2944882388407 320.65290876196946 352.79045089957856 321.29837862568723 357.2864135603165 321.5541059675701 362.8475136425783 321.809833309453 368.40861372484005 321.6132906151345 373.3481786155096 321.4167479208159 378.2877435061792 320.7191890025691 383.26695514516155 320.0216300843223 388.24616678414395 317.55422472245345 397.3455733115875 315.0868193605847 406.4449798390311 312.08325701418084 413.86750226479984 309.079694667777 421.2900246905686 306.4644368519681 426.29507648882384 303.8491790361592 431.3001282870791 302.051748857963 434.43415754883983 300.25431867976675 437.56818681060054 298.47487345646664 440.2128021672941 296.6954282331665 442.8574175239877 295.2981168052095 444.49362292799515 293.9008053772524 446.12982833200266 292.63960313908376 447.54419465547284 291.37840090091504 448.958560978943 291.3742518420505 448.955770762009 291.370102783186 448.95298054507504 291.36595372432146 448.95019032814105 291.36180466545693 448.94740011120706 292.19733622781644 447.2439185513826 293.032867790176 445.5404369915581 293.9765847813157 443.7292446876297 294.9203017724554 441.91805238370137 296.0566958354721 439.043606597986 297.19308989848884 436.16916081227066 298.36774308239836 432.7983004030142 299.5423962663079 429.4274399937577 301.32781289683703 424.3117947892058 303.1132295273662 419.19614958465394 305.27926953746544 411.87886672061467 307.4453095475647 404.5615838565754 309.3642858075001 395.83012492442924 311.28326206743543 387.09866599228303 311.83300166016625 382.5286653883428 312.3827412528971 377.95866478440263 312.5285557081445 373.3918093671616 312.6743701633919 368.82495394992054 312.43943294565975 363.6840685478063 312.2044957279276 358.543183145692 311.6954607454924 354.7090328302096 311.18642576305723 350.8748825147271 309.85131391302485 346.34666987992404 308.5162020629925 341.81845724512095 307.42404499170465 338.4453445589169 306.3318879204168 335.07223187271273 304.11274746745687 330.8848554836033 301.89360701449687 326.6974790944939 299.22786019250293 321.9488751803524 296.56211337050905 317.20027126621085 293.97843083723194 313.0247710684779 291.3947483039548 308.8492708707449 288.4359450604019 304.228747571176 285.4771418168489 299.608224271607 281.58319498732425 293.91404143261377 277.68924815779957 288.2198585936205 274.44947200802176 283.9897003161191 271.209695858244 279.7595420386178 268.52336579528924 276.00803761086553 265.8370357323345 272.2565331831133 263.5587711140954 269.45130732095924 261.28050649585634 266.64608145880516 259.738281750003 264.1047756394972 258.1960570041496 261.5634698201892 258.2035827636719 261.556884765625 Z" fill="hsl(0, 0%, 0%)"></path><path d="M 261.08665505487426 386.1030470915666 Q 261.08665505487426 386.1030470915666 263.4501513023433 389.4495639971145 265.8136475498123 392.7960809026625 268.0948984582534 396.9498263050445 270.37614936669445 401.1035717074265 272.3103616226733 405.0386222147898 274.2445738786522 408.9736727221532 276.1061945952639 413.9993550076848 277.9678153118756 419.0250372932164 279.12145499142616 423.1420468799937 280.2750946709768 427.259056466771 280.84153844275414 430.8005519312171 281.4079822145315 434.3420473956632 281.72784043451895 438.3859224595418 282.0476986545064 442.4297975234204 281.92933275564366 445.7028295225387 281.8109668567809 448.975861521657 280.9040792185003 452.63692837710016 279.9971915802198 456.2979952325433 279.45353173295405 458.78907250940813 278.90987188568835 461.2801497862729 277.36446873955066 464.2585868355321 275.819065593413 467.23702388479137 274.73773922731857 469.2194962336257 273.65641286122417 471.20196858246 272.55505902203544 472.82233998330986 271.4537051828467 474.44271138415974 270.5851494780202 475.7985277290743 269.71659377319367 477.1543440739888 267.88778250499024 479.5341880211851 266.0589712367869 481.91403196838144 265.2960778830436 483.4594323592469 264.53318452930034 485.00483275011226 263.61419793506155 486.4546384736947 262.69521134082277 487.90444419727714 262.19138289572976 488.3722191284503 261.68755445063675 488.8399940596234 261.0864179098973 489.1735976383012 260.48528136915786 489.50720121697907 259.821774816764 489.6872443874945 259.1582682643701 489.86728755801 258.47095473232173 489.8833062028334 257.7836412002733 489.8993248476569 257.11246738334626 489.7503879623986 256.4412935664192 489.6014510771402 255.8252681183883 489.2962148805691 255.20924267035744 488.9909786839979 254.6841690192061 488.5471835182002 254.15909536805478 488.1033883524024 253.75549081905837 487.5468276132658 253.35188627006198 486.99026687412925 253.09320833857146 486.35328789796233 252.83453040708096 485.7163089217954 252.73581346662849 485.0359329566213 252.637096526176 484.35555699144726 252.7040780099789 483.6713275203292 252.77105949378176 482.9870980492112 252.99984643485425 482.33878252115903 253.2286333759267 481.6904669931069 253.60592866650416 481.1157455370719 253.98322395708158 480.541024081037 258.2943806218192 484.10545026345875 262.60553728655685 487.6698764458805 262.1030724357138 488.1363853603914 261.6006075848707 488.6028942749022 261.0010979993744 488.93559496703983 260.4015884138781 489.2682956591775 259.73987761900537 489.447851549083 259.0781668241326 489.6274074389884 258.39271348237185 489.64338272990403 257.707260140611 489.65935802081964 257.03790283239124 489.5108242280868 256.36854552417145 489.36229043535394 255.754187327696 489.0578803499851 255.13982913122055 488.7534702646162 254.6161765737341 488.31087621507567 254.09252401624764 487.8682821655351 253.69001180899497 487.3132277387773 253.2874996017423 486.75817331201944 253.02952177312093 486.1229182974067 252.77154394449957 485.48766328279396 252.67309417803 484.8091287316229 252.57464441156043 484.1305941804518 252.64144461229552 483.44821655271727 252.70824481303057 482.76583892498275 252.936412550165 482.1192780404701 253.1645802872994 481.4727171559574 253.54085444123046 480.899551163653 253.91712859516156 480.3263851713486 256.3591142526656 479.1015458199676 258.8010999101697 477.87670646858663 263.52180413683107 477.0041950988943 268.2425083634925 476.13168372920194 271.42235473896426 476.0002334014878 274.60220111443607 475.86878307377356 281.5501628470512 476.71261787688286 288.49812457966624 477.5564526799922 294.47147100213806 478.82519067539533 300.4448174246099 480.0939286707985 305.8905180406818 481.2442896300726 311.3362186567537 482.3946505893467 316.1572136953862 483.5366586504324 320.9782087340187 484.6786667115181 325.98465004752995 485.8423668254834 330.99109136104113 487.0060669394487 334.74375923461594 487.88656692726636 338.4964271081908 488.767066915084 341.3262342566413 489.2244689185288 344.1560414050918 489.68187092197365 347.25215819776537 490.0273382238454 350.34827499043894 490.3728055257172 353.05343605787607 490.62344013091536 355.75859712531326 490.87407473611347 358.1760255416353 490.83981743588856 360.5934539579573 490.8055601356636 362.5526240183169 490.8633910215889 364.5117940786766 490.9212219075142 367.5950318776664 491.2030410434284 370.67826967665616 491.4848601793426 374.02567224844756 491.96516818766435 377.373074820239 492.4454761959861 377.37307818817203 492.45047619485183 377.3730815561051 492.4554761937175 377.37308492403815 492.4604761925832 377.37308829197116 492.46547619144894 374.0372247989869 492.9740948226137 370.70136130600264 493.4827134537785 367.7020490392756 493.8947647510624 364.7027367725486 494.30681604834626 362.8494877758096 494.57968455882417 360.9962387790706 494.85255306930213 358.3319430841358 495.32426665037747 355.66764738920097 495.79598023145286 352.89698838270203 495.9408824749818 350.12632937620305 496.08578471851064 346.81930018838347 496.18246999292523 343.5122710005639 496.2791552673399 340.3494930237273 496.15118779441497 337.18671504689064 496.02322032149004 333.3203191720876 495.5263803649084 329.4539232972846 495.02954040832674 324.31054441987465 494.2486927354931 319.16716554246466 493.4678450626594 314.364797183801 492.62690944283486 309.56242882513726 491.7859738230103 304.03098374651415 490.86304782111233 298.49953866789104 489.94012181921437 292.90283216040484 488.9230004292999 287.30612565291864 487.9058790393854 281.28899989638614 487.25989484131094 275.2718741398537 486.6139106432364 272.5740089858285 486.86571880078816 269.8761438318033 487.11752695833985 266.24102412474014 487.39348447353507 262.605904417677 487.6694419887303 262.10348622023764 488.1360011473936 261.6010680227983 488.60256030605694 261.00159171036864 488.9353209474895 260.402115397939 489.2680815889221 259.7404225619638 489.44770364900916 259.0787297259886 489.6273257090962 258.39327798518417 489.643369545266 257.70782624437976 489.6594133814358 257.0384540861275 489.51094652517634 256.36908192787524 489.3624796689169 255.7546932934631 489.0581310208896 255.14030465905097 488.75378237286236 254.6166078447779 488.31124069079044 254.09291103050478 487.86869900871847 253.6903433198221 487.31368483595656 253.28777560913943 486.7586706631947 253.0297342563066 486.123441449541 252.77169290347373 485.4882122358874 252.6731752840414 484.8096875330856 252.57465766460908 484.1311628302838 252.64138962724752 483.4487785259411 252.70812158988593 482.76639422159843 252.93622466979116 482.11981052354486 253.16432774969638 481.47322682549134 253.54054458514696 480.90002320863744 253.91676142059754 480.32681959178353 258.3061704444323 484.1154140764381 262.6955794682671 487.90400856109267 262.1917978031863 488.3718338727714 261.68801613810547 488.83965918445006 261.0869129607295 489.17332287511385 260.48580978335355 489.5069865657776 259.8223212385942 489.687096086048 259.15883269383494 489.86720560631835 258.47152076708755 489.8832929824148 257.78420884034017 489.8993803585112 257.1130201330805 489.75051059137917 256.44183142582085 489.6016408242471 255.82577545725047 489.2964662317469 255.20971948868012 488.9912916392466 254.68460146063765 488.5475489830328 254.15948343259518 488.1038063268191 253.75582322954298 487.5472859509201 253.35216302649079 486.99076557502116 253.09342139839615 486.3538124698323 252.8346797703015 485.71685936464337 252.73589479274622 485.03649327456515 252.63710981519094 484.356127184487 252.7040228757119 483.67189101864176 252.77093593623286 482.98765485279654 252.9996580446087 482.3393164492919 253.22838015298456 481.69097804578723 253.60561796953 481.1162188630969 253.98285578607545 480.54145968040655 254.0201744345814 480.29129681613296 254.05749308308737 480.04113395185936 255.12954454238204 478.7843691971916 256.2015960016767 477.5276044425239 257.4011307657606 475.72263399983365 258.6006655298445 473.91766355714344 259.85873430036406 472.48556841865593 261.1168030708836 471.0534732801684 263.1983927503276 468.55649823318606 265.2799824297717 466.05952318620365 266.47670299306424 464.3261670836238 267.6734235563568 462.59281098104395 268.8956679560422 460.7167959324215 270.1179123557276 458.8407808837991 270.9014386284591 456.3907957652576 271.6849649011907 453.9408106467161 272.60465733960416 451.160774089025 273.52434977801767 448.38073753133386 273.8151043950894 445.5718315104625 274.10585901216115 442.76292548959117 274.0921429463419 438.9775359883976 274.0784268805226 435.19214648720407 273.85998997981363 431.9779052739528 273.64155307910465 428.7636640607015 272.94841470574613 424.76221126992345 272.25527633238767 420.76075847914535 271.0677477183953 415.7577757695788 269.88021910440295 410.7547930600123 268.52867730583546 406.64776201296274 267.17713550726796 402.54073096591327 265.61587407516333 398.1417830394379 264.05461264305876 393.7428351129625 262.5618291358891 389.9276820966354 261.0690456287195 386.1125290803084 261.0778503417969 386.1077880859375 Z" fill="hsl(0, 0%, 0%)"></path><path d="M 416.2782230896644 344.9062475998313 Q 416.2782230896644 344.9062475998313 416.80558423889175 342.8499576599427 417.33294538811913 340.7936677200541 418.0493897443255 338.77280862529386 418.76583410053183 336.75194953053364 420.00202327670956 333.5984743833347 421.23821245288724 330.44499923613574 422.7501200731254 327.07817874982106 424.26202769336356 323.71135826350644 425.9799380044856 320.7634125379558 427.69784831560764 317.8154668124052 429.47502537924663 315.11571243886334 431.25220244288556 312.4159580653215 433.985979028523 309.3795259001255 436.7197556141604 306.3430937349295 439.6780461677213 304.0435666868092 442.6363367212821 301.74403963868895 446.96793282671143 299.97804633531996 451.2995289321408 298.21205303195103 455.53023430887356 297.41327296641634 459.7609396856063 296.6144929008816 464.09835838852894 296.80856194221593 468.43577709145165 297.00263098355026 473.8616005626728 298.5158166705563 479.2874240338939 300.0290023575623 483.3451894217932 301.8542737617276 487.4029548096925 303.6795451658929 490.82178150034906 305.6074306867032 494.24060819100555 307.53531620751346 497.5776554120298 310.1816989875434 500.91470263305405 312.82808176757345 503.315929393032 315.5181478169038 505.71715615300985 318.2082138662342 507.9427230569903 321.7457865002891 510.1682899609708 325.28335913434404 511.4915262068299 328.71854480808247 512.814762452689 332.15373048182084 513.4092211992024 335.83351501741197 514.0036799457159 339.5132995530031 513.6709283615425 344.1551216657044 513.338176777369 348.7969437784058 512.2891283016356 352.88193540430234 511.2400798259023 356.9669270301989 508.40331249091037 362.09317961474324 505.5665451559184 367.21943219928755 502.052972421066 371.66625055518995 498.5393996862135 376.11306891109234 494.82834408838903 380.1961150884807 491.11728849056453 384.27916126586916 485.52547957015065 389.16049836329523 479.93367064973677 394.04183546072136 474.6855911736645 397.7731498889502 469.4375116975922 401.504464317179 462.91115461982963 405.21789060698075 456.384797542067 408.93131689678256 449.36506031924824 412.46081024424643 442.34532309642947 415.99030359171024 436.4618490234931 418.6109773022139 430.5783749505567 421.2316510127176 426.59494308010824 422.7315706117801 422.61151120965985 424.23149021084265 419.2030421520455 425.7217081806446 415.79457309443114 427.2119261504466 412.5396821607802 428.45804072598094 409.28479122712935 429.70415530151536 409.28243372486065 429.6997459724221 409.28007622259196 429.69533664332874 409.27771872032326 429.6909273142354 409.27536121805457 429.68651798514213 412.09473098031856 427.6849540435395 414.9141007425825 425.6833901019368 418.0206211642117 423.4206852309798 421.12714158584095 421.1579803600228 424.69570809658603 419.01241902747415 428.2642746073312 416.8668576949255 433.6690719437288 413.5023920896665 439.0738692801264 410.13792648440756 445.6524562861864 406.065916923804 452.2310432922464 401.99390736320055 458.25725100738794 398.19129596260495 464.28345872252953 394.3886845620093 469.12737489026205 390.8050559296522 473.97129105799456 387.2214272972951 479.1630398593319 382.6685222927223 484.3547886606692 378.1156172881494 487.86956992135396 374.25897193015874 491.3843511820387 370.40232657216814 494.5028960209763 366.5373692910574 497.621440859914 362.6724120099467 500.0198045464318 358.6113969536329 502.4181682329497 354.5503818973191 503.3172235968902 351.27679836699167 504.21627896083066 348.0032148366642 504.5786274469145 344.4043831752998 504.9409759329983 340.8055515139355 504.5785013803239 338.0578355563205 504.21602682764956 335.31011959870557 503.2876553107138 332.69541541136164 502.359283793778 330.08071122401776 500.58316087330536 327.16063751961156 498.8070379528328 324.24056381520535 496.97744970191934 322.1060193967411 495.14786145100584 319.97147497827683 492.41876478151363 317.7469696746173 489.6896681120214 315.5224643709578 486.6126036890777 313.76682538246644 483.53553926613387 312.01118639397504 480.08624360376507 310.35426705819344 476.6369479413962 308.69734772241185 472.17648698195416 307.20206918559984 467.7160260225121 305.7067906487879 464.34637626381016 305.30329817486563 460.97672650510816 304.8998057009434 457.44300465366155 305.28746141695115 453.909282802215 305.67511713295886 450.34144858731884 306.70073743321916 446.7736143724227 307.7263577334795 444.1073244359484 309.4028704058703 441.44103449947403 311.07938307826106 438.71789267852597 313.5096235320984 435.9947508575779 315.9398639859357 434.0057606168888 318.3254800872102 432.0167703761997 320.71109618848476 430.05803631201866 323.24759150432203 428.09930224783767 325.78408682015936 426.1452076787138 328.8406556551481 424.19111310958993 331.8972244901368 422.45692876920805 334.7840071468548 420.7227444288261 337.67078980357275 419.6350003809492 339.49245050709135 418.54725633307226 341.31411121060995 417.4219311724852 343.1141185729674 416.2966060118981 344.91412593532493 416.28741455078125 344.9101867675781 Z" fill="hsl(0, 0%, 0%)"></path><path d="M 388.50199568546606 243.34333637126196 Q 388.50199568546606 243.34333637126196 391.2015755998352 242.53106375885977 393.90115551420433 241.71879114645762 397.3176445400936 240.81899693901642 400.73413356598286 239.91920273157518 402.7426673500988 239.13479520931702 404.75120113421485 238.35038768705888 407.07614900772677 237.6145084893509 409.4010968812387 236.87862929164294 412.1079499702636 235.68913903736492 414.8148030592884 234.4996487830869 417.1725043981759 233.59603914544545 419.5302057370633 232.692429507804 421.29044523654636 231.9741099446229 423.0506847360294 231.25579038144178 424.7139115517065 230.38940678662533 426.37713836738357 229.52302319180885 428.9688564790875 227.80141614049091 431.5605745907914 226.079809089173 433.158441759681 224.79890222618855 434.7563089285706 223.51799536320405 436.20143794547084 222.50455398554664 437.6465669623711 221.4911126078892 439.5730078853104 220.21865951134578 441.49944880824967 218.94620641480236 444.699515701936 219.7128181869653 447.89958259562235 220.47942995912825 448.8436207381233 222.37173588994102 449.7876588806243 224.26404182075376 449.60487937322273 226.17465542946593 449.4220998658211 228.08526903817813 446.2598555801527 234.59399008421659 443.09761129448435 241.10271113025505 439.9179060451298 245.7339169517768 436.7382007957753 250.3651227732985 434.2901867025396 253.85449003580374 431.8421726093038 257.343857298309 429.66351082999734 260.452101910578 427.4848490506909 263.560346522847 425.1259919843872 266.82825487977476 422.7671349180835 270.0961632367025 421.61215775236724 271.97979178067646 420.457180586651 273.86342032465046 418.8504180518885 276.6876085569411 417.243655517126 279.51179678923177 414.82039133650244 284.00508423087143 412.3971271558788 288.4983716725111 410.5066369224738 292.47370417577065 408.6161466890687 296.44903667903014 407.51834947083216 299.5899497027808 406.4205522525956 302.7308627265315 405.56760761211825 306.39791687884656 404.7146629716409 310.0649710311616 404.21976502028014 313.4695834730121 403.72486706891937 316.87419591486264 403.3550927485902 320.24532874847773 402.98531842826105 323.61646158209277 402.6222016592077 327.2534101213423 402.2590848901544 330.8903586605918 401.99824444085664 333.5443583029502 401.73740399155895 336.1983579453086 401.4619699400592 338.7021462047508 401.18653588855943 341.20593446419304 400.9962868608794 342.821863860809 400.80603783319935 344.437793257425 400.40812149280634 347.21646418387286 400.0102051524133 349.99513511032063 400.00520515265225 349.99513356439786 400.0002051528912 349.99513201847503 399.9952051531302 349.9951304725522 399.9902051533692 349.99512892662943 399.5983717960206 347.2143575209351 399.2065384386721 344.4335861152408 399.0247968890228 342.81508599626125 398.84305533937345 341.19658587728173 398.58763888324006 338.6824146233511 398.3322224271067 336.1682433694205 398.1184822022004 333.49645728580526 397.90474197729424 330.82467120218996 397.65244926563264 327.11528496226424 397.4001565539711 323.4058987223386 397.2911447216225 319.86138946294955 397.18213288927393 316.31688020356046 397.3007937331616 312.52299302572754 397.41945457704924 308.72910584789463 398.0101776900976 304.532154547416 398.6009008031459 300.3352032469373 399.6037580934349 296.6386363277634 400.6066153837239 292.9420694085895 402.36258955859125 288.6066024396414 404.1185637334586 284.27113547069325 406.3865421374419 279.5794521298406 408.65452054142526 274.88776878898796 410.30858722400524 271.65503832005595 411.9626539065853 268.4223078511239 413.29529032326514 266.42421448551147 414.62792673994494 264.426121119899 416.8260260204326 261.15302903641657 419.0241253009203 257.87993695293414 421.08657720294275 254.67119171632902 423.14902910496517 251.4624464797239 425.4951802740934 247.8656968442578 427.8413314432217 244.26894720879173 430.7570892939607 240.00432542858408 433.6728471446997 235.73970364837646 437.39407606947526 231.46349360867526 441.11530499425083 227.18728356897407 443.6056237559759 227.18483664320814 446.095942517701 227.18238971744225 444.3270917799646 228.31124041696967 442.5582410422281 229.44009111649706 441.22542171998305 230.1502724300375 439.892602397738 230.8604537435779 436.3540183271117 232.75499026110487 432.8154342564854 234.64952677863184 431.1049060268787 235.60030593546475 429.39437779727206 236.55108509229765 427.3060302278954 237.2822228829728 425.21768265851875 238.01336067364792 423.3356140633441 238.4614520824186 421.4535454681694 238.90954349118923 419.1297837838963 239.45419882000823 416.80602209962314 239.99885414882726 413.6825938278565 240.92081473044203 410.55916555608997 241.8427753120568 408.239403768066 242.18632141381852 405.919641980042 242.5298675155802 403.4806249836829 242.9890527892365 401.04160798732374 243.44823806289276 399.15347075512096 243.40596461090573 397.2653335229182 243.3636911589187 395.69406333907375 243.62483838818855 394.12279315522926 243.88598561745837 391.3133894575378 243.6246113662623 388.50398575984644 243.36323711506617 388.50299072265625 243.35328674316406 Z" fill="hsl(0, 0%, 0%)"></path><path d="M 419.1671986336774 389.94844500107075 Q 419.1671986336774 389.94844500107075 417.7143463495951 391.3500386460282 416.26149406551275 392.75163229098564 412.69192979614854 396.59560370974293 409.1223655267843 400.4395751285002 407.8879011947665 402.24325050709587 406.6534368627488 404.0469258856915 406.06219011893245 405.7434428908134 405.4709433751162 407.4399598959353 405.34661008466776 409.06830440127885 405.2222767942194 410.69664890662244 405.2345227308556 412.45540277640964 405.2467686674918 414.21415664619684 405.33896501364325 416.5809440996045 405.43116135979466 418.9477315530122 406.05179408854076 420.9327631083488 406.67242681728686 422.91779466368547 407.6944692851588 424.5770543078037 408.7165117530308 426.23631395192183 409.81651736453665 428.1795571465777 410.91652297604253 430.1228003412335 412.6036558610325 432.29582507657335 414.29078874602243 434.4688498119132 416.0917011992348 436.44027006983947 417.8926136524472 438.4116903277658 419.77394517807113 440.3182105854291 421.65527670369505 442.22473084309235 423.7191284383124 444.02226935515193 425.78298017292974 445.8198078672116 427.7669371322738 447.3531385423221 429.7508940916179 448.8864692174326 431.67543456260887 449.8590746275544 433.5999750335998 450.83168003767616 435.2309215500114 451.46497233648375 436.86186806642297 452.09826463529134 439.1861415292987 452.64930734427367 441.51041499217445 453.20035005325605 443.54846278568243 453.2510500923281 445.5865105791905 453.30175013140024 445.9224812763721 455.8997468268151 446.25845197355363 458.49774352222994 444.9405118688343 459.8184607077883 443.62257176411487 461.1391778933466 442.15895154287966 462.10465151733626 440.69533132164446 463.07012514132595 439.22151790529233 464.30935917124305 437.7477044889402 465.5485932011601 435.7663385610387 467.02809779091103 433.7849726331372 468.5076023806619 432.38036032812647 469.9034213589492 430.97574802311567 471.2992403372364 428.14642465557165 473.8412831794426 425.3171012880277 476.3833260216487 422.69696458325836 478.9056381408003 420.07682787848904 481.42795025995196 417.38768407754833 483.8315730632746 414.69854027660756 486.2351958665972 411.4677959070489 489.22228676131584 408.2370515374903 492.20937765603446 405.931993011451 494.676773839167 403.6269344854118 497.1441700222996 401.0045487614368 499.9736872814765 398.38216303746174 502.8032045406534 395.93018647213626 505.49397909196296 393.47820990681083 508.1847536432725 393.4741022746557 508.1819027911055 393.4699946425006 508.1790519389384 393.46588701034545 508.17620108677136 393.46177937819033 508.17335023460436 395.13740406344925 504.91689686001064 396.81302874870823 501.660443485417 398.71772021475715 498.27387190067185 400.622411680806 494.8873003159267 402.48816293781954 491.80220452427494 404.353914194833 488.71710873262316 407.04812494440574 485.12069046275263 409.7423356939785 481.5242721928821 411.92066333890284 478.8070954137386 414.09899098382726 476.0899186345951 416.45055043442545 473.0444683946122 418.80210988502364 469.9990181546293 421.1897585719289 467.2178323100162 423.5774072588342 464.43664646540304 425.3744238945543 462.38082089738305 427.1714405302744 460.32499532936305 428.8346042101587 458.8679090920949 430.497767890043 457.41082285482685 432.4143925041887 455.62914636804476 434.3310171183344 453.8474698812627 435.65997239280176 452.88984451260563 436.98892766726914 451.93221914394854 439.1779611455504 450.5306836979038 441.3669946238316 449.12914825185896 442.987781452456 448.6882033395026 444.60856828108035 448.2472584271463 447.4924872715425 448.54009258849356 450.37640626200465 448.83292674984085 452.2768748905464 449.9155745225496 454.17734351908814 450.9982222952584 455.177090284731 454.4965754832148 456.17683705037376 457.99492867117124 454.7558245260323 459.7857433197803 453.33481200169086 461.57655796838935 451.5524928988639 462.684044164002 449.77017379603683 463.79153035961457 447.43498771116333 464.09674460769736 445.0998016262899 464.4019588557801 442.45879928922557 464.133776677525 439.8177969521612 463.8655944992699 436.21450853449636 462.6511993268558 432.61122011683153 461.4368041544417 430.68566202019196 460.4512808264051 428.7601039235524 459.4657574983685 426.2051132048273 457.92559575686244 423.65012248610225 456.3854340153564 421.5751426042947 454.59883426878275 419.5001627224871 452.8122345222091 417.1985005833929 450.6868870007105 414.8968384442987 448.56153947921194 412.9875504549166 446.4226654104422 411.07826246553446 444.2837913416725 409.1449959300838 441.92152117791363 407.2117293946331 439.5592510141548 405.2974432409259 436.72028286276304 403.3831570872186 433.88131471137126 402.49041338375224 431.8090220954501 401.5976696802859 429.7367294795289 400.52335310684 427.13259532187567 399.449036533394 424.5284611642225 399.02573342330845 421.6669036443893 398.6024303132229 418.8053461245562 398.8307699148578 416.24957241246784 399.05910951649264 413.69379870037943 399.39169252485453 411.6474443389674 399.7242755332164 409.6010899775553 400.3536765291815 407.46116439731054 400.9830775251465 405.3212388170657 402.16532321994987 403.33616372627193 403.3475689147533 401.35108863547816 404.98981717383526 399.67712012915274 406.6320654329172 398.0031516228273 411.04156467540145 394.7694776224638 415.45106391788573 391.5358036221003 417.3035842534323 390.73380382223354 419.15610458897885 389.93180402236675 419.1616516113281 389.94012451171875 Z" fill="hsl(0, 0%, 0%)"></path><path d="M 374.12464279937564 147.5519776840228 Q 374.12464279937564 147.5519776840228 372.16843160620675 146.20279870995535 370.21222041303787 144.8536197358879 368.53515216869334 143.47292473454286 366.8580839243488 142.09222973319785 365.1850097425607 140.4354954965867 363.51193556077254 138.77876125997554 361.65961546352753 137.10875808663042 359.8072953662825 135.43875491328532 357.1638147312025 132.54863668630904 354.5203340961224 129.65851845933275 352.2499868831775 127.12351102011897 349.97963967023264 124.58850358090517 347.89503408162125 120.78331384375178 345.81042849300985 116.97812410659841 344.5592090198723 113.30000625114003 343.30798954673475 109.62188839568165 342.70096942966455 105.95049142374987 342.09394931259436 102.27909445181807 342.07399271114457 98.59772551552008 342.05403610969483 94.9163565792221 342.87900607980157 90.5799304731136 343.70397604990836 86.24350436700512 346.1132759155198 81.26789224719 348.52257578113125 76.2922801273749 351.9255543041555 71.6821754884374 355.3285328271798 67.07207084949991 357.8856597676988 63.86674428897515 360.4427867082178 60.66141772845039 362.50158930337983 58.56940846391638 364.56039189854187 56.477399199382376 366.5164216923856 54.6040905411585 368.4724514862293 52.73078188293462 369.318535221179 51.39446207808952 370.1646189561287 50.058142273244414 371.4958298533687 47.926730140714994 372.8270407506088 45.79531800818558 373.29438314082745 44.364544777458164 373.7617255310462 42.93377154673075 373.7910654686244 41.31505819726174 373.82040540620267 39.69634484779273 372.5109268484534 36.82478685512342 371.2014482907041 33.953228862454104 368.18389673247884 31.062878945075944 365.16634517425354 28.172529027697784 362.56879065591573 26.419313561556066 359.97123613757793 24.666098095414345 358.30996371900835 23.528500123505328 356.6486913004387 22.39090215159631 356.65090495165884 22.386418877315656 356.653118602879 22.381935603034997 356.6553322540991 22.377452328754337 356.65754590531924 22.372969054473682 358.5696018033286 22.999729471713632 360.48165770133795 23.626489888953582 363.69947163986325 24.728474488559897 366.91728557838854 25.830459088166208 371.10177608376114 28.361995534416227 375.2862665891338 30.893531980666246 377.0221136430034 33.01445235834342 378.757960696873 35.135372736020585 379.5385917210582 37.3094065534845 380.31922274524334 39.483440370948415 380.4349244769064 42.17074373891655 380.5506262085695 44.85804710688468 379.9249620262764 47.07792072652637 379.2992978439833 49.29779434616807 378.0587285706073 51.86744519422909 376.8181592972313 54.43709604229012 375.50166924205973 56.384717429927484 374.1851791868881 58.332338817564846 372.3490521451753 60.2972562978452 370.5129251034624 62.26217377812556 368.83393148513653 64.0163590869563 367.15493786681066 65.77054439578704 364.8059238575097 69.02262454338614 362.4569098482088 72.27470469098523 359.5009530653608 76.3773461592113 356.54499628251284 80.47998762743735 354.36194693348006 84.33887680117516 352.17889758444727 88.19776597491297 351.2719394133645 91.68608735466889 350.3649812422817 95.1744087344248 350.1586145613786 98.23813773203685 349.95224788047545 101.30186672964889 350.2028266056381 104.42766835881747 350.45340533080076 107.55346998798603 351.2200654864464 110.79514053878172 351.98672564209204 114.03681108957741 353.353861327318 117.43985635903974 354.72099701254393 120.84290162850208 356.68367901469423 123.60237452496614 358.6463610168445 126.36184742143018 360.77802337063724 129.44817279362465 362.90968572443006 132.53449816581912 364.5156075604474 134.5568740428838 366.1215293964647 136.57924991994847 367.40056930511923 138.4255406376563 368.67960921377374 140.27183135536413 370.0600181003191 141.9486222587127 371.44042698686445 143.6254131620613 372.7896059609319 145.5816243552302 374.13878493499936 147.53783554839907 374.1317138671875 147.54490661621094 Z" fill="hsl(0, 0%, 0%)"></path><path d="M 287.9013013258318 132.22513917593815 Q 287.9013013258318 132.22513917593815 285.04054084972756 131.7529638366787 282.1797803736234 131.28078849741925 278.6873399892214 130.3916429148908 275.1948996048195 129.50249733236237 272.6193735521016 128.94655536089286 270.0438474993837 128.39061338942335 265.47740785483336 126.96810142559794 260.910968210283 125.54558946177252 256.9243380301536 123.90370371191244 252.93770785002417 122.26181796205236 249.58178360207626 120.81652106382546 246.22585935412832 119.37122416559858 242.89872299931267 117.33001135632665 239.57158664449705 115.28879854705472 237.68534458969438 114.3159930987994 235.79910253489172 113.34318765054407 233.69300228707607 111.49586793392214 231.5869020392604 109.6485482173002 230.09801958744532 106.00956142803264 228.60913713563022 102.37057463876506 228.32216710040393 98.83299787340937 228.03519706517764 95.29542110805367 230.00516529599537 89.85195053141706 231.97513352681307 84.40847995478045 236.31384401790422 78.17395839855271 240.65255450899537 71.939436842325 245.04816876587233 66.67663648453734 249.44378302274927 61.4138361267497 252.72880493615855 57.62368969537535 256.01382684956786 53.833543264001 258.1855977533471 50.794809887309995 260.3573686571264 47.75607651061898 262.5069377355133 44.58950640070415 264.6565068139002 41.42293629078932 265.83621350327917 38.94892229335688 267.0159201926581 36.474908295924436 267.9057115299024 33.874593584848014 268.7955028671467 31.274278873771586 269.2215428241471 29.15577506921487 269.6475827811475 27.037271264658155 269.2074044361482 24.245117028168984 268.7672260911489 21.452962791679813 267.97344720351384 19.98864072689765 267.17966831587876 18.524318662115487 265.91110605322905 16.940719261341723 264.64254379057934 15.357119860567957 262.29655949206796 13.325155105038593 259.9505751935566 11.29319034950923 259.95253296562475 11.28858957473437 259.954490737693 11.283988799959513 259.95644850976123 11.279388025184655 259.9584062818294 11.274787250409796 262.9626592937035 12.622687263853187 265.9669123055776 13.970587277296579 267.82460406339806 15.375314350747608 269.68229582121853 16.78004142419864 271.05948299392685 18.458382745226746 272.43667016663517 20.136724066254853 273.26802095122866 22.10746292970398 274.0993717358222 24.07820179315311 274.3242303569759 25.88515274958451 274.54908897812953 27.69210370601591 274.3304616348799 30.190634169915235 274.11183429163026 32.68916463381456 273.48476139299214 35.76753679416704 272.85768849435397 38.84590895451953 271.7645136578973 41.95612249636375 270.67133882144054 45.066336038207965 268.7692034508254 48.55797281463977 266.86706808021023 52.04960959107157 264.69030121508297 55.60362529180232 262.51353434995576 59.15764099253307 259.4554176481072 63.1024618638325 256.39730094625855 67.04728273513193 252.34901971364994 72.2070168136677 248.30073848104132 77.36675089220347 244.43756317253872 82.69353571518684 240.5743878640361 88.02032053817022 238.80055788561896 91.63268366112501 237.02672790720183 95.2450467840798 237.0044409759933 97.46054708230199 236.98215404478478 99.67604738052417 237.41228680526103 101.79632387676614 237.84241956573726 103.9166003730081 238.95541779106338 105.25063688194166 240.06841601638948 106.58467339087524 241.86782899576002 107.91248625022295 243.66724197513057 109.24029910957067 246.41977223622342 111.31607440946811 249.1723024973163 113.39184970936556 252.34408754036173 115.15242646558363 255.51587258340712 116.91300322180169 259.11119039753817 118.92566560777371 262.70650821166925 120.93832799374573 266.90632613374976 122.9298270675859 271.1061440558302 124.92132614142609 273.6023084933581 125.91719412674558 276.09847293088603 126.91306211206509 279.35453747125825 128.3790026367907 282.61060201163053 129.84494316151628 285.2588251475869 131.025462905875 287.9070482835432 132.20598265023372 287.9041748046875 132.21556091308594 Z" fill="hsl(0, 0%, 0%)"></path><path d="M 336.77058700901773 187.79352749064265 Q 336.77058700901773 187.79352749064265 333.90809561464346 189.53900672270362 331.04560422026924 191.28448595476462 329.0622159256082 192.6060542125393 327.07882763094716 193.927622470314 325.24400869745284 195.38704829469668 323.40918976395847 196.84647411907937 320.4075447716358 200.04305270356326 317.40589977931313 203.23963128804712 315.6444820844012 205.41283016365836 313.8830643894893 207.5860290392696 311.63080079441283 210.74928012385476 309.37853719933634 213.91253120843996 308.0218420329559 216.49524863124154 306.6651468665754 219.07796605404312 305.99724577011926 221.79063863444162 305.3293446736631 224.50331121484015 305.6856657453229 226.54623093576038 306.0419868169827 228.5891506566806 306.84268710114077 230.39341382799842 307.64338738529887 232.19767699931623 310.8061997342361 234.29515179478767 313.96901208317337 236.39262659025914 318.5754547826151 238.08819681377585 323.1818974820568 239.78376703729256 329.6822811741513 240.211891787915 336.1826648662458 240.64001653853742 341.36444258127085 240.36366715199347 346.5462202962959 240.0873177654495 350.2817897437159 238.97412137759136 354.01735919113577 237.8609249897332 357.40974859665033 235.44005052806912 360.8021380021649 233.01917606640504 363.3438771781241 230.71312197982792 365.88561635408325 228.4070678932508 367.4681421064789 225.40895363396353 369.05066785887453 222.41083937467627 369.71195341572593 219.99630447333402 370.37323897257727 217.5817695719918 370.64597214502817 215.09728966572666 370.918705317479 212.61280975946153 370.28812736075054 209.91049411437797 369.6575494040221 207.2081784692944 368.2280963155316 204.7252049043571 366.7986432270411 202.24223133941976 364.2043594872151 199.43373399953708 361.61007574738903 196.62523665965443 357.1315334751631 193.34528337997995 352.65299120293724 190.06533010030543 347.9260770486014 187.645315979424 343.1991628942656 185.22530185854257 336.48601572116183 184.32670658137266 329.7728685480581 183.42811130420276 323.7086573417583 183.52643304338363 317.64444613545845 183.62475478256448 312.9820388602246 184.95561636221007 308.3196315849907 186.28647794185565 303.69287465039133 188.41312687305665 299.066117715792 190.53977580425766 296.15812028580854 192.42491800271395 293.250122855825 194.31006020117024 291.54952076036744 196.39877766001138 289.8489186649099 198.48749511885248 289.37997167674126 200.0808936746156 288.91102468857264 201.67429223037874 288.9839701285142 203.33220537520754 289.0569155684558 204.99011852003636 290.66812001568195 207.79435618276986 292.2793244629081 210.59859384550336 295.9581405951524 214.4339718888092 299.6369567273967 218.26934993211503 310.2577860618335 224.72321658486212 320.8786153962703 231.1770832376092 331.33486571713615 235.58208555566569 341.79111603800203 239.98708787372217 351.4513770973033 242.07960117411963 361.1116381566045 244.1721144745171 374.4031163759396 243.14680658711612 387.6945945952747 242.12149869971515 399.5785731721094 239.28880934202132 411.462551748944 236.4561199843275 424.27340158794783 230.53662116585738 437.08425142695165 224.61712234738727 446.792960732036 218.8800420977153 456.5016700371204 213.1429618480433 463.8883229190769 207.32464419050424 471.2749758010334 201.50632653296518 478.36353711985066 194.87441882366363 485.452098438668 188.2425111143621 485.45590171504307 188.24575689451711 485.4597049914181 188.24900267467214 485.46350826779315 188.25224845482717 485.46731154416824 188.2554942349822 479.8509762325788 196.51068019634232 474.23464092098936 204.76586615770245 467.28219663604216 211.94006974759571 460.3297523510949 219.11427333748898 450.5579346739656 225.80059118322305 440.78611699683626 232.48690902895711 427.2038836877775 238.94792644513956 413.6216503787187 245.408943861322 400.9949891925338 248.37473569597472 388.36832800634886 251.34052753062744 373.8010150984275 252.29262185850186 359.23370219050616 253.24471618637628 348.7119461701644 250.91632051461613 338.1901901498226 248.58792484285598 327.08397022240166 243.88701984102644 315.9777502949807 239.1861148391969 304.38044715470306 231.9917058386506 292.78314401442543 224.7972968381043 288.25582899063215 219.85125099532917 283.7285139668388 214.90520515255403 281.5859517750886 210.00956270276015 279.44338958333833 205.11392025296627 279.7575836427381 201.61678280846138 280.07177770213787 198.11964536395652 281.46668531834695 195.36090175007877 282.86159293455603 192.60215813620104 285.546531084693 189.6354668307677 288.23146923483 186.6687755253344 291.75371635962324 184.4362269072304 295.2759634844164 182.2036782891264 300.5942679849994 179.82656869859548 305.91257248558236 177.44945910806456 311.6879953823998 175.96063044183813 317.4634182792172 174.4718017756117 324.2927038903128 174.41671542104734 331.1219895014084 174.361629066483 339.1917459295522 175.69453644499987 347.2615023576961 177.02744382351673 352.689472825781 179.8580241866042 358.11744329386596 182.6886045496917 363.2742220168351 186.5780654797694 368.4310007398042 190.4675264098471 371.6570311781254 194.15838747020854 374.88306161644664 197.84924853057 376.77865520114733 201.58526289928386 378.674248785848 205.3212772679977 379.3861322252541 209.4744857791843 380.0980156646602 213.62769429037093 379.64080786374655 216.90400795262755 379.18360006283285 220.18032161488418 378.1273774470618 223.54320648127236 377.0711548312908 226.90609134766052 374.61248488339857 231.02074876296183 372.15381493550626 235.13540617826314 369.07553201623375 237.8992231447161 365.9972490969612 240.66304011116907 361.35098285445815 243.69011681891632 356.7047166119551 246.71719352666358 351.89565368674175 248.05285426765934 347.0865907615283 249.3885150086551 341.2369505518601 249.68925664335748 335.3873103421919 249.98999827805986 327.59752015185086 249.18352137888044 319.80772996150984 248.37704447970103 314.12240000041845 245.87143820672858 308.4370700393271 243.36583193375614 304.23493476789247 239.4668798754135 300.03279949645776 235.56792781707088 299.0589885196764 232.3365713992788 298.085177542895 229.1052149814867 298.1548516707313 225.78077521280778 298.22452579856764 222.45633544412885 299.47462418114355 219.02108406318888 300.72472256371947 215.58583268224888 302.58475655411473 212.77644608928614 304.44479054451 209.9670594963234 307.16883855970093 206.92416420506373 309.8928865748918 203.8812689138041 312.0630487459353 201.82162193954144 314.2332109169788 199.7619749652788 317.88987920358153 196.88761057033747 321.54654749018425 194.01324617539618 323.7122857375714 192.85418322667135 325.8780239849586 191.69512027794653 328.12278565749114 190.74423279574623 330.3675473300237 189.79334531354593 333.5649291351124 188.78433273957666 336.762310940201 187.77532016560735 336.7664489746094 187.784423828125 Z" fill="hsl(0, 0%, 0%)"></path><path d="M 406.6968116165392 182.03808849768947 Q 406.6968116165392 182.03808849768947 405.6347421805875 179.67264356078692 404.5726727446359 177.30719862388437 403.836291795266 174.91695401992718 403.0999108458961 172.52670941596995 402.67675618996395 170.33276903472608 402.25360153403176 168.1388286534822 401.9797683854601 166.08333734174346 401.7059352368884 164.0278460300047 401.7678582558009 161.6078279037095 401.8297812747133 159.18780977741434 402.09138629252584 157.21779985310152 402.35299131033844 155.2477899287887 403.9380093777887 152.29904126978204 405.52302744523905 149.35029261077534 407.2258388714953 146.784893857591 408.9286502977516 144.21949510440666 410.1843067064833 142.4662188618591 411.439963115215 140.71294261931155 414.6924126994436 137.9930033887357 417.94486228367214 135.27306415815985 419.7906278716138 133.84839395784547 421.6363934595555 132.4237237575311 424.20841589149 129.755339211531 426.7804383234245 127.08695466553093 428.422550976465 125.20960717874566 430.0646636295055 123.33225969196039 431.29254295432395 121.76129630693575 432.5204222791424 120.1903329219111 433.5992833154098 118.74888950150827 434.6781443516772 117.30744608110544 435.5842763653676 115.63626281425476 436.49040837905807 113.9650795474041 437.602940234422 112.1897405033026 438.715472089786 110.41440145920109 439.3357885562865 108.95368086558594 439.9561050227871 107.49296027197077 440.94998545359397 105.37672337093171 441.9438658844009 103.26048646989265 442.66938030425604 101.60652678034842 443.39489472411117 99.9525670908042 444.40383921008333 97.86811837304712 445.4127836960555 95.78366965529005 446.17695913678614 93.9466361531264 446.9411345775168 92.10960265096277 447.6610233612721 90.25790536750067 448.3809121450274 88.40620808403857 449.1584825484131 86.07277266463024 449.93605295179873 83.73933724522189 450.7010546700669 81.62107989717322 451.4660563883351 79.50282254912455 452.22850456314933 77.5424353440672 452.99095273796354 75.58204813900984 454.00691599376853 72.73786336512528 455.0228792495735 69.89367859124071 455.0276859462415 69.89505542352605 455.0324926429095 69.89643225581138 455.03729933957754 69.89780908809671 455.0421060362455 69.89918592038204 454.92119557905465 72.95674581951147 454.8002851218638 76.0143057186409 454.595164049052 78.09083485033648 454.39004297624024 80.16736398203204 454.1746632530585 82.36280755616856 453.95928352987676 84.55825113030508 453.72628486491516 87.18977448115785 453.49328619995356 89.82129783201064 453.13161749350303 91.87446784978334 452.7699487870525 93.92763786755604 452.2854938682455 96.0936119967158 451.8010389494385 98.25958612587556 451.1682817306392 100.40905314105773 450.53552451183987 102.5585201562399 449.99067426732 104.38555794177557 449.44582402280014 106.21259572731124 448.7468219195538 108.39824680618217 448.04781981630737 110.5838978850531 447.27734613776977 112.76410946527258 446.5068724592321 114.94432104549205 445.64320899688227 116.55095548141503 444.7795455345324 118.15758991733803 443.6282690886894 120.55529699497285 442.4769926428465 122.95300407260768 441.3073554741226 124.6042734177509 440.1377183053986 126.25554276289414 438.66747649473655 128.07285627652334 437.1972346840745 129.89016979015256 435.083289894601 132.09654422109833 432.96934510512756 134.30291865204413 431.2367055846229 135.65942208292063 429.50406606411815 137.01592551379713 428.04205170922694 138.29280609862823 426.5800373543357 139.56968668345934 424.74836127835175 140.66821943455253 422.91668520236783 141.76675218564571 420.1087937477412 143.68752963789697 417.30090229311446 145.60830709014823 415.9629950270121 146.9969755901672 414.62508776090976 148.38564409018622 412.8178592991144 150.62059361971825 411.01063083731896 152.85554314925025 409.5216572736458 154.72057443538728 408.03268370997273 156.58560572152433 407.5425037892045 158.16474821581713 407.0523238684362 159.74389071010992 406.6415932318872 161.7861251367264 406.2308625953383 163.82835956334287 406.1411139925101 165.79112883250144 406.0513653896819 167.75389810166004 406.06135084138145 169.82976274647052 406.07133629308095 171.90562739128103 406.3541085381385 174.37705709610066 406.6368807831961 176.8484868009203 406.6766080696566 179.44111834106855 406.71633535611704 182.03374988121678 406.7065734863281 182.03591918945312 Z" fill="hsl(0, 0%, 0%)"></path></svg>