<svg xmlns="http://www.w3.org/2000/svg" version="1.1" xmlns:xlink="http://www.w3.org/1999/xlink" viewBox="0 0 640 800" style="overflow: hidden; display: block;" width="640" height="800"><defs></defs><g id="two-0" transform="matrix(1 0 0 1 0 0)" opacity="1"></g><path d="M 241.90729604608129 351.6213737835862 Q 241.90729604608129 351.6213737835862 237.49419226675394 345.1679188739762 233.08108848742657 338.71446396436625 229.16943823377724 331.1709203216069 225.25778798012792 323.62737667884755 222.80770156957175 319.77000493450964 220.35761515901555 315.91263319017173 217.54807897711044 311.63623563957174 214.73854279520532 307.35983808897174 210.4861291235375 301.1766153697813 206.23371545186967 294.9933926505909 201.95980381774586 288.64801080084595 197.6858921836221 282.302628951101 194.64483247952597 278.0100647005456 191.60377277542986 273.7175004499902 187.99746508516586 269.7730595969819 184.39115739490182 265.8286187439736 180.574071785273 262.48949720045385 176.75698617564416 259.1503756569341 173.16921405278956 256.6725715852765 169.58144192993495 254.19476751361893 163.93520587876554 253.5353373503431 158.2889698275961 252.87590718706727 154.11631012257038 254.51985241929907 149.9436504175447 256.16379765153084 146.87582791631712 259.23012079595014 143.80800541508953 262.29644394036944 140.55195601934895 267.116614250336 137.29590662360835 271.93678456030256 134.51492754485918 278.5828622081781 131.73394846611 285.2289398560536 130.60955402684834 290.24833531588047 129.48515958758665 295.2677307757074 128.99709332487402 299.9296126057076 128.50902706216138 304.59149443570783 128.27124628785566 310.20848071437234 128.03346551354994 315.82546699303686 128.21235356460346 320.9779645200506 128.391241615657 326.1304620470644 129.06727109994463 331.66030402502054 129.74330058423226 337.19014600297675 130.89408291054391 341.9112091374767 132.04486523685557 346.6322722719766 133.38665225439345 351.0852232555586 134.72843927193134 355.5381742391406 136.48698274076997 360.63321801562023 138.2455262096086 365.7282617920999 140.340511296376 369.51041260007923 142.43549638314343 373.2925634080585 147.20234353716737 380.60984230334725 151.9691906911913 387.9271211986359 154.7124204995656 391.45143366793707 157.45565030793992 394.9757461372383 161.64724819779795 399.5244978876967 165.83884608765598 404.07324963815523 169.96403282315623 407.9852713049563 174.08921955865648 411.8972929717574 178.00522637267906 415.08616752392584 181.92123318670164 418.2750420760942 186.5658924180476 421.20533479409056 191.2105516493936 424.1356275120869 195.17661341410698 426.0574110633746 199.14267517882035 427.9791946146623 203.23269226356126 429.16762377989556 207.32270934830217 430.35605294512885 212.53740449034882 430.6951936013784 217.75209963239544 431.03433425762796 220.62667768218364 428.13344558839935 223.5012557319718 425.2325569191708 224.21852775301159 420.01496822532647 224.93579977405133 414.79737953148214 224.81670373409673 409.27314264072805 224.6976076941421 403.74890574997397 224.29932698529092 397.8328105502424 223.90104627643976 391.91671535051086 222.98964373234463 385.9550008993657 222.07824118824954 379.99328644822054 221.22770889909228 373.3704852662822 220.37717660993502 366.7476840843438 219.58251434033315 361.44056922315644 218.7878520707313 356.1334543619691 217.92401981141447 349.6099257080698 217.06018755209763 343.0863970541705 217.2333767591457 339.072809072309 217.40656596619377 335.05922109044747 217.71452197069635 333.19925986079454 218.02247797519894 331.3392986311417 218.02747639028365 331.33917274769914 218.03247480536834 331.3390468642566 218.03747322045302 331.33892098081407 218.04247163553774 331.33879509737153 219.34635195152256 336.8598692877314 220.6502322675074 342.3809434780913 222.53269539842057 348.630007910708 224.41515852933375 354.8790723433247 225.94927539583978 360.0191521329611 227.48339226234577 365.1592319225975 229.51987741717858 371.4520029142426 231.55636257201138 377.7447739058877 233.54924793467364 384.02540090579834 235.54213329733594 390.30602790570896 236.79254544009223 396.3444126626206 238.04295758284854 402.3827974195322 239.21067596453003 409.4319714044734 240.37839434621154 416.4811453894146 239.7448269968274 421.0321157001388 239.1112596474433 425.58308601086287 237.57556645966974 429.45841737347973 236.03987327189617 433.33374873609665 232.92572216088243 437.01279033811466 229.8115710498687 440.6918319401327 223.1782507845066 442.28473313754944 216.54493051914446 443.87763433496616 210.2063802556927 442.4552490695439 203.86782999224096 441.03286380412163 199.00098245435063 439.31268463635706 194.1341349164603 437.5925054685925 189.98753547983094 435.2629675832079 185.84093604320157 432.93342969782327 180.47060075007607 429.74928682321286 175.1002654569506 426.56514394860244 171.0063358855555 423.14449985284045 166.9124063141604 419.7238557570785 162.56053541255653 415.8614574693054 158.20866451095267 411.99905918153223 152.8240959362091 407.32869880886574 147.4395273614655 402.6583384361992 144.50160947825657 398.74914755570717 141.56369159504763 394.8399566752152 138.65786672382575 390.5204507650724 135.75204185260384 386.20094485492956 133.75531276242856 382.57834924253723 131.7585836722533 378.95575363014495 129.439945309018 374.41556665905046 127.12130694578265 369.875379687956 124.97601125233311 364.46209293072354 122.83071555888357 359.0488061734911 121.4681558558146 354.33105080592134 120.10559615274563 349.61329543835154 118.78190403908394 344.4222882808492 117.45821192542226 339.23128112334695 116.20064292416828 333.10466706612317 114.94307392291428 326.97805300889934 114.46101279297145 321.5546244989778 113.9789516630286 316.13119598905615 113.48222778333394 309.825964797427 112.98550390363927 303.52073360579783 113.18439118402569 298.2775791689535 113.38327846441209 293.0344247321092 113.87524530303051 286.413914804186 114.36721214164895 279.79340487626285 115.73510353224317 275.1972104037589 117.1029949228374 270.60101593125495 118.76738977798058 266.87174342074206 120.43178463312375 263.1424709102292 122.85638457337538 258.4201385454314 125.28098451362699 253.69780618063365 130.0061014163895 248.6116931103895 134.73121831915202 243.52558004014534 141.03556682341326 239.7340606946768 147.3399153276745 235.94254134920826 153.31728617006667 235.0609382514062 159.29465701245883 234.17933515360417 165.11952865087738 235.06285403751073 170.94440028929594 235.9463729214173 175.43013791401614 238.27637800461412 179.91587553873637 240.60638308781094 183.7206804608549 243.90735450054518 187.52548538297344 247.2083259132794 191.6203847417465 251.53902335258886 195.71528410051957 255.86972079189835 199.38912640587847 260.91467492071854 203.06296871123735 265.95962904953876 205.55780481638237 271.0234687832159 208.0526409215274 276.08730851689296 211.40011714697698 282.88391135815044 214.7475933724266 289.6805141994079 217.92021245826382 296.7052663429864 221.09283154410105 303.730018486565 223.4027680095231 308.41385084655326 225.71270447494516 313.09768320654155 227.53104742930861 317.3608909881512 229.3493903836721 321.62409876976085 232.88864046533467 329.2991274002559 236.42789054699725 336.9741560307509 239.17646546334862 344.2931513774886 241.92504037969996 351.6121467242263 241.91616821289062 351.61676025390625 Z" fill="hsl(0, 0%, 0%)"></path><path d="M 248.61481545824475 313.29949310229443 Q 248.61481545824475 313.29949310229443 244.67067708394262 310.6337765169952 240.7265387096405 307.96805993169596 236.00702611540447 302.5340276639805 231.28751352116845 297.09999539626506 227.96863438178707 293.2043934969066 224.6497552424057 289.3087915975482 219.8369676426795 282.7859773079325 215.0241800429533 276.26316301831685 211.7453725434886 269.6313124654554 208.46656504402387 262.99946191259386 207.17677469247138 256.50412892462737 205.88698434091893 250.00879593666087 206.24741766558088 245.80268041816362 206.6078509902428 241.59656489966633 209.2946740660279 233.5724378888487 211.981497141813 225.5483108780311 214.7701059897243 221.57627900175513 217.5587148376356 217.60424712547916 221.12782576703788 213.78522695172774 224.69693669644016 209.96620677797628 230.6902821476386 205.5730881411505 236.68362759883706 201.1799695043247 243.36812329698367 196.96108284244286 250.05261899513027 192.74219618056102 257.88106687686513 188.68756145836176 265.7095147586 184.6329267361625 275.83445661601127 180.84933173196 285.9593984734225 177.06573672775752 294.6954833946594 174.51472564850926 303.43156831589636 171.963714569261 313.5537449367202 170.14621429387682 323.67592155754403 168.32871401849266 331.85104228524625 167.63581824076186 340.0261630129485 166.9429224630311 346.78765104675045 166.39917660348056 353.54913908055244 165.85543074393004 361.1687670657576 166.30748156034662 368.78839505096283 166.7595323767632 374.5179494441436 166.87699576302867 380.2475038373243 166.99445914929416 385.8489951870215 167.74062380248355 391.45048653671864 168.48678845567295 396.1644498604327 169.4488795622708 400.87841318414667 170.41097066886866 405.0630019046059 171.1863084337964 409.2475906250652 171.96164619872414 414.0663509450563 173.6864277373656 418.8851112650474 175.41120927600707 422.7609617969881 177.15429863117458 426.6368123289289 178.89738798634212 430.3637397733191 180.98752469498746 434.09066721770927 183.0776614036328 437.9515054087657 186.41327898606272 441.81234359982216 189.74889656849268 444.8755974105369 194.34138019403306 447.93885122125164 198.93386381957345 449.7031590024784 203.03704423413805 451.4674667837052 207.14022464870266 452.5831150768878 211.2509129424609 453.6987633700704 215.36160123621914 453.93878242385523 220.33387616551767 454.17880147764004 225.30615109481622 453.76268845053653 229.5976297233181 453.34657542343297 233.88910835181997 451.93085219046077 238.76988742492097 450.51512895748857 243.65066649802193 448.4162347609923 248.18825428605516 446.317340564496 252.72584207408835 443.6470845709959 256.9995436361718 440.9768285774958 261.27324519825527 436.69501629466464 265.93845221279196 432.4132040118335 270.60365922732865 428.68306118386874 274.30056328870376 424.95291835590393 277.99746735007886 419.63728719451547 281.58648569740177 414.32165603312694 285.1755040447247 409.9947173394518 288.06267075616205 405.6677786457767 290.9498374675994 401.0428885528661 293.2405224554155 396.4179984599555 295.53120744323155 390.1371007526334 297.6014954491784 383.8562030453112 299.6717834551252 378.23099285345324 300.98454531773103 372.6057826615953 302.2973071803369 365.04132354305943 302.67924641874424 357.4768644245235 303.06118565715167 351.16289945741397 303.0590489908818 344.84893449030443 303.0569123246119 339.16856743551284 302.26262440512164 333.4882003807212 301.46833648563137 327.1685573398962 299.4568605922898 320.8489142990713 297.4453846989482 316.2147755778743 295.85065685778386 311.5806368566774 294.25592901661946 306.6064457758447 291.9668137353765 301.632254695012 289.6776984541335 297.7409603471556 288.1148092847212 293.8496659992991 286.55192011530886 287.35549967099064 283.7930991757472 280.86133334268226 281.03427823618557 276.01691027902496 278.5225805263036 271.1724872153676 276.0108828164217 271.1739420136985 276.0060991398214 271.17539681202936 276.0013154632211 271.17685161036025 275.9965317866208 271.1783064086911 275.99174811002047 276.53153746066744 276.8619467164625 281.8847685126437 277.7321453229045 288.84386721648457 279.36187963571206 295.8029659203254 280.9916139485196 299.9806692882029 282.2633141710904 304.1583726560804 283.5350143936613 309.0964591307661 285.32305833493854 314.03454560545174 287.1111022762158 318.4648464335444 288.62851241784256 322.89514726163696 290.1459225594693 328.82999785528466 291.56845060254335 334.7648484489324 292.9909786456174 339.7713439296417 293.7955221533781 344.7778394103511 294.6000656611388 350.6471189689837 294.47121162413134 356.51639852761633 294.34235758712384 363.3598719415023 293.1298862237727 370.20334535538825 291.9174148604216 375.1469870005017 290.7748744483246 380.0906286456152 289.63233403622763 385.7153032322009 287.2216510132321 391.3399778187866 284.81096799023646 395.28474807792486 283.0393695683857 399.22951833706315 281.267771146535 403.4003827666602 278.4852976230256 407.5712471962572 275.7028240995162 411.88059540810093 272.432690317162 416.1899436199447 269.1625565348078 419.5520338243555 265.7938785372688 422.9141240287662 262.4252005397299 426.24631945825706 258.2428972209072 429.57851488774793 254.06059390208452 433.63908661773587 246.9031848452796 437.69965834772376 239.74577578847473 438.9245021848446 235.90619127103025 440.1493460219654 232.06660675358575 440.82819355166635 225.0685258767675 441.5070410813672 218.07044499994925 439.97031976116216 211.43475061590001 438.4335984409571 204.79905623185078 436.4099542577707 201.22284627688632 434.38631007458434 197.64663632192185 431.46290226781286 194.72411280212992 428.53949446104144 191.80158928233803 422.11648422708754 187.51328878363597 415.6934739931337 183.22498828493394 411.49786491401755 181.2727186820107 407.3022558349014 179.32044907908747 403.23887799760365 177.92503835145487 399.1755001603059 176.52962762382228 394.8523348531762 174.97653809477725 390.5291695460466 173.42344856573223 385.2366803282256 172.1402354494517 379.9441911104045 170.85702233317116 374.29937522580815 170.0881735174325 368.6545593412117 169.31932470169383 361.17706673084297 168.98216648093842 353.69957412047415 168.645008260183 346.97433926280604 168.83676283649157 340.2491044051379 169.0285174128001 332.2455367634345 170.06621089591425 324.241969121731 171.10390437902836 314.44388383074096 173.358378835044 304.6457985397509 175.61285329105962 296.3239813953917 178.75426491247399 288.0021642510324 181.89567653388835 278.7305689642101 186.3210915434233 269.4589736773877 190.74650655295827 262.75806514667954 195.63733800508606 256.0571566159714 200.52816945721386 250.59084514766195 205.691376200688 245.1245336793525 210.85458294416216 240.6749847550891 215.57466382097272 236.2254358308257 220.29474469778327 233.37025007227314 223.6600010896077 230.5150643137206 227.0252574814321 227.13185394247733 232.69342388766125 223.74864357123406 238.36159029389043 222.41033231980475 243.66874371793062 221.07202106837545 248.97589714197085 221.1697027762936 253.85961450671965 221.26738448421173 258.74333187146846 223.0776203200852 264.7091556925045 224.88785615595864 270.6749795135406 228.27248900987135 277.396703550434 231.65712186378406 284.11842758732735 234.3464763915379 288.33376580866593 237.03583091929173 292.5491040300045 241.26841296578752 298.42224812337304 245.5009950122833 304.29539221674156 247.06583147623803 308.79134555331734 248.63066794019275 313.28729888989307 248.62274169921875 313.29339599609375 Z" fill="hsl(0, 0%, 0%)"></path><path d="M 314.7237252741626 214.60345087367747 Q 314.7237252741626 214.60345087367747 317.4762660279367 209.83396619448072 320.2288067817108 205.06448151528397 322.90687988875425 201.85442287463263 325.5849529957978 198.64436423398126 330.1448356290793 192.684258793648 334.7047182623608 186.72415335331476 337.04262781176794 183.39222121878822 339.3805373611751 180.06028908426165 342.9062825518147 174.4046656987926 346.43202774245435 168.74904231332354 348.95811575374444 163.51547835399782 351.4842037650346 158.28191439467213 352.8086596637411 153.23975029621374 354.13311556244764 148.19758619775538 354.271341102898 143.78605495440843 354.4095666433484 139.37452371106144 353.3786700691594 135.47419427611067 352.34777349497045 131.57386484115986 349.00093252269664 126.59016309167176 345.6540915504229 121.60646134218365 342.0256442950648 118.7443545053093 338.39719703970667 115.88224766843497 333.55252170010283 114.02315867163391 328.70784636049905 112.16406967483285 323.6636374807947 112.06456096342094 318.61942860109036 111.96505225200903 312.873101447786 114.58040488626067 307.12677429448166 117.1957575205123 303.00789150093556 120.5705308306622 298.8890087073894 123.94530414081208 294.74315477685377 129.24294514490146 290.5973008463181 134.5405861489908 288.3423726651448 139.80147699009578 286.0874444839716 145.06236783120076 285.0096365709528 152.0283133111759 283.93182865793403 158.99425879115103 283.8992446665676 163.12147446917248 283.86666067520116 167.2486901471939 285.3094288297116 173.23228695587773 286.75219698422205 179.21588376456154 290.69907948673495 184.82842646145795 294.6459619892478 190.44096915835436 298.24315386221656 193.09479277625775 301.84034573518534 195.74861639416113 305.4585072744774 197.59104044911953 309.0766688137695 199.43346450407796 312.9228887222421 200.99124170328 316.7691086307147 202.54901890248203 321.76055065635103 204.295787786086 326.7519926819873 206.04255666968996 330.57506972645655 207.25971589365645 334.3981467709258 208.4768751176229 340.2004335526361 210.55521508671086 346.0027203343464 212.63355505579878 348.63466745393237 213.82241162829018 351.2666145735183 215.01126820078161 351.2651509770502 215.01604919287306 351.26368738058204 215.0208301849645 351.26222378411387 215.02561117705594 351.26076018764576 215.03039216914738 348.36419809218415 215.02942167067806 345.46763599672255 215.02845117220878 339.3432624390895 214.8657010029322 333.21888888145645 214.70295083365568 329.15134411942597 214.42551915988878 325.0837993573955 214.14808748612185 319.28646105535324 213.67440334260266 313.48912275331094 213.20071919908344 308.80100652485135 212.12636391661238 304.1128902963918 211.05200863414132 299.3163232241984 209.2936426673092 294.519756152005 207.53527670047706 288.6874380912395 204.3091160845488 282.85512003047404 201.08295546862055 279.65180816674206 197.5465560492937 276.44849630301013 194.01015662996687 273.484469515904 189.32857956371032 270.52044272879783 184.64700249745377 269.2766972269203 180.64353351681106 268.0329517250427 176.64006453616835 267.3355725164184 172.19962138834308 266.63819330779404 167.7591782405178 266.3395267971119 162.59530390295407 266.04086028642973 157.43142956539032 266.38287900964724 153.22350673256193 266.7248977328647 149.01558389973357 268.94003423834204 140.0456820280402 271.1551707438193 131.07578015634684 273.01408526061175 127.3965971896373 274.8729997774041 123.71741422292776 277.3223374220479 119.93879954016158 279.7716750666916 116.16018485739541 282.3625554488352 112.91224144911257 284.95343583097883 109.66429804082975 288.2848007414184 106.36505062356545 291.616165651858 103.06580320630115 297.56884251964277 99.50582047559911 303.5215193874275 95.94583774489708 307.5156473823804 94.24321582809823 311.50977537733326 92.54059391129938 318.1636189584939 91.98178797304061 324.81746253965446 91.42298203478182 329.500444513384 92.12488683027274 334.1834264871136 92.82679162576368 339.6508609593512 94.97891030959143 345.11829543158876 97.13102899341918 350.4516501368076 100.95930616401776 355.7850048420264 104.78758333461636 360.37985055835384 109.94154453681355 364.9746962746813 115.09550573901076 367.43227964285757 120.46237617086965 369.8898630110338 125.82924660272855 371.1321815777818 132.98029088356134 372.37450014452975 140.1313351643941 371.60196372770235 146.5033965168779 370.82942731087496 152.87545786936167 368.4078132711355 159.269285631083 365.98619923139614 165.6631133928043 362.1075458470809 171.58874602064049 358.22889246276577 177.51437864847665 353.6692404220455 182.78175271104055 349.1095883813253 188.04912677360446 343.28143633119197 193.65186455287613 337.45328428105864 199.25460233214784 334.40960076607405 201.9560139103046 331.36591725108946 204.65742548846134 328.0116620767303 207.2455720995037 324.65740690237124 209.8337187105461 319.6973705992606 212.22591272702806 314.7373342961499 214.61810674351003 314.73052978515625 214.61077880859375 Z" fill="hsl(0, 0%, 0%)"></path><path d="M 414.38100820849246 281.67446643760934 Q 414.38100820849246 281.67446643760934 416.9043338847489 286.3165591543206 419.42765956100527 290.95865187103186 421.4042182690573 296.45755661611804 423.38077697710935 301.9564613612043 427.05079419721164 309.1579902878756 430.72081141731394 316.3595192145468 436.0065095348911 321.2475158346929 441.2922076524683 326.1355124548389 447.11916647189037 328.3928494677091 452.9461252913124 330.65018648057935 459.3682330517024 331.3171956542478 465.7903408120925 331.98420482791624 471.8817798692304 331.1644265244235 477.97321892636836 330.34464822093076 484.44643573097636 327.20730607083317 490.91965253558436 324.0699639207356 494.0340581501224 321.4651199475948 497.1484637646605 318.86027597445405 500.6920845857154 315.11489728769357 504.23570540677025 311.369518600933 507.09119970771116 307.58780728037516 509.94669400865206 303.80609595981724 512.1096076649409 299.7883776928856 514.2725213212298 295.77065942595397 516.649096545349 289.8717649423048 519.0256717694683 283.9728704586557 520.2066530833036 278.7102083233791 521.387634397139 273.44754618810254 522.3899082424066 267.2253158500304 523.3921820876741 261.0030855119583 523.3215834783557 256.2985953265172 523.2509848690372 251.59410514107608 522.8309384721831 247.46682089625656 522.410892075329 243.33953665143704 521.66901380587 238.9920069083746 520.927135536411 234.64447716531217 519.4828426007989 227.96693587372823 518.0385496651868 221.28939458214427 516.2109990387567 215.73262134011958 514.3834484123264 210.1758480980949 512.818009708827 206.4901473887035 511.25257100532775 202.8044466793121 510.4408718260139 198.1593737416785 509.6291726467 193.51430080404495 512.4881722001414 189.06201951646977 515.347171753583 184.60973822889457 521.4516341647586 183.16106834383 527.5560965759341 181.71239845876545 533.6980631482616 182.64075884090616 539.8400297205889 183.56911922304687 545.2918545856691 185.16502078282542 550.7436794507493 186.76092234260395 548.7214627988282 190.6657736246589 546.6992461469071 194.57062490671385 547.5296472312643 190.4495371693381 548.3600483156216 186.32844943196238 547.6121855228279 181.32786914807753 546.8643227300341 176.32728886419264 545.9949865976876 171.5740318079529 545.1256504653411 166.8207747517132 544.3003587841454 161.93120910801414 543.4750671029497 157.0416434643151 540.504679826829 154.21827436281586 537.5342925507085 151.39490526131667 537.5343650493035 151.38990578694893 537.5344375478983 151.38490631258117 537.5345100464931 151.3799068382134 537.534582545088 151.37490736384567 540.4383431693274 151.1705924429831 543.3421037935667 150.96627752212055 546.8675306973425 153.08581516430812 550.3929576011183 155.20535280649568 552.8441589863872 158.7519437050341 555.2953603716562 162.29853460357253 557.7969456911726 166.5302069333503 560.2985310106889 170.76187926312807 562.6786496844265 175.66811207648811 565.0587683581641 180.57434488984813 565.8161883587259 186.01758849745715 566.5736083592877 191.4608321050662 564.8637349806019 196.38208668395237 563.153861601916 201.3033412628385 557.971020742171 204.10030983044058 552.788179882426 206.89727839804266 548.4896665602907 205.7484807611512 544.1911532381556 204.59968312425977 539.5432638250354 203.09608581083404 534.8953744119152 201.59248849740828 530.2459957893775 198.9878723259962 525.5966171668399 196.3832561545841 526.6640701075958 201.03881043735313 527.7315230483515 205.69436472012217 529.1953120983846 212.47766359173846 530.6591011484177 219.26096246335476 531.3482177199872 226.155443483147 532.0373342915568 233.04992450293926 532.6122232667067 237.87713351047017 533.1871122418565 242.70434251800108 533.2729201268945 247.20238512573803 533.3587280119325 251.70042773347498 533.1820814009079 256.92097275487635 533.0054347898832 262.1415177762777 532.461973131366 268.9024599492504 531.9185114728486 275.6634021222231 530.758678865784 281.50593026167047 529.5988462587193 287.34845840111785 527.7639173927615 294.6171090060885 525.9289885268038 301.8857596110592 523.3674065472035 306.8145452836879 520.8058245676033 311.7433309563166 517.7297843013328 316.04990275928765 514.6537440350622 320.35647456225877 510.7219494796821 325.2725400672347 506.790154924302 330.1886055722105 502.68515810497183 333.7050638218134 498.5801612856416 337.22152207141625 493.42791475974695 340.41460871945696 488.27566823385234 343.6076953674976 480.6877346862567 345.363227656968 473.09980113866106 347.1187599464383 465.03932230295993 346.6875844431836 456.97884346725874 346.2564089399289 452.61392068652515 345.23588466724425 448.24899790579155 344.21536039455964 444.28750493878147 342.53428310466654 440.3260119717713 340.8532058147734 436.6366582617059 338.24496806723954 432.9473045516405 335.6367303197057 429.2191809610713 331.9327799331312 425.491057370502 328.22882954655665 423.32636235387804 324.44222373541476 421.16166733725413 320.65561792427286 418.60540562166176 312.31842691053214 416.0491439060694 303.98123589679136 414.8855819552469 298.1040982567762 413.7220200044244 292.22696061676106 414.0417522358566 286.95288283176336 414.3614844672888 281.67880504676566 414.3712463378906 281.6766357421875 Z" fill="hsl(0, 0%, 0%)"></path><path d="M 576.2935539636857 211.74442000616656 Q 576.2935539636857 211.74442000616656 572.3457046843077 216.89949699914226 568.3978554049298 222.05457399211795 564.4184480203446 226.7071252514088 560.4390406357594 231.35967651069967 560.3260731673568 237.4947740499677 560.2131056989542 243.6298715892357 561.2798134169095 248.04416026719798 562.3465211348649 252.45844894516023 564.8136523342775 259.6287129383668 567.2807835336903 266.7989769315733 569.6328168801969 273.40277811088777 571.9848502267034 280.0065792902023 573.8876516607645 285.0515100616034 575.7904530948257 290.0964408330044 577.2135476351166 297.11382852252325 578.6366421754075 304.13121621204203 578.9877774081244 310.83026006289987 579.3389126408415 317.5293039137577 578.420031333947 324.7588967129998 577.5011500270524 331.9884895122419 576.2455955675888 335.9136083979414 574.9900411081252 339.8387272836409 573.6039955237901 343.74240823942597 572.217949939455 347.64608919521106 570.7389918995234 351.4191430841732 569.2600338595917 355.1921969731353 565.5949382190815 362.60255579054945 561.9298425785715 370.01291460796364 558.3396637257413 376.2659897943664 554.749484872911 382.51906498076926 552.1190347910833 386.13357556775736 549.4885847092556 389.7480861547454 543.7149819909105 396.4957043249385 537.9413792725652 403.2433224951316 532.1194608769789 408.6216347372622 526.2975424813926 413.9999469793927 522.1437939332682 416.72962102586126 517.9900453851437 419.45929507232984 514.0035665602595 421.45766076050074 510.01708773537524 423.45602644867165 505.31660323699253 425.089890492999 500.6161187386098 426.7237545373264 494.05004032754687 428.9730324445421 487.48396191648385 431.2223103517579 480.79868963378823 431.8431946184204 474.1134173510926 432.4640788850829 469.5829230215024 432.13688985214094 465.05242869191216 431.809700819199 465.0518984737852 431.8047290118076 465.05136825565813 431.7997572044161 465.0508380375311 431.7947853970246 465.0503078194041 431.7898135896332 469.22361960064137 430.1197002400122 473.39693138187863 428.4495868903912 478.8332052087465 425.98171459162404 484.2694790356144 423.51384229285696 490.06559038740136 419.94757623347255 495.8617017391883 416.38131017408807 502.6228670483057 412.14022761143514 509.38403235742317 407.8991450487822 515.128135369337 402.68976118351657 520.8722383812508 397.4803773182509 526.0522122442874 391.8738030490673 531.2321861073241 386.2672287798838 535.5878443538405 379.81841305994965 539.943502600357 373.3695973400155 543.3068945539056 367.75265985697274 546.6702865074543 362.13572237393004 548.443242963644 358.48977314550064 550.2161994198337 354.8438239170713 552.8312132021616 348.4689058159737 555.4462269844895 342.0939877148761 557.607301100013 335.3296384827827 559.7683752155366 328.56528925068926 560.657721760723 323.2451133553483 561.5470683059095 317.92493746000736 561.463219539889 312.1022480502788 561.3793707738686 306.2795586405502 560.3942494041939 300.47294038234793 559.4091280345193 294.6663221241456 557.9676941123296 289.5598276262442 556.52626019014 284.4533331283429 554.6983390188404 277.8599046744762 552.8704178475409 271.26647622060955 551.7100882887148 267.0913975816545 550.5497587298886 262.91631894269943 549.7165646270307 258.99403825510933 548.8833705241728 255.07175756751928 548.4299428660621 245.92388425151478 547.9765152079514 236.77601093551024 550.6776114831022 230.83597704259404 553.378707758253 224.89594314967786 558.8616877733413 220.86978812492254 564.3446677884295 216.84363310016718 570.3129714631532 214.28613303625812 576.2812751378768 211.72863297234906 576.2874145507812 211.7365264892578 Z" fill="hsl(0, 0%, 0%)"></path><path d="M 468.03392578125 434.011962890625 Q 468.03392578125 434.011962890625 469.5773372592864 436.4910099029541 471.1207487373228 438.9700569152832 473.41269683159555 443.61071603075186 475.70464492586837 448.25137514622054 478.838752193624 452.57349861800833 481.9728594613796 456.89562208979606 486.25153949873663 458.36534491236444 490.5302195360936 459.83506773493275 498.6533941053032 463.6038990795746 506.7765686745128 467.37273042421646 508.24429323513243 472.00605384638953 509.71201779575205 476.6393772685626 508.2942204230968 482.8875057097131 506.87642305044164 489.13563415086355 501.7164463657307 496.2972101311616 496.55646968101973 503.4587861114597 492.8369771221596 506.38245348840536 489.1174845632995 509.30612086535103 483.3261745032687 512.0189827577857 477.5348644432379 514.7318446502204 467.22711627032163 516.0221927738817 456.91936809740537 517.3125408975429 444.53172325400925 517.3481437811358 432.14407841061313 517.3837466647286 422.3420348719277 517.0729881190937 412.53999133324226 516.7622295734589 402.03800131226444 516.4166412035083 391.5360112912867 516.0710528335579 382.98344223460333 516.0445579048499 374.43087317792 516.0180629761417 366.4292465068319 516.7157422195705 358.4276198357437 517.4134214629993 347.30048217054946 519.2577467852942 336.1733445053552 521.1020721075892 327.0013008538939 522.6274208626382 317.82925720243253 524.1527696176875 308.40315547736134 525.5481464405638 298.9770537522901 526.94352326344 292.775375002989 527.649079352022 286.57369625368796 528.3546354406038 282.27471363463815 528.5801741476728 277.9757310155883 528.8057128547418 275.04096856519527 528.7509835165507 272.1062061148022 528.6962541783596 272.10600266632304 528.6912583192027 272.10579921784387 528.6862624600457 272.1055957693647 528.6812666008886 272.1053923208855 528.6762707417317 275.01719657422984 528.3834492021961 277.9290008275741 528.0906276626604 282.2017199942021 527.7559494253892 286.47443916083006 527.4212711881181 292.6640818666855 526.8086697606057 298.85372457254084 526.1960683330933 308.2138218251356 524.4898980592772 317.5739190777304 522.783727785461 326.68006778755125 520.8999510476033 335.78621649737204 519.0161743097457 346.92692854886644 516.727742842664 358.06764060036085 514.4393113755824 366.1664741714354 513.1902869142283 374.26530774250995 511.9412624528741 382.8564715396284 511.22292060045777 391.4476353367468 510.50457874804135 401.8403893381567 509.8274086343474 412.2331433395665 509.15023852065343 421.78185966169195 508.05928763679844 431.3305759838174 506.9683367529434 442.43821700891937 505.16819295837126 453.5458580340213 503.36804916379907 460.9304443724608 500.338993338837 468.31503071090026 497.30993751387484 474.17448924763903 492.73529874547 480.0339477843778 488.1606599770651 482.57613158329747 484.84411697434894 485.11831538221713 481.5275739716328 486.7953321706914 476.53789162974147 488.4723489591656 471.5482092878501 490.6379580701076 475.3294015189712 492.8035671810496 479.11059375009233 487.6851075193529 477.32776099613176 482.5666478576563 475.5449282421712 478.94538955854034 472.6394153292164 475.32413125942435 469.73390241626157 472.20109358856865 465.06932821513396 469.07805591771296 460.4047540140064 467.33915608783514 455.26028452116 465.60025625795726 450.1158150283136 465.2636795415672 444.5429359717984 464.9271028251772 438.9700569152832 466.4705143032136 436.4910099029541 468.01392578125 434.011962890625 468.02392578125 434.011962890625 Z" fill="hsl(0, 0%, 0%)"></path><path d="M 195.92339010078257 227.0746769009575 Q 195.92339010078257 227.0746769009575 191.7917533678043 226.16945367885995 187.660116634826 225.26423045676236 181.24407693500424 223.24491983258196 174.82803723518248 221.22560920840158 168.520822213094 220.27651545701244 162.2136071910055 219.3274217056233 154.53695676436524 220.19346072706793 146.860306337725 221.0594997485126 138.4821613751381 224.09119482637237 130.10401641255118 227.12288990423215 126.36802030095288 228.98369424408713 122.63202418935458 230.8444985839421 118.94603833123546 233.43413256896605 115.26005247311633 236.02376655399 109.98228445598326 241.77397518221412 104.70451643885018 247.52418381043825 102.13526828054708 251.49482708584415 99.56602012224397 255.46547036125006 97.69856389858748 259.50763022401077 95.83110767493099 263.54979008677145 94.54534753485902 267.7609153940516 93.25958739478705 271.9720407013317 91.55937179882245 277.78545972403515 89.85915620285786 283.59887874673865 88.94262657307652 288.74022692870454 88.02609694329519 293.88157511067044 86.9534213312327 300.59149044775234 85.88074571917024 307.30140578483423 85.34629268031884 314.7111755611804 84.81183964146743 322.1209453375267 84.84048329697245 330.23099334854084 84.86912695247749 338.341041359555 86.09641985526734 349.20909922275916 87.3237127580572 360.07715708596334 88.83332436865712 368.85042866326785 90.34293597925705 377.62370024057236 93.09810578541291 387.12216211779906 95.85327559156879 396.62062399502577 98.89733867473058 405.3700127768418 101.94140175789235 414.1194015586579 105.39468370597629 422.25245237060483 108.84796565406025 430.3855031825518 113.0437857445864 439.64507429280184 117.23960583511256 448.9046454030519 120.51929506915756 455.53747895118227 123.79898430320257 462.1703124993126 126.73969916488002 468.23196088708073 129.6804140265575 474.2936092748488 131.56931592777534 477.8613138036193 133.45821782899318 481.42901833238983 135.66456587268164 485.4811096224605 137.8709139163701 489.5332009125312 137.69210524045474 495.04153817681083 137.5132965645394 500.54987544109053 129.45763518926725 503.84941008902734 121.40197381399514 507.14894473696415 116.36895336028813 507.611147136658 111.33593290658112 508.0733495363518 106.91409232757576 507.53144149981694 102.4922517485704 506.98953346328204 98.19009076229173 505.2073883261168 93.88792977601307 503.4252431889516 88.90497258797095 497.86001165038374 83.92201539992882 492.2947801118159 83.23622241314149 485.88301894865185 82.55042942635414 479.4712577854878 84.56602177879122 475.7389965464639 86.58161413122829 472.00673530743995 89.67871253745287 469.25541668128744 92.77581094367744 466.5040980551349 98.14295486821321 464.4442693189328 103.51009879274898 462.3844405827308 108.56901167143216 461.56771600695765 113.62792455011535 460.75099143118456 117.99975387195533 460.4259215100314 122.37158319379533 460.10085158887824 129.1624247152356 461.2604175153385 135.95326623667586 462.4199834417987 142.99037577898412 464.73548617889594 150.0274853212924 467.0509889159932 162.81455865997947 472.45124952056244 175.60163199866656 477.85151012513165 191.55943423382655 483.9086842935087 207.5172364689865 489.9658584618857 221.611989056607 494.0608127269688 235.70674164422746 498.15576699205184 247.1800975577195 500.84816777618795 258.65345347121155 503.54056856032406 273.0934113510368 504.7797895433432 287.53336923086215 506.0190105263624 299.7557021981894 506.6620448667883 311.97803516551664 507.30507920721413 321.8446019296561 507.1159355742767 331.71116869379557 506.9267919413393 340.59026856442364 505.26483425113986 349.4693684350517 503.6028765609404 354.6365896845583 502.07724725744515 359.803810934065 500.55161795395 359.80528907826 500.5563944683422 359.80676722245494 500.5611709827344 359.8082453666499 500.56594749712656 359.8097235108449 500.5707240115188 354.6697340166278 502.2347728867552 349.52974452241074 503.89882176199154 340.6377203659868 505.8533155280678 331.7456962095629 507.807809294144 321.8338085907721 508.35057457659326 311.9219209719813 508.8933398590425 299.64262801876487 508.6660499476438 287.3633350655484 508.43876003624507 272.6695000653491 507.63015925026525 257.9756650651498 506.8215584642855 246.26699977483852 504.695555086071 234.55833448452722 502.56955170785653 220.03178359054243 499.2157580846194 205.50523269655767 495.86196446138223 189.11701963090474 490.8738508450857 172.72880656525177 485.88573722878925 159.96061405080826 482.1480734503032 147.19242153636472 478.41040967181704 140.76382554993734 477.37215399439526 134.33522956350998 476.3338983169735 128.88550900389492 476.0834045203926 123.43578844427985 475.8329107238117 116.20624606678106 476.6054021313429 108.97670368928226 477.3778935388741 102.7619666935692 480.5141257620627 96.54722969785615 483.6503579852513 97.9839836683825 487.90483479517593 99.42073763890886 492.1593116051005 105.01848739085344 494.52679818499985 110.61623714279801 496.89428476489917 118.91621617564871 496.29757215712436 127.2161952084994 495.7008595493495 128.92490061471324 491.83429312094574 130.6336060209271 487.96772669254204 129.13074301501587 481.587155174681 127.62788000910466 475.20658365682004 125.10208532424932 468.9804956281895 122.57629063939397 462.7544075995589 119.4747616604919 456.0296974255104 116.37323268158981 449.3049872514619 112.03557887348818 440.0973581026102 107.69792506538654 430.88972895375844 104.03475928037108 422.79138341846215 100.37159349535563 414.6930378831659 97.04091486004017 405.9906088580493 93.71023622472471 397.28817983293277 90.53963381903384 387.75949608045124 87.36903141334298 378.2308123279697 85.3055010893587 369.45516903895714 83.24197076537443 360.67952574994456 81.2467966334349 349.6994701495488 79.25162250149536 338.71941454915304 78.17913764970399 330.42036494877857 77.1066527979126 322.1213153484041 76.57377202992168 314.25360957256294 76.04089126193078 306.3859037967217 76.26814654884839 299.18477292702534 76.49540183576602 291.98364205732895 77.34130170662948 286.4290306155794 78.18720157749294 280.87441917382984 79.3376474860901 274.48318875734526 80.48809339468727 268.09195834086063 82.02108809660459 263.0297123660208 83.5540827985219 257.96746639118106 85.72652803269408 253.1522435008609 87.89897326686625 248.33702061054075 90.94668128317608 243.13286687789335 93.99438929948592 237.92871314524595 96.86808731913965 234.82785924969403 99.74178533879336 231.72700535414214 103.34573822490646 228.12715885952508 106.94969111101955 224.52731236490806 111.64476001992041 221.08960649750458 116.33982892882128 217.6519006301011 120.6578890597344 215.70055970740856 124.97594919064753 213.74921878471602 130.26010556029019 211.73832873017903 135.54426192993284 209.72743867564208 140.7407517612193 208.56087600074284 145.93724159250573 207.39431332584363 150.2793973167601 207.3962710994955 154.6215530410145 207.3982288731474 159.63005121581745 207.81716942126616 164.63854939062043 208.23610996938493 171.31885975737595 210.92248208782618 177.99917012413147 213.60885420626744 183.93598792629336 217.38189553869296 189.87280572845526 221.1549368711185 192.90283891735197 224.10600217746332 195.93287210624868 227.0570674838081 195.92813110351562 227.0658721923828 Z" fill="hsl(0, 0%, 0%)"></path><path d="M 260.1205179303423 323.822365880064 Q 260.1205179303423 323.822365880064 263.708040390943 324.010871900034 267.2955628515436 324.199377920004 272.4008941090636 324.55771984014905 277.5062253665836 324.91606176029416 281.33195589715694 325.3628925708075 285.1576864277303 325.8097233813209 288.9921719757126 326.56176808684677 292.82665752369485 327.3138127923727 296.3761007838986 327.9183966156675 299.92554404410237 328.52298043896235 303.08647022712546 329.0647407431578 306.2473964101486 329.60650104735333 308.69573373694396 329.74448627189213 311.1440710637393 329.8824714964309 313.8476717768421 330.2259436650638 316.5512724899449 330.56941583369667 318.25194878576235 330.57555214628087 319.95262508157975 330.5816884588651 322.3054506794432 330.58762477357493 324.65827627730664 330.59356108828473 326.76367045434426 330.5305426777551 328.86906463138195 330.46752426722543 331.64868934162865 330.2796923400148 334.42831405187536 330.09186041280407 336.6908445326574 329.65291848670324 338.9533750134395 329.21397656060236 340.492151848956 328.90816066418694 342.0309286844725 328.6023447677715 343.6149485463976 327.9252545336812 345.19896840832274 327.2481642995909 346.64074300078414 326.39389152991896 348.08251759324554 325.5396187602471 350.1325782588416 324.0170436744083 352.1826389244376 322.4944685885695 353.6098942725698 321.08760325943234 355.03714962070205 319.6807379302952 355.46348321758626 317.79059773121446 355.8898168144705 315.90045753213377 354.1284850423435 314.9282489907223 352.36715327021653 313.9560404493108 349.4774104370328 313.7859174469239 346.58766760384907 313.61579444453696 344.4962879296636 313.6499189794539 342.40490825547806 313.68404351437084 340.52832230119304 314.1180522588917 338.65173634690797 314.5520610034125 336.3624732945626 315.6634012663271 334.0732102422172 316.77474152924174 332.1214660188088 318.49831808283915 330.1697217954004 320.22189463643656 328.1630235306137 322.0233875153276 326.156325265827 323.8248803942186 323.63570596115426 325.79339533137704 321.1150866564815 327.76191026853553 317.7992811924922 330.42238442680264 314.48347572850287 333.08285858506974 311.3746067544464 335.5356751196307 308.26573778039 337.9884916541916 305.2437345676891 340.10402678398043 302.22173135498826 342.2195619137692 298.7100386053022 344.46526487112754 295.19834585561614 346.7109678284859 292.02271961179684 348.20136230155856 288.84709336797755 349.6917567746313 285.8388194675804 350.8552621565709 282.83054556718315 352.0187675385106 280.7526798961605 352.67243532151014 278.6748142251378 353.3261031045097 276.9447347086847 353.7049078702668 275.2146551922315 354.08371263602396 273.5350910941464 354.04191232004814 271.8555269960613 354.0001120040724 269.5387808262136 353.027387479153 267.2220346563659 352.0546629542336 265.9636448362891 350.1949084337442 264.70525501621233 348.33515391325477 265.0383248520273 346.75621808768096 265.37139468784227 345.1772822621072 267.2922046043194 343.7953236558336 269.21301452079655 342.41336504955996 272.5054527162622 342.13865062857064 275.7978909117278 341.86393620758133 283.8082131964278 343.02816543294415 291.8185354811278 344.19239465830697 300.409473442107 346.4196748582256 309.00041140308616 348.6469550581443 317.8657347205706 351.57203928495994 326.7310580380549 354.49712351177567 332.9549778423533 356.5985665028086 339.1788976466517 358.70000949384143 344.2948135656352 360.4448778305095 349.4107294846187 362.18974616717753 355.6999960195125 363.77299171349284 361.98926255440637 365.3562372598082 367.69142649900266 366.5945919721688 373.3935904435989 367.83294668452936 380.4946660412829 368.91967493384254 387.5957416389669 370.0064031831557 393.6406078261581 370.4755235729059 399.68547401334934 370.94464396265613 405.28459529954466 371.1495278278069 410.88371658574005 371.3544116929576 417.39682503090955 371.72091245613535 423.90993347607906 372.08741321931313 428.88203056055426 372.52148184305054 433.85412764502945 372.9555504667879 438.44432329048414 373.14194407089656 443.03451893593876 373.3283376750052 445.81355829055065 373.353082763652 448.5925976451625 373.3778278522989 450.6013923677705 373.2418227717682 452.6101870903785 373.1058176912376 454.2888629789837 372.954525640587 455.96753886758887 372.8032335899364 457.92632366722313 372.536965239575 459.8851084668574 372.2706968892136 460.8653886140173 372.1192983659656 461.8456687611772 371.96789984271766 462.04715364896424 371.9926832291305 462.24863853675134 372.0174666155433 462.43833703128166 372.08974979077493 462.62803552581204 372.16203296600656 462.79492234167066 372.27761482851633 462.9618091575293 372.39319669102605 463.0961848251373 372.5453596175343 463.2305604927453 372.69752254404256 463.32461509198777 372.8774228181113 463.4186696912302 373.05732309218 463.46693676437997 373.2545049014277 463.51520383752967 373.45168671067546 463.51487810002743 373.6546898390842 463.5145523625252 373.85769296749294 463.46565274624993 374.0547188637015 463.41675312997467 374.25174475991 463.32212168292176 374.4313422695735 463.2274902358689 374.61093977923707 463.0926269421874 374.7626706866555 462.95776364850593 374.914401594074 462.7905067691611 375.0294472917792 462.62324988981624 375.14449298948443 462.43332040249413 375.2161670161204 462.24339091517203 375.2878410427563 462.04182753059956 375.31197770052734 461.84026414602715 375.33611435829835 459.8191995616861 374.36572619153446 457.7981349773451 373.3953380247705 455.12550432530224 371.1313561482027 452.45287367325943 368.86737427163484 450.3879099849323 367.86442755734583 448.3229462966052 366.86148084305677 446.7569185844684 365.83933026953747 445.1908908723316 364.8171796960182 443.6931731371237 364.51272036156934 442.19545540191586 364.20826102712044 440.6301705483746 364.3602292051994 439.06488569483344 364.51219738327836 437.40718747284086 365.844133260317 435.7494892508482 367.1760691373557 434.41340792110805 368.40440548487436 433.07732659136786 369.632741832393 431.8119923871524 370.9175380813228 430.54665818293694 372.2023343302526 429.2158190290331 373.91991394083186 427.8849798751294 375.6374935514112 426.29080585950135 376.99618865288573 424.69663184387326 378.3548837543603 423.6317451964745 379.51088410971624 422.5668585490758 380.66688446507214 421.312284755104 382.18465557153377 420.05771096113216 383.70242667799545 417.9210275493208 385.76101002849026 415.7843441375094 387.8195933789851 412.6079727274107 390.31499897421565 409.4316013173121 392.8104045694462 407.009223249416 394.1692860276686 404.58684518151983 395.52816748589095 402.1281170738015 396.8150532793772 399.6693889660832 398.10193907286344 395.9627067556972 399.3750125336605 392.25602454531116 400.6480859944575 389.039576897714 401.63978214392 385.82312925011695 402.63147829338254 382.18924035852206 403.28420198413073 378.55535146692716 403.936925674879 375.04935220651635 403.89435020223596 371.5433529461055 403.851774729593 368.68103465669003 403.5660276477796 365.8187163672746 403.2802805659662 362.6545427904989 402.27272531556673 359.4903692137233 401.26517006516724 357.25069879087573 400.08798079835174 355.01102836802824 398.9107915315362 353.2037562952953 396.67018578421516 351.3964842225624 394.4295800368941 350.25863854632996 392.3945777560257 349.1207928700975 390.3595754751572 348.8466561598318 388.00178890631236 348.5725194495662 385.6440023374675 348.8646956483413 382.7073401209675 349.1568718471164 379.77067790446745 349.7606384868299 377.35619662157796 350.36440512654343 374.9417153386885 352.13021355913884 372.4997054335903 353.89602199173424 370.05769552849205 355.3929524958143 368.16236968432713 356.8898829998944 366.2670438401623 358.32906956930395 364.81317548597445 359.7682561387135 363.35930713178664 362.13819985578107 361.72695907725654 364.50814357284867 360.0946110227264 366.91327873054774 358.82113118722185 369.3184138882469 357.5476513517173 371.3997621751177 356.4130208184514 373.4811104619885 355.2783902851854 376.39777702641436 354.3559245069887 379.31444359084026 353.43345872879195 381.58377186680195 352.4228462567371 383.8531001427636 351.4122337846823 386.57107078252466 350.9774745800188 389.2890414222858 350.54271537535533 391.2465903308495 350.24100232701403 393.20413923941317 349.9392892786727 394.8806392989661 349.73374847735704 396.557139358519 349.52820767604135 398.828365053734 350.02193193643654 401.09959074894897 350.5156561968317 403.0213751711134 351.5864805527807 404.94315959327776 352.65730490872966 406.85023145245697 354.2944560021092 408.7573033116362 355.9316070954887 410.19628199403155 358.13906062820007 411.6352606764269 360.34651416091145 412.28934329872067 362.80294222052464 412.9434259210144 365.2593702801378 412.18578866829716 369.1938852465461 411.4281514155799 373.1284002129543 409.63443139583376 376.71384019406264 407.8407113760876 380.2992801751709 403.42042769363184 384.0314930476237 399.0001440111761 387.76370592007646 394.0755305297214 390.4052656010521 389.15091704826665 393.0468252820278 383.74045552543157 394.97360362696514 378.32999400259644 396.9003819719025 368.8510611883823 397.98087778330205 359.37212837416814 399.0613735947016 350.93574429378833 398.6804837467196 342.4993602134085 398.2995938987376 335.0571039344606 397.02676024152584 327.6148476555127 395.75392658431406 318.93887261407116 392.4506812317676 310.26289757262964 389.14743587922106 303.2737629366994 385.81155997924327 296.28462830076916 382.4756840792655 290.01148932729956 379.4030443598599 283.73835035382996 376.3304046404543 279.42061794956714 374.19624603371244 275.1028855453044 372.06208742697055 272.168560696952 370.8789846106331 269.2342358485996 369.6958817942956 266.59296990423934 368.9794327577721 263.9517039598791 368.26298372124864 262.2560804497274 368.1203209680824 260.5604569395756 367.97765821491623 258.7736279596297 367.9926895087916 256.9867989796838 368.007720802667 254.66811166473835 368.59090037427495 252.3494243497929 369.17407994588297 251.08045679386265 370.0277123832449 249.81148923793242 370.8813448206067 247.47826992993882 374.1624903709351 245.14505062194522 377.4436359212634 243.96581597631652 379.77506582044066 242.78658133068782 382.10649571961795 242.03550348881257 384.42222645815195 241.2844256469373 386.7379571966859 240.8408592910685 389.5594065659976 240.3972929351997 392.38085593530934 240.52262841491836 394.94186301099506 240.64796389463703 397.5028700866808 240.92798525790502 400.251279698829 241.208006621173 402.99968931097726 241.688255910083 405.24430897308184 242.16850519899296 407.4889286351865 242.73065172424998 409.2222888741886 243.292798249507 410.9556491131907 244.4741799876884 413.2808405914278 245.65556172586975 415.6060320696649 247.02956249692772 417.37239170345265 248.40356326798573 419.1387513372405 250.5138928141021 421.9234043700428 252.62422236021845 424.7080574028451 255.11500389446962 426.99594766876305 257.60578542872076 429.28383793468095 260.3037903976759 431.3913808347734 263.00179536663103 433.49892373486585 266.8806203862722 435.78512015109175 270.7594454059133 438.07131656731764 274.0650458016174 440.1669198737217 277.37064619732143 442.2625231801258 281.5210722902338 444.8142758398171 285.6714983831462 447.3660284995085 289.08177022296456 449.2831077659164 292.49204206278296 451.2001870323243 295.31771580849454 452.84793021084323 298.1433895542061 454.49567338936214 300.72197012257254 456.3033978278903 303.30055069093896 458.11112226641853 305.3000428038757 459.31329993567454 307.29953491681243 460.51547760493054 308.787493685164 461.5005251770945 310.27545245351564 462.4855727492585 311.7558443809265 463.38069959877885 313.2362363083373 464.2758264482992 315.0206084056455 465.8361610313715 316.8049805029537 467.3964956144437 318.3884256980426 468.2074896930535 319.9718708931316 469.0184837716632 320.1887974247942 469.156040133568 320.4057239564567 469.2935964954728 320.58342617850917 469.4790710034712 320.7611284005616 469.6645455114696 320.8892782515089 469.88715837844234 321.0174281024562 470.10977124541506 321.0885775069403 470.35658420107416 321.1597269114243 470.6033971567333 321.1697406627135 470.8600654204995 321.1797544140027 471.1167336842657 321.1280505124016 471.36833968458933 321.07634661080056 471.619945684913 320.9659300894996 471.85186606923355 320.85551356819866 472.0837864535542 320.6928018406037 472.28254199823834 320.5300901130088 472.4812975429225 320.32453999237265 472.6353365663747 320.1189898717365 472.7893755898269 319.8825479407283 472.8897453367665 319.6461060097201 472.99011508370614 319.39251428447915 473.03098205972526 319.1389225592382 473.07184903574444 318.8829198027505 473.0508380502767 318.62691704626275 473.02982706480896 318.3833821507636 472.9481592773169 318.13984725526444 472.8664914898249 317.956413113371 471.0652566222584 317.7729789714775 469.2640217546919 318.94895591231796 467.20016470936014 320.1249328531584 465.13630766402844 321.24745327088044 462.49232658247354 322.3699736886025 459.84834550091864 323.508216086291 456.4979734757993 324.6464584839795 453.14760145068004 325.74584363514793 449.2627711053152 326.8452287863164 445.37794075995043 327.6343905771737 442.0895235366462 328.423552368031 438.8011063133419 328.7366565741746 436.0446770816878 329.04976078031825 433.28824785003366 328.9720203077167 429.6617064368602 328.8942798351152 426.0351650236868 328.6979903371949 423.92942567545253 328.5017008392746 421.82368632721835 327.9200683142699 419.3426978690369 327.33843578926525 416.86170941085544 326.5357177593005 414.43709882923065 325.73299972933575 412.0124882476059 324.79305985064514 409.9180514260946 323.85311997195447 407.82361460458327 322.86770271928305 405.85598119391005 321.8822854666116 403.88834778323684 320.26828664642477 401.3808669559967 318.6542878262379 398.8733861287566 316.83976534197757 397.0240170488603 315.02524285771716 395.174647968964 313.3608916153838 393.59579802335554 311.69654037305054 392.0169480777471 309.9039911225392 390.2284972750497 308.1114418720279 388.4400464723523 306.7170218908162 387.21026828895657 305.32260190960454 385.9804901055608 303.64923583035886 384.33366382092265 301.9758697511131 382.68683753628454 300.2079603743124 380.8760688780259 298.44005099751166 379.06530021976715 296.61240349758657 377.4166212318328 294.78475599766153 375.7679422438984 293.5953160161075 374.8029200071892 292.4058760345535 373.83789777047997 290.8887552815871 374.5973171807268 289.3716345286207 375.35673659097364 289.4092908285683 377.1083440786498 289.44694712851594 378.859951566326 289.37118767894106 381.74958566364637 289.2954282293661 384.6392197609667 289.21782008611683 386.4343053265618 289.14021194286755 388.22939089215686 289.4902349834728 391.20288180398484 289.8402580240781 394.17637271581276 290.3022863196757 396.9642493957 290.76431461527335 399.7521260755873 291.22718347334023 402.71533469635517 291.6900523314071 405.6785433171231 291.96052445040596 407.26973818208796 292.23099656940485 408.86093304705287 292.3880986904127 410.5685748837442 292.54520081142056 412.2762167204355 292.5727525612413 414.1257683173519 292.6003043110621 415.9753199142683 292.68829974005985 418.69295092096365 292.7762951690576 421.41058192765894 292.75434530819047 423.10633003318543 292.7323954473233 424.8020781387119 292.73398703508315 426.34796391174973 292.73557862284304 427.8938496847875 292.70170485831204 429.655225421129 292.66783109378105 431.41660115747044 292.32827027686733 433.4659091131908 291.98870945995367 435.5152170689111 291.88389644757086 437.02913169819817 291.77908343518806 438.54304632748523 291.4518833611515 440.03564191404496 291.1246832871149 441.5282375006047 290.7000772363351 443.14022210228495 290.27547118555526 444.75220670396527 289.4307317817383 447.28132142300217 288.58599237792134 449.81043614203907 287.64662080887757 451.12283496241656 286.7072492398338 452.43523378279406 285.4162970219969 453.801042309426 284.1253448041601 455.16685083605796 282.9156631858041 456.17029211772206 281.70598156744813 457.1737333993861 279.2340894043404 458.9095513956253 276.7621972412327 460.6453693918644 275.0205647162744 461.0748867359626 273.2789321913161 461.5044040800608 271.3916884657558 461.6179955385633 269.5044447401955 461.73158699706585 267.6485248556078 461.486975481332 265.79260497102 461.2423639655982 262.4295203144999 459.6441415732101 259.0664356579798 458.045919180822 257.8223439207716 456.8829890313092 256.57825218356334 455.7200588817964 254.71752200650292 453.6070376865026 252.8567918294425 451.49401649120887 252.31869413541705 449.7660992194054 251.7805964413916 448.038181947602 251.64777360173113 446.1747479402991 251.51495076207067 444.31131393299614 251.51204440757215 442.43161338171456 251.50913805307366 440.5519128304329 252.21529861691153 438.0494240524782 252.9214591807494 435.54693527452343 254.58689383196122 433.0419620574504 256.252328483173 430.5369888403773 257.79268553521183 428.4771541049503 259.33304258725065 426.41731936952317 261.57099589670423 424.2337797587736 263.8089492061578 422.050240148024 265.5143810626211 420.2640749707821 267.2198129190844 418.4779097935402 269.44964750010894 417.0843508175334 271.6794820811335 415.69079184152656 273.3662472130799 414.5316288522155 275.05301234502633 413.3724658629044 277.3686773596055 412.7835783160679 279.6843423741847 412.19469076923144 283.1855699999021 412.17609681753976 286.6867976256194 412.1575028658481 289.8298415689111 412.4914656468996 292.9728855122028 412.8254284279511 296.80593205010734 413.84388724781115 300.63897858801187 414.8623460676712 304.1803264827404 416.153438977374 307.7216743774689 417.44453188707683 310.881819422959 419.12214712850607 314.041964468449 420.7997623699353 317.5853455372006 423.4604175075809 321.1287266059522 426.1210726452266 323.72505803151955 428.36138401700055 326.32138945708687 430.60169538877454 328.2838729468432 432.63160415072383 330.2463564365995 434.6615129126731 331.9585110294105 436.588342848881 333.6706656222215 438.5151727850888 334.799822723723 440.12673371001574 335.92897982522453 441.7382946349427 336.765057773674 443.56358896364554 337.60113572212344 445.38888329234834 337.774684400203 447.17547060289627 337.94823307828256 448.9620579134442 337.1488796163329 450.7901196049756 336.3495261543833 452.618181296507 333.52331231912376 454.9482450446164 330.6970984838643 457.2783087927258 327.2428350474727 459.0247158424022 323.78857161108107 460.7711228920786 318.699920371893 462.0223382195395 313.61126913270493 463.27355354700046 309.24569258543295 463.76668031081033 304.88011603816096 464.25980707462026 301.0771053899231 463.8942177439461 297.2740947416852 463.52862841327203 293.18156396491963 462.52775808535466 289.0890331881541 461.5268877574373 285.97198202411334 460.261240786269 282.85493086007256 458.9955938151008 280.149331410947 457.0673669877973 277.44373196182147 455.13914016049375 275.4273328153568 453.25782813091587 273.41093366889214 451.37651610133804 271.91498995805733 449.5129827914975 270.4190462472225 447.64944948165703 269.44133061800426 445.44284810944555 268.46361498878605 443.236246737234 267.68635086824594 441.5170785512373 266.9090867477058 439.7979103652406 266.49883272583713 437.8767156252448 266.0885787039685 435.955520885249 265.9707976442124 432.973445538453 265.85301658445627 429.991370191657 267.1672461196242 427.9692974783598 268.48147565479223 425.94722476506263 270.24364183312093 424.48905598120774 272.0058080114497 423.03088719735285 274.5727211796486 421.9255176761809 277.13963434784756 420.8201481550089 281.1624092358785 420.77176957180916 285.1851841239094 420.7233909886094 289.0592760398497 421.34579187058733 292.93336795579 421.96819275256524 298.1638119745716 423.66325451926565 303.3942559933532 425.35831628596605 308.0822142389442 427.4897475017251 312.7701724845351 429.6211787174842 317.2188366995107 431.64546582780446 321.66750091448625 433.6697529381247 327.95795822353136 436.47355828298805 334.2484155325764 439.2773636278514 339.6699929709789 441.58150228318834 345.0915704093814 443.8856409385253 351.7909785163681 445.6971242371941 358.49038662335477 447.5086075358629 364.36361209278505 448.28597934902245 370.23683756221527 449.06335116218196 375.758599675248 448.8492039469936 381.28036178828063 448.6350567318053 387.7547098511826 446.3478948618199 394.2290579140846 444.0607329918344 399.18765740596234 441.4401290345794 404.14625689784003 438.8195250773244 408.73435081330433 435.23092382551 413.32244472876863 431.6423225736956 416.6520441112463 428.4662207731087 419.981643493724 425.29011897252184 422.2232934189602 422.2881340208255 424.46494334419646 419.2861490691292 425.9676692592322 416.9076392772115 427.47039517426794 414.52912948529377 427.4746221960876 414.5318001194013 427.47884921790717 414.53447075350886 427.48307623972676 414.53714138761643 427.4873032615464 414.53981202172395 425.98414182767067 416.91895561828505 424.48098039379494 419.2980992148462 422.2424170802091 422.30566707174904 420.0038537666233 425.31323492865187 416.68048989874774 428.499868754801 413.35712603087217 431.68650258095016 408.77232531545013 435.2916553514881 404.1875246000281 438.896808122026 399.2289049064103 441.5365806299336 394.2702852127926 444.1763531378412 387.77985140311335 446.48915902768226 381.2894175934341 448.80196491752326 375.7493028107334 449.0414197498128 370.20918802803266 449.2808745821023 364.3129930356499 448.533123742728 358.41679804326714 447.7853729033536 351.6820185861534 446.00833231370746 344.9472391290397 444.2312917240613 339.4986251970634 441.9805184299853 334.0500112650871 439.7297451359093 327.7258620839717 437.00103635232864 321.4017129028563 434.272327568748 316.9086530922703 432.3525337995262 312.4155932816843 430.43274003030444 307.73030446632634 428.4689066937864 303.04501565096837 426.5050733572684 297.8868230017543 425.04539636527903 292.7286303525402 423.5857193732897 289.0098593364319 423.26634207535426 285.2910883203235 422.9469647774188 281.81815487329516 423.27510041186326 278.34522142626673 423.6032360463077 276.2374881874097 424.6800344137331 274.1297549485527 425.75683278115855 272.6701417390706 426.8407138000926 271.2105285295885 427.92459481902665 270.12902643419966 429.2913528830868 269.0475243388108 430.65811094714695 268.710123403495 433.13798195027664 268.37272246817923 435.6178529534064 268.50945661859987 437.3939662226021 268.64619076902045 439.1700794917978 269.1559576421022 440.96553381019476 269.6657245151839 442.7609881285917 270.4201063123645 444.93541309656644 271.17448810954505 447.10983806454124 272.45785696105486 449.07342419082374 273.74122581256466 451.0370103171063 275.67192276005886 452.9757594435258 277.60261970755306 454.91450856994527 280.29559022674977 456.7897764691842 282.9885607459465 458.665044368423 286.09289060801325 459.8676189189216 289.1972204700801 461.07019346942013 293.2620554492524 461.98822952233184 297.3268904284247 462.90626557524354 301.05161925992104 463.1670351231746 304.7763480914174 463.4278046711058 309.04945902058813 462.80225415537006 313.3225699497589 462.1767036396343 318.1903906794985 460.79573713287016 323.05821140923814 459.4147706261061 326.1799527894412 457.56027153034034 329.30169416964424 455.7057724345746 331.5785813389641 453.451830799107 333.85546850828393 451.19788916363933 334.83124673953023 448.6138668765038 335.8070249707765 446.0298445893682 335.2624697516933 444.23754224039953 334.71791453261 442.4452398914308 333.8947750869986 440.72973438612877 333.0716356413872 439.01422888082675 331.48636209370284 437.0013821751355 329.9010885460185 434.98853546944434 327.9936325461901 432.9335425912176 326.0861765463617 430.87854971299083 323.46544166658725 428.6922535662899 320.8447067868129 426.50595741958887 317.2975634778761 423.9359912074682 313.7504201689394 421.36602499534746 310.5968299484532 419.8098953070645 307.44323972796707 418.25376561878153 303.90612856683697 417.1209726816892 300.36901740570687 415.9881797445968 296.6204655877998 415.1920927071077 292.8719137698927 414.3960056696186 289.8420063457646 414.349122456471 286.81209892163656 414.30223924332336 283.56612372339293 414.6837891523626 280.32014852514925 415.0653390614018 278.42610448817504 415.4179664809909 276.5320604512008 415.77059390058 274.7948056496897 416.8267602440351 273.05755084817855 417.88292658749015 271.1195416088664 419.109444341728 269.1815323695543 420.3359620959659 267.56145071895247 422.1222204665654 265.94136906835064 423.908478837165 264.24325838427325 426.2419267332849 262.54514770019586 428.5753746294048 261.3053142550478 430.6626092460788 260.0654808098997 432.7498438627528 259.078005720488 434.81775513338994 258.0905306310763 436.8856664040271 257.7394763812687 438.6617279975459 257.3884221314611 440.43778959106464 257.60441180231214 443.5335131328351 257.8204014731632 446.6292366746056 258.3429636112112 448.1253337682882 258.86552574925923 449.6214308619709 260.4891309789367 451.37414851437484 262.11273620861425 453.12686616677877 264.3884287593539 454.2388350976522 266.66412131009366 455.35080402852566 269.35818562295776 455.43201523170796 272.05224993582186 455.51322643489027 273.966818767104 454.94857304561 275.881387598386 454.3839196563297 277.8522396902438 452.8003019539785 279.8230917821016 451.21668425162727 281.5733025928016 449.1734408211954 283.3235134035017 447.13019739076356 284.0815798332978 445.2507589808812 284.83964626309387 443.3713205709988 285.56538220917014 440.74955090176536 286.29111815524635 438.12778123253185 286.420129400616 436.417429883347 286.5491406459857 434.7070785341621 286.7597545531954 433.05859326388236 286.9703684604052 431.4101079936026 286.9348126646299 429.6557195389421 286.89925686885454 427.90133108428154 286.8968907360394 426.3597562780774 286.89452460322417 424.8181814718732 286.86326245865115 423.1379901199232 286.83200031407813 421.4577987679732 286.84652859134786 418.8151865712075 286.8610568686176 416.17257437444175 286.6389721831662 413.0808996970372 286.4168874977148 409.9892250196326 285.9022520400928 406.8421171894155 285.3876165824707 403.69500935919837 284.8960095219347 400.65708625417705 284.40440246139866 397.6191631491557 283.9488131311938 394.7801035245826 283.4932238009889 391.9410439000095 283.1690336659406 390.0878499075974 282.8448435308923 388.2346559151853 282.7733522309907 386.42257036423973 282.70186093108913 384.61048481329425 282.6560024492293 382.9441178471628 282.6101439673694 381.2777508810313 282.70692210813775 378.6666260214329 282.80370024890607 376.05550116183446 283.4712505269332 373.9049677058252 284.1388008049604 371.7544342498159 286.0187569438334 370.1530507403223 287.8987130827065 368.55166723082874 290.22807346016486 368.8662389795563 292.55743383762325 369.1808107282838 294.0260066063919 369.70792001752585 295.4945793751605 370.2350293067679 296.58740026199627 371.5811805997249 297.680221148832 372.92733189268193 299.3205141706587 374.88865641647 300.9608071924854 376.84998094025804 302.30402826564045 378.9368506349067 303.6472493387955 381.02372032955543 305.29166856818745 382.69714001964917 306.9360877975793 384.37055970974285 308.1632957312227 385.76819924377673 309.3905036648661 387.1658387778106 311.1740278083382 388.967084433978 312.9575519518104 390.76833009014547 314.5225652957341 392.45089900110315 316.0875786396578 394.13346791206084 317.9828873940859 396.06931059485686 319.8781961485139 398.0051532776529 321.8082862550664 400.51537939836066 323.73837636161886 403.0256055190685 324.61085533133036 405.08695276889324 325.48333430104185 407.148300018718 326.32245206934135 409.3488919399683 327.1615698376408 411.5494838612186 327.95240692433026 414.04589751003493 328.7432440110197 416.5423111588513 329.31869006070235 419.1590666964687 329.89413611038503 421.7758222340861 329.8279215589946 423.8873860118813 329.7617070076042 425.99894978967654 329.99002523272 429.70301167913215 330.2183434578358 433.4070735685878 329.95533369387954 436.23301910862983 329.6923239299233 439.05896464867186 329.12592343819273 442.4244103417667 328.55952294646215 445.7898560348615 327.765601868035 449.7837850992913 326.97168078960783 453.7777141637211 326.24754787627637 457.2994959859816 325.5234149629449 460.82127780824203 324.8563387015897 463.9772602686607 324.18926244023453 467.13324272907937 322.5314603846861 469.5762035834506 320.8736583291377 472.01916443782176 320.42266840636205 470.51877831377175 319.9716784835864 469.01839218972174 320.1886187698005 469.1559268582856 320.40555905601457 469.2934615268495 320.58327982462924 469.47891826369835 320.761000593244 469.66437500054724 320.88917270483716 469.8869750514218 321.0173448164304 470.1095751022964 321.0885189018542 470.356380941781 321.159692987278 470.60318678126566 321.16973240534344 470.8598540423734 321.17977182340894 471.1165213034811 321.1280930826664 471.36813247293685 321.07641434192385 471.61974364239256 320.9660210132134 471.85167506720575 320.8556276845029 472.0836064920189 320.692935833276 472.282378306882 320.53024398204906 472.4811501217451 320.324709266343 472.6352096994391 320.1191745506369 472.7892692771331 319.88274265778557 472.88966266776396 319.64631076493424 472.9900560583948 319.3927231276588 473.0309483933821 319.1391354903834 473.07184072836935 318.8831306340772 473.05085534328225 318.62712577777097 473.0298699581952 318.38358271671075 472.94822652460107 318.1400396556505 472.8665830910069 317.5680253432836 472.31853714683336 316.99601103091663 471.7704912026598 315.7860633052501 470.6217700052931 314.5761155795835 469.47304880792643 313.31928465300666 467.6740138118207 312.0624537264298 465.87497881571494 310.7271250856775 464.7252434776796 309.39179644492526 463.5755081396443 308.14320401716236 462.3415781467645 306.8946115893995 461.1076481538847 305.04762258774247 459.6811650169487 303.2006335860855 458.25468188001264 300.61738531404745 456.469784944941 298.03413704200943 454.6848880098693 295.1954677096554 453.0643301795044 292.3567983773014 451.44377234913946 288.92038198598664 449.5594465532839 285.4839655946719 447.67512075742843 281.3019256548858 445.171064587828 277.1198857150997 442.6670084182277 273.78199806224404 440.6439795786191 270.4441104093884 438.62095073901054 266.4685874729745 436.4011737406754 262.49306453656055 434.18139674234027 259.6725238782169 432.16778580164566 256.8519832198733 430.154174860951 254.13534014221295 427.93015831283867 251.41869706455262 425.7061417647263 249.05367209097136 423.05946922292617 246.6886471173901 420.4127966811261 245.30979058853916 418.4732074387814 243.93093405968824 416.53361819643675 242.523698818362 414.0276036362785 241.11646357703572 411.5215890761202 240.77265172938183 409.66479432415986 240.42883988172795 407.80799957219955 240.07365384897946 405.4939106847969 239.71846781623094 403.1798217973943 239.32899044902263 400.386784104406 238.9395130818143 397.59374641141767 238.78578886913243 394.893442574397 238.63206465645055 392.19313873737633 238.82811869777117 389.11616956438263 239.02417273909177 386.03920039138893 239.77808406707396 383.5498986883541 240.53199539505616 381.06059698531925 241.59768029919545 378.5672460333557 242.66336520333473 376.07389508139215 244.01197973388014 373.36578922690796 245.36059426442554 370.6576833724238 246.80849522068786 369.38743006582735 248.25639617695018 368.1171767592309 250.13622227311424 367.2401517473837 252.01604836927828 366.3631267355366 254.56184098974995 366.331309112422 257.1076336102216 366.29949148930746 258.94123457218325 366.59525833294674 260.7748355341448 366.891025176586 262.41294495830664 367.40891665815855 264.0510543824684 367.926808139731 266.66140305434703 368.7646043614161 269.2717517262256 369.60240058310126 272.2129893164728 370.7801346392491 275.15422690671994 371.95786869539694 279.47646283512256 374.0823682944799 283.7986987635251 376.20686789356296 290.0775084145944 379.2659267530054 296.35631806566363 382.32498561244785 303.3464029357716 385.6392471515564 310.33648780587953 388.95350869066493 318.99801669753333 392.2240048365661 327.65954558918713 395.49450098246723 335.08678744900214 396.72697999910747 342.51402930881716 397.9594590157477 350.91745953873897 398.28849676547816 359.3208897686608 398.61753451520866 368.7253464391637 397.47977453342713 378.12980310966657 396.3420145516456 383.44887015381266 394.3455782947506 388.7679371979587 392.34914203785564 393.5344960282888 389.64832349668904 398.30105485861884 386.94750495552245 402.42496309313833 383.2943418813445 406.5488713276578 379.6411788071665 408.00814423755924 376.2191151247871 409.46741714746065 372.7970514424076 409.8827030707754 369.3169219174064 410.29798899409013 365.8367923924051 409.82321718395457 363.8093125006088 409.348445373819 361.78183260881264 408.1312959799102 359.92009232605244 406.9141465860014 358.05835204329225 405.16396820072856 356.60206599962476 403.41378981545574 355.1457799559572 401.9152052973195 354.12285444785243 400.41662077918323 353.0999289397476 398.5285932261954 352.55589789042074 396.6405656732076 352.0118668410938 395.0117653365985 351.9569704282078 393.38296499998944 351.90207401532183 391.45201017597077 351.9548183515209 389.5210553519521 352.00756268772 386.97832040310016 352.4068208584457 384.43558545424827 352.8060790291715 382.1041715622648 353.75786038156195 379.7727576702813 354.70964173395237 377.0490742979521 355.81215160196865 374.3253909256229 356.91466146998494 372.20892701927863 357.95221663978 370.09246311293435 358.98977180957496 367.805318862655 360.23485428147956 365.51817461237556 361.47993675338415 363.32863873380904 363.1811547811999 361.13910285524247 364.8823728090157 359.6274494811103 366.08726360193776 358.11579610697817 367.29215439485984 356.5582887613645 369.0602695499838 355.00078141575085 370.8283847051077 353.46835093098326 373.11752101616696 351.9359204462157 375.4066573272263 351.26030276233143 377.6431482418215 350.5846850784472 379.8796391564167 350.459008097962 382.70151518147065 350.3333311174768 385.52339120652465 350.3722212498983 387.64146567134543 350.41111138231975 389.7595401361662 351.3060515359624 391.7748390351544 352.20099168960513 393.79013793414265 353.8804930165553 395.89472685748626 355.5599943435055 397.9993157808298 357.6358229556431 399.26872534561016 359.7116515677807 400.53813491039057 362.8128784088009 401.3985678345182 365.91410524982103 402.2590007586458 368.7203061678343 402.47984629968585 371.5265070858475 402.7006918407259 374.87706353179453 402.55388821620295 378.2276199777416 402.4070845916801 381.65316262523334 401.5183134897468 385.0787052727251 400.62954238781344 388.10283327086483 399.2904440486366 391.12696126900465 397.95134570945964 394.3265978315611 396.33265972031 397.5262343941176 394.71397373116037 399.6516058061445 393.0853933125708 401.7769772181714 391.4568128939812 403.65953783241935 389.8444475233533 405.54209844666724 388.2320821527254 408.11651765084105 385.51006756672314 410.6909368550148 382.7880529807209 411.7901571108222 381.5558756178693 412.8893773666296 380.32369825501763 414.27179803019874 378.8458675902891 415.65421869376786 377.3680369255606 417.24322112177754 375.77721925986464 418.8322235497872 374.1864015941687 420.04995898561526 373.1113445250917 421.2676944214433 372.03628745601475 422.5215390768602 370.67358952932403 423.7753837322772 369.3108916026333 425.4311132957773 367.38326709134395 427.0868428592775 365.4556425800546 428.4482978323337 364.2801982025682 429.8097528053899 363.10475382508184 431.7409412968667 361.7293997663072 433.6721297883435 360.3540457075326 434.9781026453553 359.4658662553666 436.28407550236705 358.57768680320066 438.0951517715787 358.2622996472356 439.9062280407903 357.9469124912705 441.48711053282506 358.1295118498611 443.0679930248598 358.3121112084517 444.8549243746799 358.97243928488194 446.64185572450003 359.6327673613122 448.5704191008745 361.2958840560949 450.498982477249 362.9590007508777 452.67685398295623 364.4630738229946 454.85472548866346 365.96714689511145 456.8806720691864 367.46910220793006 458.9066186497093 368.9710575207486 460.3760595000672 370.46947855503834 461.8455003504251 371.967899589328 462.04698771554337 371.99266282712813 462.24847508066165 372.01742606492826 462.438180802561 372.0896902699491 462.6278865244604 372.1619544749699 462.7947848976708 372.27751964822016 462.9616832708812 372.39308482147044 463.09607415411 372.54523430965116 463.2304650373388 372.69738379783183 463.3245376261383 372.8772746655411 463.41861021493787 373.05716553325044 463.4668970060271 373.254342514805 463.51518379711644 373.4515194963595 463.5148783599286 373.65452265632695 463.51457292274085 373.8575258162944 463.4656930092997 374.0545566014795 463.41681309585846 374.25158738666454 463.32219960902967 374.43119435857477 463.22758612220093 374.61080133048495 463.0927380022845 374.7625457234741 462.957889882368 374.91429011646323 462.7906445084292 375.02935253928115 462.6233991344904 375.14441496209906 462.4334768155206 375.2161079813253 462.24355449655076 375.2878010005516 462.04199352665194 375.3119578145404 461.84043255675306 375.3361146285291 460.8591981275754 375.18166674769685 459.87796369839765 375.0272188668646 457.91587208599833 374.74406825998096 455.953780473599 374.4609176530973 454.2738400112063 374.2817498434832 452.59389954881357 374.1025820338692 450.5887825218308 373.9009869322481 448.5836654948481 373.69939183062695 445.80688028528056 373.56980745788445 443.030095075713 373.44022308514195 438.4364772935029 373.2634885448051 433.8428595112927 373.0867540044682 428.87204612373495 372.6664034648044 423.9012327361772 372.2460529251406 417.38910922279484 371.8983664506741 410.8769857094125 371.5506799762075 405.2719946034731 371.37137536457107 399.66700349753364 371.1920707529346 393.60777746667327 370.75721825612675 387.54855143581295 370.3223657593189 380.4279352250529 369.2820989814366 373.30731901429294 368.2418322035543 367.58263379621303 367.0679556105423 361.8579485781332 365.89407901753026 355.51903637605466 364.39394907452674 349.18012417397614 362.8938191315233 344.0261292866414 361.2723599870046 338.8721343993066 359.65090084248595 332.5976617761696 357.72028824818983 326.3231891530327 355.78967565389365 317.44659258725915 353.1162439383221 308.5699960214857 350.4428122227505 300.04365810825516 348.5707544458663 291.5173201950246 346.69869666898217 283.88007592655197 345.9947721127593 276.24283165807935 345.2908475565364 273.8270207141866 345.80540293140245 271.41120977029385 346.3199583062685 269.8817903273452 346.9933661696116 268.3523708843965 347.66677403295466 269.4973290254612 349.24043973878815 270.64228716652593 350.81410544462165 272.8243576621845 351.57706782616646 275.0064281578432 352.34003020771127 276.7070185937383 352.28446367738763 278.40760902963353 352.228897147064 280.51319299373193 351.8605148216382 282.61877695783033 351.49213249621243 285.5652402934487 350.2508140936219 288.51170362906703 349.0094956910314 291.56983519414 347.4339441355911 294.627966759213 345.85839258015073 298.00655081342325 343.48256775844806 301.3851348676335 341.1067429367454 304.20569615904526 338.8292316033943 307.0262574504571 336.5517202700432 309.88721044552153 333.8528826438612 312.7481634405859 331.1540450176793 315.7016092751484 328.174157809102 318.65505510971093 325.19427060052465 320.5157638259873 322.96494645014025 322.37647254226357 320.7356222997558 325.2844782762164 316.9518783719126 328.19248401016927 313.1681344440694 329.73334187906687 311.7812773994283 331.27419974796453 310.39442035478726 333.2378195935413 309.5039108053429 335.2014394391181 308.61340125589857 337.3254144337145 308.18997116254576 339.449389428311 307.76654106919295 340.9214986686055 307.47212543777084 342.3936079089 307.17770980634873 344.5810554416032 307.26498983341014 346.7685029743065 307.35226986047155 348.3430672782032 307.3845688930848 349.91763158209994 307.41686792569806 351.7575821502885 307.50873235239726 353.597532718477 307.6005967790965 355.3121476477053 308.0325579597833 357.0267625769335 308.46451914047 358.8393332323135 310.1980014558831 360.65190388769344 311.93148377129626 361.1182971649864 314.12249851257604 361.5846904422794 316.3135132538559 361.20782908609687 318.12006990913994 360.83096772991433 319.92662656442394 359.70254840194673 321.32801649084075 358.57412907397907 322.72940641725756 356.5858885743207 324.19668589289745 354.5976480746623 325.66396536853733 352.07313532059936 327.01511658465813 349.5486225665364 328.3662678007789 347.84865702639166 329.14152966418624 346.14869148624695 329.9167915275936 344.22909658303263 330.4814375538965 342.3095016798183 331.0460835801994 340.7894048204755 331.06953718491593 339.2693079611327 331.09299078963244 336.9269514479213 331.4288006309009 334.58459493470986 331.76461047216935 331.714117176323 332.10351308605743 328.8436394179361 332.44241569994557 326.7282742679271 332.3225205978606 324.612909117918 332.20262549577564 322.2194620517284 332.07473430094365 319.8260149855388 331.9468431061116 318.13637952414047 331.6380911609502 316.4467440627422 331.32933921578876 313.7656035174835 330.93189783678497 311.0844629722248 330.53445645778123 308.6402094963727 330.22536777025675 306.19595602052055 329.9162790827323 303.02982959690075 329.4061007703083 299.863703173281 328.89592245788424 296.3033524584105 328.32156738890336 292.74300174353993 327.7472123199225 288.92215971402663 327.0215352436462 285.1013176845133 326.2958581673699 281.28436424368164 325.85815942637726 277.46741080285 325.42046068538457 272.3673448740907 324.9937673958739 267.2672789453314 324.56707410636324 263.69313148405706 324.2046905389309 260.1189840227827 323.8423069714985 260.1197509765625 323.83233642578125 Z" fill="hsl(0, 0%, 0%)"></path><path d="M 362.63079590686436 469.4518681232573 Q 362.63079590686436 469.4518681232573 366.4545039880161 467.7231726410856 370.2782120691678 465.9944771589139 373.8398110075019 464.45298793161976 377.40140994583595 462.91149870432554 382.76513938082223 460.32578637255153 388.1288688158086 457.7400740407775 394.53808951506267 454.1691909489426 400.94731021431676 450.59830785710784 405.6052785941596 447.71761589101334 410.26324697400247 444.8369239249189 413.624442406151 442.52123594923466 416.9856378382995 440.20554797355044 419.79008585557887 437.57945549163037 422.5945338728582 434.95336300971036 424.5862417367737 432.978842337363 426.57794960068907 431.00432166501565 427.57891847119095 429.0262937408554 428.5798873416929 427.04826581669516 429.1824096883878 425.3572125055705 429.78493203508265 423.66615919444587 429.6553575663167 421.0021417019003 429.52578309755074 418.33812420935476 427.97999139343455 415.8293492749541 426.43419968931835 413.32057434055343 424.470983898139 411.58831664987304 422.50776810695965 409.85605895919264 420.3665576025451 408.8941900262398 418.2253470981305 407.93232109328693 415.7064246098876 407.17475825662746 413.18750212164474 406.41719541996804 411.28760645062766 406.21666388557543 409.3877107796106 406.0161323511828 407.7760773989387 406.0012607700877 406.16444401826686 405.9863891889925 403.69267025723667 406.0990802868537 401.2208964962065 406.2117713847149 398.6294227504636 407.98617883568426 396.0379490047208 409.7605862866536 394.676390179994 410.9676768866718 393.3148313552671 412.17476748669 392.3179704622513 413.90083133181645 391.3211095692355 415.62689517694287 390.87705186760536 417.86535953909186 390.4329941659752 420.1038239012409 390.2254513584085 422.4414107495003 390.01790855084187 424.77899759775966 390.85928240689896 428.9671873940788 391.70065626295604 433.15537719039787 392.355449358916 435.81898491289485 393.010242454876 438.48259263539177 394.8331686341715 441.77755151037434 396.656094813467 445.0725103853569 398.5074957202032 447.6087108045615 400.35889662693944 450.14491122376603 402.49925632652275 452.33492556369987 404.63961602610607 454.5249399036337 406.22691249846434 455.8970273531876 407.8142089708226 457.2691148027415 409.35999552384504 458.95808713822544 410.90578207686747 460.6470594737094 412.16851043021836 461.8281008195619 413.43123878356926 463.0091421654144 414.56616774885026 464.0058350229275 415.70109671413127 465.0025278804406 417.0281872189472 466.2271406850972 418.3552777237631 467.45175348975386 419.5149120860058 468.48006742931943 420.6745464482484 469.50838136888495 422.4349681161835 471.00559135051276 424.19538978411856 472.5028013321405 425.2623203381743 474.1665658805941 426.32925089223 475.83033042904765 426.1781587715052 478.8652470063927 426.02706665078034 481.90016358373765 423.74757980958395 483.66047749732985 421.4680929683876 485.42079141092205 418.70748465780264 486.54395242611935 415.94687634721765 487.66711344131664 411.92293370860943 488.5281512401764 407.8989910700013 489.38918903903607 404.51626929619897 489.66710602287094 401.1335475223967 489.9450230067058 398.3275012687315 490.06883336345265 395.5214550150663 490.19264372019956 392.0685808782831 489.6015642701304 388.6157067415 489.0104848200612 385.77850099630473 488.19342449826377 382.9412952511095 487.37636417646627 380.3364697355371 486.2001617759824 377.7316442199646 485.0239593754985 375.7394047192609 484.0785454832935 373.7471652185572 483.1331315910885 371.9873222013227 481.91632800989646 370.22747918408817 480.6995244287045 368.82337496669186 479.0281046322184 367.41927074929555 477.3566848357323 366.47455497169017 476.13278045219835 365.52983919408473 474.90887606866437 364.989254923152 473.3849504803175 364.44867065221916 471.86102489197066 364.0139033171536 469.53824968417376 363.5791359820881 467.21547447637687 364.13617767131217 465.24583789352624 364.69321936053626 463.2762013106756 366.6000572602958 461.43020059650735 368.5068951600553 459.584199882339 372.6175712080775 458.19854844422207 376.7282472560996 456.81289700610506 380.65506974348807 456.0827852700128 384.58189223087646 455.3526735339205 388.75611243796084 455.10535482093906 392.93033264504527 454.85803610795756 398.03063876951194 455.3520555659923 403.13094489397866 455.8460750240271 406.92883311276654 456.3640441037469 410.7267213315544 456.88201318346665 413.7169581018246 457.4008061818291 416.7071948720949 457.91959918019165 419.128122971622 458.5941665381472 421.54905107114917 459.26873389610273 423.43141123380065 459.7226929526496 425.31377139645207 460.1766520091964 427.0348518468702 460.8820374793835 428.7559322972884 461.58742294957057 430.1391684603956 462.4153785190125 431.5224046235027 463.24333408845445 433.7863496737972 464.5717958425829 436.0502947240916 465.90025759671136 437.50315486082144 466.9737821849237 438.9560149975513 468.04730677313603 439.23343115805096 468.2425647727058 439.5108473185507 468.4378227722755 439.6846700151924 468.6469551502165 439.8584927118342 468.8560875281575 439.9772139009141 469.1007423066403 440.095935089994 469.3453970851232 440.15265469042464 469.61135491692744 440.2093742908553 469.87731274873175 440.2007957567948 470.149116152177 440.19221722273426 470.4209195556222 440.11883913898515 470.6827713041296 440.04546105523605 470.9446230526369 439.91154815947357 471.1813043102801 439.77763526371103 471.41798556792327 439.5909705797287 471.6157404088876 439.40430589574635 471.8134952498519 439.17573838374767 471.96083015348904 438.94717087174894 472.10816505712626 438.68998488627045 472.1965169119144 438.43279890079197 472.28486876670246 438.16194210339347 472.30910255869003 437.89108530599503 472.33333635067765 437.62229990646756 472.2920436107358 437.35351450694014 472.2507508707939 437.102422325333 472.14633153490814 436.8513301437259 472.04191219902236 436.63252466943163 471.8804351239005 436.41371919513745 471.7189580487786 428.2707556906105 467.8689361884805 420.1277921860836 464.01891432818246 413.625695792221 459.7409297641252 407.12359939835835 455.462945200068 395.59741500965333 447.8063870745967 384.07123062094826 440.1498289491255 375.07250244164186 434.09953249034857 366.0737742623354 428.0492360315717 358.1335559188648 422.4130503007172 350.1933375753942 416.7768645698627 342.15549496664255 411.05408420783033 334.11765235789085 405.33130384579795 328.23419189569347 400.9501384105604 322.35073143349615 396.5689729753228 317.9338578804484 393.3174532990754 313.5169843274006 390.0659336228279 309.16932166278866 387.0214123896009 304.8216589981767 383.97689115637394 301.871353012686 381.2951111268414 298.92104702719524 378.61333109730884 296.5712017938341 376.3693730004077 294.22135656047305 374.1254149035065 292.12250481268416 371.51392034423753 290.0236530648953 368.90242578496856 288.81419048016585 366.71117367415627 287.60472789543644 364.519921563344 286.8326486697361 361.9161032133948 286.06056944403576 359.31228486344565 285.7071532785062 357.6597193564418 285.3537371129767 356.007153849438 285.15559770246216 354.05209832556875 284.9574582919476 352.0970428016995 284.5977539021369 350.06239529757664 284.2380495123262 348.0277477934538 284.24208012587025 348.0247890514139 284.2461107394143 348.02183030937397 284.25014135295834 348.01887156733403 284.2541719665024 348.01591282529415 284.7659680982932 350.0466498546279 285.27776423008396 352.07738688396165 285.47734101549776 354.01016660746245 285.67691780091155 355.94294633096325 285.98020536446916 357.5944277262116 286.2834929280267 359.24590912146 287.05659894723715 361.8238559005462 287.8297049664476 364.40180267963245 288.95976157585574 366.6255504789356 290.0898181852638 368.8492982782388 292.1994654001286 371.4411130490669 294.3091126149933 374.03292781989506 296.6766921294661 376.25466187090154 299.0442716439389 378.476395921908 302.00886284200027 381.1172010761012 304.97345404006165 383.75800623029437 309.3582707606918 386.7560782947125 313.743087481322 389.7541503591306 318.20716194754795 392.9431086367862 322.6712364137739 396.1320669144417 328.6104835210533 400.42378941819004 334.5497306283328 404.7155119219384 342.66396117823047 410.32592728778184 350.7781917281282 415.9363426536253 358.806937601011 421.4117225543077 366.8356834738938 426.8871024549901 375.9674965286083 432.72314113050504 385.09930958332274 438.5591798060199 396.7897712881089 445.908154674034 408.480232992895 453.2571295420481 415.12613315173223 457.0654005882367 421.7720333105695 460.8736716344253 428.6862626882073 464.1565475249217 435.6004920658451 467.43942341541805 437.5555876560735 467.9385456738469 439.51068324630194 468.4376679322757 439.6845268553123 468.6467829269014 439.85837046432266 468.85589792152706 439.97711611828674 469.1005408266677 440.0958617722509 469.34518373180845 440.1526079681811 469.6111358903229 440.2093541641113 469.8770880488373 440.20080281043397 470.14889230877696 440.1922514567566 470.4206965687166 440.1188995585492 470.68255565372306 440.0455476603418 470.9444147387295 439.91165843337455 471.18110938647885 439.77776920640736 471.41780403422814 439.5911242988424 471.615577540672 439.40447939127745 471.81335104711593 439.17592661391194 471.96070880676757 438.94737383654643 472.10806656641927 438.69019668753936 472.19644413936413 438.4330195385322 472.284821712309 438.16216516586724 472.3090825898551 437.89131079320225 472.3333434674012 437.6225212657447 472.29207760620574 437.3537317382872 472.25081174501025 437.102629116002 472.1464175188647 436.8515264937168 472.04202329271914 436.6327048728091 471.88056809895204 436.4138832519014 471.7191129051849 435.7090968218857 470.86621260392315 435.00431039187 470.0133123026614 433.5450210602771 468.4841233984374 432.08573172868427 466.95493449421343 429.9493139312102 465.20926772897974 427.8128961337362 463.46360096374605 426.3217604969385 462.5629871148394 424.83062486014086 461.6623732659328 423.04350319361254 460.92997327146406 421.25638152708416 460.1975732769953 418.9319496930633 459.3769183676256 416.60751785904245 458.5562634582559 413.6171275970214 458.1493492921169 410.6267373350004 457.7424351259779 406.8336984948125 457.37852178336425 403.04065965462456 457.0146084407505 398.05734956323374 456.72982122835907 393.074039471843 456.4450340159676 389.0768811344924 456.9576918958942 385.07972279714187 457.4703497758207 381.44583453774396 458.5284182583355 377.811946278346 459.58648674085026 374.5025661919261 461.11210737615625 371.1931861055062 462.6377280114622 369.40748569001386 464.86260573800234 367.6217852745215 467.0874834645426 367.60203998617084 469.0799716358184 367.58229469782015 471.0724598070943 368.39469456189 473.5343582106824 369.20709442595984 475.9962566142705 370.3007111589201 477.6056858392248 371.3943278918803 479.2151150641791 372.9190124698092 480.5330304867897 374.4436970477381 481.85094590940037 376.29104281230866 482.98090306187345 378.1383885768792 484.11086021434653 380.67920766238854 485.2254209250767 383.2200267478979 486.3399816358069 386.00904222916824 487.0242372052853 388.7980577104385 487.70849277476367 392.1022146189234 488.0574584279032 395.4063715274084 488.40642408104276 398.1293703457895 488.1496423926052 400.85236916417057 487.8928607041677 403.99798737204435 487.27526699345094 407.1436055799181 486.6576732827342 410.70307426940326 485.4116270944137 414.2625429588885 484.1655809060932 416.3829410389691 482.92336012183614 418.50333911904966 481.68113933757905 420.3590278792049 480.02451750114164 422.2147166393602 478.3678956647042 421.68289561085885 476.8609009860317 421.1510745823575 475.35390630735924 419.7026470426549 473.63158324730455 418.2542195029523 471.9092601872499 417.23096871706423 470.7370066845501 416.2077179311762 469.5647531818503 414.991070963713 468.2040231162639 413.77442399624977 466.84329305067746 412.8127619910257 465.6455411721408 411.8510999858016 464.4477892936041 410.7731359906984 463.05789413677985 409.69517199559516 461.66799897995554 408.32591001675405 459.9001718324637 406.95664803791294 458.1323446849719 405.5736804583911 456.55571204475746 404.19071287886925 454.9790794045431 401.9346788620572 452.82339170363883 399.6786448452451 450.6677040027346 397.66676778360164 448.1636489019065 395.65489072195817 445.6595938010784 393.57267684582894 442.28005367557057 391.4904629696997 438.9005135500627 390.73407985815754 436.22922795856107 389.9776967466154 433.55794236705947 388.79486679067304 429.0821569714334 387.6120368347307 424.6063715758074 387.8265872808694 422.112911700602 388.04113772700805 419.61945182539665 388.59024062233163 416.97188397286754 389.1393435176553 414.3243161203385 390.4793310880601 412.3312222067784 391.8193186584649 410.3381282932184 393.36376393022863 409.2754372959365 394.9082092019924 408.2127462986547 397.8581813599867 405.9427019616295 400.80815351798094 403.6726576246043 403.59768737224664 403.34263228541033 406.38722122651234 403.0126069462163 408.08149446478114 403.2522604247614 409.77576770305 403.49191390330657 411.76580217115355 403.89026486218523 413.7558366392571 404.2886158210639 416.50097599030534 404.94018826268984 419.2461153413536 405.59176070431585 421.7135440653032 406.64929339697017 424.18097278925285 407.70682608962454 426.5804774595739 409.42984955329104 428.9799821298949 411.1528730169575 430.33333184436634 412.9602249851865 431.6866815588378 414.7675769534155 431.94418210717595 416.43768287790647 432.2016826555141 418.1077888023974 431.7061307621063 421.21216608593335 431.21057886869846 424.3165433694693 430.299153542078 425.9191800510299 429.38772821545757 427.5218167325905 428.1227193487698 429.40497394459686 426.8577104820821 431.28813115660324 424.81391681708624 433.2138262285909 422.77012315209043 435.13952130057856 419.9679884129242 437.80169208198356 417.165853673758 440.4638628633885 413.8162262253912 442.8137586432071 410.46659877702433 445.1636544230257 405.81557350820526 448.07588083499854 401.16454823938614 450.9881072469714 394.74385389387953 454.5664837924089 388.3231595483729 458.14486033784647 382.94230451165663 460.7148730889468 377.5614494749404 463.284885840047 373.98891331958555 464.8008737436427 370.41637716423065 466.3168616472384 366.527525736105 467.89355633230304 362.6386743079794 469.4702510173677 362.6347351074219 469.4610595703125 Z" fill="hsl(0, 0%, 0%)"></path></svg>