<svg xmlns="http://www.w3.org/2000/svg" version="1.1" xmlns:xlink="http://www.w3.org/1999/xlink" viewBox="0 0 800 800" style="overflow: hidden; display: block;" width="800" height="800"><defs></defs><g id="two-0" transform="matrix(1 0 0 1 0 0)" opacity="1"></g><path d="M 516.7448057141053 394.7684124904678 Q 516.7448057141053 394.7684124904678 508.7874152649939 381.0329613732446 500.8300248158826 367.2975102560213 495.760358685573 351.95001065290376 490.69069255526347 336.6025110497862 488.2514899821241 326.97779817657715 485.81228740898473 317.3530853033682 483.5627568888907 309.7409319819117 481.3132263687967 302.12877866045517 476.95759782422317 291.3625365641344 472.60196927964967 280.5962944678137 469.78087558851826 275.65745428559137 466.9597818973868 270.7186141033691 463.4250573202065 265.11917859481326 459.8903327430262 259.51974308625745 455.81128878377814 255.08648266869972 451.7322448245301 250.65322225114198 446.60975630617054 246.9232083539615 441.487267787811 243.19319445678101 436.17206296728136 242.22517569621175 430.8568581467517 241.25715693564248 430.1422001420834 248.13100099752938 429.4275421374151 255.00484505941625 428.8101794458937 261.02091704211057 428.19281675437236 267.03698902480494 428.4670709916562 267.79571511784536 428.74132522894 268.5544412108858 430.14774521158836 268.9621582043269 431.55416519423665 269.369875197768 432.8221384708754 270.10233276245225 434.0901117475142 270.8347903271365 435.1459436517296 271.84941799499006 436.20177555594506 272.8640456628436 436.9841010878562 274.1018732261387 437.76642661976734 275.33970078943383 438.229776982702 276.7287856520328 438.6931273456367 278.1178705146317 438.8105725947308 279.5774789990543 438.9280178438249 281.03708748347685 438.6927320556829 282.48238707602906 438.4574462675409 283.92768666858126 437.8831042632244 285.27467648903684 437.30876225890796 286.6216663094924 436.4287448226933 287.79205924619845 435.5487273864787 288.9624521829045 434.41418117310604 289.88822494338893 433.2796349597334 290.8139977038734 431.95649984843044 291.44134433179966 430.63336473712747 292.06869095972587 429.1985414027303 292.3611500396031 427.76371806833316 292.65360911948034 426.3005985104519 292.59418291584495 424.8374789525706 292.5347567122096 419.8535220862659 287.06865118850095 414.86956521996126 281.6025456647923 406.01535419905406 276.43487268444903 397.16114317814686 271.26719970410585 392.5854942903426 268.12622420762557 388.00984540253825 264.9852487111453 379.3527780361987 259.5566083781657 370.6957106698591 254.1279680451862 362.674363284652 248.16666882197362 354.6530158994448 242.20536959876102 348.2881284986387 236.99043169456837 341.9232410978325 231.7754937903757 338.21121016378413 227.46951476291397 334.49917922973583 223.16353573545226 328.4779698804973 217.45956761206875 322.4567605312588 211.75559948868525 317.387882925174 208.00782169166928 312.3190053190892 204.26004389465334 306.90692118400386 206.20795318553564 301.49483704891855 208.15586247641798 295.6063264568438 216.87274718324164 289.7178158647691 225.58963189006528 286.55407819578573 232.0872386980592 283.3903405268024 238.58484550605314 280.77157656902034 246.1115889405241 278.15281261123823 253.63833237499506 277.1524688638016 260.2431936290793 276.1521251163649 266.8480548831636 277.0185251987974 275.2561394446195 277.8849252812299 283.6642240060755 281.04976136516746 290.0041849629887 284.21459744910504 296.34414591990196 290.8656221050653 301.45044642114453 297.5166467610255 306.55674692238705 307.0988469504764 309.24040049820485 316.68104713992733 311.92405407402265 321.87003203012534 312.443476805835 327.0590169203234 312.9628995376474 333.7711955871817 314.0143085175976 340.48337425404 315.06571749754784 345.45485132214657 315.9434959387763 350.42632839025316 316.8212743800048 356.93429212413946 317.7296341135575 363.4422558580258 318.6379938471102 368.63837995654626 319.6253004197 373.8345040550667 320.6126069922898 375.0094997915622 321.0697949354802 376.18449552805765 321.5269828786707 377.2159302098838 322.2520885904862 378.24736489171005 322.97719430230165 379.07529148669744 323.9280746047025 379.90321808168477 324.8789549071033 380.4795174572327 326.00034459223707 381.05581683278064 327.12173427737076 381.34699444210503 328.34845812404916 381.63817205142936 329.57518197072756 381.62730463819526 330.8359427313443 381.6164372249612 332.096703491961 381.30415640373644 333.3182256918725 380.99187558251174 334.5397478917839 380.39633112929835 335.65103660333824 379.80078667608495 336.76232531489256 378.9565916624852 337.69879238596053 378.11239664888546 338.6352594570285 377.06861572875414 339.34247737744 376.0248348086228 340.04969529785143 374.8421325780798 340.48656052884354 373.6594303475368 340.92342575983565 372.4065455157902 341.06454767365716 371.15366068404364 341.20566958747867 369.90341097638117 341.04284617186767 368.6531612687187 340.88002275625666 371.21438825412747 330.8576506152732 373.7756152395362 320.8352784742897 374.9343686083407 321.28614655226994 376.0931219771452 321.7370146302502 377.1102987848097 322.4520969579628 378.1274755924742 323.1671792856754 378.94395747514534 324.10491524463566 379.76043935781655 325.0426512035959 380.3287723501113 326.1485395358097 380.8971053424061 327.25442786802347 381.18425790410936 328.46419429166264 381.4714104658126 329.6739607153018 381.46069327654624 330.91729354898376 381.4499760872799 332.1606263826657 381.1420120305877 333.36526306367915 380.83404797389545 334.5698997446926 380.246735935222 335.66582673253737 379.65942389654845 336.76175372038216 378.82689847917607 337.68527568703286 377.99437306180374 338.60879765368355 376.9650206821062 339.30623945904694 375.93566830240877 340.0036812644103 374.7693149690581 340.4345075579895 373.60296163570746 340.86533385156866 372.3673958592388 341.0045049889385 371.13183008277014 341.1436761263084 369.8988630041647 340.98310347442606 368.66589592555925 340.82253082254374 360.17637045304457 337.01919980112666 351.6868449805298 333.2158687797095 345.3349645249229 330.9609392537808 338.98308406931596 328.7060097278521 333.52855788618865 327.25253046940014 328.0740317030614 325.79905121094816 322.78637327539957 324.9403439901038 317.49871484773774 324.0816367692595 310.4572271268537 323.9308886171466 303.41573940596965 323.78014046503364 298.1674052325725 325.47243223290053 292.9190710591753 327.1647240007674 290.3521546787194 333.3008020055581 287.7852382982635 339.4368800103488 285.47966211411045 348.87187938228675 283.1740859299574 358.3068787542247 283.31964870359957 366.05223597252 283.4652114772418 373.7975931908153 285.3074454707007 380.6118868008581 287.1496794641597 387.42618041090094 290.9557091955955 393.3519609651262 294.7617389270313 399.2777415193515 299.88303508914123 403.773401718675 305.0043312512512 408.2690619179986 313.1360222504364 413.51657296216405 321.2677132496216 418.7640840063295 333.00765961447047 423.40569273057906 344.74760597931936 428.04730145482864 354.5942370275304 431.4695890051163 364.44086807574143 434.89187655540394 372.0088034082672 436.5594579040591 379.576738740793 438.2270392527143 386.9660752346591 439.4157486755713 394.35541172852516 440.6044580984283 401.15712568205174 441.53361401369534 407.9588396355784 442.46276992896236 413.38888894624694 443.2065032462781 418.8189382569155 443.9502365635939 427.6042902848028 444.95173259868113 436.38964231269017 445.95322863376833 443.02049804037404 445.91276138689426 449.6513537680579 445.8722941400202 455.06883348334225 445.6322288661271 460.48631319862665 445.39216359223406 465.86802469521666 445.3061341164517 471.2497361918067 445.2201046406693 478.0953099643168 445.06403969226415 484.940883736827 444.90797474385903 491.7867843223702 444.6266117519682 498.6326849079133 444.3452487600774 504.79876239781925 444.746775181742 510.96483988772513 445.14830160340665 515.8962715184856 446.6529941226784 520.8277031492461 448.1576866419502 520.8277094742001 448.1626866379497 520.8277157991541 448.1676866339492 520.8277221241082 448.17268662994866 520.8277284490622 448.1776866259482 514.549144517725 450.33489637170754 508.27056058638794 452.4921061174669 502.489038589221 454.8890205201135 496.7075165920541 457.2859349227601 489.4081863310249 458.96794147845594 482.1088560699958 460.64994803415186 476.66107949109426 461.1099836050185 471.2133029121928 461.57001917588514 465.76045772289723 461.44721902463067 460.3076125336017 461.3244188733762 454.65888055394214 460.8807789255891 449.01014857428265 460.4371389778019 441.37561576442437 459.26961471282914 433.7410829545661 458.10209044785637 425.29964581212926 455.6972056490713 416.8582086696925 453.29232085028616 411.7138375103321 451.8165114203507 406.5694663509717 450.3407019904153 399.82371577943024 448.8808268752706 393.0779652078887 447.4209517601259 385.5912018082122 445.8217929037052 378.1044384085356 444.22263404728454 370.50349547305206 442.16390653109517 362.9025525375685 440.1051790149058 352.6413019303533 437.5930622048975 342.380051323138 435.08094539488917 329.47442589017766 431.42601215006005 316.5688004572173 427.7710789052309 306.3782889007807 423.4141489421891 296.1877773443441 419.0572189791473 289.36524320267023 413.7044511623169 282.54270906099634 408.35168334548644 276.66262778065663 401.02152631115075 270.7825465003169 393.6913692768151 266.834218278569 384.8988181242513 262.885890056821 376.10626697168755 262.50521967929785 370.94868240265635 262.1245493017748 365.79109783362514 262.55169617638694 360.4859940751143 262.9788430509991 355.1808903166035 263.86061103245777 348.5108182588309 264.74237901391643 341.8407462010583 266.25654900844546 336.89151499928835 267.7707190029745 331.94228379751837 273.3494657024229 321.79471936952245 278.92821240187135 311.6471549415266 285.7772700260253 308.7371613171902 292.62632765017923 305.82716769285383 298.4386644048163 305.40637542627167 304.2510011594533 304.9855831596895 312.2655816533522 305.9540520217963 320.28016214725113 306.9225208839031 326.38185555454965 307.91185001264756 332.48354896184816 308.90117914139205 338.24390106226724 310.3793301034799 344.00425316268627 311.85748106556775 351.2900649028548 313.66712379568867 358.5758766430233 315.47676652580964 366.17524624719886 318.15589480703545 373.77461585137434 320.8350230882613 374.9334143011928 321.2857752886506 376.09221275101123 321.7365274890398 377.1094610618225 322.45150809549637 378.1267093726338 323.16648870195297 378.9432850248183 324.10414300803643 379.7598606770028 325.04179731411983 380.32830425528897 326.14762880750504 380.89674783357515 327.25346030089025 381.18402137048474 328.4631980032244 381.4712949073944 329.67293570555864 381.46070205146475 330.91626960474287 381.45010919553516 332.1596035039271 381.14226560405064 333.36427097532294 380.83442201256616 334.56893844671885 380.24721956952783 335.6649241602878 379.6600171264895 336.7609098738567 378.8275840654763 337.68451508843134 377.9951510044631 338.60812030300605 376.9658683740928 339.30566504012 375.9365857437225 340.00320977723396 374.7702754988329 340.43415270399214 373.6039652539433 340.8650956307504 372.36841340076614 341.0043903240018 371.1328615475891 341.14368501725323 369.8998784178833 340.98323566288144 368.6668952881775 340.82278630850965 371.25019297327674 330.71756716749917 373.83349065837604 320.61234802648863 375.00853210779076 321.0694184678197 376.18357355720553 321.52648890915077 377.2150807444456 322.2514914738727 378.2465879316856 322.97649403859464 379.07460961056347 323.9272915435817 379.9026312894413 324.87808904856877 380.47904280107605 325.9994210981581 381.0554543127108 327.1207531477474 381.34675459296375 328.34744787053125 381.6380548732167 329.5741425933152 381.6273135361128 330.83490443436943 381.61657219900894 332.0956662754237 381.3044135315654 333.3172196973096 380.9922548641218 334.53877311919547 380.3968215427571 335.65012137963856 379.8013882213924 336.76146964008166 378.95728685872064 337.6980211259685 378.1131854960488 338.6345726118554 377.0694753029283 339.34189490682263 376.0257651098078 340.0492172017898 374.84310657170136 340.48620070082046 373.66044803359483 340.9231841998511 372.40757732030403 341.06443140144995 371.1547066070132 341.20567860304885 369.9044406232605 341.04298021322256 368.65417463950774 340.8802818233962 366.56174263078003 340.2018760418654 364.4693106220524 339.5234702603345 359.12839312577285 337.5444518417313 353.78747562949326 335.56543342312807 346.06977944513847 333.59920847678757 338.3520832607836 331.6329835304471 331.8095893744803 330.98241982862277 325.267095488177 330.3318561267984 319.1022839757154 329.6800184584794 312.93747246325375 329.02818079016043 306.0030854366706 327.63040107181644 299.0686984100874 326.2326213534725 293.34669157717974 323.9070423835142 287.62468474427214 321.5814634135558 282.5893798056992 318.04199366905516 277.5540748671263 314.50252392455445 271.131638783335 305.2399688401828 264.70920269954365 295.9774137558112 262.8617698700142 286.03169258422747 261.01433704048475 276.08597141264374 261.2890186419696 270.55607858436514 261.5637002434545 265.02618575608653 262.347394190597 257.4215543354127 263.13108813773954 249.81692291473877 264.7100599319084 240.90985316227875 266.2890317260773 232.0027834098187 268.75224754973596 223.91637600672044 271.2154633733946 215.8299686036222 274.32922422810964 209.1889949098947 277.44298508282463 202.54802121616717 281.9993923354533 195.85026602063283 286.55579958808204 189.15251082509846 290.94264890679995 186.03310933975658 295.3294982255179 182.9137078544147 304.9012056285926 181.58655857739478 314.47291303166736 180.2594093003749 320.2943623611996 183.40906989179126 326.11581169073185 186.55873048320763 331.3053780468084 190.98689803653895 336.494944402885 195.4150655898703 340.5890839640394 198.93585100950384 344.6832235251938 202.45663642913735 350.62036499571536 209.05483973825443 356.5575064662369 215.65304304737148 362.22613040377894 220.6787671800709 367.89475434132095 225.70449131277036 374.7439102338486 230.8547468049152 381.5930661263763 236.00500229706006 390.6795787958915 241.25935849463656 399.76609146540665 246.51371469221309 404.6298559253114 249.38056583652713 409.4936203852162 252.24741698084117 415.472849519747 255.58475201605984 421.45207865427784 258.92208705127854 425.6616591921361 261.96318861764837 429.87123972999433 265.0042901840182 434.2400074290689 271.69154493237966 438.6087751281434 278.37879968074105 433.67445066089704 273.4665229096077 428.7401261936507 268.55424613847435 430.14658694096624 268.96182248787886 431.5530476882817 269.36939883728337 432.82109420433693 270.1017296009779 434.08914072039215 270.8340603646724 435.1450740820951 271.84858244426255 436.201007443798 272.8631045238527 436.98345675455363 274.1008538484056 437.76590606530925 275.3386031729585 438.2293953344132 276.72764169357583 438.6928846035172 278.1166802141931 438.81047581287226 279.57627694679275 438.9280670222273 281.0358736793924 438.6929257652207 282.48119679329693 438.45778450821416 283.9265199072014 437.8835772057513 285.27356715512235 437.30936990328837 286.6206144030433 436.42946951076726 287.7910953356409 435.54956911824615 288.9615762682384 434.41511548782216 289.88746247871507 433.2806618573981 290.8133486891918 431.9575894873735 291.44082762749224 430.63451711734893 292.0683065657927 429.19972303603384 292.36090912654083 427.76492895471875 292.653511687289 426.3018034615327 292.5942317959063 424.8386779683467 292.5349519045236 424.200822223013 292.42041025480455 423.5629664776793 292.30586860508544 418.73151271141984 290.2633674028938 413.90005894516037 288.2208662007022 410.65982366820407 283.9471305235917 407.41958839124777 279.67339484648124 407.3506210636659 272.22503657651987 407.28165373608414 264.77667830655855 408.74981944428475 257.1790108115136 410.2179851524853 249.58134331646863 413.90365409102145 241.13544587523913 417.5893230295576 232.68954843400962 421.64346305446804 229.01140880158886 425.69760307937855 225.3332691691681 433.30873874443887 225.9193672283264 440.9198744094992 226.50546528748472 445.2488557390383 229.23111484401485 449.5778370685773 231.95676440054498 454.87754085011807 237.67639036205225 460.1772446316588 243.39601632355954 464.5087926609265 248.74997419389732 468.8403406901941 254.1039320642351 472.3449876145994 260.1997206521981 475.84963453900474 266.2955092401611 478.25824309425127 271.8745148899362 480.66685164949774 277.4535205397114 483.9024969273502 288.99770638095526 487.1381422052027 300.54189222219907 489.04732126274064 308.1949299229241 490.95650032027856 315.8479676236491 494.0524249472658 325.1410640489554 497.1483495742531 334.43416047426166 502.2691309460797 349.43220602953033 507.3899123179064 364.430251584799 512.0765205870568 379.5953238440406 516.7631288562072 394.7603961032822 516.7539672851562 394.764404296875 Z" fill="hsl(0, 0%, 0%)"></path><path d="M 492.6606212171594 289.00226626929884 Q 492.6606212171594 289.00226626929884 494.37663891800344 278.9642380753264 496.0926566188475 268.92620988135405 498.75661831954403 259.97773172290334 501.4205800202405 251.02925356445263 502.4301277630982 244.82396667872166 503.43967550595585 238.61867979299072 503.98225107368626 232.20000490293 504.5248266414166 225.78133001286932 505.5801844767642 217.63449271790796 506.6355423121118 209.4876554229466 506.9169002283843 202.51881524225865 507.19825814465673 195.5499750615707 507.7161332044281 186.61406373361254 508.2340082641995 177.67815240565437 507.66533792548717 170.10416881639898 507.09666758677486 162.5301852271436 506.1442767600379 155.4337401682253 505.1918859333009 148.337295109307 503.50514848418493 140.36342820916758 501.8184110350689 132.38956130902818 499.697554466416 125.77401604749818 497.5766978977632 119.15847078596818 495.11516219799955 112.84922830878861 492.65362649823584 106.53998583160906 488.1261454821672 99.17253666968948 483.5986644660985 91.8050875077699 480.40020755296393 87.27413263486034 477.20175063982936 82.74317776195078 473.35741606055046 78.94257521440892 469.5130814812715 75.14197266686706 469.4777062220592 74.98121402549907 469.44233096284694 74.82045538413107 468.80475587596135 73.93692542658926 468.16718078907576 73.05339546904743 467.75958280678776 72.0429544454712 467.3519848244998 71.03251342189498 467.19805356069094 69.95388821204997 467.044122296882 68.87526300220496 467.1528042438372 67.79114335396633 467.2614861907924 66.70702370572772 467.62646474864823 65.68041870398827 467.9914433065041 64.6538137022488 468.59150590432955 63.74438967794443 469.19156850215506 62.83496565364007 469.99183947357074 62.09557837379246 470.79211044498635 61.356191093944865 471.74607800353294 60.82981378199874 472.70004556207954 60.3034364700526 473.7522650684324 60.02066220010998 474.80448457478525 59.73788793016736 475.89380098179674 59.71515155608341 476.9831173888083 59.692415181999465 478.0462195757217 59.9310381429042 479.1093217626351 60.16966110380894 480.0844221803973 60.65577462200294 481.05952259815956 61.14188814019693 481.8899483646753 61.847239275162806 482.72037413119114 62.55259041012867 489.3033447948744 63.00486754699703 495.8863154585577 63.457144683865394 500.61662786400814 65.48905906963975 505.3469402694585 67.5209734554141 512.3459164396859 70.21063497891026 519.3448926099134 72.90029650240643 525.4802409335543 75.3843997065934 531.6155892571954 77.86850291078035 538.2571980859789 79.41199377986146 544.8988069147622 80.95548464894257 552.0371159686416 82.46193964859579 559.175425022521 83.968394648249 565.5238668885238 84.20186375231432 571.8723087545266 84.43533285637966 578.2315653053537 84.39541241002198 584.5908218561808 84.35549196366429 590.9016110666097 84.23208720914766 597.2124002770386 84.10868245463105 602.5857007244326 83.17618755619725 607.9590011718268 82.24369265776343 613.3713501858051 81.16842429449997 618.7836991997834 80.09315593123651 622.8095701013893 79.22894258974901 626.8354410029953 78.36472924826151 628.4970579908359 78.46869067596111 630.1586749786766 78.57265210366073 631.7471249632204 79.07125579331097 633.335574947764 79.56985948296119 634.7585371412763 80.43412656469276 636.1814993347884 81.29839364642433 637.3562711077245 82.47809287683961 638.5310428806607 83.65779210725488 639.3893464423813 85.08435931165417 640.247650004102 86.51092651605347 640.7396007112726 88.10144954149014 641.2315514184432 89.69197256692681 641.328557072849 91.35401014043205 641.4255627272547 93.01604771393731 641.1219853557037 94.65300213364853 640.8184079841527 96.28995655335974 640.1318915177429 97.80668795149131 639.4453750513331 99.3234193496229 638.4158198593483 100.63177522605213 637.3862646673634 101.94013110248135 636.073508545935 102.9640697521973 634.7607524245066 103.98800840191328 633.2410928210916 104.66801846248494 631.7214332176767 105.3480285230566 630.0831928198265 105.6445877778134 628.4449524219765 105.94114703257019 623.1004324889432 109.79717169189983 617.75591255591 113.65319635122948 611.0242496862454 114.29660479843582 604.2925868165808 114.94001324564216 597.4889845883285 114.19407398437914 590.6853823600763 113.44813472311611 583.0784498076551 109.28779422432729 575.471517255234 105.12745372553846 572.057329487696 101.12278329694121 568.6431417201582 97.11811286834397 564.1643486785379 89.32529301959417 559.6855556369176 81.53247317084436 558.7138023150592 75.76171710131203 557.7420489932007 69.99096103177972 557.9025828925851 63.37375522228318 558.0631167919696 56.75654941278665 559.615084112558 51.74729498504041 561.1670514331462 46.738040557294184 565.9401384986934 40.84656744177959 570.7132255642407 34.955094326265 575.9864316816338 31.924178673626013 581.2596377990269 28.89326302098703 587.9800297932296 26.73866071523856 594.7004217874323 24.584058409490094 601.7139231328309 24.205985461798413 608.7274244782295 23.82791251410673 616.6257849414214 25.100036510460903 624.5241454046135 26.372160506815074 630.6948862158154 28.674855015938498 636.8656270270174 30.977549525061924 642.344356276567 34.84800358147261 647.8230855261168 38.718457637883304 652.3920988224706 46.31640319389688 656.9611121188244 53.91434874991046 658.94714600165 60.30209511877391 660.9331798844755 66.68984148763737 661.6151536663951 73.58512584688393 662.2971274483149 80.48041020613047 662.3712818753289 86.04209993377376 662.445436302343 91.60378966141704 660.6581633092289 99.55381619755607 658.8708903161149 107.50384273369512 655.8550880920861 113.49524413561696 652.8392858680575 119.4866455375388 647.5365037729658 125.99396793002695 642.2337216778742 132.5012903225151 637.9160097189208 136.23106848286122 633.5982977599673 139.96084664320733 627.1604586290752 145.14496975448196 620.722619498183 150.3290928657566 613.3131437432282 155.14857622948455 605.9036679882734 159.9680595932125 599.0812653029266 164.36484355124344 592.2588626175798 168.7616275092744 586.9171565013303 173.54008103818572 581.5754503850809 178.31853456709703 577.5910354230989 183.70994981416152 573.6066204611168 189.10136506122603 571.7760980710818 194.35632686514572 569.9455756810469 199.61128866906543 569.5159615896428 206.2298028314761 569.0863474982386 212.84831699388673 572.3711142376504 219.23538420788694 575.6558809770622 225.62245142188715 582.0714473513226 232.05996027527434 588.4870137255831 238.49746912866152 596.8755507654231 244.7595543376844 605.2640878052631 251.0216395467073 609.5522732725069 254.07193504296055 613.8404587397507 257.12223053921383 618.285161176063 260.7697547900898 622.7298636123753 264.4172790409657 629.6436625619101 270.63795226754036 636.557461511445 276.858625494115 640.9872858303565 282.3021459798009 645.4171101492681 287.7456664654868 649.2371499657906 293.369536216868 653.0571897823133 298.9934059682492 656.571138963601 306.7985578223657 660.0850881448887 314.6037096764822 662.4123478644689 320.7475838752861 664.739607584049 326.89145807409005 666.434256078669 332.2893342718294 668.1289045732889 337.68721046956864 669.1384110489049 344.333882238708 670.147917524521 350.98055400784733 670.6666531198921 356.6010536033425 671.1853887152631 362.2215531988377 670.6883005915222 368.9965880758009 670.1912124677812 375.77162295276406 669.1182152437348 381.4043056343677 668.0452180196883 387.0369883159713 666.7197756516398 391.9473023325872 665.3943332835912 396.85761634920306 662.7727451133751 402.84702785922707 660.1511569431589 408.836439369251 657.4947944958269 413.75257270147824 654.8384320484951 418.66870603370546 651.0928814223104 424.0970309893653 647.3473307961257 429.5253559450252 643.876355529296 433.9225279982897 640.4053802624665 438.3197000515542 637.2290866591167 442.2439649290275 634.0527930557669 446.16822980650085 628.81686383623 450.62257913651143 623.5809346166932 455.076928466522 619.8222012607604 458.38855688620873 616.0634679048276 461.70018530589545 609.4993643470987 467.43542414218103 602.9352607893697 473.1706629784666 596.7745324819525 480.55800776710873 590.6138041745353 487.9453525557508 586.3343661485212 494.19869922689236 582.054928122507 500.452045898034 577.7207604538728 507.948816534045 573.3865927852387 515.445587170056 569.148446109394 523.4154505341663 564.9102994335491 531.3853138982766 562.5686364587564 537.5368819439602 560.2269734839635 543.6884499896437 558.098113200322 549.640386175897 555.9692529166805 555.5923223621504 553.5917519141025 564.2586912750521 551.2142509115245 572.9250601879537 548.4772995238341 581.955690978953 545.7403481361438 590.9863217699524 543.3086906956391 598.7555945333477 540.8770332551346 606.5248672967429 538.9079298427115 612.0600065926203 536.9388264302884 617.5951458884977 534.7185160195083 624.7807804441932 532.4982056087282 631.9664149998887 532.4932064013135 631.9663259761592 532.4882071938987 631.9662369524297 532.4832079864839 631.9661479287001 532.4782087790692 631.9660589049706 531.2022934076208 626.3196719312639 529.9263780361723 620.673284957557 529.9338199124102 615.5145717296809 529.9412617886481 610.3558585018047 530.7426230485773 603.7074357090142 531.5439843085065 597.0590129162238 533.5296296380577 587.7671700876863 535.515274967609 578.4753272591489 538.4194368793943 569.612257634737 541.3235987911796 560.7491880103252 543.1431541679453 556.0793689943979 544.9627095447111 551.4095499784706 547.3601936111011 545.451849714997 549.7576776774911 539.4941494515235 552.3994742946841 533.2067226970685 555.0412709118772 526.9192959426133 558.2788397052268 518.3711516657725 561.5164084985765 509.8230073889316 564.8552427898578 501.12092732564565 568.1940770811392 492.41884726235963 572.0519270995953 484.6410326344891 575.9097771180514 476.86321800661847 579.9840689696205 471.13201021898686 584.0583608211895 465.40080243135526 590.6863634572397 459.43650222815796 597.31436609329 453.47220202496067 604.7687321183816 447.6903881015347 612.2230981434732 441.90857417810884 616.332210128194 438.3027283618173 620.4413221129148 434.69688254552574 626.768611425601 427.34685134388195 633.095900738287 419.99682014223816 638.6911074028449 410.99667209853965 644.2863140674028 401.9965240548412 646.437407774506 396.8970975899174 648.5885014816091 391.79767112499366 651.0924179567548 383.1924201341182 653.5963344319006 374.58716914324276 653.6750683362969 364.0564221052963 653.7538022406933 353.5256750673499 652.8692313929615 347.9912130094857 651.9846605452298 342.45675095162153 650.6393471163476 337.6101549064804 649.2940336874656 332.76355886133916 647.3018230263792 327.55300790685806 645.3096123652929 322.34245695237695 641.4934830314091 316.1815297463743 637.6773536975254 310.0206025403716 634.1670667400695 305.4502007181958 630.6567797826134 300.8797988960199 626.3389200101783 296.5037453408684 622.0210602377432 292.12769178571693 615.9229343057195 286.3801678188988 609.824808373696 280.6326438520807 605.8328583977825 277.5669463508033 601.8409084218691 274.5012488495259 597.6116718529937 271.672562672514 593.3824352841183 268.84387649550206 587.9823366220314 265.5835297411262 582.5822379599445 262.3231829867504 578.0090382019466 259.13195695583386 573.4358384439489 255.94073092491737 568.906078352853 252.2417869071615 564.3763182617572 248.54284288940562 557.445602379486 240.3143376302305 550.5148864972147 232.08583237105543 548.5092452792389 227.48130288660352 546.5036040612631 222.8767734021516 545.7360216573632 213.3314801818735 544.9684392534632 203.7861869615954 546.8701751825381 194.02990848681173 548.7719111116131 184.27363001202806 553.6539889242978 175.6129722209098 558.5360667369824 166.9523144297915 564.8057481364349 160.1287707076899 571.0754295358875 153.3052269855883 577.3787954356765 148.4139554273822 583.6821613354655 143.52268386917612 590.4964927306833 138.81431002694012 597.310824125901 134.10593618470415 603.1451515446015 129.47020133105366 608.979478963302 124.83446647740318 614.3955185174561 119.76908011879573 619.8115580716103 114.70369376018826 624.578125401345 108.14619572318634 629.3446927310796 101.5886976861844 631.060020840853 96.72212877197285 632.7753489506264 91.85555985776128 632.6106375178651 84.91544206055696 632.4459260851039 77.97532426335262 631.103176520283 72.21258392952709 629.7604269554621 66.44984359570155 625.8149018692411 61.99491357412235 621.86937678302 57.539983552543156 615.8573299552584 55.7406742742252 609.8452831274967 53.941364995907236 604.3898137894003 54.18305693296065 598.9343444513039 54.424748870014064 593.0757554304596 58.44971922933948 587.2171664096154 62.4746895886649 587.1692994599324 67.70662129046693 587.1214325102494 72.93855299226894 590.8310896431612 78.11722690274138 594.5407467760732 83.29590081321382 601.2776428692807 84.48695027180334 608.0145389624882 85.67799973039286 612.8567895696162 84.29020713379116 617.6990401767441 82.90241453718946 622.2665511834517 80.63361219945183 626.8340621901593 78.3648098617142 628.4956895658347 78.4686051271955 630.15731694151 78.57240039267681 631.7458167784803 79.07084523483583 633.3343166154507 79.56929007699485 634.7573652285562 80.43341485818597 636.1804138416616 81.29753963937709 637.3553035786467 82.47712138671676 638.5301933156319 83.65670313405644 639.3886395297811 85.08318450096687 640.2470857439305 86.5096658678773 640.7391955009437 88.10013969029072 641.2313052579568 89.69061351270415 641.3284771156345 91.35264137733378 641.4256489733124 93.01466924196342 641.1222352987209 94.65165401122697 640.8188216241294 96.28863878049052 640.1324568342918 97.80543882268498 639.4460920444542 99.32223886487942 638.4166676932045 100.6306976902859 637.3872433419549 101.93915651569236 636.0745896209551 102.96322643590057 634.7619358999552 103.98729635610876 633.2423443051446 104.66745837924046 631.7227527103338 105.34762040237216 630.0845419766003 105.64434347968566 628.4463312428669 105.94106655699917 629.5225555470834 105.39317603828852 630.5987798512997 104.84528551957786 623.9363799454029 105.65981899560575 617.2739800395061 106.47435247163364 610.6666462148585 107.25994356723832 604.0593123902107 108.04553466284301 597.6595325258386 108.21252745093939 591.2597526614663 108.37952023903577 585.4336919656546 108.17603104377311 579.6076312698427 107.97254184851045 570.9560133762309 107.75480090271 562.3043954826192 107.53705995690956 554.3214425643546 106.22334202822717 546.3384896460899 104.90962409954479 539.0142485389265 102.98325357148781 531.690007431763 101.05688304343084 524.12451891271 98.08664117121178 516.5590303936569 95.11639929899272 510.54892120049294 92.21451228304863 504.5388120073289 89.31262526710456 497.1751692972593 86.01167493905201 489.8115265871897 82.71072461099946 484.6136187841613 79.99411473719158 479.415710981133 77.27750486338371 474.4293277018081 76.04931204416555 469.44294442248327 74.82111922494738 468.80528098579 73.9376530293318 468.1676175490967 73.05418683371622 467.75991852474453 72.04378657499035 467.3522195003923 71.0333863162645 467.1981803748323 69.95477650493896 467.04414124927223 68.87616669361344 467.1527147837194 67.79203618260074 467.2612883181665 66.70790567158804 467.62616421369745 65.68126417712588 467.9910401092284 64.65462268266373 468.59101176165126 63.7451386566468 469.19098341407414 62.835654630629875 469.9911804427606 62.0961873273822 470.79137747144705 61.356720024134525 471.74529238749267 60.830247318064586 472.69920730353834 60.30377461199465 473.75139852720315 60.02089512151544 474.80358975086796 59.738015631036234 475.8929038787955 59.71517032542544 476.98221800672303 59.692325019814646 478.045344050617 59.93084166930776 479.10847009451095 60.169358318800874 480.0836191187494 60.65537432452269 481.05876814298784 61.141390330244505 481.8892644404649 61.84665841910711 482.71976073794195 62.55192650796971 484.38577933243687 65.29529152103689 486.05179792693184 68.03865653410408 488.89148431793 73.78119996054494 491.73117070892823 79.52374338698581 494.7499246114545 86.43877632318069 497.7686785139807 93.35380925937557 499.7520706184298 98.30030616362507 501.7354627228788 103.24680306787455 503.97845452011916 109.93314314356257 506.22144631735944 116.61948321925058 508.08661320213514 123.58147139007676 509.9517800869109 130.54345956090293 511.9771176551682 138.9331128821737 514.0024552234255 147.3227662034445 514.7009055451036 154.6449607868724 515.3993558667818 161.96715537030025 515.8816364379434 169.9023842336815 516.3639170091049 177.83761309706273 516.5211952466353 186.9769472487689 516.6784734841658 196.1162814004751 516.1113682892833 203.343597899018 515.5442630944009 210.5709143975609 514.6032371387955 218.82649083228105 513.6622111831902 227.0820672670012 512.3408356176813 233.75683491012956 511.01946005217246 240.43160255325793 509.0599310247245 246.6174172750881 507.1004019972766 252.8032319969182 504.19499131104067 261.67674157230846 501.2895806248048 270.5502511476987 496.9846457194477 279.7792414626374 492.6797108140906 289.00823177757616 492.670166015625 289.0052490234375 Z" fill="hsl(0, 0%, 0%)"></path><path d="M 603.6564803842132 293.188356820168 Q 603.6564803842132 293.188356820168 605.6880039443847 285.17603898309187 607.7195275045563 277.16372114601575 611.5434903576788 269.6069963348581 615.3674532108015 262.0502715237005 619.3273410270815 256.3489954154894 623.2872288433616 250.64771930727838 628.3491332709659 244.77081535469136 633.4110376985703 238.89391140210432 639.5626561747574 233.92586495596566 645.7142746509446 228.95781850982698 650.440009142656 226.8164239300751 655.1657436343673 224.67502935032323 663.8082893453982 222.8986097715875 672.450835056429 221.12219019285178 679.7723817836951 222.09377754951925 687.0939285109612 223.0653649061867 693.5472829856212 226.20671059120423 700.0006374602813 229.34805627622174 703.8130392232547 232.87022030750586 707.6254409862281 236.39238433878998 713.1378758947731 242.8595442217865 718.6503108033181 249.32670410478303 721.2259455727992 254.17528281857426 723.8015803422802 259.0238615323655 727.4595329001702 267.5525612765165 731.1174854580602 276.0812610206675 732.5882457382766 281.3922981073138 734.059006018493 286.70333519396013 736.3790936485454 296.4763662186889 738.6991812785977 306.2493972434177 739.9232415590102 315.6412413006442 741.1473018394227 325.03308535787073 740.907757844662 330.70108935893325 740.6682138499012 336.36909335999576 738.6728671858041 346.75141439183255 736.6775205217068 357.13373542366935 733.4918887694 365.22509001638196 730.3062570170932 373.3164446090945 727.0360708483881 378.2467470101442 723.7658846796829 383.1770494111939 715.3451786191808 391.1252062431382 706.9244725586789 399.0733630750826 702.1221201670476 402.0442513363012 697.3197677754163 405.0151395975198 692.5711265917035 407.3414258609671 687.8224854079908 409.6677121244144 681.3026185886218 411.50121070084316 674.7827517692529 413.33470927727194 669.2187627896425 414.1754826520279 663.6547738100321 415.0162560267839 658.448733993811 415.24322093452497 653.2426941775899 415.47018584226606 647.3860317286164 415.19007695217516 641.5293692796429 414.90996806208426 631.7619443887613 413.05464899065527 621.9945194978797 411.1993299192263 615.1656737071895 409.2592252111307 608.3368279164994 407.31912050303515 601.8679854926568 404.6787922684853 595.399143068814 402.0384640339355 592.9918859458494 400.81798571945694 590.5846288228847 399.5975074049784 590.5854797850375 399.5925803507454 590.5863307471901 399.5876532965124 590.5871817093428 399.5827262422795 590.5880326714955 399.57779918804647 593.153267320005 399.21613064145976 595.7185019685146 398.85446209487304 602.3952323668234 398.239438626531 609.0719627651323 397.624415158189 616.6036385882809 397.3967714558678 624.1353144114295 397.16912775354666 632.6212783009373 397.21110019738006 641.1072421904453 397.25307264121346 646.5259803717429 396.7007181497918 651.9447185530404 396.1483636583701 660.3782290680954 395.06828197189066 668.8117395831503 393.98820028541127 673.7193762200025 392.27524690068185 678.6270128568547 390.56229351595243 686.1461497127823 386.38089292976576 693.6652865687099 382.1994923435791 699.499137062988 376.5885301037616 705.3329875572662 370.9775678639442 709.0618522015923 364.4218436427156 712.7907168459185 357.866119421487 715.2494867401269 350.68565280986047 717.7082566343355 343.5051861982339 718.1562100213216 335.1845887050332 718.6041634083078 326.8639912118325 717.6018667523039 319.0061753976173 716.5995700962999 311.14835958340217 714.1772676331407 302.3396069340596 711.7549651699816 293.53085428471707 709.023710111886 285.764829142832 706.2924550537903 277.99880400094696 702.316506682627 270.73001842543306 698.3405583114637 263.4612328499191 694.3900185232944 258.74526091084476 690.439478735125 254.0292889717704 685.4561487189545 250.04067233282137 680.472818702784 246.05205569387238 674.8956284752458 244.92237654161238 669.3184382477074 243.79269738935238 663.4057435949535 245.7935274302717 657.4930489421997 247.79435747119103 652.1065921844629 251.15996517862163 646.7201354267262 254.52557288605226 641.5709960365423 258.7025550446782 636.4218566463585 262.8795372033042 631.8508249696936 266.7557125064164 627.2797932930285 270.63188780952856 621.8743940636698 276.68173424118027 616.4689948343109 282.7315806728319 610.0711742172364 287.96533751226946 603.6733536001618 293.199094351707 603.6649169921875 293.1937255859375 Z" fill="hsl(0, 0%, 0%)"></path><path d="M 464.40731663686074 471.20761054186676 Q 464.40731663686074 471.20761054186676 463.6065399170925 478.41533759498805 462.8057631973243 485.6230646481093 460.4957454842637 492.662348523661 458.1857277712031 499.70163239921277 455.52552253004285 505.9469956701339 452.8653172888825 512.192358941055 448.94379083155184 518.914251692094 445.02226437422115 525.6361444431332 441.6546305788869 530.827987032454 438.2869967835526 536.0198296217748 434.6441803360447 540.3858189517241 431.00136388853684 544.7518082816734 427.44712937445024 548.6918360125071 423.89289486036364 552.6318637433408 417.8968459605286 556.9666137611956 411.9007970606936 561.3013637790505 404.14038545229255 565.0428652899069 396.37997384389143 568.7843668007633 389.8038969783165 571.671569307872 383.22782011274154 574.5587718149807 377.2174177888496 576.6101140291049 371.2070154649577 578.6614562432292 365.97264976140923 580.2565952435281 360.7382840578608 581.851734243827 355.5963822006481 582.9932230204085 350.45448034343536 584.1347117969901 340.46795660126213 585.2636949275753 330.48143285908895 586.3926780581605 322.9569105617004 587.7928786833686 315.4323882643119 589.1930793085768 306.1709339870235 591.2835044429085 296.9094797097351 593.3739295772401 289.90977603593836 595.7930895507202 282.91007236214165 598.2122495242004 276.56613888886795 601.6011357939249 270.2222054155943 604.9900220636493 264.16204020434304 609.3984488661688 258.1018749930918 613.8068756686883 254.03220906901572 617.3657873557648 249.96254314493962 620.9246990428413 245.38821632404017 624.3362684539367 240.81388950314076 627.747837865032 241.08893532613087 622.0956220203217 241.36398114912097 616.4434061756114 248.9480070973558 615.5906910214683 256.53203304559065 614.7379758673252 262.3429213019332 615.6196899012599 268.1538095582757 616.5014039351946 275.4314353121913 617.3898489524342 282.7090610661069 618.2782939696738 289.4894783866294 618.6997698721607 296.2698957071519 619.1212457746476 303.9591038641555 619.6363802107751 311.6483120211592 620.1515146469025 318.2354264155223 620.2819104387022 324.8225408098854 620.4123062305019 330.9325248009391 620.4241668246207 337.0425087919928 620.4360274187393 344.4550897481619 620.7055366481547 351.86767070433103 620.9750458775701 358.33003704043256 620.9934079674524 364.792403376534 621.0117700573346 371.9116024057396 620.8892861702882 379.0308014349451 620.7668022832419 385.5021007008696 620.6086484496698 391.97339996679415 620.4504946160978 397.864140665243 620.0197812311906 403.75488136369177 619.5890678462835 411.1379968929481 619.326859649778 418.52111242220434 619.0646514532727 424.59822071761084 618.4962740693654 430.6753290130174 617.9278966854582 436.44032306579174 617.5664638469555 442.2053171185661 617.2050310084526 448.5911955685459 617.0943698242777 454.97707401852574 616.9837086401029 464.83379684510305 615.8907213092598 474.6905196716804 614.7977339784167 484.3248894498822 614.3049826732331 493.9592592280841 613.8122313680494 499.7192410029696 613.716723630165 505.4792227778551 613.6212158922807 510.5133318668933 613.6619677434044 515.5474409559315 613.7027195945279 521.0211984256746 614.088155450632 526.4949558954177 614.4735913067362 533.6443638925341 614.9293203699824 540.7937718896504 615.3850494332286 546.439042811217 616.1650924265975 552.0843137327836 616.9451354199665 557.6659533119724 618.4154755154511 563.2475928911613 619.8858156109359 563.2475968071581 619.8908156094024 563.247600723155 619.8958156078688 563.2476046391519 619.9008156063353 563.2476085551486 619.9058156048018 557.7416769290534 621.4589677132792 552.2357453029581 623.0121198217565 546.9917781094557 624.1700525038159 541.7478109159534 625.3279851858753 534.1948830102772 626.4591464910595 526.641955104601 627.5903077962438 516.5038326889576 628.42252310806 506.36571027331416 629.2547384198762 500.30468987164693 629.829658099269 494.24366946997964 630.4045777786616 485.1203601752019 630.4509313801641 475.99705088042407 630.4972849816667 470.5949208268692 630.8331218978286 465.19279077331436 631.1689588139906 460.1877853380681 631.3081078082089 455.18277990282195 631.4472568024272 448.9619636450692 631.5147528764805 442.74114738731646 631.5822489505338 437.2603494778478 631.6400096608029 431.77955156837913 631.6977703710719 425.5628789140227 632.1157307489809 419.3462062596662 632.5336911268901 411.969684397936 633.1755870620482 404.5931625362059 633.8174829972064 398.4224355884687 634.0973828494853 392.2517086407316 634.3772827017642 385.92672194400814 634.4744694124904 379.6017352472847 634.5716561232165 372.1956227513258 635.0499735168717 364.78951025536685 635.528290910527 358.32507332166506 635.5436124706262 351.8606363879632 635.5589340307253 344.4408062727202 635.8212890724158 337.02097615747715 636.0836441141064 330.898260313108 636.0786713253431 324.7755444687388 636.0736985365796 318.1634323431731 636.1644863686571 311.55132021760744 636.2552742007346 303.76716270903864 636.6772134375153 295.9830052004699 637.099152674296 289.0225529402337 637.3013457547906 282.0621006799975 637.5035388352853 274.0085971095866 637.8760242713665 265.9550935391758 638.2485097074479 259.77651784937797 637.9162011974809 253.59794215958019 637.5838926875139 247.4901056966557 637.0406073301724 241.3822692337312 636.4973219728308 232.25819763237257 630.9722842365513 223.13412603101395 625.4472465002717 223.9561516376329 618.4020508609119 224.77817724425185 611.356855221552 230.3031856316074 607.7071937132816 235.82819401896296 604.0575322050114 240.6344211106087 600.6122744347008 245.44064820225447 597.1670166643902 252.9364199421808 592.2152809605468 260.43219168210715 587.2635452567033 268.8039576892428 583.4990782661786 277.1757236963784 579.7346112756538 285.14585576393284 577.717692226669 293.1159878314873 575.700773177684 303.1480121395342 573.6486028846033 313.18003644758113 571.5964325915226 321.21894034863885 570.9788689086624 329.25784424969663 570.3613052258022 335.183167517697 569.8980196753714 341.1084907856973 569.4347341249405 349.0846844663476 568.7329171227475 357.0608781469979 568.0311001205546 362.09625891773806 566.8906438471264 367.1316396884782 565.7501875736982 372.5350900091669 564.1982162301557 377.9385403298556 562.6462448866132 384.05168131366156 559.888443756197 390.1648222974676 557.1306426257809 396.6777559533498 553.2565450446672 403.1906896092319 549.3824474635535 408.11193287535764 545.7149750085741 413.0331761414833 542.0475025535948 420.2976114369233 535.1395521880581 427.56204673236334 528.2316018225215 431.19697060841145 523.7616678831217 434.8318944844596 519.291733943722 438.8868307006023 513.1968690766319 442.94176691674494 507.10200420954163 446.2994937243823 501.6072685582101 449.65722053201955 496.1125329068786 453.0068993216445 489.6950019211327 456.35657811126947 483.2774709353868 460.37254943837627 477.2391233119944 464.388520765483 471.200775688602 464.3979187011719 471.2041931152344 Z" fill="hsl(0, 0%, 0%)"></path><path d="M 381.6754150390625 561.266591796875 Q 381.6754150390625 561.266591796875 375.04962184185024 563.8060776721586 368.4238286446379 566.3455635474423 363.386724239762 566.3495236587926 358.349619834886 566.3534837701427 352.97626266553533 565.3055991463686 347.60290549618463 564.2577145225947 339.33737414241523 559.8568680870012 331.0718427886459 555.4560216514077 326.21900396227824 548.71122957013 321.3661651359106 541.9664374888522 319.84986985682997 535.4092661797977 318.33357457774935 528.8520948707431 318.7002503103379 521.9195091143902 319.06692604292647 514.9869233580371 323.82416249805885 507.881754212842 328.5813989531912 500.7765850676469 336.2077365199253 495.7886565720612 343.83407408665937 490.8007280764755 351.6118295783091 489.0865144914105 359.38958506995886 487.3723009063456 365.02670368270606 487.0021747158868 370.6638222954533 486.63204852542805 377.138179032848 487.8161123208504 383.61253577024263 489.00017611627277 389.39159855556267 492.2426293913163 395.1706613408827 495.4850826663599 398.47532966386217 499.46301107790225 401.77999798684164 503.44093948944465 403.0930945175136 508.4027118500715 404.40619104818546 513.3644842106984 402.0424446651126 522.7006370872173 399.67869828203976 532.0367899637362 395.78290495772416 538.3282147022392 391.88711163340855 544.6196394407422 388.89575266018596 549.5579420819693 385.90439368696343 554.4962447231965 388.6143777241973 560.4396237171187 391.3243617614312 566.383002711041 395.2559242721696 571.4194118389414 399.18748678290797 576.455820966842 403.7415930508746 579.5582687966496 408.2956993188413 582.6607166264573 413.94722495744384 580.0944359269013 419.59875059604633 577.5281552273452 422.93216807685485 572.3769440167121 426.26558555766337 567.2257328060788 426.6829176430904 561.4359844898097 427.1002497285174 555.6462361735407 419.5060676751095 556.8848483436063 411.9118856217016 558.123460513672 404.2079335939736 560.5825424401387 396.50398156624567 563.0416243666056 387.146182673548 565.6398796915669 377.7883837808504 568.2381350165283 377.78571142554244 568.2339090826542 377.78303907023445 568.2296831487802 377.78036671492646 568.2254572149061 377.7776943596185 568.221231281032 383.59677032291427 560.6177051689397 389.41584628621 553.0141790568474 393.08328923979775 548.7651720043771 396.75073219338555 544.5161649519066 403.4968419633308 539.5032123607743 410.242951733276 534.4902597696421 416.2884893107646 532.0937624540608 422.3340268882531 529.6972651384795 429.92130509785704 530.5252781011504 437.5085833074609 531.3532910638215 443.71003416257247 536.246221942459 449.911485017684 541.1391528210964 452.68626022424723 548.4917880980397 455.4610354308105 555.8444233749829 455.23023234117437 561.1382818276202 454.99942925153823 566.4321402802574 453.25696917096946 573.1233850293361 451.5145090904007 579.8146297784148 448.1379529517735 585.3624917666052 444.76139681314635 590.9103537547958 438.54450948413114 597.5846414928413 432.32762215511593 604.2589292308869 424.0769237701294 607.7976389310146 415.82622538514283 611.3363486311423 408.495369824599 610.6725292202309 401.16451426405513 610.0087098093196 395.74375443884173 607.4596683299642 390.3229946136283 604.9106268506089 384.43828833590305 600.0266563702953 378.55358205817777 595.1426858899819 375.0154030418013 591.4417864729871 371.47722402542485 587.7408870559925 366.97521553550416 580.9895063185654 362.47320704558354 574.2381255811382 360.221046494736 566.288109604167 357.96888594388844 558.3380936271958 358.5319628429786 552.5888157337641 359.0950397420688 546.8395378403325 361.25039461683525 542.0606229134264 363.4057494916016 537.2817079865202 367.6333959436546 531.3414590248403 371.8610423957075 525.4012100631605 374.54065809252006 520.0100180683326 377.2202737893326 514.6188260735047 372.0083585354647 513.52851237085 366.79644328159674 512.4381986681951 360.557636444708 512.835550495038 354.31882960781934 513.2329023218809 348.89956460556834 516.6309317917138 343.4802996033173 520.0289612615467 342.15170844610225 525.1714835214816 340.82311728888726 530.3140057814165 342.0109322484163 536.0040620588103 343.1987472079453 541.694118336204 347.638341209293 545.8504031778618 352.07793521064065 550.0066880195196 360.2563936455502 553.0871540329136 368.43485208045973 556.1676200463077 375.0551335597611 558.7071059215914 381.6754150390625 561.246591796875 381.6754150390625 561.256591796875 Z" fill="hsl(0, 0%, 0%)"></path></svg>